# ISTRORIGAN HEXAGONAL BARRIER DOME (YEAR 4205)
# Sovereign Hexagonal Defense Shield Mesh
o Hex_Barrier_Dome
v 0.0 0.0 500.0
v 117.05 11.53 497.59
v 112.56 34.14 497.59
v 103.73 55.45 497.59
v 90.92 74.62 497.59
v 74.62 90.92 497.59
v 55.45 103.73 497.59
v 34.14 112.56 497.59
v 11.53 117.05 497.59
v -11.53 117.05 497.59
v -34.14 112.56 497.59
v -55.45 103.73 497.59
v -74.62 90.92 497.59
v -90.92 74.62 497.59
v -103.73 55.45 497.59
v -112.56 34.14 497.59
v -117.05 11.53 497.59
v -117.05 -11.53 497.59
v -112.56 -34.14 497.59
v -103.73 -55.45 497.59
v -90.92 -74.62 497.59
v -74.62 -90.92 497.59
v -55.45 -103.73 497.59
v -34.14 -112.56 497.59
v -11.53 -117.05 497.59
v 11.53 -117.05 497.59
v 34.14 -112.56 497.59
v 55.45 -103.73 497.59
v 74.62 -90.92 497.59
v 90.92 -74.62 497.59
v 103.73 -55.45 497.59
v 112.56 -34.14 497.59
v 117.05 -11.53 497.59
v 234.11 0.0 490.39
v 229.61 45.67 490.39
v 216.29 89.59 490.39
v 194.65 130.06 490.39
v 165.54 165.54 490.39
v 130.06 194.65 490.39
v 89.59 216.29 490.39
v 45.67 229.61 490.39
v 0.0 234.11 490.39
v -45.67 229.61 490.39
v -89.59 216.29 490.39
v -130.06 194.65 490.39
v -165.54 165.54 490.39
v -194.65 130.06 490.39
v -216.29 89.59 490.39
v -229.61 45.67 490.39
v -234.11 0.0 490.39
v -229.61 -45.67 490.39
v -216.29 -89.59 490.39
v -194.65 -130.06 490.39
v -165.54 -165.54 490.39
v -130.06 -194.65 490.39
v -89.59 -216.29 490.39
v -45.67 -229.61 490.39
v -0.0 -234.11 490.39
v 45.67 -229.61 490.39
v 89.59 -216.29 490.39
v 130.06 -194.65 490.39
v 165.54 -165.54 490.39
v 194.65 -130.06 490.39
v 216.29 -89.59 490.39
v 229.61 -45.67 490.39
v 346.66 34.14 478.47
v 333.34 101.12 478.47
v 307.21 164.21 478.47
v 269.27 220.99 478.47
v 220.99 269.27 478.47
v 164.21 307.21 478.47
v 101.12 333.34 478.47
v 34.14 346.66 478.47
v -34.14 346.66 478.47
v -101.12 333.34 478.47
v -164.21 307.21 478.47
v -220.99 269.27 478.47
v -269.27 220.99 478.47
v -307.21 164.21 478.47
v -333.34 101.12 478.47
v -346.66 34.14 478.47
v -346.66 -34.14 478.47
v -333.34 -101.12 478.47
v -307.21 -164.21 478.47
v -269.27 -220.99 478.47
v -220.99 -269.27 478.47
v -164.21 -307.21 478.47
v -101.12 -333.34 478.47
v -34.14 -346.66 478.47
v 34.14 -346.66 478.47
v 101.12 -333.34 478.47
v 164.21 -307.21 478.47
v 220.99 -269.27 478.47
v 269.27 -220.99 478.47
v 307.21 -164.21 478.47
v 333.34 -101.12 478.47
v 346.66 -34.14 478.47
v 459.22 0.0 461.94
v 450.4 89.59 461.94
v 424.26 175.74 461.94
v 381.83 255.13 461.94
v 324.72 324.72 461.94
v 255.13 381.83 461.94
v 175.74 424.26 461.94
v 89.59 450.4 461.94
v 0.0 459.22 461.94
v -89.59 450.4 461.94
v -175.74 424.26 461.94
v -255.13 381.83 461.94
v -324.72 324.72 461.94
v -381.83 255.13 461.94
v -424.26 175.74 461.94
v -450.4 89.59 461.94
v -459.22 0.0 461.94
v -450.4 -89.59 461.94
v -424.26 -175.74 461.94
v -381.83 -255.13 461.94
v -324.72 -324.72 461.94
v -255.13 -381.83 461.94
v -175.74 -424.26 461.94
v -89.59 -450.4 461.94
v -0.0 -459.22 461.94
v 89.59 -450.4 461.94
v 175.74 -424.26 461.94
v 255.13 -381.83 461.94
v 324.72 -324.72 461.94
v 381.83 -255.13 461.94
v 424.26 -175.74 461.94
v 450.4 -89.59 461.94
v 562.95 55.45 440.96
v 541.32 164.21 440.96
v 498.88 266.66 440.96
v 437.27 358.86 440.96
v 358.86 437.27 440.96
v 266.66 498.88 440.96
v 164.21 541.32 440.96
v 55.45 562.95 440.96
v -55.45 562.95 440.96
v -164.21 541.32 440.96
v -266.66 498.88 440.96
v -358.86 437.27 440.96
v -437.27 358.86 440.96
v -498.88 266.66 440.96
v -541.32 164.21 440.96
v -562.95 55.45 440.96
v -562.95 -55.45 440.96
v -541.32 -164.21 440.96
v -498.88 -266.66 440.96
v -437.27 -358.86 440.96
v -358.86 -437.27 440.96
v -266.66 -498.88 440.96
v -164.21 -541.32 440.96
v -55.45 -562.95 440.96
v 55.45 -562.95 440.96
v 164.21 -541.32 440.96
v 266.66 -498.88 440.96
v 358.86 -437.27 440.96
v 437.27 -358.86 440.96
v 498.88 -266.66 440.96
v 541.32 -164.21 440.96
v 562.95 -55.45 440.96
v 666.68 0.0 415.73
v 653.87 130.06 415.73
v 615.94 255.13 415.73
v 554.33 370.39 415.73
v 471.42 471.42 415.73
v 370.39 554.33 415.73
v 255.13 615.94 415.73
v 130.06 653.87 415.73
v 0.0 666.68 415.73
v -130.06 653.87 415.73
v -255.13 615.94 415.73
v -370.39 554.33 415.73
v -471.42 471.42 415.73
v -554.33 370.39 415.73
v -615.94 255.13 415.73
v -653.87 130.06 415.73
v -666.68 0.0 415.73
v -653.87 -130.06 415.73
v -615.94 -255.13 415.73
v -554.33 -370.39 415.73
v -471.42 -471.42 415.73
v -370.39 -554.33 415.73
v -255.13 -615.94 415.73
v -130.06 -653.87 415.73
v -0.0 -666.68 415.73
v 130.06 -653.87 415.73
v 255.13 -615.94 415.73
v 370.39 -554.33 415.73
v 471.42 -471.42 415.73
v 554.33 -370.39 415.73
v 615.94 -255.13 415.73
v 653.87 -130.06 415.73
v 757.61 74.62 386.51
v 728.49 220.99 386.51
v 671.38 358.86 386.51
v 588.47 482.95 386.51
v 482.95 588.47 386.51
v 358.86 671.38 386.51
v 220.99 728.49 386.51
v 74.62 757.61 386.51
v -74.62 757.61 386.51
v -220.99 728.49 386.51
v -358.86 671.38 386.51
v -482.95 588.47 386.51
v -588.47 482.95 386.51
v -671.38 358.86 386.51
v -728.49 220.99 386.51
v -757.61 74.62 386.51
v -757.61 -74.62 386.51
v -728.49 -220.99 386.51
v -671.38 -358.86 386.51
v -588.47 -482.95 386.51
v -482.95 -588.47 386.51
v -358.86 -671.38 386.51
v -220.99 -728.49 386.51
v -74.62 -757.61 386.51
v 74.62 -757.61 386.51
v 220.99 -728.49 386.51
v 358.86 -671.38 386.51
v 482.95 -588.47 386.51
v 588.47 -482.95 386.51
v 671.38 -358.86 386.51
v 728.49 -220.99 386.51
v 757.61 -74.62 386.51
v 848.53 0.0 353.55
v 832.22 165.54 353.55
v 783.94 324.72 353.55
v 705.53 471.42 353.55
v 600.0 600.0 353.55
v 471.42 705.53 353.55
v 324.72 783.94 353.55
v 165.54 832.22 353.55
v 0.0 848.53 353.55
v -165.54 832.22 353.55
v -324.72 783.94 353.55
v -471.42 705.53 353.55
v -600.0 600.0 353.55
v -705.53 471.42 353.55
v -783.94 324.72 353.55
v -832.22 165.54 353.55
v -848.53 0.0 353.55
v -832.22 -165.54 353.55
v -783.94 -324.72 353.55
v -705.53 -471.42 353.55
v -600.0 -600.0 353.55
v -471.42 -705.53 353.55
v -324.72 -783.94 353.55
v -165.54 -832.22 353.55
v -0.0 -848.53 353.55
v 165.54 -832.22 353.55
v 324.72 -783.94 353.55
v 471.42 -705.53 353.55
v 600.0 -600.0 353.55
v 705.53 -471.42 353.55
v 783.94 -324.72 353.55
v 832.22 -165.54 353.55
v 923.15 90.92 317.2
v 887.67 269.27 317.2
v 818.08 437.27 317.2
v 717.05 588.47 317.2
v 588.47 717.05 317.2
v 437.27 818.08 317.2
v 269.27 887.67 317.2
v 90.92 923.15 317.2
v -90.92 923.15 317.2
v -269.27 887.67 317.2
v -437.27 818.08 317.2
v -588.47 717.05 317.2
v -717.05 588.47 317.2
v -818.08 437.27 317.2
v -887.67 269.27 317.2
v -923.15 90.92 317.2
v -923.15 -90.92 317.2
v -887.67 -269.27 317.2
v -818.08 -437.27 317.2
v -717.05 -588.47 317.2
v -588.47 -717.05 317.2
v -437.27 -818.08 317.2
v -269.27 -887.67 317.2
v -90.92 -923.15 317.2
v 90.92 -923.15 317.2
v 269.27 -887.67 317.2
v 437.27 -818.08 317.2
v 588.47 -717.05 317.2
v 717.05 -588.47 317.2
v 818.08 -437.27 317.2
v 887.67 -269.27 317.2
v 923.15 -90.92 317.2
v 997.76 0.0 277.79
v 978.59 194.65 277.79
v 921.81 381.83 277.79
v 829.61 554.33 277.79
v 705.53 705.53 277.79
v 554.33 829.61 277.79
v 381.83 921.81 277.79
v 194.65 978.59 277.79
v 0.0 997.76 277.79
v -194.65 978.59 277.79
v -381.83 921.81 277.79
v -554.33 829.61 277.79
v -705.53 705.53 277.79
v -829.61 554.33 277.79
v -921.81 381.83 277.79
v -978.59 194.65 277.79
v -997.76 0.0 277.79
v -978.59 -194.65 277.79
v -921.81 -381.83 277.79
v -829.61 -554.33 277.79
v -705.53 -705.53 277.79
v -554.33 -829.61 277.79
v -381.83 -921.81 277.79
v -194.65 -978.59 277.79
v -0.0 -997.76 277.79
v 194.65 -978.59 277.79
v 381.83 -921.81 277.79
v 554.33 -829.61 277.79
v 705.53 -705.53 277.79
v 829.61 -554.33 277.79
v 921.81 -381.83 277.79
v 978.59 -194.65 277.79
v 1053.21 103.73 235.7
v 1012.74 307.21 235.7
v 933.34 498.88 235.7
v 818.08 671.38 235.7
v 671.38 818.08 235.7
v 498.88 933.34 235.7
v 307.21 1012.74 235.7
v 103.73 1053.21 235.7
v -103.73 1053.21 235.7
v -307.21 1012.74 235.7
v -498.88 933.34 235.7
v -671.38 818.08 235.7
v -818.08 671.38 235.7
v -933.34 498.88 235.7
v -1012.74 307.21 235.7
v -1053.21 103.73 235.7
v -1053.21 -103.73 235.7
v -1012.74 -307.21 235.7
v -933.34 -498.88 235.7
v -818.08 -671.38 235.7
v -671.38 -818.08 235.7
v -498.88 -933.34 235.7
v -307.21 -1012.74 235.7
v -103.73 -1053.21 235.7
v 103.73 -1053.21 235.7
v 307.21 -1012.74 235.7
v 498.88 -933.34 235.7
v 671.38 -818.08 235.7
v 818.08 -671.38 235.7
v 933.34 -498.88 235.7
v 1012.74 -307.21 235.7
v 1053.21 -103.73 235.7
v 1108.66 0.0 191.34
v 1087.35 216.29 191.34
v 1024.26 424.26 191.34
v 921.81 615.94 191.34
v 783.94 783.94 191.34
v 615.94 921.81 191.34
v 424.26 1024.26 191.34
v 216.29 1087.35 191.34
v 0.0 1108.66 191.34
v -216.29 1087.35 191.34
v -424.26 1024.26 191.34
v -615.94 921.81 191.34
v -783.94 783.94 191.34
v -921.81 615.94 191.34
v -1024.26 424.26 191.34
v -1087.35 216.29 191.34
v -1108.66 0.0 191.34
v -1087.35 -216.29 191.34
v -1024.26 -424.26 191.34
v -921.81 -615.94 191.34
v -783.94 -783.94 191.34
v -615.94 -921.81 191.34
v -424.26 -1024.26 191.34
v -216.29 -1087.35 191.34
v -0.0 -1108.66 191.34
v 216.29 -1087.35 191.34
v 424.26 -1024.26 191.34
v 615.94 -921.81 191.34
v 783.94 -783.94 191.34
v 921.81 -615.94 191.34
v 1024.26 -424.26 191.34
v 1087.35 -216.29 191.34
v 1142.8 112.56 145.14
v 1098.88 333.34 145.14
v 1012.74 541.32 145.14
v 887.67 728.49 145.14
v 728.49 887.67 145.14
v 541.32 1012.74 145.14
v 333.34 1098.88 145.14
v 112.56 1142.8 145.14
v -112.56 1142.8 145.14
v -333.34 1098.88 145.14
v -541.32 1012.74 145.14
v -728.49 887.67 145.14
v -887.67 728.49 145.14
v -1012.74 541.32 145.14
v -1098.88 333.34 145.14
v -1142.8 112.56 145.14
v -1142.8 -112.56 145.14
v -1098.88 -333.34 145.14
v -1012.74 -541.32 145.14
v -887.67 -728.49 145.14
v -728.49 -887.67 145.14
v -541.32 -1012.74 145.14
v -333.34 -1098.88 145.14
v -112.56 -1142.8 145.14
v 112.56 -1142.8 145.14
v 333.34 -1098.88 145.14
v 541.32 -1012.74 145.14
v 728.49 -887.67 145.14
v 887.67 -728.49 145.14
v 1012.74 -541.32 145.14
v 1098.88 -333.34 145.14
v 1142.8 -112.56 145.14
v 1176.94 0.0 97.55
v 1154.33 229.61 97.55
v 1087.35 450.4 97.55
v 978.59 653.87 97.55
v 832.22 832.22 97.55
v 653.87 978.59 97.55
v 450.4 1087.35 97.55
v 229.61 1154.33 97.55
v 0.0 1176.94 97.55
v -229.61 1154.33 97.55
v -450.4 1087.35 97.55
v -653.87 978.59 97.55
v -832.22 832.22 97.55
v -978.59 653.87 97.55
v -1087.35 450.4 97.55
v -1154.33 229.61 97.55
v -1176.94 0.0 97.55
v -1154.33 -229.61 97.55
v -1087.35 -450.4 97.55
v -978.59 -653.87 97.55
v -832.22 -832.22 97.55
v -653.87 -978.59 97.55
v -450.4 -1087.35 97.55
v -229.61 -1154.33 97.55
v -0.0 -1176.94 97.55
v 229.61 -1154.33 97.55
v 450.4 -1087.35 97.55
v 653.87 -978.59 97.55
v 832.22 -832.22 97.55
v 978.59 -653.87 97.55
v 1087.35 -450.4 97.55
v 1154.33 -229.61 97.55
v 1188.47 117.05 49.01
v 1142.8 346.66 49.01
v 1053.21 562.95 49.01
v 923.15 757.61 49.01
v 757.61 923.15 49.01
v 562.95 1053.21 49.01
v 346.66 1142.8 49.01
v 117.05 1188.47 49.01
v -117.05 1188.47 49.01
v -346.66 1142.8 49.01
v -562.95 1053.21 49.01
v -757.61 923.15 49.01
v -923.15 757.61 49.01
v -1053.21 562.95 49.01
v -1142.8 346.66 49.01
v -1188.47 117.05 49.01
v -1188.47 -117.05 49.01
v -1142.8 -346.66 49.01
v -1053.21 -562.95 49.01
v -923.15 -757.61 49.01
v -757.61 -923.15 49.01
v -562.95 -1053.21 49.01
v -346.66 -1142.8 49.01
v -117.05 -1188.47 49.01
v 117.05 -1188.47 49.01
v 346.66 -1142.8 49.01
v 562.95 -1053.21 49.01
v 757.61 -923.15 49.01
v 923.15 -757.61 49.01
v 1053.21 -562.95 49.01
v 1142.8 -346.66 49.01
v 1188.47 -117.05 49.01
v 1200.0 0.0 0.0
v 1176.94 234.11 0.0
v 1108.66 459.22 0.0
v 997.76 666.68 0.0
v 848.53 848.53 0.0
v 666.68 997.76 0.0
v 459.22 1108.66 0.0
v 234.11 1176.94 0.0
v 0.0 1200.0 0.0
v -234.11 1176.94 0.0
v -459.22 1108.66 0.0
v -666.68 997.76 0.0
v -848.53 848.53 0.0
v -997.76 666.68 0.0
v -1108.66 459.22 0.0
v -1176.94 234.11 0.0
v -1200.0 0.0 0.0
v -1176.94 -234.11 0.0
v -1108.66 -459.22 0.0
v -997.76 -666.68 0.0
v -848.53 -848.53 0.0
v -666.68 -997.76 0.0
v -459.22 -1108.66 0.0
v -234.11 -1176.94 0.0
v -0.0 -1200.0 0.0
v 234.11 -1176.94 0.0
v 459.22 -1108.66 0.0
v 666.68 -997.76 0.0
v 848.53 -848.53 0.0
v 997.76 -666.68 0.0
v 1108.66 -459.22 0.0
v 1176.94 -234.11 0.0
vt 0.5 0.5
vt 0.5488 0.5048
vt 0.5469 0.5142
vt 0.5432 0.5231
vt 0.5379 0.5311
vt 0.5311 0.5379
vt 0.5231 0.5432
vt 0.5142 0.5469
vt 0.5048 0.5488
vt 0.4952 0.5488
vt 0.4858 0.5469
vt 0.4769 0.5432
vt 0.4689 0.5379
vt 0.4621 0.5311
vt 0.4568 0.5231
vt 0.4531 0.5142
vt 0.4512 0.5048
vt 0.4512 0.4952
vt 0.4531 0.4858
vt 0.4568 0.4769
vt 0.4621 0.4689
vt 0.4689 0.4621
vt 0.4769 0.4568
vt 0.4858 0.4531
vt 0.4952 0.4512
vt 0.5048 0.4512
vt 0.5142 0.4531
vt 0.5231 0.4568
vt 0.5311 0.4621
vt 0.5379 0.4689
vt 0.5432 0.4769
vt 0.5469 0.4858
vt 0.5488 0.4952
vt 0.5975 0.5
vt 0.5957 0.519
vt 0.5901 0.5373
vt 0.5811 0.5542
vt 0.569 0.569
vt 0.5542 0.5811
vt 0.5373 0.5901
vt 0.519 0.5957
vt 0.5 0.5975
vt 0.481 0.5957
vt 0.4627 0.5901
vt 0.4458 0.5811
vt 0.431 0.569
vt 0.4189 0.5542
vt 0.4099 0.5373
vt 0.4043 0.519
vt 0.4025 0.5
vt 0.4043 0.481
vt 0.4099 0.4627
vt 0.4189 0.4458
vt 0.431 0.431
vt 0.4458 0.4189
vt 0.4627 0.4099
vt 0.481 0.4043
vt 0.5 0.4025
vt 0.519 0.4043
vt 0.5373 0.4099
vt 0.5542 0.4189
vt 0.569 0.431
vt 0.5811 0.4458
vt 0.5901 0.4627
vt 0.5957 0.481
vt 0.6444 0.5142
vt 0.6389 0.5421
vt 0.628 0.5684
vt 0.6122 0.5921
vt 0.5921 0.6122
vt 0.5684 0.628
vt 0.5421 0.6389
vt 0.5142 0.6444
vt 0.4858 0.6444
vt 0.4579 0.6389
vt 0.4316 0.628
vt 0.4079 0.6122
vt 0.3878 0.5921
vt 0.372 0.5684
vt 0.3611 0.5421
vt 0.3556 0.5142
vt 0.3556 0.4858
vt 0.3611 0.4579
vt 0.372 0.4316
vt 0.3878 0.4079
vt 0.4079 0.3878
vt 0.4316 0.372
vt 0.4579 0.3611
vt 0.4858 0.3556
vt 0.5142 0.3556
vt 0.5421 0.3611
vt 0.5684 0.372
vt 0.5921 0.3878
vt 0.6122 0.4079
vt 0.628 0.4316
vt 0.6389 0.4579
vt 0.6444 0.4858
vt 0.6913 0.5
vt 0.6877 0.5373
vt 0.6768 0.5732
vt 0.6591 0.6063
vt 0.6353 0.6353
vt 0.6063 0.6591
vt 0.5732 0.6768
vt 0.5373 0.6877
vt 0.5 0.6913
vt 0.4627 0.6877
vt 0.4268 0.6768
vt 0.3937 0.6591
vt 0.3647 0.6353
vt 0.3409 0.6063
vt 0.3232 0.5732
vt 0.3123 0.5373
vt 0.3087 0.5
vt 0.3123 0.4627
vt 0.3232 0.4268
vt 0.3409 0.3937
vt 0.3647 0.3647
vt 0.3937 0.3409
vt 0.4268 0.3232
vt 0.4627 0.3123
vt 0.5 0.3087
vt 0.5373 0.3123
vt 0.5732 0.3232
vt 0.6063 0.3409
vt 0.6353 0.3647
vt 0.6591 0.3937
vt 0.6768 0.4268
vt 0.6877 0.4627
vt 0.7346 0.5231
vt 0.7255 0.5684
vt 0.7079 0.6111
vt 0.6822 0.6495
vt 0.6495 0.6822
vt 0.6111 0.7079
vt 0.5684 0.7255
vt 0.5231 0.7346
vt 0.4769 0.7346
vt 0.4316 0.7255
vt 0.3889 0.7079
vt 0.3505 0.6822
vt 0.3178 0.6495
vt 0.2921 0.6111
vt 0.2745 0.5684
vt 0.2654 0.5231
vt 0.2654 0.4769
vt 0.2745 0.4316
vt 0.2921 0.3889
vt 0.3178 0.3505
vt 0.3505 0.3178
vt 0.3889 0.2921
vt 0.4316 0.2745
vt 0.4769 0.2654
vt 0.5231 0.2654
vt 0.5684 0.2745
vt 0.6111 0.2921
vt 0.6495 0.3178
vt 0.6822 0.3505
vt 0.7079 0.3889
vt 0.7255 0.4316
vt 0.7346 0.4769
vt 0.7778 0.5
vt 0.7724 0.5542
vt 0.7566 0.6063
vt 0.731 0.6543
vt 0.6964 0.6964
vt 0.6543 0.731
vt 0.6063 0.7566
vt 0.5542 0.7724
vt 0.5 0.7778
vt 0.4458 0.7724
vt 0.3937 0.7566
vt 0.3457 0.731
vt 0.3036 0.6964
vt 0.269 0.6543
vt 0.2434 0.6063
vt 0.2276 0.5542
vt 0.2222 0.5
vt 0.2276 0.4458
vt 0.2434 0.3937
vt 0.269 0.3457
vt 0.3036 0.3036
vt 0.3457 0.269
vt 0.3937 0.2434
vt 0.4458 0.2276
vt 0.5 0.2222
vt 0.5542 0.2276
vt 0.6063 0.2434
vt 0.6543 0.269
vt 0.6964 0.3036
vt 0.731 0.3457
vt 0.7566 0.3937
vt 0.7724 0.4458
vt 0.8157 0.5311
vt 0.8035 0.5921
vt 0.7797 0.6495
vt 0.7452 0.7012
vt 0.7012 0.7452
vt 0.6495 0.7797
vt 0.5921 0.8035
vt 0.5311 0.8157
vt 0.4689 0.8157
vt 0.4079 0.8035
vt 0.3505 0.7797
vt 0.2988 0.7452
vt 0.2548 0.7012
vt 0.2203 0.6495
vt 0.1965 0.5921
vt 0.1843 0.5311
vt 0.1843 0.4689
vt 0.1965 0.4079
vt 0.2203 0.3505
vt 0.2548 0.2988
vt 0.2988 0.2548
vt 0.3505 0.2203
vt 0.4079 0.1965
vt 0.4689 0.1843
vt 0.5311 0.1843
vt 0.5921 0.1965
vt 0.6495 0.2203
vt 0.7012 0.2548
vt 0.7452 0.2988
vt 0.7797 0.3505
vt 0.8035 0.4079
vt 0.8157 0.4689
vt 0.8536 0.5
vt 0.8468 0.569
vt 0.8266 0.6353
vt 0.794 0.6964
vt 0.75 0.75
vt 0.6964 0.794
vt 0.6353 0.8266
vt 0.569 0.8468
vt 0.5 0.8536
vt 0.431 0.8468
vt 0.3647 0.8266
vt 0.3036 0.794
vt 0.25 0.75
vt 0.206 0.6964
vt 0.1734 0.6353
vt 0.1532 0.569
vt 0.1464 0.5
vt 0.1532 0.431
vt 0.1734 0.3647
vt 0.206 0.3036
vt 0.25 0.25
vt 0.3036 0.206
vt 0.3647 0.1734
vt 0.431 0.1532
vt 0.5 0.1464
vt 0.569 0.1532
vt 0.6353 0.1734
vt 0.6964 0.206
vt 0.75 0.25
vt 0.794 0.3036
vt 0.8266 0.3647
vt 0.8468 0.431
vt 0.8846 0.5379
vt 0.8699 0.6122
vt 0.8409 0.6822
vt 0.7988 0.7452
vt 0.7452 0.7988
vt 0.6822 0.8409
vt 0.6122 0.8699
vt 0.5379 0.8846
vt 0.4621 0.8846
vt 0.3878 0.8699
vt 0.3178 0.8409
vt 0.2548 0.7988
vt 0.2012 0.7452
vt 0.1591 0.6822
vt 0.1301 0.6122
vt 0.1154 0.5379
vt 0.1154 0.4621
vt 0.1301 0.3878
vt 0.1591 0.3178
vt 0.2012 0.2548
vt 0.2548 0.2012
vt 0.3178 0.1591
vt 0.3878 0.1301
vt 0.4621 0.1154
vt 0.5379 0.1154
vt 0.6122 0.1301
vt 0.6822 0.1591
vt 0.7452 0.2012
vt 0.7988 0.2548
vt 0.8409 0.3178
vt 0.8699 0.3878
vt 0.8846 0.4621
vt 0.9157 0.5
vt 0.9077 0.5811
vt 0.8841 0.6591
vt 0.8457 0.731
vt 0.794 0.794
vt 0.731 0.8457
vt 0.6591 0.8841
vt 0.5811 0.9077
vt 0.5 0.9157
vt 0.4189 0.9077
vt 0.3409 0.8841
vt 0.269 0.8457
vt 0.206 0.794
vt 0.1543 0.731
vt 0.1159 0.6591
vt 0.0923 0.5811
vt 0.0843 0.5
vt 0.0923 0.4189
vt 0.1159 0.3409
vt 0.1543 0.269
vt 0.206 0.206
vt 0.269 0.1543
vt 0.3409 0.1159
vt 0.4189 0.0923
vt 0.5 0.0843
vt 0.5811 0.0923
vt 0.6591 0.1159
vt 0.731 0.1543
vt 0.794 0.206
vt 0.8457 0.269
vt 0.8841 0.3409
vt 0.9077 0.4189
vt 0.9388 0.5432
vt 0.922 0.628
vt 0.8889 0.7079
vt 0.8409 0.7797
vt 0.7797 0.8409
vt 0.7079 0.8889
vt 0.628 0.922
vt 0.5432 0.9388
vt 0.4568 0.9388
vt 0.372 0.922
vt 0.2921 0.8889
vt 0.2203 0.8409
vt 0.1591 0.7797
vt 0.1111 0.7079
vt 0.078 0.628
vt 0.0612 0.5432
vt 0.0612 0.4568
vt 0.078 0.372
vt 0.1111 0.2921
vt 0.1591 0.2203
vt 0.2203 0.1591
vt 0.2921 0.1111
vt 0.372 0.078
vt 0.4568 0.0612
vt 0.5432 0.0612
vt 0.628 0.078
vt 0.7079 0.1111
vt 0.7797 0.1591
vt 0.8409 0.2203
vt 0.8889 0.2921
vt 0.922 0.372
vt 0.9388 0.4568
vt 0.9619 0.5
vt 0.9531 0.5901
vt 0.9268 0.6768
vt 0.8841 0.7566
vt 0.8266 0.8266
vt 0.7566 0.8841
vt 0.6768 0.9268
vt 0.5901 0.9531
vt 0.5 0.9619
vt 0.4099 0.9531
vt 0.3232 0.9268
vt 0.2434 0.8841
vt 0.1734 0.8266
vt 0.1159 0.7566
vt 0.0732 0.6768
vt 0.0469 0.5901
vt 0.0381 0.5
vt 0.0469 0.4099
vt 0.0732 0.3232
vt 0.1159 0.2434
vt 0.1734 0.1734
vt 0.2434 0.1159
vt 0.3232 0.0732
vt 0.4099 0.0469
vt 0.5 0.0381
vt 0.5901 0.0469
vt 0.6768 0.0732
vt 0.7566 0.1159
vt 0.8266 0.1734
vt 0.8841 0.2434
vt 0.9268 0.3232
vt 0.9531 0.4099
vt 0.9762 0.5469
vt 0.9579 0.6389
vt 0.922 0.7255
vt 0.8699 0.8035
vt 0.8035 0.8699
vt 0.7255 0.922
vt 0.6389 0.9579
vt 0.5469 0.9762
vt 0.4531 0.9762
vt 0.3611 0.9579
vt 0.2745 0.922
vt 0.1965 0.8699
vt 0.1301 0.8035
vt 0.078 0.7255
vt 0.0421 0.6389
vt 0.0238 0.5469
vt 0.0238 0.4531
vt 0.0421 0.3611
vt 0.078 0.2745
vt 0.1301 0.1965
vt 0.1965 0.1301
vt 0.2745 0.078
vt 0.3611 0.0421
vt 0.4531 0.0238
vt 0.5469 0.0238
vt 0.6389 0.0421
vt 0.7255 0.078
vt 0.8035 0.1301
vt 0.8699 0.1965
vt 0.922 0.2745
vt 0.9579 0.3611
vt 0.9762 0.4531
vt 0.9904 0.5
vt 0.981 0.5957
vt 0.9531 0.6877
vt 0.9077 0.7724
vt 0.8468 0.8468
vt 0.7724 0.9077
vt 0.6877 0.9531
vt 0.5957 0.981
vt 0.5 0.9904
vt 0.4043 0.981
vt 0.3123 0.9531
vt 0.2276 0.9077
vt 0.1532 0.8468
vt 0.0923 0.7724
vt 0.0469 0.6877
vt 0.019 0.5957
vt 0.0096 0.5
vt 0.019 0.4043
vt 0.0469 0.3123
vt 0.0923 0.2276
vt 0.1532 0.1532
vt 0.2276 0.0923
vt 0.3123 0.0469
vt 0.4043 0.019
vt 0.5 0.0096
vt 0.5957 0.019
vt 0.6877 0.0469
vt 0.7724 0.0923
vt 0.8468 0.1532
vt 0.9077 0.2276
vt 0.9531 0.3123
vt 0.981 0.4043
vt 0.9952 0.5488
vt 0.9762 0.6444
vt 0.9388 0.7346
vt 0.8846 0.8157
vt 0.8157 0.8846
vt 0.7346 0.9388
vt 0.6444 0.9762
vt 0.5488 0.9952
vt 0.4512 0.9952
vt 0.3556 0.9762
vt 0.2654 0.9388
vt 0.1843 0.8846
vt 0.1154 0.8157
vt 0.0612 0.7346
vt 0.0238 0.6444
vt 0.0048 0.5488
vt 0.0048 0.4512
vt 0.0238 0.3556
vt 0.0612 0.2654
vt 0.1154 0.1843
vt 0.1843 0.1154
vt 0.2654 0.0612
vt 0.3556 0.0238
vt 0.4512 0.0048
vt 0.5488 0.0048
vt 0.6444 0.0238
vt 0.7346 0.0612
vt 0.8157 0.1154
vt 0.8846 0.1843
vt 0.9388 0.2654
vt 0.9762 0.3556
vt 0.9952 0.4512
vt 1.0 0.5
vt 0.9904 0.5975
vt 0.9619 0.6913
vt 0.9157 0.7778
vt 0.8536 0.8536
vt 0.7778 0.9157
vt 0.6913 0.9619
vt 0.5975 0.9904
vt 0.5 1.0
vt 0.4025 0.9904
vt 0.3087 0.9619
vt 0.2222 0.9157
vt 0.1464 0.8536
vt 0.0843 0.7778
vt 0.0381 0.6913
vt 0.0096 0.5975
vt 0.0 0.5
vt 0.0096 0.4025
vt 0.0381 0.3087
vt 0.0843 0.2222
vt 0.1464 0.1464
vt 0.2222 0.0843
vt 0.3087 0.0381
vt 0.4025 0.0096
vt 0.5 0.0
vt 0.5975 0.0096
vt 0.6913 0.0381
vt 0.7778 0.0843
vt 0.8536 0.1464
vt 0.9157 0.2222
vt 0.9619 0.3087
vt 0.9904 0.4025
vn 0.0 0.0 1.0
vn 0.0975 0.0096 0.9952
vn 0.0938 0.0285 0.9952
vn 0.0864 0.0462 0.9952
vn 0.0758 0.0622 0.9952
vn 0.0622 0.0758 0.9952
vn 0.0462 0.0864 0.9952
vn 0.0285 0.0938 0.9952
vn 0.0096 0.0975 0.9952
vn -0.0096 0.0975 0.9952
vn -0.0285 0.0938 0.9952
vn -0.0462 0.0864 0.9952
vn -0.0622 0.0758 0.9952
vn -0.0758 0.0622 0.9952
vn -0.0864 0.0462 0.9952
vn -0.0938 0.0285 0.9952
vn -0.0975 0.0096 0.9952
vn -0.0975 -0.0096 0.9952
vn -0.0938 -0.0285 0.9952
vn -0.0864 -0.0462 0.9952
vn -0.0758 -0.0622 0.9952
vn -0.0622 -0.0758 0.9952
vn -0.0462 -0.0864 0.9952
vn -0.0285 -0.0938 0.9952
vn -0.0096 -0.0975 0.9952
vn 0.0096 -0.0975 0.9952
vn 0.0285 -0.0938 0.9952
vn 0.0462 -0.0864 0.9952
vn 0.0622 -0.0758 0.9952
vn 0.0758 -0.0622 0.9952
vn 0.0864 -0.0462 0.9952
vn 0.0938 -0.0285 0.9952
vn 0.0975 -0.0096 0.9952
vn 0.1951 0.0 0.9808
vn 0.1913 0.0381 0.9808
vn 0.1802 0.0747 0.9808
vn 0.1622 0.1084 0.9808
vn 0.1379 0.1379 0.9808
vn 0.1084 0.1622 0.9808
vn 0.0747 0.1802 0.9808
vn 0.0381 0.1913 0.9808
vn 0.0 0.1951 0.9808
vn -0.0381 0.1913 0.9808
vn -0.0747 0.1802 0.9808
vn -0.1084 0.1622 0.9808
vn -0.1379 0.1379 0.9808
vn -0.1622 0.1084 0.9808
vn -0.1802 0.0747 0.9808
vn -0.1913 0.0381 0.9808
vn -0.1951 0.0 0.9808
vn -0.1913 -0.0381 0.9808
vn -0.1802 -0.0747 0.9808
vn -0.1622 -0.1084 0.9808
vn -0.1379 -0.1379 0.9808
vn -0.1084 -0.1622 0.9808
vn -0.0747 -0.1802 0.9808
vn -0.0381 -0.1913 0.9808
vn -0.0 -0.1951 0.9808
vn 0.0381 -0.1913 0.9808
vn 0.0747 -0.1802 0.9808
vn 0.1084 -0.1622 0.9808
vn 0.1379 -0.1379 0.9808
vn 0.1622 -0.1084 0.9808
vn 0.1802 -0.0747 0.9808
vn 0.1913 -0.0381 0.9808
vn 0.2889 0.0285 0.9569
vn 0.2778 0.0843 0.9569
vn 0.256 0.1368 0.9569
vn 0.2244 0.1842 0.9569
vn 0.1842 0.2244 0.9569
vn 0.1368 0.256 0.9569
vn 0.0843 0.2778 0.9569
vn 0.0285 0.2889 0.9569
vn -0.0285 0.2889 0.9569
vn -0.0843 0.2778 0.9569
vn -0.1368 0.256 0.9569
vn -0.1842 0.2244 0.9569
vn -0.2244 0.1842 0.9569
vn -0.256 0.1368 0.9569
vn -0.2778 0.0843 0.9569
vn -0.2889 0.0285 0.9569
vn -0.2889 -0.0285 0.9569
vn -0.2778 -0.0843 0.9569
vn -0.256 -0.1368 0.9569
vn -0.2244 -0.1842 0.9569
vn -0.1842 -0.2244 0.9569
vn -0.1368 -0.256 0.9569
vn -0.0843 -0.2778 0.9569
vn -0.0285 -0.2889 0.9569
vn 0.0285 -0.2889 0.9569
vn 0.0843 -0.2778 0.9569
vn 0.1368 -0.256 0.9569
vn 0.1842 -0.2244 0.9569
vn 0.2244 -0.1842 0.9569
vn 0.256 -0.1368 0.9569
vn 0.2778 -0.0843 0.9569
vn 0.2889 -0.0285 0.9569
vn 0.3827 0.0 0.9239
vn 0.3753 0.0747 0.9239
vn 0.3536 0.1464 0.9239
vn 0.3182 0.2126 0.9239
vn 0.2706 0.2706 0.9239
vn 0.2126 0.3182 0.9239
vn 0.1464 0.3536 0.9239
vn 0.0747 0.3753 0.9239
vn 0.0 0.3827 0.9239
vn -0.0747 0.3753 0.9239
vn -0.1464 0.3536 0.9239
vn -0.2126 0.3182 0.9239
vn -0.2706 0.2706 0.9239
vn -0.3182 0.2126 0.9239
vn -0.3536 0.1464 0.9239
vn -0.3753 0.0747 0.9239
vn -0.3827 0.0 0.9239
vn -0.3753 -0.0747 0.9239
vn -0.3536 -0.1464 0.9239
vn -0.3182 -0.2126 0.9239
vn -0.2706 -0.2706 0.9239
vn -0.2126 -0.3182 0.9239
vn -0.1464 -0.3536 0.9239
vn -0.0747 -0.3753 0.9239
vn -0.0 -0.3827 0.9239
vn 0.0747 -0.3753 0.9239
vn 0.1464 -0.3536 0.9239
vn 0.2126 -0.3182 0.9239
vn 0.2706 -0.2706 0.9239
vn 0.3182 -0.2126 0.9239
vn 0.3536 -0.1464 0.9239
vn 0.3753 -0.0747 0.9239
vn 0.4691 0.0462 0.8819
vn 0.4511 0.1368 0.8819
vn 0.4157 0.2222 0.8819
vn 0.3644 0.2991 0.8819
vn 0.2991 0.3644 0.8819
vn 0.2222 0.4157 0.8819
vn 0.1368 0.4511 0.8819
vn 0.0462 0.4691 0.8819
vn -0.0462 0.4691 0.8819
vn -0.1368 0.4511 0.8819
vn -0.2222 0.4157 0.8819
vn -0.2991 0.3644 0.8819
vn -0.3644 0.2991 0.8819
vn -0.4157 0.2222 0.8819
vn -0.4511 0.1368 0.8819
vn -0.4691 0.0462 0.8819
vn -0.4691 -0.0462 0.8819
vn -0.4511 -0.1368 0.8819
vn -0.4157 -0.2222 0.8819
vn -0.3644 -0.2991 0.8819
vn -0.2991 -0.3644 0.8819
vn -0.2222 -0.4157 0.8819
vn -0.1368 -0.4511 0.8819
vn -0.0462 -0.4691 0.8819
vn 0.0462 -0.4691 0.8819
vn 0.1368 -0.4511 0.8819
vn 0.2222 -0.4157 0.8819
vn 0.2991 -0.3644 0.8819
vn 0.3644 -0.2991 0.8819
vn 0.4157 -0.2222 0.8819
vn 0.4511 -0.1368 0.8819
vn 0.4691 -0.0462 0.8819
vn 0.5556 0.0 0.8315
vn 0.5449 0.1084 0.8315
vn 0.5133 0.2126 0.8315
vn 0.4619 0.3087 0.8315
vn 0.3928 0.3928 0.8315
vn 0.3087 0.4619 0.8315
vn 0.2126 0.5133 0.8315
vn 0.1084 0.5449 0.8315
vn 0.0 0.5556 0.8315
vn -0.1084 0.5449 0.8315
vn -0.2126 0.5133 0.8315
vn -0.3087 0.4619 0.8315
vn -0.3928 0.3928 0.8315
vn -0.4619 0.3087 0.8315
vn -0.5133 0.2126 0.8315
vn -0.5449 0.1084 0.8315
vn -0.5556 0.0 0.8315
vn -0.5449 -0.1084 0.8315
vn -0.5133 -0.2126 0.8315
vn -0.4619 -0.3087 0.8315
vn -0.3928 -0.3928 0.8315
vn -0.3087 -0.4619 0.8315
vn -0.2126 -0.5133 0.8315
vn -0.1084 -0.5449 0.8315
vn -0.0 -0.5556 0.8315
vn 0.1084 -0.5449 0.8315
vn 0.2126 -0.5133 0.8315
vn 0.3087 -0.4619 0.8315
vn 0.3928 -0.3928 0.8315
vn 0.4619 -0.3087 0.8315
vn 0.5133 -0.2126 0.8315
vn 0.5449 -0.1084 0.8315
vn 0.6313 0.0622 0.773
vn 0.6071 0.1842 0.773
vn 0.5595 0.2991 0.773
vn 0.4904 0.4025 0.773
vn 0.4025 0.4904 0.773
vn 0.2991 0.5595 0.773
vn 0.1842 0.6071 0.773
vn 0.0622 0.6313 0.773
vn -0.0622 0.6313 0.773
vn -0.1842 0.6071 0.773
vn -0.2991 0.5595 0.773
vn -0.4025 0.4904 0.773
vn -0.4904 0.4025 0.773
vn -0.5595 0.2991 0.773
vn -0.6071 0.1842 0.773
vn -0.6313 0.0622 0.773
vn -0.6313 -0.0622 0.773
vn -0.6071 -0.1842 0.773
vn -0.5595 -0.2991 0.773
vn -0.4904 -0.4025 0.773
vn -0.4025 -0.4904 0.773
vn -0.2991 -0.5595 0.773
vn -0.1842 -0.6071 0.773
vn -0.0622 -0.6313 0.773
vn 0.0622 -0.6313 0.773
vn 0.1842 -0.6071 0.773
vn 0.2991 -0.5595 0.773
vn 0.4025 -0.4904 0.773
vn 0.4904 -0.4025 0.773
vn 0.5595 -0.2991 0.773
vn 0.6071 -0.1842 0.773
vn 0.6313 -0.0622 0.773
vn 0.7071 0.0 0.7071
vn 0.6935 0.1379 0.7071
vn 0.6533 0.2706 0.7071
vn 0.5879 0.3928 0.7071
vn 0.5 0.5 0.7071
vn 0.3928 0.5879 0.7071
vn 0.2706 0.6533 0.7071
vn 0.1379 0.6935 0.7071
vn 0.0 0.7071 0.7071
vn -0.1379 0.6935 0.7071
vn -0.2706 0.6533 0.7071
vn -0.3928 0.5879 0.7071
vn -0.5 0.5 0.7071
vn -0.5879 0.3928 0.7071
vn -0.6533 0.2706 0.7071
vn -0.6935 0.1379 0.7071
vn -0.7071 0.0 0.7071
vn -0.6935 -0.1379 0.7071
vn -0.6533 -0.2706 0.7071
vn -0.5879 -0.3928 0.7071
vn -0.5 -0.5 0.7071
vn -0.3928 -0.5879 0.7071
vn -0.2706 -0.6533 0.7071
vn -0.1379 -0.6935 0.7071
vn -0.0 -0.7071 0.7071
vn 0.1379 -0.6935 0.7071
vn 0.2706 -0.6533 0.7071
vn 0.3928 -0.5879 0.7071
vn 0.5 -0.5 0.7071
vn 0.5879 -0.3928 0.7071
vn 0.6533 -0.2706 0.7071
vn 0.6935 -0.1379 0.7071
vn 0.7693 0.0758 0.6344
vn 0.7397 0.2244 0.6344
vn 0.6817 0.3644 0.6344
vn 0.5975 0.4904 0.6344
vn 0.4904 0.5975 0.6344
vn 0.3644 0.6817 0.6344
vn 0.2244 0.7397 0.6344
vn 0.0758 0.7693 0.6344
vn -0.0758 0.7693 0.6344
vn -0.2244 0.7397 0.6344
vn -0.3644 0.6817 0.6344
vn -0.4904 0.5975 0.6344
vn -0.5975 0.4904 0.6344
vn -0.6817 0.3644 0.6344
vn -0.7397 0.2244 0.6344
vn -0.7693 0.0758 0.6344
vn -0.7693 -0.0758 0.6344
vn -0.7397 -0.2244 0.6344
vn -0.6817 -0.3644 0.6344
vn -0.5975 -0.4904 0.6344
vn -0.4904 -0.5975 0.6344
vn -0.3644 -0.6817 0.6344
vn -0.2244 -0.7397 0.6344
vn -0.0758 -0.7693 0.6344
vn 0.0758 -0.7693 0.6344
vn 0.2244 -0.7397 0.6344
vn 0.3644 -0.6817 0.6344
vn 0.4904 -0.5975 0.6344
vn 0.5975 -0.4904 0.6344
vn 0.6817 -0.3644 0.6344
vn 0.7397 -0.2244 0.6344
vn 0.7693 -0.0758 0.6344
vn 0.8315 0.0 0.5556
vn 0.8155 0.1622 0.5556
vn 0.7682 0.3182 0.5556
vn 0.6913 0.4619 0.5556
vn 0.5879 0.5879 0.5556
vn 0.4619 0.6913 0.5556
vn 0.3182 0.7682 0.5556
vn 0.1622 0.8155 0.5556
vn 0.0 0.8315 0.5556
vn -0.1622 0.8155 0.5556
vn -0.3182 0.7682 0.5556
vn -0.4619 0.6913 0.5556
vn -0.5879 0.5879 0.5556
vn -0.6913 0.4619 0.5556
vn -0.7682 0.3182 0.5556
vn -0.8155 0.1622 0.5556
vn -0.8315 0.0 0.5556
vn -0.8155 -0.1622 0.5556
vn -0.7682 -0.3182 0.5556
vn -0.6913 -0.4619 0.5556
vn -0.5879 -0.5879 0.5556
vn -0.4619 -0.6913 0.5556
vn -0.3182 -0.7682 0.5556
vn -0.1622 -0.8155 0.5556
vn -0.0 -0.8315 0.5556
vn 0.1622 -0.8155 0.5556
vn 0.3182 -0.7682 0.5556
vn 0.4619 -0.6913 0.5556
vn 0.5879 -0.5879 0.5556
vn 0.6913 -0.4619 0.5556
vn 0.7682 -0.3182 0.5556
vn 0.8155 -0.1622 0.5556
vn 0.8777 0.0864 0.4714
vn 0.8439 0.256 0.4714
vn 0.7778 0.4157 0.4714
vn 0.6817 0.5595 0.4714
vn 0.5595 0.6817 0.4714
vn 0.4157 0.7778 0.4714
vn 0.256 0.8439 0.4714
vn 0.0864 0.8777 0.4714
vn -0.0864 0.8777 0.4714
vn -0.256 0.8439 0.4714
vn -0.4157 0.7778 0.4714
vn -0.5595 0.6817 0.4714
vn -0.6817 0.5595 0.4714
vn -0.7778 0.4157 0.4714
vn -0.8439 0.256 0.4714
vn -0.8777 0.0864 0.4714
vn -0.8777 -0.0864 0.4714
vn -0.8439 -0.256 0.4714
vn -0.7778 -0.4157 0.4714
vn -0.6817 -0.5595 0.4714
vn -0.5595 -0.6817 0.4714
vn -0.4157 -0.7778 0.4714
vn -0.256 -0.8439 0.4714
vn -0.0864 -0.8777 0.4714
vn 0.0864 -0.8777 0.4714
vn 0.256 -0.8439 0.4714
vn 0.4157 -0.7778 0.4714
vn 0.5595 -0.6817 0.4714
vn 0.6817 -0.5595 0.4714
vn 0.7778 -0.4157 0.4714
vn 0.8439 -0.256 0.4714
vn 0.8777 -0.0864 0.4714
vn 0.9239 0.0 0.3827
vn 0.9061 0.1802 0.3827
vn 0.8536 0.3536 0.3827
vn 0.7682 0.5133 0.3827
vn 0.6533 0.6533 0.3827
vn 0.5133 0.7682 0.3827
vn 0.3536 0.8536 0.3827
vn 0.1802 0.9061 0.3827
vn 0.0 0.9239 0.3827
vn -0.1802 0.9061 0.3827
vn -0.3536 0.8536 0.3827
vn -0.5133 0.7682 0.3827
vn -0.6533 0.6533 0.3827
vn -0.7682 0.5133 0.3827
vn -0.8536 0.3536 0.3827
vn -0.9061 0.1802 0.3827
vn -0.9239 0.0 0.3827
vn -0.9061 -0.1802 0.3827
vn -0.8536 -0.3536 0.3827
vn -0.7682 -0.5133 0.3827
vn -0.6533 -0.6533 0.3827
vn -0.5133 -0.7682 0.3827
vn -0.3536 -0.8536 0.3827
vn -0.1802 -0.9061 0.3827
vn -0.0 -0.9239 0.3827
vn 0.1802 -0.9061 0.3827
vn 0.3536 -0.8536 0.3827
vn 0.5133 -0.7682 0.3827
vn 0.6533 -0.6533 0.3827
vn 0.7682 -0.5133 0.3827
vn 0.8536 -0.3536 0.3827
vn 0.9061 -0.1802 0.3827
vn 0.9523 0.0938 0.2903
vn 0.9157 0.2778 0.2903
vn 0.8439 0.4511 0.2903
vn 0.7397 0.6071 0.2903
vn 0.6071 0.7397 0.2903
vn 0.4511 0.8439 0.2903
vn 0.2778 0.9157 0.2903
vn 0.0938 0.9523 0.2903
vn -0.0938 0.9523 0.2903
vn -0.2778 0.9157 0.2903
vn -0.4511 0.8439 0.2903
vn -0.6071 0.7397 0.2903
vn -0.7397 0.6071 0.2903
vn -0.8439 0.4511 0.2903
vn -0.9157 0.2778 0.2903
vn -0.9523 0.0938 0.2903
vn -0.9523 -0.0938 0.2903
vn -0.9157 -0.2778 0.2903
vn -0.8439 -0.4511 0.2903
vn -0.7397 -0.6071 0.2903
vn -0.6071 -0.7397 0.2903
vn -0.4511 -0.8439 0.2903
vn -0.2778 -0.9157 0.2903
vn -0.0938 -0.9523 0.2903
vn 0.0938 -0.9523 0.2903
vn 0.2778 -0.9157 0.2903
vn 0.4511 -0.8439 0.2903
vn 0.6071 -0.7397 0.2903
vn 0.7397 -0.6071 0.2903
vn 0.8439 -0.4511 0.2903
vn 0.9157 -0.2778 0.2903
vn 0.9523 -0.0938 0.2903
vn 0.9808 0.0 0.1951
vn 0.9619 0.1913 0.1951
vn 0.9061 0.3753 0.1951
vn 0.8155 0.5449 0.1951
vn 0.6935 0.6935 0.1951
vn 0.5449 0.8155 0.1951
vn 0.3753 0.9061 0.1951
vn 0.1913 0.9619 0.1951
vn 0.0 0.9808 0.1951
vn -0.1913 0.9619 0.1951
vn -0.3753 0.9061 0.1951
vn -0.5449 0.8155 0.1951
vn -0.6935 0.6935 0.1951
vn -0.8155 0.5449 0.1951
vn -0.9061 0.3753 0.1951
vn -0.9619 0.1913 0.1951
vn -0.9808 0.0 0.1951
vn -0.9619 -0.1913 0.1951
vn -0.9061 -0.3753 0.1951
vn -0.8155 -0.5449 0.1951
vn -0.6935 -0.6935 0.1951
vn -0.5449 -0.8155 0.1951
vn -0.3753 -0.9061 0.1951
vn -0.1913 -0.9619 0.1951
vn -0.0 -0.9808 0.1951
vn 0.1913 -0.9619 0.1951
vn 0.3753 -0.9061 0.1951
vn 0.5449 -0.8155 0.1951
vn 0.6935 -0.6935 0.1951
vn 0.8155 -0.5449 0.1951
vn 0.9061 -0.3753 0.1951
vn 0.9619 -0.1913 0.1951
vn 0.9904 0.0975 0.098
vn 0.9523 0.2889 0.098
vn 0.8777 0.4691 0.098
vn 0.7693 0.6313 0.098
vn 0.6313 0.7693 0.098
vn 0.4691 0.8777 0.098
vn 0.2889 0.9523 0.098
vn 0.0975 0.9904 0.098
vn -0.0975 0.9904 0.098
vn -0.2889 0.9523 0.098
vn -0.4691 0.8777 0.098
vn -0.6313 0.7693 0.098
vn -0.7693 0.6313 0.098
vn -0.8777 0.4691 0.098
vn -0.9523 0.2889 0.098
vn -0.9904 0.0975 0.098
vn -0.9904 -0.0975 0.098
vn -0.9523 -0.2889 0.098
vn -0.8777 -0.4691 0.098
vn -0.7693 -0.6313 0.098
vn -0.6313 -0.7693 0.098
vn -0.4691 -0.8777 0.098
vn -0.2889 -0.9523 0.098
vn -0.0975 -0.9904 0.098
vn 0.0975 -0.9904 0.098
vn 0.2889 -0.9523 0.098
vn 0.4691 -0.8777 0.098
vn 0.6313 -0.7693 0.098
vn 0.7693 -0.6313 0.098
vn 0.8777 -0.4691 0.098
vn 0.9523 -0.2889 0.098
vn 0.9904 -0.0975 0.098
vn 1.0 0.0 0.0
vn 0.9808 0.1951 0.0
vn 0.9239 0.3827 0.0
vn 0.8315 0.5556 0.0
vn 0.7071 0.7071 0.0
vn 0.5556 0.8315 0.0
vn 0.3827 0.9239 0.0
vn 0.1951 0.9808 0.0
vn 0.0 1.0 0.0
vn -0.1951 0.9808 0.0
vn -0.3827 0.9239 0.0
vn -0.5556 0.8315 0.0
vn -0.7071 0.7071 0.0
vn -0.8315 0.5556 0.0
vn -0.9239 0.3827 0.0
vn -0.9808 0.1951 0.0
vn -1.0 0.0 0.0
vn -0.9808 -0.1951 0.0
vn -0.9239 -0.3827 0.0
vn -0.8315 -0.5556 0.0
vn -0.7071 -0.7071 0.0
vn -0.5556 -0.8315 0.0
vn -0.3827 -0.9239 0.0
vn -0.1951 -0.9808 0.0
vn -0.0 -1.0 0.0
vn 0.1951 -0.9808 0.0
vn 0.3827 -0.9239 0.0
vn 0.5556 -0.8315 0.0
vn 0.7071 -0.7071 0.0
vn 0.8315 -0.5556 0.0
vn 0.9239 -0.3827 0.0
vn 0.9808 -0.1951 0.0
s 1
f 1/1/1 2/2/2 3/3/3
f 1/1/1 3/3/3 4/4/4
f 1/1/1 4/4/4 5/5/5
f 1/1/1 5/5/5 6/6/6
f 1/1/1 6/6/6 7/7/7
f 1/1/1 7/7/7 8/8/8
f 1/1/1 8/8/8 9/9/9
f 1/1/1 9/9/9 10/10/10
f 1/1/1 10/10/10 11/11/11
f 1/1/1 11/11/11 12/12/12
f 1/1/1 12/12/12 13/13/13
f 1/1/1 13/13/13 14/14/14
f 1/1/1 14/14/14 15/15/15
f 1/1/1 15/15/15 16/16/16
f 1/1/1 16/16/16 17/17/17
f 1/1/1 17/17/17 18/18/18
f 1/1/1 18/18/18 19/19/19
f 1/1/1 19/19/19 20/20/20
f 1/1/1 20/20/20 21/21/21
f 1/1/1 21/21/21 22/22/22
f 1/1/1 22/22/22 23/23/23
f 1/1/1 23/23/23 24/24/24
f 1/1/1 24/24/24 25/25/25
f 1/1/1 25/25/25 26/26/26
f 1/1/1 26/26/26 27/27/27
f 1/1/1 27/27/27 28/28/28
f 1/1/1 28/28/28 29/29/29
f 1/1/1 29/29/29 30/30/30
f 1/1/1 30/30/30 31/31/31
f 1/1/1 31/31/31 32/32/32
f 1/1/1 32/32/32 33/33/33
f 1/1/1 33/33/33 2/2/2
f 2/2/2 34/34/34 3/3/3
f 3/3/3 34/34/34 35/35/35
f 3/3/3 35/35/35 4/4/4
f 4/4/4 35/35/35 36/36/36
f 4/4/4 36/36/36 5/5/5
f 5/5/5 36/36/36 37/37/37
f 5/5/5 37/37/37 6/6/6
f 6/6/6 37/37/37 38/38/38
f 6/6/6 38/38/38 7/7/7
f 7/7/7 38/38/38 39/39/39
f 7/7/7 39/39/39 8/8/8
f 8/8/8 39/39/39 40/40/40
f 8/8/8 40/40/40 9/9/9
f 9/9/9 40/40/40 41/41/41
f 9/9/9 41/41/41 10/10/10
f 10/10/10 41/41/41 42/42/42
f 10/10/10 42/42/42 11/11/11
f 11/11/11 42/42/42 43/43/43
f 11/11/11 43/43/43 12/12/12
f 12/12/12 43/43/43 44/44/44
f 12/12/12 44/44/44 13/13/13
f 13/13/13 44/44/44 45/45/45
f 13/13/13 45/45/45 14/14/14
f 14/14/14 45/45/45 46/46/46
f 14/14/14 46/46/46 15/15/15
f 15/15/15 46/46/46 47/47/47
f 15/15/15 47/47/47 16/16/16
f 16/16/16 47/47/47 48/48/48
f 16/16/16 48/48/48 17/17/17
f 17/17/17 48/48/48 49/49/49
f 17/17/17 49/49/49 18/18/18
f 18/18/18 49/49/49 50/50/50
f 18/18/18 50/50/50 19/19/19
f 19/19/19 50/50/50 51/51/51
f 19/19/19 51/51/51 20/20/20
f 20/20/20 51/51/51 52/52/52
f 20/20/20 52/52/52 21/21/21
f 21/21/21 52/52/52 53/53/53
f 21/21/21 53/53/53 22/22/22
f 22/22/22 53/53/53 54/54/54
f 22/22/22 54/54/54 23/23/23
f 23/23/23 54/54/54 55/55/55
f 23/23/23 55/55/55 24/24/24
f 24/24/24 55/55/55 56/56/56
f 24/24/24 56/56/56 25/25/25
f 25/25/25 56/56/56 57/57/57
f 25/25/25 57/57/57 26/26/26
f 26/26/26 57/57/57 58/58/58
f 26/26/26 58/58/58 27/27/27
f 27/27/27 58/58/58 59/59/59
f 27/27/27 59/59/59 28/28/28
f 28/28/28 59/59/59 60/60/60
f 28/28/28 60/60/60 29/29/29
f 29/29/29 60/60/60 61/61/61
f 29/29/29 61/61/61 30/30/30
f 30/30/30 61/61/61 62/62/62
f 30/30/30 62/62/62 31/31/31
f 31/31/31 62/62/62 63/63/63
f 31/31/31 63/63/63 32/32/32
f 32/32/32 63/63/63 64/64/64
f 32/32/32 64/64/64 33/33/33
f 33/33/33 64/64/64 65/65/65
f 33/33/33 65/65/65 2/2/2
f 2/2/2 65/65/65 34/34/34
f 34/34/34 66/66/66 35/35/35
f 35/35/35 66/66/66 67/67/67
f 35/35/35 67/67/67 36/36/36
f 36/36/36 67/67/67 68/68/68
f 36/36/36 68/68/68 37/37/37
f 37/37/37 68/68/68 69/69/69
f 37/37/37 69/69/69 38/38/38
f 38/38/38 69/69/69 70/70/70
f 38/38/38 70/70/70 39/39/39
f 39/39/39 70/70/70 71/71/71
f 39/39/39 71/71/71 40/40/40
f 40/40/40 71/71/71 72/72/72
f 40/40/40 72/72/72 41/41/41
f 41/41/41 72/72/72 73/73/73
f 41/41/41 73/73/73 42/42/42
f 42/42/42 73/73/73 74/74/74
f 42/42/42 74/74/74 43/43/43
f 43/43/43 74/74/74 75/75/75
f 43/43/43 75/75/75 44/44/44
f 44/44/44 75/75/75 76/76/76
f 44/44/44 76/76/76 45/45/45
f 45/45/45 76/76/76 77/77/77
f 45/45/45 77/77/77 46/46/46
f 46/46/46 77/77/77 78/78/78
f 46/46/46 78/78/78 47/47/47
f 47/47/47 78/78/78 79/79/79
f 47/47/47 79/79/79 48/48/48
f 48/48/48 79/79/79 80/80/80
f 48/48/48 80/80/80 49/49/49
f 49/49/49 80/80/80 81/81/81
f 49/49/49 81/81/81 50/50/50
f 50/50/50 81/81/81 82/82/82
f 50/50/50 82/82/82 51/51/51
f 51/51/51 82/82/82 83/83/83
f 51/51/51 83/83/83 52/52/52
f 52/52/52 83/83/83 84/84/84
f 52/52/52 84/84/84 53/53/53
f 53/53/53 84/84/84 85/85/85
f 53/53/53 85/85/85 54/54/54
f 54/54/54 85/85/85 86/86/86
f 54/54/54 86/86/86 55/55/55
f 55/55/55 86/86/86 87/87/87
f 55/55/55 87/87/87 56/56/56
f 56/56/56 87/87/87 88/88/88
f 56/56/56 88/88/88 57/57/57
f 57/57/57 88/88/88 89/89/89
f 57/57/57 89/89/89 58/58/58
f 58/58/58 89/89/89 90/90/90
f 58/58/58 90/90/90 59/59/59
f 59/59/59 90/90/90 91/91/91
f 59/59/59 91/91/91 60/60/60
f 60/60/60 91/91/91 92/92/92
f 60/60/60 92/92/92 61/61/61
f 61/61/61 92/92/92 93/93/93
f 61/61/61 93/93/93 62/62/62
f 62/62/62 93/93/93 94/94/94
f 62/62/62 94/94/94 63/63/63
f 63/63/63 94/94/94 95/95/95
f 63/63/63 95/95/95 64/64/64
f 64/64/64 95/95/95 96/96/96
f 64/64/64 96/96/96 65/65/65
f 65/65/65 96/96/96 97/97/97
f 65/65/65 97/97/97 34/34/34
f 34/34/34 97/97/97 66/66/66
f 66/66/66 98/98/98 67/67/67
f 67/67/67 98/98/98 99/99/99
f 67/67/67 99/99/99 68/68/68
f 68/68/68 99/99/99 100/100/100
f 68/68/68 100/100/100 69/69/69
f 69/69/69 100/100/100 101/101/101
f 69/69/69 101/101/101 70/70/70
f 70/70/70 101/101/101 102/102/102
f 70/70/70 102/102/102 71/71/71
f 71/71/71 102/102/102 103/103/103
f 71/71/71 103/103/103 72/72/72
f 72/72/72 103/103/103 104/104/104
f 72/72/72 104/104/104 73/73/73
f 73/73/73 104/104/104 105/105/105
f 73/73/73 105/105/105 74/74/74
f 74/74/74 105/105/105 106/106/106
f 74/74/74 106/106/106 75/75/75
f 75/75/75 106/106/106 107/107/107
f 75/75/75 107/107/107 76/76/76
f 76/76/76 107/107/107 108/108/108
f 76/76/76 108/108/108 77/77/77
f 77/77/77 108/108/108 109/109/109
f 77/77/77 109/109/109 78/78/78
f 78/78/78 109/109/109 110/110/110
f 78/78/78 110/110/110 79/79/79
f 79/79/79 110/110/110 111/111/111
f 79/79/79 111/111/111 80/80/80
f 80/80/80 111/111/111 112/112/112
f 80/80/80 112/112/112 81/81/81
f 81/81/81 112/112/112 113/113/113
f 81/81/81 113/113/113 82/82/82
f 82/82/82 113/113/113 114/114/114
f 82/82/82 114/114/114 83/83/83
f 83/83/83 114/114/114 115/115/115
f 83/83/83 115/115/115 84/84/84
f 84/84/84 115/115/115 116/116/116
f 84/84/84 116/116/116 85/85/85
f 85/85/85 116/116/116 117/117/117
f 85/85/85 117/117/117 86/86/86
f 86/86/86 117/117/117 118/118/118
f 86/86/86 118/118/118 87/87/87
f 87/87/87 118/118/118 119/119/119
f 87/87/87 119/119/119 88/88/88
f 88/88/88 119/119/119 120/120/120
f 88/88/88 120/120/120 89/89/89
f 89/89/89 120/120/120 121/121/121
f 89/89/89 121/121/121 90/90/90
f 90/90/90 121/121/121 122/122/122
f 90/90/90 122/122/122 91/91/91
f 91/91/91 122/122/122 123/123/123
f 91/91/91 123/123/123 92/92/92
f 92/92/92 123/123/123 124/124/124
f 92/92/92 124/124/124 93/93/93
f 93/93/93 124/124/124 125/125/125
f 93/93/93 125/125/125 94/94/94
f 94/94/94 125/125/125 126/126/126
f 94/94/94 126/126/126 95/95/95
f 95/95/95 126/126/126 127/127/127
f 95/95/95 127/127/127 96/96/96
f 96/96/96 127/127/127 128/128/128
f 96/96/96 128/128/128 97/97/97
f 97/97/97 128/128/128 129/129/129
f 97/97/97 129/129/129 66/66/66
f 66/66/66 129/129/129 98/98/98
f 98/98/98 130/130/130 99/99/99
f 99/99/99 130/130/130 131/131/131
f 99/99/99 131/131/131 100/100/100
f 100/100/100 131/131/131 132/132/132
f 100/100/100 132/132/132 101/101/101
f 101/101/101 132/132/132 133/133/133
f 101/101/101 133/133/133 102/102/102
f 102/102/102 133/133/133 134/134/134
f 102/102/102 134/134/134 103/103/103
f 103/103/103 134/134/134 135/135/135
f 103/103/103 135/135/135 104/104/104
f 104/104/104 135/135/135 136/136/136
f 104/104/104 136/136/136 105/105/105
f 105/105/105 136/136/136 137/137/137
f 105/105/105 137/137/137 106/106/106
f 106/106/106 137/137/137 138/138/138
f 106/106/106 138/138/138 107/107/107
f 107/107/107 138/138/138 139/139/139
f 107/107/107 139/139/139 108/108/108
f 108/108/108 139/139/139 140/140/140
f 108/108/108 140/140/140 109/109/109
f 109/109/109 140/140/140 141/141/141
f 109/109/109 141/141/141 110/110/110
f 110/110/110 141/141/141 142/142/142
f 110/110/110 142/142/142 111/111/111
f 111/111/111 142/142/142 143/143/143
f 111/111/111 143/143/143 112/112/112
f 112/112/112 143/143/143 144/144/144
f 112/112/112 144/144/144 113/113/113
f 113/113/113 144/144/144 145/145/145
f 113/113/113 145/145/145 114/114/114
f 114/114/114 145/145/145 146/146/146
f 114/114/114 146/146/146 115/115/115
f 115/115/115 146/146/146 147/147/147
f 115/115/115 147/147/147 116/116/116
f 116/116/116 147/147/147 148/148/148
f 116/116/116 148/148/148 117/117/117
f 117/117/117 148/148/148 149/149/149
f 117/117/117 149/149/149 118/118/118
f 118/118/118 149/149/149 150/150/150
f 118/118/118 150/150/150 119/119/119
f 119/119/119 150/150/150 151/151/151
f 119/119/119 151/151/151 120/120/120
f 120/120/120 151/151/151 152/152/152
f 120/120/120 152/152/152 121/121/121
f 121/121/121 152/152/152 153/153/153
f 121/121/121 153/153/153 122/122/122
f 122/122/122 153/153/153 154/154/154
f 122/122/122 154/154/154 123/123/123
f 123/123/123 154/154/154 155/155/155
f 123/123/123 155/155/155 124/124/124
f 124/124/124 155/155/155 156/156/156
f 124/124/124 156/156/156 125/125/125
f 125/125/125 156/156/156 157/157/157
f 125/125/125 157/157/157 126/126/126
f 126/126/126 157/157/157 158/158/158
f 126/126/126 158/158/158 127/127/127
f 127/127/127 158/158/158 159/159/159
f 127/127/127 159/159/159 128/128/128
f 128/128/128 159/159/159 160/160/160
f 128/128/128 160/160/160 129/129/129
f 129/129/129 160/160/160 161/161/161
f 129/129/129 161/161/161 98/98/98
f 98/98/98 161/161/161 130/130/130
f 130/130/130 162/162/162 131/131/131
f 131/131/131 162/162/162 163/163/163
f 131/131/131 163/163/163 132/132/132
f 132/132/132 163/163/163 164/164/164
f 132/132/132 164/164/164 133/133/133
f 133/133/133 164/164/164 165/165/165
f 133/133/133 165/165/165 134/134/134
f 134/134/134 165/165/165 166/166/166
f 134/134/134 166/166/166 135/135/135
f 135/135/135 166/166/166 167/167/167
f 135/135/135 167/167/167 136/136/136
f 136/136/136 167/167/167 168/168/168
f 136/136/136 168/168/168 137/137/137
f 137/137/137 168/168/168 169/169/169
f 137/137/137 169/169/169 138/138/138
f 138/138/138 169/169/169 170/170/170
f 138/138/138 170/170/170 139/139/139
f 139/139/139 170/170/170 171/171/171
f 139/139/139 171/171/171 140/140/140
f 140/140/140 171/171/171 172/172/172
f 140/140/140 172/172/172 141/141/141
f 141/141/141 172/172/172 173/173/173
f 141/141/141 173/173/173 142/142/142
f 142/142/142 173/173/173 174/174/174
f 142/142/142 174/174/174 143/143/143
f 143/143/143 174/174/174 175/175/175
f 143/143/143 175/175/175 144/144/144
f 144/144/144 175/175/175 176/176/176
f 144/144/144 176/176/176 145/145/145
f 145/145/145 176/176/176 177/177/177
f 145/145/145 177/177/177 146/146/146
f 146/146/146 177/177/177 178/178/178
f 146/146/146 178/178/178 147/147/147
f 147/147/147 178/178/178 179/179/179
f 147/147/147 179/179/179 148/148/148
f 148/148/148 179/179/179 180/180/180
f 148/148/148 180/180/180 149/149/149
f 149/149/149 180/180/180 181/181/181
f 149/149/149 181/181/181 150/150/150
f 150/150/150 181/181/181 182/182/182
f 150/150/150 182/182/182 151/151/151
f 151/151/151 182/182/182 183/183/183
f 151/151/151 183/183/183 152/152/152
f 152/152/152 183/183/183 184/184/184
f 152/152/152 184/184/184 153/153/153
f 153/153/153 184/184/184 185/185/185
f 153/153/153 185/185/185 154/154/154
f 154/154/154 185/185/185 186/186/186
f 154/154/154 186/186/186 155/155/155
f 155/155/155 186/186/186 187/187/187
f 155/155/155 187/187/187 156/156/156
f 156/156/156 187/187/187 188/188/188
f 156/156/156 188/188/188 157/157/157
f 157/157/157 188/188/188 189/189/189
f 157/157/157 189/189/189 158/158/158
f 158/158/158 189/189/189 190/190/190
f 158/158/158 190/190/190 159/159/159
f 159/159/159 190/190/190 191/191/191
f 159/159/159 191/191/191 160/160/160
f 160/160/160 191/191/191 192/192/192
f 160/160/160 192/192/192 161/161/161
f 161/161/161 192/192/192 193/193/193
f 161/161/161 193/193/193 130/130/130
f 130/130/130 193/193/193 162/162/162
f 162/162/162 194/194/194 163/163/163
f 163/163/163 194/194/194 195/195/195
f 163/163/163 195/195/195 164/164/164
f 164/164/164 195/195/195 196/196/196
f 164/164/164 196/196/196 165/165/165
f 165/165/165 196/196/196 197/197/197
f 165/165/165 197/197/197 166/166/166
f 166/166/166 197/197/197 198/198/198
f 166/166/166 198/198/198 167/167/167
f 167/167/167 198/198/198 199/199/199
f 167/167/167 199/199/199 168/168/168
f 168/168/168 199/199/199 200/200/200
f 168/168/168 200/200/200 169/169/169
f 169/169/169 200/200/200 201/201/201
f 169/169/169 201/201/201 170/170/170
f 170/170/170 201/201/201 202/202/202
f 170/170/170 202/202/202 171/171/171
f 171/171/171 202/202/202 203/203/203
f 171/171/171 203/203/203 172/172/172
f 172/172/172 203/203/203 204/204/204
f 172/172/172 204/204/204 173/173/173
f 173/173/173 204/204/204 205/205/205
f 173/173/173 205/205/205 174/174/174
f 174/174/174 205/205/205 206/206/206
f 174/174/174 206/206/206 175/175/175
f 175/175/175 206/206/206 207/207/207
f 175/175/175 207/207/207 176/176/176
f 176/176/176 207/207/207 208/208/208
f 176/176/176 208/208/208 177/177/177
f 177/177/177 208/208/208 209/209/209
f 177/177/177 209/209/209 178/178/178
f 178/178/178 209/209/209 210/210/210
f 178/178/178 210/210/210 179/179/179
f 179/179/179 210/210/210 211/211/211
f 179/179/179 211/211/211 180/180/180
f 180/180/180 211/211/211 212/212/212
f 180/180/180 212/212/212 181/181/181
f 181/181/181 212/212/212 213/213/213
f 181/181/181 213/213/213 182/182/182
f 182/182/182 213/213/213 214/214/214
f 182/182/182 214/214/214 183/183/183
f 183/183/183 214/214/214 215/215/215
f 183/183/183 215/215/215 184/184/184
f 184/184/184 215/215/215 216/216/216
f 184/184/184 216/216/216 185/185/185
f 185/185/185 216/216/216 217/217/217
f 185/185/185 217/217/217 186/186/186
f 186/186/186 217/217/217 218/218/218
f 186/186/186 218/218/218 187/187/187
f 187/187/187 218/218/218 219/219/219
f 187/187/187 219/219/219 188/188/188
f 188/188/188 219/219/219 220/220/220
f 188/188/188 220/220/220 189/189/189
f 189/189/189 220/220/220 221/221/221
f 189/189/189 221/221/221 190/190/190
f 190/190/190 221/221/221 222/222/222
f 190/190/190 222/222/222 191/191/191
f 191/191/191 222/222/222 223/223/223
f 191/191/191 223/223/223 192/192/192
f 192/192/192 223/223/223 224/224/224
f 192/192/192 224/224/224 193/193/193
f 193/193/193 224/224/224 225/225/225
f 193/193/193 225/225/225 162/162/162
f 162/162/162 225/225/225 194/194/194
f 194/194/194 226/226/226 195/195/195
f 195/195/195 226/226/226 227/227/227
f 195/195/195 227/227/227 196/196/196
f 196/196/196 227/227/227 228/228/228
f 196/196/196 228/228/228 197/197/197
f 197/197/197 228/228/228 229/229/229
f 197/197/197 229/229/229 198/198/198
f 198/198/198 229/229/229 230/230/230
f 198/198/198 230/230/230 199/199/199
f 199/199/199 230/230/230 231/231/231
f 199/199/199 231/231/231 200/200/200
f 200/200/200 231/231/231 232/232/232
f 200/200/200 232/232/232 201/201/201
f 201/201/201 232/232/232 233/233/233
f 201/201/201 233/233/233 202/202/202
f 202/202/202 233/233/233 234/234/234
f 202/202/202 234/234/234 203/203/203
f 203/203/203 234/234/234 235/235/235
f 203/203/203 235/235/235 204/204/204
f 204/204/204 235/235/235 236/236/236
f 204/204/204 236/236/236 205/205/205
f 205/205/205 236/236/236 237/237/237
f 205/205/205 237/237/237 206/206/206
f 206/206/206 237/237/237 238/238/238
f 206/206/206 238/238/238 207/207/207
f 207/207/207 238/238/238 239/239/239
f 207/207/207 239/239/239 208/208/208
f 208/208/208 239/239/239 240/240/240
f 208/208/208 240/240/240 209/209/209
f 209/209/209 240/240/240 241/241/241
f 209/209/209 241/241/241 210/210/210
f 210/210/210 241/241/241 242/242/242
f 210/210/210 242/242/242 211/211/211
f 211/211/211 242/242/242 243/243/243
f 211/211/211 243/243/243 212/212/212
f 212/212/212 243/243/243 244/244/244
f 212/212/212 244/244/244 213/213/213
f 213/213/213 244/244/244 245/245/245
f 213/213/213 245/245/245 214/214/214
f 214/214/214 245/245/245 246/246/246
f 214/214/214 246/246/246 215/215/215
f 215/215/215 246/246/246 247/247/247
f 215/215/215 247/247/247 216/216/216
f 216/216/216 247/247/247 248/248/248
f 216/216/216 248/248/248 217/217/217
f 217/217/217 248/248/248 249/249/249
f 217/217/217 249/249/249 218/218/218
f 218/218/218 249/249/249 250/250/250
f 218/218/218 250/250/250 219/219/219
f 219/219/219 250/250/250 251/251/251
f 219/219/219 251/251/251 220/220/220
f 220/220/220 251/251/251 252/252/252
f 220/220/220 252/252/252 221/221/221
f 221/221/221 252/252/252 253/253/253
f 221/221/221 253/253/253 222/222/222
f 222/222/222 253/253/253 254/254/254
f 222/222/222 254/254/254 223/223/223
f 223/223/223 254/254/254 255/255/255
f 223/223/223 255/255/255 224/224/224
f 224/224/224 255/255/255 256/256/256
f 224/224/224 256/256/256 225/225/225
f 225/225/225 256/256/256 257/257/257
f 225/225/225 257/257/257 194/194/194
f 194/194/194 257/257/257 226/226/226
f 226/226/226 258/258/258 227/227/227
f 227/227/227 258/258/258 259/259/259
f 227/227/227 259/259/259 228/228/228
f 228/228/228 259/259/259 260/260/260
f 228/228/228 260/260/260 229/229/229
f 229/229/229 260/260/260 261/261/261
f 229/229/229 261/261/261 230/230/230
f 230/230/230 261/261/261 262/262/262
f 230/230/230 262/262/262 231/231/231
f 231/231/231 262/262/262 263/263/263
f 231/231/231 263/263/263 232/232/232
f 232/232/232 263/263/263 264/264/264
f 232/232/232 264/264/264 233/233/233
f 233/233/233 264/264/264 265/265/265
f 233/233/233 265/265/265 234/234/234
f 234/234/234 265/265/265 266/266/266
f 234/234/234 266/266/266 235/235/235
f 235/235/235 266/266/266 267/267/267
f 235/235/235 267/267/267 236/236/236
f 236/236/236 267/267/267 268/268/268
f 236/236/236 268/268/268 237/237/237
f 237/237/237 268/268/268 269/269/269
f 237/237/237 269/269/269 238/238/238
f 238/238/238 269/269/269 270/270/270
f 238/238/238 270/270/270 239/239/239
f 239/239/239 270/270/270 271/271/271
f 239/239/239 271/271/271 240/240/240
f 240/240/240 271/271/271 272/272/272
f 240/240/240 272/272/272 241/241/241
f 241/241/241 272/272/272 273/273/273
f 241/241/241 273/273/273 242/242/242
f 242/242/242 273/273/273 274/274/274
f 242/242/242 274/274/274 243/243/243
f 243/243/243 274/274/274 275/275/275
f 243/243/243 275/275/275 244/244/244
f 244/244/244 275/275/275 276/276/276
f 244/244/244 276/276/276 245/245/245
f 245/245/245 276/276/276 277/277/277
f 245/245/245 277/277/277 246/246/246
f 246/246/246 277/277/277 278/278/278
f 246/246/246 278/278/278 247/247/247
f 247/247/247 278/278/278 279/279/279
f 247/247/247 279/279/279 248/248/248
f 248/248/248 279/279/279 280/280/280
f 248/248/248 280/280/280 249/249/249
f 249/249/249 280/280/280 281/281/281
f 249/249/249 281/281/281 250/250/250
f 250/250/250 281/281/281 282/282/282
f 250/250/250 282/282/282 251/251/251
f 251/251/251 282/282/282 283/283/283
f 251/251/251 283/283/283 252/252/252
f 252/252/252 283/283/283 284/284/284
f 252/252/252 284/284/284 253/253/253
f 253/253/253 284/284/284 285/285/285
f 253/253/253 285/285/285 254/254/254
f 254/254/254 285/285/285 286/286/286
f 254/254/254 286/286/286 255/255/255
f 255/255/255 286/286/286 287/287/287
f 255/255/255 287/287/287 256/256/256
f 256/256/256 287/287/287 288/288/288
f 256/256/256 288/288/288 257/257/257
f 257/257/257 288/288/288 289/289/289
f 257/257/257 289/289/289 226/226/226
f 226/226/226 289/289/289 258/258/258
f 258/258/258 290/290/290 259/259/259
f 259/259/259 290/290/290 291/291/291
f 259/259/259 291/291/291 260/260/260
f 260/260/260 291/291/291 292/292/292
f 260/260/260 292/292/292 261/261/261
f 261/261/261 292/292/292 293/293/293
f 261/261/261 293/293/293 262/262/262
f 262/262/262 293/293/293 294/294/294
f 262/262/262 294/294/294 263/263/263
f 263/263/263 294/294/294 295/295/295
f 263/263/263 295/295/295 264/264/264
f 264/264/264 295/295/295 296/296/296
f 264/264/264 296/296/296 265/265/265
f 265/265/265 296/296/296 297/297/297
f 265/265/265 297/297/297 266/266/266
f 266/266/266 297/297/297 298/298/298
f 266/266/266 298/298/298 267/267/267
f 267/267/267 298/298/298 299/299/299
f 267/267/267 299/299/299 268/268/268
f 268/268/268 299/299/299 300/300/300
f 268/268/268 300/300/300 269/269/269
f 269/269/269 300/300/300 301/301/301
f 269/269/269 301/301/301 270/270/270
f 270/270/270 301/301/301 302/302/302
f 270/270/270 302/302/302 271/271/271
f 271/271/271 302/302/302 303/303/303
f 271/271/271 303/303/303 272/272/272
f 272/272/272 303/303/303 304/304/304
f 272/272/272 304/304/304 273/273/273
f 273/273/273 304/304/304 305/305/305
f 273/273/273 305/305/305 274/274/274
f 274/274/274 305/305/305 306/306/306
f 274/274/274 306/306/306 275/275/275
f 275/275/275 306/306/306 307/307/307
f 275/275/275 307/307/307 276/276/276
f 276/276/276 307/307/307 308/308/308
f 276/276/276 308/308/308 277/277/277
f 277/277/277 308/308/308 309/309/309
f 277/277/277 309/309/309 278/278/278
f 278/278/278 309/309/309 310/310/310
f 278/278/278 310/310/310 279/279/279
f 279/279/279 310/310/310 311/311/311
f 279/279/279 311/311/311 280/280/280
f 280/280/280 311/311/311 312/312/312
f 280/280/280 312/312/312 281/281/281
f 281/281/281 312/312/312 313/313/313
f 281/281/281 313/313/313 282/282/282
f 282/282/282 313/313/313 314/314/314
f 282/282/282 314/314/314 283/283/283
f 283/283/283 314/314/314 315/315/315
f 283/283/283 315/315/315 284/284/284
f 284/284/284 315/315/315 316/316/316
f 284/284/284 316/316/316 285/285/285
f 285/285/285 316/316/316 317/317/317
f 285/285/285 317/317/317 286/286/286
f 286/286/286 317/317/317 318/318/318
f 286/286/286 318/318/318 287/287/287
f 287/287/287 318/318/318 319/319/319
f 287/287/287 319/319/319 288/288/288
f 288/288/288 319/319/319 320/320/320
f 288/288/288 320/320/320 289/289/289
f 289/289/289 320/320/320 321/321/321
f 289/289/289 321/321/321 258/258/258
f 258/258/258 321/321/321 290/290/290
f 290/290/290 322/322/322 291/291/291
f 291/291/291 322/322/322 323/323/323
f 291/291/291 323/323/323 292/292/292
f 292/292/292 323/323/323 324/324/324
f 292/292/292 324/324/324 293/293/293
f 293/293/293 324/324/324 325/325/325
f 293/293/293 325/325/325 294/294/294
f 294/294/294 325/325/325 326/326/326
f 294/294/294 326/326/326 295/295/295
f 295/295/295 326/326/326 327/327/327
f 295/295/295 327/327/327 296/296/296
f 296/296/296 327/327/327 328/328/328
f 296/296/296 328/328/328 297/297/297
f 297/297/297 328/328/328 329/329/329
f 297/297/297 329/329/329 298/298/298
f 298/298/298 329/329/329 330/330/330
f 298/298/298 330/330/330 299/299/299
f 299/299/299 330/330/330 331/331/331
f 299/299/299 331/331/331 300/300/300
f 300/300/300 331/331/331 332/332/332
f 300/300/300 332/332/332 301/301/301
f 301/301/301 332/332/332 333/333/333
f 301/301/301 333/333/333 302/302/302
f 302/302/302 333/333/333 334/334/334
f 302/302/302 334/334/334 303/303/303
f 303/303/303 334/334/334 335/335/335
f 303/303/303 335/335/335 304/304/304
f 304/304/304 335/335/335 336/336/336
f 304/304/304 336/336/336 305/305/305
f 305/305/305 336/336/336 337/337/337
f 305/305/305 337/337/337 306/306/306
f 306/306/306 337/337/337 338/338/338
f 306/306/306 338/338/338 307/307/307
f 307/307/307 338/338/338 339/339/339
f 307/307/307 339/339/339 308/308/308
f 308/308/308 339/339/339 340/340/340
f 308/308/308 340/340/340 309/309/309
f 309/309/309 340/340/340 341/341/341
f 309/309/309 341/341/341 310/310/310
f 310/310/310 341/341/341 342/342/342
f 310/310/310 342/342/342 311/311/311
f 311/311/311 342/342/342 343/343/343
f 311/311/311 343/343/343 312/312/312
f 312/312/312 343/343/343 344/344/344
f 312/312/312 344/344/344 313/313/313
f 313/313/313 344/344/344 345/345/345
f 313/313/313 345/345/345 314/314/314
f 314/314/314 345/345/345 346/346/346
f 314/314/314 346/346/346 315/315/315
f 315/315/315 346/346/346 347/347/347
f 315/315/315 347/347/347 316/316/316
f 316/316/316 347/347/347 348/348/348
f 316/316/316 348/348/348 317/317/317
f 317/317/317 348/348/348 349/349/349
f 317/317/317 349/349/349 318/318/318
f 318/318/318 349/349/349 350/350/350
f 318/318/318 350/350/350 319/319/319
f 319/319/319 350/350/350 351/351/351
f 319/319/319 351/351/351 320/320/320
f 320/320/320 351/351/351 352/352/352
f 320/320/320 352/352/352 321/321/321
f 321/321/321 352/352/352 353/353/353
f 321/321/321 353/353/353 290/290/290
f 290/290/290 353/353/353 322/322/322
f 322/322/322 354/354/354 323/323/323
f 323/323/323 354/354/354 355/355/355
f 323/323/323 355/355/355 324/324/324
f 324/324/324 355/355/355 356/356/356
f 324/324/324 356/356/356 325/325/325
f 325/325/325 356/356/356 357/357/357
f 325/325/325 357/357/357 326/326/326
f 326/326/326 357/357/357 358/358/358
f 326/326/326 358/358/358 327/327/327
f 327/327/327 358/358/358 359/359/359
f 327/327/327 359/359/359 328/328/328
f 328/328/328 359/359/359 360/360/360
f 328/328/328 360/360/360 329/329/329
f 329/329/329 360/360/360 361/361/361
f 329/329/329 361/361/361 330/330/330
f 330/330/330 361/361/361 362/362/362
f 330/330/330 362/362/362 331/331/331
f 331/331/331 362/362/362 363/363/363
f 331/331/331 363/363/363 332/332/332
f 332/332/332 363/363/363 364/364/364
f 332/332/332 364/364/364 333/333/333
f 333/333/333 364/364/364 365/365/365
f 333/333/333 365/365/365 334/334/334
f 334/334/334 365/365/365 366/366/366
f 334/334/334 366/366/366 335/335/335
f 335/335/335 366/366/366 367/367/367
f 335/335/335 367/367/367 336/336/336
f 336/336/336 367/367/367 368/368/368
f 336/336/336 368/368/368 337/337/337
f 337/337/337 368/368/368 369/369/369
f 337/337/337 369/369/369 338/338/338
f 338/338/338 369/369/369 370/370/370
f 338/338/338 370/370/370 339/339/339
f 339/339/339 370/370/370 371/371/371
f 339/339/339 371/371/371 340/340/340
f 340/340/340 371/371/371 372/372/372
f 340/340/340 372/372/372 341/341/341
f 341/341/341 372/372/372 373/373/373
f 341/341/341 373/373/373 342/342/342
f 342/342/342 373/373/373 374/374/374
f 342/342/342 374/374/374 343/343/343
f 343/343/343 374/374/374 375/375/375
f 343/343/343 375/375/375 344/344/344
f 344/344/344 375/375/375 376/376/376
f 344/344/344 376/376/376 345/345/345
f 345/345/345 376/376/376 377/377/377
f 345/345/345 377/377/377 346/346/346
f 346/346/346 377/377/377 378/378/378
f 346/346/346 378/378/378 347/347/347
f 347/347/347 378/378/378 379/379/379
f 347/347/347 379/379/379 348/348/348
f 348/348/348 379/379/379 380/380/380
f 348/348/348 380/380/380 349/349/349
f 349/349/349 380/380/380 381/381/381
f 349/349/349 381/381/381 350/350/350
f 350/350/350 381/381/381 382/382/382
f 350/350/350 382/382/382 351/351/351
f 351/351/351 382/382/382 383/383/383
f 351/351/351 383/383/383 352/352/352
f 352/352/352 383/383/383 384/384/384
f 352/352/352 384/384/384 353/353/353
f 353/353/353 384/384/384 385/385/385
f 353/353/353 385/385/385 322/322/322
f 322/322/322 385/385/385 354/354/354
f 354/354/354 386/386/386 355/355/355
f 355/355/355 386/386/386 387/387/387
f 355/355/355 387/387/387 356/356/356
f 356/356/356 387/387/387 388/388/388
f 356/356/356 388/388/388 357/357/357
f 357/357/357 388/388/388 389/389/389
f 357/357/357 389/389/389 358/358/358
f 358/358/358 389/389/389 390/390/390
f 358/358/358 390/390/390 359/359/359
f 359/359/359 390/390/390 391/391/391
f 359/359/359 391/391/391 360/360/360
f 360/360/360 391/391/391 392/392/392
f 360/360/360 392/392/392 361/361/361
f 361/361/361 392/392/392 393/393/393
f 361/361/361 393/393/393 362/362/362
f 362/362/362 393/393/393 394/394/394
f 362/362/362 394/394/394 363/363/363
f 363/363/363 394/394/394 395/395/395
f 363/363/363 395/395/395 364/364/364
f 364/364/364 395/395/395 396/396/396
f 364/364/364 396/396/396 365/365/365
f 365/365/365 396/396/396 397/397/397
f 365/365/365 397/397/397 366/366/366
f 366/366/366 397/397/397 398/398/398
f 366/366/366 398/398/398 367/367/367
f 367/367/367 398/398/398 399/399/399
f 367/367/367 399/399/399 368/368/368
f 368/368/368 399/399/399 400/400/400
f 368/368/368 400/400/400 369/369/369
f 369/369/369 400/400/400 401/401/401
f 369/369/369 401/401/401 370/370/370
f 370/370/370 401/401/401 402/402/402
f 370/370/370 402/402/402 371/371/371
f 371/371/371 402/402/402 403/403/403
f 371/371/371 403/403/403 372/372/372
f 372/372/372 403/403/403 404/404/404
f 372/372/372 404/404/404 373/373/373
f 373/373/373 404/404/404 405/405/405
f 373/373/373 405/405/405 374/374/374
f 374/374/374 405/405/405 406/406/406
f 374/374/374 406/406/406 375/375/375
f 375/375/375 406/406/406 407/407/407
f 375/375/375 407/407/407 376/376/376
f 376/376/376 407/407/407 408/408/408
f 376/376/376 408/408/408 377/377/377
f 377/377/377 408/408/408 409/409/409
f 377/377/377 409/409/409 378/378/378
f 378/378/378 409/409/409 410/410/410
f 378/378/378 410/410/410 379/379/379
f 379/379/379 410/410/410 411/411/411
f 379/379/379 411/411/411 380/380/380
f 380/380/380 411/411/411 412/412/412
f 380/380/380 412/412/412 381/381/381
f 381/381/381 412/412/412 413/413/413
f 381/381/381 413/413/413 382/382/382
f 382/382/382 413/413/413 414/414/414
f 382/382/382 414/414/414 383/383/383
f 383/383/383 414/414/414 415/415/415
f 383/383/383 415/415/415 384/384/384
f 384/384/384 415/415/415 416/416/416
f 384/384/384 416/416/416 385/385/385
f 385/385/385 416/416/416 417/417/417
f 385/385/385 417/417/417 354/354/354
f 354/354/354 417/417/417 386/386/386
f 386/386/386 418/418/418 387/387/387
f 387/387/387 418/418/418 419/419/419
f 387/387/387 419/419/419 388/388/388
f 388/388/388 419/419/419 420/420/420
f 388/388/388 420/420/420 389/389/389
f 389/389/389 420/420/420 421/421/421
f 389/389/389 421/421/421 390/390/390
f 390/390/390 421/421/421 422/422/422
f 390/390/390 422/422/422 391/391/391
f 391/391/391 422/422/422 423/423/423
f 391/391/391 423/423/423 392/392/392
f 392/392/392 423/423/423 424/424/424
f 392/392/392 424/424/424 393/393/393
f 393/393/393 424/424/424 425/425/425
f 393/393/393 425/425/425 394/394/394
f 394/394/394 425/425/425 426/426/426
f 394/394/394 426/426/426 395/395/395
f 395/395/395 426/426/426 427/427/427
f 395/395/395 427/427/427 396/396/396
f 396/396/396 427/427/427 428/428/428
f 396/396/396 428/428/428 397/397/397
f 397/397/397 428/428/428 429/429/429
f 397/397/397 429/429/429 398/398/398
f 398/398/398 429/429/429 430/430/430
f 398/398/398 430/430/430 399/399/399
f 399/399/399 430/430/430 431/431/431
f 399/399/399 431/431/431 400/400/400
f 400/400/400 431/431/431 432/432/432
f 400/400/400 432/432/432 401/401/401
f 401/401/401 432/432/432 433/433/433
f 401/401/401 433/433/433 402/402/402
f 402/402/402 433/433/433 434/434/434
f 402/402/402 434/434/434 403/403/403
f 403/403/403 434/434/434 435/435/435
f 403/403/403 435/435/435 404/404/404
f 404/404/404 435/435/435 436/436/436
f 404/404/404 436/436/436 405/405/405
f 405/405/405 436/436/436 437/437/437
f 405/405/405 437/437/437 406/406/406
f 406/406/406 437/437/437 438/438/438
f 406/406/406 438/438/438 407/407/407
f 407/407/407 438/438/438 439/439/439
f 407/407/407 439/439/439 408/408/408
f 408/408/408 439/439/439 440/440/440
f 408/408/408 440/440/440 409/409/409
f 409/409/409 440/440/440 441/441/441
f 409/409/409 441/441/441 410/410/410
f 410/410/410 441/441/441 442/442/442
f 410/410/410 442/442/442 411/411/411
f 411/411/411 442/442/442 443/443/443
f 411/411/411 443/443/443 412/412/412
f 412/412/412 443/443/443 444/444/444
f 412/412/412 444/444/444 413/413/413
f 413/413/413 444/444/444 445/445/445
f 413/413/413 445/445/445 414/414/414
f 414/414/414 445/445/445 446/446/446
f 414/414/414 446/446/446 415/415/415
f 415/415/415 446/446/446 447/447/447
f 415/415/415 447/447/447 416/416/416
f 416/416/416 447/447/447 448/448/448
f 416/416/416 448/448/448 417/417/417
f 417/417/417 448/448/448 449/449/449
f 417/417/417 449/449/449 386/386/386
f 386/386/386 449/449/449 418/418/418
f 418/418/418 450/450/450 419/419/419
f 419/419/419 450/450/450 451/451/451
f 419/419/419 451/451/451 420/420/420
f 420/420/420 451/451/451 452/452/452
f 420/420/420 452/452/452 421/421/421
f 421/421/421 452/452/452 453/453/453
f 421/421/421 453/453/453 422/422/422
f 422/422/422 453/453/453 454/454/454
f 422/422/422 454/454/454 423/423/423
f 423/423/423 454/454/454 455/455/455
f 423/423/423 455/455/455 424/424/424
f 424/424/424 455/455/455 456/456/456
f 424/424/424 456/456/456 425/425/425
f 425/425/425 456/456/456 457/457/457
f 425/425/425 457/457/457 426/426/426
f 426/426/426 457/457/457 458/458/458
f 426/426/426 458/458/458 427/427/427
f 427/427/427 458/458/458 459/459/459
f 427/427/427 459/459/459 428/428/428
f 428/428/428 459/459/459 460/460/460
f 428/428/428 460/460/460 429/429/429
f 429/429/429 460/460/460 461/461/461
f 429/429/429 461/461/461 430/430/430
f 430/430/430 461/461/461 462/462/462
f 430/430/430 462/462/462 431/431/431
f 431/431/431 462/462/462 463/463/463
f 431/431/431 463/463/463 432/432/432
f 432/432/432 463/463/463 464/464/464
f 432/432/432 464/464/464 433/433/433
f 433/433/433 464/464/464 465/465/465
f 433/433/433 465/465/465 434/434/434
f 434/434/434 465/465/465 466/466/466
f 434/434/434 466/466/466 435/435/435
f 435/435/435 466/466/466 467/467/467
f 435/435/435 467/467/467 436/436/436
f 436/436/436 467/467/467 468/468/468
f 436/436/436 468/468/468 437/437/437
f 437/437/437 468/468/468 469/469/469
f 437/437/437 469/469/469 438/438/438
f 438/438/438 469/469/469 470/470/470
f 438/438/438 470/470/470 439/439/439
f 439/439/439 470/470/470 471/471/471
f 439/439/439 471/471/471 440/440/440
f 440/440/440 471/471/471 472/472/472
f 440/440/440 472/472/472 441/441/441
f 441/441/441 472/472/472 473/473/473
f 441/441/441 473/473/473 442/442/442
f 442/442/442 473/473/473 474/474/474
f 442/442/442 474/474/474 443/443/443
f 443/443/443 474/474/474 475/475/475
f 443/443/443 475/475/475 444/444/444
f 444/444/444 475/475/475 476/476/476
f 444/444/444 476/476/476 445/445/445
f 445/445/445 476/476/476 477/477/477
f 445/445/445 477/477/477 446/446/446
f 446/446/446 477/477/477 478/478/478
f 446/446/446 478/478/478 447/447/447
f 447/447/447 478/478/478 479/479/479
f 447/447/447 479/479/479 448/448/448
f 448/448/448 479/479/479 480/480/480
f 448/448/448 480/480/480 449/449/449
f 449/449/449 480/480/480 481/481/481
f 449/449/449 481/481/481 418/418/418
f 418/418/418 481/481/481 450/450/450
f 450/450/450 482/482/482 451/451/451
f 451/451/451 482/482/482 483/483/483
f 451/451/451 483/483/483 452/452/452
f 452/452/452 483/483/483 484/484/484
f 452/452/452 484/484/484 453/453/453
f 453/453/453 484/484/484 485/485/485
f 453/453/453 485/485/485 454/454/454
f 454/454/454 485/485/485 486/486/486
f 454/454/454 486/486/486 455/455/455
f 455/455/455 486/486/486 487/487/487
f 455/455/455 487/487/487 456/456/456
f 456/456/456 487/487/487 488/488/488
f 456/456/456 488/488/488 457/457/457
f 457/457/457 488/488/488 489/489/489
f 457/457/457 489/489/489 458/458/458
f 458/458/458 489/489/489 490/490/490
f 458/458/458 490/490/490 459/459/459
f 459/459/459 490/490/490 491/491/491
f 459/459/459 491/491/491 460/460/460
f 460/460/460 491/491/491 492/492/492
f 460/460/460 492/492/492 461/461/461
f 461/461/461 492/492/492 493/493/493
f 461/461/461 493/493/493 462/462/462
f 462/462/462 493/493/493 494/494/494
f 462/462/462 494/494/494 463/463/463
f 463/463/463 494/494/494 495/495/495
f 463/463/463 495/495/495 464/464/464
f 464/464/464 495/495/495 496/496/496
f 464/464/464 496/496/496 465/465/465
f 465/465/465 496/496/496 497/497/497
f 465/465/465 497/497/497 466/466/466
f 466/466/466 497/497/497 498/498/498
f 466/466/466 498/498/498 467/467/467
f 467/467/467 498/498/498 499/499/499
f 467/467/467 499/499/499 468/468/468
f 468/468/468 499/499/499 500/500/500
f 468/468/468 500/500/500 469/469/469
f 469/469/469 500/500/500 501/501/501
f 469/469/469 501/501/501 470/470/470
f 470/470/470 501/501/501 502/502/502
f 470/470/470 502/502/502 471/471/471
f 471/471/471 502/502/502 503/503/503
f 471/471/471 503/503/503 472/472/472
f 472/472/472 503/503/503 504/504/504
f 472/472/472 504/504/504 473/473/473
f 473/473/473 504/504/504 505/505/505
f 473/473/473 505/505/505 474/474/474
f 474/474/474 505/505/505 506/506/506
f 474/474/474 506/506/506 475/475/475
f 475/475/475 506/506/506 507/507/507
f 475/475/475 507/507/507 476/476/476
f 476/476/476 507/507/507 508/508/508
f 476/476/476 508/508/508 477/477/477
f 477/477/477 508/508/508 509/509/509
f 477/477/477 509/509/509 478/478/478
f 478/478/478 509/509/509 510/510/510
f 478/478/478 510/510/510 479/479/479
f 479/479/479 510/510/510 511/511/511
f 479/479/479 511/511/511 480/480/480
f 480/480/480 511/511/511 512/512/512
f 480/480/480 512/512/512 481/481/481
f 481/481/481 512/512/512 513/513/513
f 481/481/481 513/513/513 450/450/450
f 450/450/450 513/513/513 482/482/482
