# Istrorigan Megastructure Part: SYS_02_HEX_BARRIER
# Exported for Houdini & DCC (Units: Meters)
o SYS_02_HEX_BARRIER

v 0.0000 0.0000 650.0000
v 0.0000 0.0000 650.0000
v 0.0000 0.0000 650.0000
v 0.0000 0.0000 650.0000
v 0.0000 0.0000 650.0000
v 0.0000 0.0000 650.0000
v 0.0000 0.0000 650.0000
v 0.0000 0.0000 650.0000
v 0.0000 0.0000 650.0000
v 0.0000 0.0000 650.0000
v -0.0000 0.0000 650.0000
v -0.0000 0.0000 650.0000
v -0.0000 0.0000 650.0000
v -0.0000 0.0000 650.0000
v -0.0000 0.0000 650.0000
v -0.0000 0.0000 650.0000
v -0.0000 0.0000 650.0000
v -0.0000 0.0000 650.0000
v -0.0000 0.0000 650.0000
v -0.0000 -0.0000 650.0000
v -0.0000 -0.0000 650.0000
v -0.0000 -0.0000 650.0000
v -0.0000 -0.0000 650.0000
v -0.0000 -0.0000 650.0000
v -0.0000 -0.0000 650.0000
v -0.0000 -0.0000 650.0000
v -0.0000 -0.0000 650.0000
v -0.0000 -0.0000 650.0000
v 0.0000 -0.0000 650.0000
v 0.0000 -0.0000 650.0000
v 0.0000 -0.0000 650.0000
v 0.0000 -0.0000 650.0000
v 0.0000 -0.0000 650.0000
v 0.0000 -0.0000 650.0000
v 0.0000 -0.0000 650.0000
v 0.0000 -0.0000 650.0000
v 130.2361 11.3942 647.5266
v 126.2790 33.8363 647.5266
v 118.4849 55.2504 647.5266
v 107.0907 74.9857 647.5266
v 92.4426 92.4426 647.5266
v 74.9857 107.0907 647.5266
v 55.2504 118.4849 647.5266
v 33.8363 126.2790 647.5266
v 11.3942 130.2361 647.5266
v -11.3942 130.2361 647.5266
v -33.8363 126.2790 647.5266
v -55.2504 118.4849 647.5266
v -74.9857 107.0907 647.5266
v -92.4426 92.4426 647.5266
v -107.0907 74.9857 647.5266
v -118.4849 55.2504 647.5266
v -126.2790 33.8363 647.5266
v -130.2361 11.3942 647.5266
v -130.2361 -11.3942 647.5266
v -126.2790 -33.8363 647.5266
v -118.4849 -55.2504 647.5266
v -107.0907 -74.9857 647.5266
v -92.4426 -92.4426 647.5266
v -74.9857 -107.0907 647.5266
v -55.2504 -118.4849 647.5266
v -33.8363 -126.2790 647.5266
v -11.3942 -130.2361 647.5266
v 11.3942 -130.2361 647.5266
v 33.8363 -126.2790 647.5266
v 55.2504 -118.4849 647.5266
v 74.9857 -107.0907 647.5266
v 92.4426 -92.4426 647.5266
v 107.0907 -74.9857 647.5266
v 118.4849 -55.2504 647.5266
v 126.2790 -33.8363 647.5266
v 130.2361 -11.3942 647.5266
v 260.4723 0.0000 640.1250
v 256.5151 45.2305 640.1250
v 244.7639 89.0868 640.1250
v 225.5756 130.2361 640.1250
v 199.5333 167.4283 640.1250
v 167.4283 199.5333 640.1250
v 130.2361 225.5756 640.1250
v 89.0868 244.7639 640.1250
v 45.2305 256.5151 640.1250
v 0.0000 260.4723 640.1250
v -45.2305 256.5151 640.1250
v -89.0868 244.7639 640.1250
v -130.2361 225.5756 640.1250
v -167.4283 199.5333 640.1250
v -199.5333 167.4283 640.1250
v -225.5756 130.2361 640.1250
v -244.7639 89.0868 640.1250
v -256.5151 45.2305 640.1250
v -260.4723 0.0000 640.1250
v -256.5151 -45.2305 640.1250
v -244.7639 -89.0868 640.1250
v -225.5756 -130.2361 640.1250
v -199.5333 -167.4283 640.1250
v -167.4283 -199.5333 640.1250
v -130.2361 -225.5756 640.1250
v -89.0868 -244.7639 640.1250
v -45.2305 -256.5151 640.1250
v -0.0000 -260.4723 640.1250
v 45.2305 -256.5151 640.1250
v 89.0868 -244.7639 640.1250
v 130.2361 -225.5756 640.1250
v 167.4283 -199.5333 640.1250
v 199.5333 -167.4283 640.1250
v 225.5756 -130.2361 640.1250
v 244.7639 -89.0868 640.1250
v 256.5151 -45.2305 640.1250
v 386.7512 33.8363 627.8518
v 375.0000 100.4809 627.8518
v 351.8546 164.0725 627.8518
v 318.0182 222.6788 627.8518
v 274.5191 274.5191 627.8518
v 222.6788 318.0182 627.8518
v 164.0725 351.8546 627.8518
v 100.4809 375.0000 627.8518
v 33.8363 386.7512 627.8518
v -33.8363 386.7512 627.8518
v -100.4809 375.0000 627.8518
v -164.0725 351.8546 627.8518
v -222.6788 318.0182 627.8518
v -274.5191 274.5191 627.8518
v -318.0182 222.6788 627.8518
v -351.8546 164.0725 627.8518
v -375.0000 100.4809 627.8518
v -386.7512 33.8363 627.8518
v -386.7512 -33.8363 627.8518
v -375.0000 -100.4809 627.8518
v -351.8546 -164.0725 627.8518
v -318.0182 -222.6788 627.8518
v -274.5191 -274.5191 627.8518
v -222.6788 -318.0182 627.8518
v -164.0725 -351.8546 627.8518
v -100.4809 -375.0000 627.8518
v -33.8363 -386.7512 627.8518
v 33.8363 -386.7512 627.8518
v 100.4809 -375.0000 627.8518
v 164.0725 -351.8546 627.8518
v 222.6788 -318.0182 627.8518
v 274.5191 -274.5191 627.8518
v 318.0182 -222.6788 627.8518
v 351.8546 -164.0725 627.8518
v 375.0000 -100.4809 627.8518
v 386.7512 -33.8363 627.8518
v 513.0302 0.0000 610.8002
v 505.2361 89.0868 610.8002
v 482.0907 175.4667 610.8002
v 444.2972 256.5151 610.8002
v 393.0039 329.7695 610.8002
v 329.7695 393.0039 610.8002
v 256.5151 444.2972 610.8002
v 175.4667 482.0907 610.8002
v 89.0868 505.2361 610.8002
v 0.0000 513.0302 610.8002
v -89.0868 505.2361 610.8002
v -175.4667 482.0907 610.8002
v -256.5151 444.2972 610.8002
v -329.7695 393.0039 610.8002
v -393.0039 329.7695 610.8002
v -444.2972 256.5151 610.8002
v -482.0907 175.4667 610.8002
v -505.2361 89.0868 610.8002
v -513.0302 0.0000 610.8002
v -505.2361 -89.0868 610.8002
v -482.0907 -175.4667 610.8002
v -444.2972 -256.5151 610.8002
v -393.0039 -329.7695 610.8002
v -329.7695 -393.0039 610.8002
v -256.5151 -444.2972 610.8002
v -175.4667 -482.0907 610.8002
v -89.0868 -505.2361 610.8002
v -0.0000 -513.0302 610.8002
v 89.0868 -505.2361 610.8002
v 175.4667 -482.0907 610.8002
v 256.5151 -444.2972 610.8002
v 329.7695 -393.0039 610.8002
v 393.0039 -329.7695 610.8002
v 444.2972 -256.5151 610.8002
v 482.0907 -175.4667 610.8002
v 505.2361 -89.0868 610.8002
v 631.5151 55.2504 589.1001
v 612.3268 164.0725 589.1001
v 574.5333 267.9093 589.1001
v 519.2829 363.6058 589.1001
v 448.2544 448.2544 589.1001
v 363.6058 519.2829 589.1001
v 267.9093 574.5333 589.1001
v 164.0725 612.3268 589.1001
v 55.2504 631.5151 589.1001
v -55.2504 631.5151 589.1001
v -164.0725 612.3268 589.1001
v -267.9093 574.5333 589.1001
v -363.6058 519.2829 589.1001
v -448.2544 448.2544 589.1001
v -519.2829 363.6058 589.1001
v -574.5333 267.9093 589.1001
v -612.3268 164.0725 589.1001
v -631.5151 55.2504 589.1001
v -631.5151 -55.2504 589.1001
v -612.3268 -164.0725 589.1001
v -574.5333 -267.9093 589.1001
v -519.2829 -363.6058 589.1001
v -448.2544 -448.2544 589.1001
v -363.6058 -519.2829 589.1001
v -267.9093 -574.5333 589.1001
v -164.0725 -612.3268 589.1001
v -55.2504 -631.5151 589.1001
v 55.2504 -631.5151 589.1001
v 164.0725 -612.3268 589.1001
v 267.9093 -574.5333 589.1001
v 363.6058 -519.2829 589.1001
v 448.2544 -448.2544 589.1001
v 519.2829 -363.6058 589.1001
v 574.5333 -267.9093 589.1001
v 612.3268 -164.0725 589.1001
v 631.5151 -55.2504 589.1001
v 750.0000 0.0000 562.9165
v 738.6058 130.2361 562.9165
v 704.7695 256.5151 562.9165
v 649.5191 375.0000 562.9165
v 574.5333 482.0907 562.9165
v 482.0907 574.5333 562.9165
v 375.0000 649.5191 562.9165
v 256.5151 704.7695 562.9165
v 130.2361 738.6058 562.9165
v 0.0000 750.0000 562.9165
v -130.2361 738.6058 562.9165
v -256.5151 704.7695 562.9165
v -375.0000 649.5191 562.9165
v -482.0907 574.5333 562.9165
v -574.5333 482.0907 562.9165
v -649.5191 375.0000 562.9165
v -704.7695 256.5151 562.9165
v -738.6058 130.2361 562.9165
v -750.0000 0.0000 562.9165
v -738.6058 -130.2361 562.9165
v -704.7695 -256.5151 562.9165
v -649.5191 -375.0000 562.9165
v -574.5333 -482.0907 562.9165
v -482.0907 -574.5333 562.9165
v -375.0000 -649.5191 562.9165
v -256.5151 -704.7695 562.9165
v -130.2361 -738.6058 562.9165
v -0.0000 -750.0000 562.9165
v 130.2361 -738.6058 562.9165
v 256.5151 -704.7695 562.9165
v 375.0000 -649.5191 562.9165
v 482.0907 -574.5333 562.9165
v 574.5333 -482.0907 562.9165
v 649.5191 -375.0000 562.9165
v 704.7695 -256.5151 562.9165
v 738.6058 -130.2361 562.9165
v 857.0907 74.9857 532.4488
v 831.0484 222.6788 532.4488
v 779.7552 363.6058 532.4488
v 704.7695 493.4849 532.4488
v 608.3697 608.3697 532.4488
v 493.4849 704.7695 532.4488
v 363.6058 779.7552 532.4488
v 222.6788 831.0484 532.4488
v 74.9857 857.0907 532.4488
v -74.9857 857.0907 532.4488
v -222.6788 831.0484 532.4488
v -363.6058 779.7552 532.4488
v -493.4849 704.7695 532.4488
v -608.3697 608.3697 532.4488
v -704.7695 493.4849 532.4488
v -779.7552 363.6058 532.4488
v -831.0484 222.6788 532.4488
v -857.0907 74.9857 532.4488
v -857.0907 -74.9857 532.4488
v -831.0484 -222.6788 532.4488
v -779.7552 -363.6058 532.4488
v -704.7695 -493.4849 532.4488
v -608.3697 -608.3697 532.4488
v -493.4849 -704.7695 532.4488
v -363.6058 -779.7552 532.4488
v -222.6788 -831.0484 532.4488
v -74.9857 -857.0907 532.4488
v 74.9857 -857.0907 532.4488
v 222.6788 -831.0484 532.4488
v 363.6058 -779.7552 532.4488
v 493.4849 -704.7695 532.4488
v 608.3697 -608.3697 532.4488
v 704.7695 -493.4849 532.4488
v 779.7552 -363.6058 532.4488
v 831.0484 -222.6788 532.4488
v 857.0907 -74.9857 532.4488
v 964.1814 0.0000 497.9289
v 949.5333 167.4283 497.9289
v 906.0342 329.7695 497.9289
v 835.0056 482.0907 497.9289
v 738.6058 619.7639 497.9289
v 619.7639 738.6058 497.9289
v 482.0907 835.0056 497.9289
v 329.7695 906.0342 497.9289
v 167.4283 949.5333 497.9289
v 0.0000 964.1814 497.9289
v -167.4283 949.5333 497.9289
v -329.7695 906.0342 497.9289
v -482.0907 835.0056 497.9289
v -619.7639 738.6058 497.9289
v -738.6058 619.7639 497.9289
v -835.0056 482.0907 497.9289
v -906.0342 329.7695 497.9289
v -949.5333 167.4283 497.9289
v -964.1814 0.0000 497.9289
v -949.5333 -167.4283 497.9289
v -906.0342 -329.7695 497.9289
v -835.0056 -482.0907 497.9289
v -738.6058 -619.7639 497.9289
v -619.7639 -738.6058 497.9289
v -482.0907 -835.0056 497.9289
v -329.7695 -906.0342 497.9289
v -167.4283 -949.5333 497.9289
v -0.0000 -964.1814 497.9289
v 167.4283 -949.5333 497.9289
v 329.7695 -906.0342 497.9289
v 482.0907 -835.0056 497.9289
v 619.7639 -738.6058 497.9289
v 738.6058 -619.7639 497.9289
v 835.0056 -482.0907 497.9289
v 906.0342 -329.7695 497.9289
v 949.5333 -167.4283 497.9289
v 1056.6240 92.4426 459.6194
v 1024.5191 274.5191 459.6194
v 961.2846 448.2544 459.6194
v 868.8419 608.3697 459.6194
v 750.0000 750.0000 459.6194
v 608.3697 868.8419 459.6194
v 448.2544 961.2846 459.6194
v 274.5191 1024.5191 459.6194
v 92.4426 1056.6240 459.6194
v -92.4426 1056.6240 459.6194
v -274.5191 1024.5191 459.6194
v -448.2544 961.2846 459.6194
v -608.3697 868.8419 459.6194
v -750.0000 750.0000 459.6194
v -868.8419 608.3697 459.6194
v -961.2846 448.2544 459.6194
v -1024.5191 274.5191 459.6194
v -1056.6240 92.4426 459.6194
v -1056.6240 -92.4426 459.6194
v -1024.5191 -274.5191 459.6194
v -961.2846 -448.2544 459.6194
v -868.8419 -608.3697 459.6194
v -750.0000 -750.0000 459.6194
v -608.3697 -868.8419 459.6194
v -448.2544 -961.2846 459.6194
v -274.5191 -1024.5191 459.6194
v -92.4426 -1056.6240 459.6194
v 92.4426 -1056.6240 459.6194
v 274.5191 -1024.5191 459.6194
v 448.2544 -961.2846 459.6194
v 608.3697 -868.8419 459.6194
v 750.0000 -750.0000 459.6194
v 868.8419 -608.3697 459.6194
v 961.2846 -448.2544 459.6194
v 1024.5191 -274.5191 459.6194
v 1056.6240 -92.4426 459.6194
v 1149.0667 0.0000 417.8119
v 1131.6098 199.5333 417.8119
v 1079.7695 393.0039 417.8119
v 995.1209 574.5333 417.8119
v 880.2361 738.6058 417.8119
v 738.6058 880.2361 417.8119
v 574.5333 995.1209 417.8119
v 393.0039 1079.7695 417.8119
v 199.5333 1131.6098 417.8119
v 0.0000 1149.0667 417.8119
v -199.5333 1131.6098 417.8119
v -393.0039 1079.7695 417.8119
v -574.5333 995.1209 417.8119
v -738.6058 880.2361 417.8119
v -880.2361 738.6058 417.8119
v -995.1209 574.5333 417.8119
v -1079.7695 393.0039 417.8119
v -1131.6098 199.5333 417.8119
v -1149.0667 0.0000 417.8119
v -1131.6098 -199.5333 417.8119
v -1079.7695 -393.0039 417.8119
v -995.1209 -574.5333 417.8119
v -880.2361 -738.6058 417.8119
v -738.6058 -880.2361 417.8119
v -574.5333 -995.1209 417.8119
v -393.0039 -1079.7695 417.8119
v -199.5333 -1131.6098 417.8119
v -0.0000 -1149.0667 417.8119
v 199.5333 -1131.6098 417.8119
v 393.0039 -1079.7695 417.8119
v 574.5333 -995.1209 417.8119
v 738.6058 -880.2361 417.8119
v 880.2361 -738.6058 417.8119
v 995.1209 -574.5333 417.8119
v 1079.7695 -393.0039 417.8119
v 1131.6098 -199.5333 417.8119
v 1224.0524 107.0907 372.8247
v 1186.8602 318.0182 372.8247
v 1113.6058 519.2829 372.8247
v 1006.5151 704.7695 372.8247
v 868.8419 868.8419 372.8247
v 704.7695 1006.5151 372.8247
v 519.2829 1113.6058 372.8247
v 318.0182 1186.8602 372.8247
v 107.0907 1224.0524 372.8247
v -107.0907 1224.0524 372.8247
v -318.0182 1186.8602 372.8247
v -519.2829 1113.6058 372.8247
v -704.7695 1006.5151 372.8247
v -868.8419 868.8419 372.8247
v -1006.5151 704.7695 372.8247
v -1113.6058 519.2829 372.8247
v -1186.8602 318.0182 372.8247
v -1224.0524 107.0907 372.8247
v -1224.0524 -107.0907 372.8247
v -1186.8602 -318.0182 372.8247
v -1113.6058 -519.2829 372.8247
v -1006.5151 -704.7695 372.8247
v -868.8419 -868.8419 372.8247
v -704.7695 -1006.5151 372.8247
v -519.2829 -1113.6058 372.8247
v -318.0182 -1186.8602 372.8247
v -107.0907 -1224.0524 372.8247
v 107.0907 -1224.0524 372.8247
v 318.0182 -1186.8602 372.8247
v 519.2829 -1113.6058 372.8247
v 704.7695 -1006.5151 372.8247
v 868.8419 -868.8419 372.8247
v 1006.5151 -704.7695 372.8247
v 1113.6058 -519.2829 372.8247
v 1186.8602 -318.0182 372.8247
v 1224.0524 -107.0907 372.8247
v 1299.0381 0.0000 325.0000
v 1279.3028 225.5756 325.0000
v 1220.6965 444.2972 325.0000
v 1125.0000 649.5191 325.0000
v 995.1209 835.0056 325.0000
v 835.0056 995.1209 325.0000
v 649.5191 1125.0000 325.0000
v 444.2972 1220.6965 325.0000
v 225.5756 1279.3028 325.0000
v 0.0000 1299.0381 325.0000
v -225.5756 1279.3028 325.0000
v -444.2972 1220.6965 325.0000
v -649.5191 1125.0000 325.0000
v -835.0056 995.1209 325.0000
v -995.1209 835.0056 325.0000
v -1125.0000 649.5191 325.0000
v -1220.6965 444.2972 325.0000
v -1279.3028 225.5756 325.0000
v -1299.0381 0.0000 325.0000
v -1279.3028 -225.5756 325.0000
v -1220.6965 -444.2972 325.0000
v -1125.0000 -649.5191 325.0000
v -995.1209 -835.0056 325.0000
v -835.0056 -995.1209 325.0000
v -649.5191 -1125.0000 325.0000
v -444.2972 -1220.6965 325.0000
v -225.5756 -1279.3028 325.0000
v -0.0000 -1299.0381 325.0000
v 225.5756 -1279.3028 325.0000
v 444.2972 -1220.6965 325.0000
v 649.5191 -1125.0000 325.0000
v 835.0056 -995.1209 325.0000
v 995.1209 -835.0056 325.0000
v 1125.0000 -649.5191 325.0000
v 1220.6965 -444.2972 325.0000
v 1279.3028 -225.5756 325.0000
v 1354.2885 118.4849 274.7019
v 1313.1391 351.8546 274.7019
v 1232.0907 574.5333 274.7019
v 1113.6058 779.7552 274.7019
v 961.2846 961.2846 274.7019
v 779.7552 1113.6058 274.7019
v 574.5333 1232.0907 274.7019
v 351.8546 1313.1391 274.7019
v 118.4849 1354.2885 274.7019
v -118.4849 1354.2885 274.7019
v -351.8546 1313.1391 274.7019
v -574.5333 1232.0907 274.7019
v -779.7552 1113.6058 274.7019
v -961.2846 961.2846 274.7019
v -1113.6058 779.7552 274.7019
v -1232.0907 574.5333 274.7019
v -1313.1391 351.8546 274.7019
v -1354.2885 118.4849 274.7019
v -1354.2885 -118.4849 274.7019
v -1313.1391 -351.8546 274.7019
v -1232.0907 -574.5333 274.7019
v -1113.6058 -779.7552 274.7019
v -961.2846 -961.2846 274.7019
v -779.7552 -1113.6058 274.7019
v -574.5333 -1232.0907 274.7019
v -351.8546 -1313.1391 274.7019
v -118.4849 -1354.2885 274.7019
v 118.4849 -1354.2885 274.7019
v 351.8546 -1313.1391 274.7019
v 574.5333 -1232.0907 274.7019
v 779.7552 -1113.6058 274.7019
v 961.2846 -961.2846 274.7019
v 1113.6058 -779.7552 274.7019
v 1232.0907 -574.5333 274.7019
v 1313.1391 -351.8546 274.7019
v 1354.2885 -118.4849 274.7019
v 1409.5389 0.0000 222.3131
v 1388.1249 244.7639 222.3131
v 1324.5333 482.0907 222.3131
v 1220.6965 704.7695 222.3131
v 1079.7695 906.0342 222.3131
v 906.0342 1079.7695 222.3131
v 704.7695 1220.6965 222.3131
v 482.0907 1324.5333 222.3131
v 244.7639 1388.1249 222.3131
v 0.0000 1409.5389 222.3131
v -244.7639 1388.1249 222.3131
v -482.0907 1324.5333 222.3131
v -704.7695 1220.6965 222.3131
v -906.0342 1079.7695 222.3131
v -1079.7695 906.0342 222.3131
v -1220.6965 704.7695 222.3131
v -1324.5333 482.0907 222.3131
v -1388.1249 244.7639 222.3131
v -1409.5389 0.0000 222.3131
v -1388.1249 -244.7639 222.3131
v -1324.5333 -482.0907 222.3131
v -1220.6965 -704.7695 222.3131
v -1079.7695 -906.0342 222.3131
v -906.0342 -1079.7695 222.3131
v -704.7695 -1220.6965 222.3131
v -482.0907 -1324.5333 222.3131
v -244.7639 -1388.1249 222.3131
v -0.0000 -1409.5389 222.3131
v 244.7639 -1388.1249 222.3131
v 482.0907 -1324.5333 222.3131
v 704.7695 -1220.6965 222.3131
v 906.0342 -1079.7695 222.3131
v 1079.7695 -906.0342 222.3131
v 1220.6965 -704.7695 222.3131
v 1324.5333 -482.0907 222.3131
v 1388.1249 -244.7639 222.3131
v 1443.3753 126.2790 168.2324
v 1399.5191 375.0000 168.2324
v 1313.1391 612.3268 168.2324
v 1186.8602 831.0484 168.2324
v 1024.5191 1024.5191 168.2324
v 831.0484 1186.8602 168.2324
v 612.3268 1313.1391 168.2324
v 375.0000 1399.5191 168.2324
v 126.2790 1443.3753 168.2324
v -126.2790 1443.3753 168.2324
v -375.0000 1399.5191 168.2324
v -612.3268 1313.1391 168.2324
v -831.0484 1186.8602 168.2324
v -1024.5191 1024.5191 168.2324
v -1186.8602 831.0484 168.2324
v -1313.1391 612.3268 168.2324
v -1399.5191 375.0000 168.2324
v -1443.3753 126.2790 168.2324
v -1443.3753 -126.2790 168.2324
v -1399.5191 -375.0000 168.2324
v -1313.1391 -612.3268 168.2324
v -1186.8602 -831.0484 168.2324
v -1024.5191 -1024.5191 168.2324
v -831.0484 -1186.8602 168.2324
v -612.3268 -1313.1391 168.2324
v -375.0000 -1399.5191 168.2324
v -126.2790 -1443.3753 168.2324
v 126.2790 -1443.3753 168.2324
v 375.0000 -1399.5191 168.2324
v 612.3268 -1313.1391 168.2324
v 831.0484 -1186.8602 168.2324
v 1024.5191 -1024.5191 168.2324
v 1186.8602 -831.0484 168.2324
v 1313.1391 -612.3268 168.2324
v 1399.5191 -375.0000 168.2324
v 1443.3753 -126.2790 168.2324
v 1477.2116 0.0000 112.8713
v 1454.7695 256.5151 112.8713
v 1388.1249 505.2361 112.8713
v 1279.3028 738.6058 112.8713
v 1131.6098 949.5333 112.8713
v 949.5333 1131.6098 112.8713
v 738.6058 1279.3028 112.8713
v 505.2361 1388.1249 112.8713
v 256.5151 1454.7695 112.8713
v 0.0000 1477.2116 112.8713
v -256.5151 1454.7695 112.8713
v -505.2361 1388.1249 112.8713
v -738.6058 1279.3028 112.8713
v -949.5333 1131.6098 112.8713
v -1131.6098 949.5333 112.8713
v -1279.3028 738.6058 112.8713
v -1388.1249 505.2361 112.8713
v -1454.7695 256.5151 112.8713
v -1477.2116 0.0000 112.8713
v -1454.7695 -256.5151 112.8713
v -1388.1249 -505.2361 112.8713
v -1279.3028 -738.6058 112.8713
v -1131.6098 -949.5333 112.8713
v -949.5333 -1131.6098 112.8713
v -738.6058 -1279.3028 112.8713
v -505.2361 -1388.1249 112.8713
v -256.5151 -1454.7695 112.8713
v -0.0000 -1477.2116 112.8713
v 256.5151 -1454.7695 112.8713
v 505.2361 -1388.1249 112.8713
v 738.6058 -1279.3028 112.8713
v 949.5333 -1131.6098 112.8713
v 1131.6098 -949.5333 112.8713
v 1279.3028 -738.6058 112.8713
v 1388.1249 -505.2361 112.8713
v 1454.7695 -256.5151 112.8713
v 1488.6058 130.2361 56.6512
v 1443.3753 386.7512 56.6512
v 1354.2885 631.5151 56.6512
v 1224.0524 857.0907 56.6512
v 1056.6240 1056.6240 56.6512
v 857.0907 1224.0524 56.6512
v 631.5151 1354.2885 56.6512
v 386.7512 1443.3753 56.6512
v 130.2361 1488.6058 56.6512
v -130.2361 1488.6058 56.6512
v -386.7512 1443.3753 56.6512
v -631.5151 1354.2885 56.6512
v -857.0907 1224.0524 56.6512
v -1056.6240 1056.6240 56.6512
v -1224.0524 857.0907 56.6512
v -1354.2885 631.5151 56.6512
v -1443.3753 386.7512 56.6512
v -1488.6058 130.2361 56.6512
v -1488.6058 -130.2361 56.6512
v -1443.3753 -386.7512 56.6512
v -1354.2885 -631.5151 56.6512
v -1224.0524 -857.0907 56.6512
v -1056.6240 -1056.6240 56.6512
v -857.0907 -1224.0524 56.6512
v -631.5151 -1354.2885 56.6512
v -386.7512 -1443.3753 56.6512
v -130.2361 -1488.6058 56.6512
v 130.2361 -1488.6058 56.6512
v 386.7512 -1443.3753 56.6512
v 631.5151 -1354.2885 56.6512
v 857.0907 -1224.0524 56.6512
v 1056.6240 -1056.6240 56.6512
v 1224.0524 -857.0907 56.6512
v 1354.2885 -631.5151 56.6512
v 1443.3753 -386.7512 56.6512
v 1488.6058 -130.2361 56.6512
v 1500.0000 0.0000 0.0000
v 1477.2116 260.4723 0.0000
v 1409.5389 513.0302 0.0000
v 1299.0381 750.0000 0.0000
v 1149.0667 964.1814 0.0000
v 964.1814 1149.0667 0.0000
v 750.0000 1299.0381 0.0000
v 513.0302 1409.5389 0.0000
v 260.4723 1477.2116 0.0000
v 0.0000 1500.0000 0.0000
v -260.4723 1477.2116 0.0000
v -513.0302 1409.5389 0.0000
v -750.0000 1299.0381 0.0000
v -964.1814 1149.0667 0.0000
v -1149.0667 964.1814 0.0000
v -1299.0381 750.0000 0.0000
v -1409.5389 513.0302 0.0000
v -1477.2116 260.4723 0.0000
v -1500.0000 0.0000 0.0000
v -1477.2116 -260.4723 0.0000
v -1409.5389 -513.0302 0.0000
v -1299.0381 -750.0000 0.0000
v -1149.0667 -964.1814 0.0000
v -964.1814 -1149.0667 0.0000
v -750.0000 -1299.0381 0.0000
v -513.0302 -1409.5389 0.0000
v -260.4723 -1477.2116 0.0000
v -0.0000 -1500.0000 0.0000
v 260.4723 -1477.2116 0.0000
v 513.0302 -1409.5389 0.0000
v 750.0000 -1299.0381 0.0000
v 964.1814 -1149.0667 0.0000
v 1149.0667 -964.1814 0.0000
v 1299.0381 -750.0000 0.0000
v 1409.5389 -513.0302 0.0000
v 1477.2116 -260.4723 0.0000
# 684 vertices

vn 0.0000 0.0000 1.0000
vn 0.0000 0.0000 1.0000
vn 0.0000 0.0000 1.0000
vn 0.0000 0.0000 1.0000
vn 0.0000 0.0000 1.0000
vn 0.0000 0.0000 1.0000
vn 0.0000 0.0000 1.0000
vn 0.0000 0.0000 1.0000
vn 0.0000 0.0000 1.0000
vn 0.0000 0.0000 1.0000
vn -0.0000 0.0000 1.0000
vn -0.0000 0.0000 1.0000
vn -0.0000 0.0000 1.0000
vn -0.0000 0.0000 1.0000
vn -0.0000 0.0000 1.0000
vn -0.0000 0.0000 1.0000
vn -0.0000 0.0000 1.0000
vn -0.0000 0.0000 1.0000
vn -0.0000 0.0000 1.0000
vn -0.0000 -0.0000 1.0000
vn -0.0000 -0.0000 1.0000
vn -0.0000 -0.0000 1.0000
vn -0.0000 -0.0000 1.0000
vn -0.0000 -0.0000 1.0000
vn -0.0000 -0.0000 1.0000
vn -0.0000 -0.0000 1.0000
vn -0.0000 -0.0000 1.0000
vn -0.0000 -0.0000 1.0000
vn 0.0000 -0.0000 1.0000
vn 0.0000 -0.0000 1.0000
vn 0.0000 -0.0000 1.0000
vn 0.0000 -0.0000 1.0000
vn 0.0000 -0.0000 1.0000
vn 0.0000 -0.0000 1.0000
vn 0.0000 -0.0000 1.0000
vn 0.0000 -0.0000 1.0000
vn 0.0868 0.0076 0.9962
vn 0.0842 0.0226 0.9962
vn 0.0790 0.0368 0.9962
vn 0.0714 0.0500 0.9962
vn 0.0616 0.0616 0.9962
vn 0.0500 0.0714 0.9962
vn 0.0368 0.0790 0.9962
vn 0.0226 0.0842 0.9962
vn 0.0076 0.0868 0.9962
vn -0.0076 0.0868 0.9962
vn -0.0226 0.0842 0.9962
vn -0.0368 0.0790 0.9962
vn -0.0500 0.0714 0.9962
vn -0.0616 0.0616 0.9962
vn -0.0714 0.0500 0.9962
vn -0.0790 0.0368 0.9962
vn -0.0842 0.0226 0.9962
vn -0.0868 0.0076 0.9962
vn -0.0868 -0.0076 0.9962
vn -0.0842 -0.0226 0.9962
vn -0.0790 -0.0368 0.9962
vn -0.0714 -0.0500 0.9962
vn -0.0616 -0.0616 0.9962
vn -0.0500 -0.0714 0.9962
vn -0.0368 -0.0790 0.9962
vn -0.0226 -0.0842 0.9962
vn -0.0076 -0.0868 0.9962
vn 0.0076 -0.0868 0.9962
vn 0.0226 -0.0842 0.9962
vn 0.0368 -0.0790 0.9962
vn 0.0500 -0.0714 0.9962
vn 0.0616 -0.0616 0.9962
vn 0.0714 -0.0500 0.9962
vn 0.0790 -0.0368 0.9962
vn 0.0842 -0.0226 0.9962
vn 0.0868 -0.0076 0.9962
vn 0.1736 0.0000 0.9848
vn 0.1710 0.0302 0.9848
vn 0.1632 0.0594 0.9848
vn 0.1504 0.0868 0.9848
vn 0.1330 0.1116 0.9848
vn 0.1116 0.1330 0.9848
vn 0.0868 0.1504 0.9848
vn 0.0594 0.1632 0.9848
vn 0.0302 0.1710 0.9848
vn 0.0000 0.1736 0.9848
vn -0.0302 0.1710 0.9848
vn -0.0594 0.1632 0.9848
vn -0.0868 0.1504 0.9848
vn -0.1116 0.1330 0.9848
vn -0.1330 0.1116 0.9848
vn -0.1504 0.0868 0.9848
vn -0.1632 0.0594 0.9848
vn -0.1710 0.0302 0.9848
vn -0.1736 0.0000 0.9848
vn -0.1710 -0.0302 0.9848
vn -0.1632 -0.0594 0.9848
vn -0.1504 -0.0868 0.9848
vn -0.1330 -0.1116 0.9848
vn -0.1116 -0.1330 0.9848
vn -0.0868 -0.1504 0.9848
vn -0.0594 -0.1632 0.9848
vn -0.0302 -0.1710 0.9848
vn -0.0000 -0.1736 0.9848
vn 0.0302 -0.1710 0.9848
vn 0.0594 -0.1632 0.9848
vn 0.0868 -0.1504 0.9848
vn 0.1116 -0.1330 0.9848
vn 0.1330 -0.1116 0.9848
vn 0.1504 -0.0868 0.9848
vn 0.1632 -0.0594 0.9848
vn 0.1710 -0.0302 0.9848
vn 0.2578 0.0226 0.9659
vn 0.2500 0.0670 0.9659
vn 0.2346 0.1094 0.9659
vn 0.2120 0.1485 0.9659
vn 0.1830 0.1830 0.9659
vn 0.1485 0.2120 0.9659
vn 0.1094 0.2346 0.9659
vn 0.0670 0.2500 0.9659
vn 0.0226 0.2578 0.9659
vn -0.0226 0.2578 0.9659
vn -0.0670 0.2500 0.9659
vn -0.1094 0.2346 0.9659
vn -0.1485 0.2120 0.9659
vn -0.1830 0.1830 0.9659
vn -0.2120 0.1485 0.9659
vn -0.2346 0.1094 0.9659
vn -0.2500 0.0670 0.9659
vn -0.2578 0.0226 0.9659
vn -0.2578 -0.0226 0.9659
vn -0.2500 -0.0670 0.9659
vn -0.2346 -0.1094 0.9659
vn -0.2120 -0.1485 0.9659
vn -0.1830 -0.1830 0.9659
vn -0.1485 -0.2120 0.9659
vn -0.1094 -0.2346 0.9659
vn -0.0670 -0.2500 0.9659
vn -0.0226 -0.2578 0.9659
vn 0.0226 -0.2578 0.9659
vn 0.0670 -0.2500 0.9659
vn 0.1094 -0.2346 0.9659
vn 0.1485 -0.2120 0.9659
vn 0.1830 -0.1830 0.9659
vn 0.2120 -0.1485 0.9659
vn 0.2346 -0.1094 0.9659
vn 0.2500 -0.0670 0.9659
vn 0.2578 -0.0226 0.9659
vn 0.3420 0.0000 0.9397
vn 0.3368 0.0594 0.9397
vn 0.3214 0.1170 0.9397
vn 0.2962 0.1710 0.9397
vn 0.2620 0.2198 0.9397
vn 0.2198 0.2620 0.9397
vn 0.1710 0.2962 0.9397
vn 0.1170 0.3214 0.9397
vn 0.0594 0.3368 0.9397
vn 0.0000 0.3420 0.9397
vn -0.0594 0.3368 0.9397
vn -0.1170 0.3214 0.9397
vn -0.1710 0.2962 0.9397
vn -0.2198 0.2620 0.9397
vn -0.2620 0.2198 0.9397
vn -0.2962 0.1710 0.9397
vn -0.3214 0.1170 0.9397
vn -0.3368 0.0594 0.9397
vn -0.3420 0.0000 0.9397
vn -0.3368 -0.0594 0.9397
vn -0.3214 -0.1170 0.9397
vn -0.2962 -0.1710 0.9397
vn -0.2620 -0.2198 0.9397
vn -0.2198 -0.2620 0.9397
vn -0.1710 -0.2962 0.9397
vn -0.1170 -0.3214 0.9397
vn -0.0594 -0.3368 0.9397
vn -0.0000 -0.3420 0.9397
vn 0.0594 -0.3368 0.9397
vn 0.1170 -0.3214 0.9397
vn 0.1710 -0.2962 0.9397
vn 0.2198 -0.2620 0.9397
vn 0.2620 -0.2198 0.9397
vn 0.2962 -0.1710 0.9397
vn 0.3214 -0.1170 0.9397
vn 0.3368 -0.0594 0.9397
vn 0.4210 0.0368 0.9063
vn 0.4082 0.1094 0.9063
vn 0.3830 0.1786 0.9063
vn 0.3462 0.2424 0.9063
vn 0.2988 0.2988 0.9063
vn 0.2424 0.3462 0.9063
vn 0.1786 0.3830 0.9063
vn 0.1094 0.4082 0.9063
vn 0.0368 0.4210 0.9063
vn -0.0368 0.4210 0.9063
vn -0.1094 0.4082 0.9063
vn -0.1786 0.3830 0.9063
vn -0.2424 0.3462 0.9063
vn -0.2988 0.2988 0.9063
vn -0.3462 0.2424 0.9063
vn -0.3830 0.1786 0.9063
vn -0.4082 0.1094 0.9063
vn -0.4210 0.0368 0.9063
vn -0.4210 -0.0368 0.9063
vn -0.4082 -0.1094 0.9063
vn -0.3830 -0.1786 0.9063
vn -0.3462 -0.2424 0.9063
vn -0.2988 -0.2988 0.9063
vn -0.2424 -0.3462 0.9063
vn -0.1786 -0.3830 0.9063
vn -0.1094 -0.4082 0.9063
vn -0.0368 -0.4210 0.9063
vn 0.0368 -0.4210 0.9063
vn 0.1094 -0.4082 0.9063
vn 0.1786 -0.3830 0.9063
vn 0.2424 -0.3462 0.9063
vn 0.2988 -0.2988 0.9063
vn 0.3462 -0.2424 0.9063
vn 0.3830 -0.1786 0.9063
vn 0.4082 -0.1094 0.9063
vn 0.4210 -0.0368 0.9063
vn 0.5000 0.0000 0.8660
vn 0.4924 0.0868 0.8660
vn 0.4698 0.1710 0.8660
vn 0.4330 0.2500 0.8660
vn 0.3830 0.3214 0.8660
vn 0.3214 0.3830 0.8660
vn 0.2500 0.4330 0.8660
vn 0.1710 0.4698 0.8660
vn 0.0868 0.4924 0.8660
vn 0.0000 0.5000 0.8660
vn -0.0868 0.4924 0.8660
vn -0.1710 0.4698 0.8660
vn -0.2500 0.4330 0.8660
vn -0.3214 0.3830 0.8660
vn -0.3830 0.3214 0.8660
vn -0.4330 0.2500 0.8660
vn -0.4698 0.1710 0.8660
vn -0.4924 0.0868 0.8660
vn -0.5000 0.0000 0.8660
vn -0.4924 -0.0868 0.8660
vn -0.4698 -0.1710 0.8660
vn -0.4330 -0.2500 0.8660
vn -0.3830 -0.3214 0.8660
vn -0.3214 -0.3830 0.8660
vn -0.2500 -0.4330 0.8660
vn -0.1710 -0.4698 0.8660
vn -0.0868 -0.4924 0.8660
vn -0.0000 -0.5000 0.8660
vn 0.0868 -0.4924 0.8660
vn 0.1710 -0.4698 0.8660
vn 0.2500 -0.4330 0.8660
vn 0.3214 -0.3830 0.8660
vn 0.3830 -0.3214 0.8660
vn 0.4330 -0.2500 0.8660
vn 0.4698 -0.1710 0.8660
vn 0.4924 -0.0868 0.8660
vn 0.5714 0.0500 0.8192
vn 0.5540 0.1485 0.8192
vn 0.5198 0.2424 0.8192
vn 0.4698 0.3290 0.8192
vn 0.4056 0.4056 0.8192
vn 0.3290 0.4698 0.8192
vn 0.2424 0.5198 0.8192
vn 0.1485 0.5540 0.8192
vn 0.0500 0.5714 0.8192
vn -0.0500 0.5714 0.8192
vn -0.1485 0.5540 0.8192
vn -0.2424 0.5198 0.8192
vn -0.3290 0.4698 0.8192
vn -0.4056 0.4056 0.8192
vn -0.4698 0.3290 0.8192
vn -0.5198 0.2424 0.8192
vn -0.5540 0.1485 0.8192
vn -0.5714 0.0500 0.8192
vn -0.5714 -0.0500 0.8192
vn -0.5540 -0.1485 0.8192
vn -0.5198 -0.2424 0.8192
vn -0.4698 -0.3290 0.8192
vn -0.4056 -0.4056 0.8192
vn -0.3290 -0.4698 0.8192
vn -0.2424 -0.5198 0.8192
vn -0.1485 -0.5540 0.8192
vn -0.0500 -0.5714 0.8192
vn 0.0500 -0.5714 0.8192
vn 0.1485 -0.5540 0.8192
vn 0.2424 -0.5198 0.8192
vn 0.3290 -0.4698 0.8192
vn 0.4056 -0.4056 0.8192
vn 0.4698 -0.3290 0.8192
vn 0.5198 -0.2424 0.8192
vn 0.5540 -0.1485 0.8192
vn 0.5714 -0.0500 0.8192
vn 0.6428 0.0000 0.7660
vn 0.6330 0.1116 0.7660
vn 0.6040 0.2198 0.7660
vn 0.5567 0.3214 0.7660
vn 0.4924 0.4132 0.7660
vn 0.4132 0.4924 0.7660
vn 0.3214 0.5567 0.7660
vn 0.2198 0.6040 0.7660
vn 0.1116 0.6330 0.7660
vn 0.0000 0.6428 0.7660
vn -0.1116 0.6330 0.7660
vn -0.2198 0.6040 0.7660
vn -0.3214 0.5567 0.7660
vn -0.4132 0.4924 0.7660
vn -0.4924 0.4132 0.7660
vn -0.5567 0.3214 0.7660
vn -0.6040 0.2198 0.7660
vn -0.6330 0.1116 0.7660
vn -0.6428 0.0000 0.7660
vn -0.6330 -0.1116 0.7660
vn -0.6040 -0.2198 0.7660
vn -0.5567 -0.3214 0.7660
vn -0.4924 -0.4132 0.7660
vn -0.4132 -0.4924 0.7660
vn -0.3214 -0.5567 0.7660
vn -0.2198 -0.6040 0.7660
vn -0.1116 -0.6330 0.7660
vn -0.0000 -0.6428 0.7660
vn 0.1116 -0.6330 0.7660
vn 0.2198 -0.6040 0.7660
vn 0.3214 -0.5567 0.7660
vn 0.4132 -0.4924 0.7660
vn 0.4924 -0.4132 0.7660
vn 0.5567 -0.3214 0.7660
vn 0.6040 -0.2198 0.7660
vn 0.6330 -0.1116 0.7660
vn 0.7044 0.0616 0.7071
vn 0.6830 0.1830 0.7071
vn 0.6409 0.2988 0.7071
vn 0.5792 0.4056 0.7071
vn 0.5000 0.5000 0.7071
vn 0.4056 0.5792 0.7071
vn 0.2988 0.6409 0.7071
vn 0.1830 0.6830 0.7071
vn 0.0616 0.7044 0.7071
vn -0.0616 0.7044 0.7071
vn -0.1830 0.6830 0.7071
vn -0.2988 0.6409 0.7071
vn -0.4056 0.5792 0.7071
vn -0.5000 0.5000 0.7071
vn -0.5792 0.4056 0.7071
vn -0.6409 0.2988 0.7071
vn -0.6830 0.1830 0.7071
vn -0.7044 0.0616 0.7071
vn -0.7044 -0.0616 0.7071
vn -0.6830 -0.1830 0.7071
vn -0.6409 -0.2988 0.7071
vn -0.5792 -0.4056 0.7071
vn -0.5000 -0.5000 0.7071
vn -0.4056 -0.5792 0.7071
vn -0.2988 -0.6409 0.7071
vn -0.1830 -0.6830 0.7071
vn -0.0616 -0.7044 0.7071
vn 0.0616 -0.7044 0.7071
vn 0.1830 -0.6830 0.7071
vn 0.2988 -0.6409 0.7071
vn 0.4056 -0.5792 0.7071
vn 0.5000 -0.5000 0.7071
vn 0.5792 -0.4056 0.7071
vn 0.6409 -0.2988 0.7071
vn 0.6830 -0.1830 0.7071
vn 0.7044 -0.0616 0.7071
vn 0.7660 0.0000 0.6428
vn 0.7544 0.1330 0.6428
vn 0.7198 0.2620 0.6428
vn 0.6634 0.3830 0.6428
vn 0.5868 0.4924 0.6428
vn 0.4924 0.5868 0.6428
vn 0.3830 0.6634 0.6428
vn 0.2620 0.7198 0.6428
vn 0.1330 0.7544 0.6428
vn 0.0000 0.7660 0.6428
vn -0.1330 0.7544 0.6428
vn -0.2620 0.7198 0.6428
vn -0.3830 0.6634 0.6428
vn -0.4924 0.5868 0.6428
vn -0.5868 0.4924 0.6428
vn -0.6634 0.3830 0.6428
vn -0.7198 0.2620 0.6428
vn -0.7544 0.1330 0.6428
vn -0.7660 0.0000 0.6428
vn -0.7544 -0.1330 0.6428
vn -0.7198 -0.2620 0.6428
vn -0.6634 -0.3830 0.6428
vn -0.5868 -0.4924 0.6428
vn -0.4924 -0.5868 0.6428
vn -0.3830 -0.6634 0.6428
vn -0.2620 -0.7198 0.6428
vn -0.1330 -0.7544 0.6428
vn -0.0000 -0.7660 0.6428
vn 0.1330 -0.7544 0.6428
vn 0.2620 -0.7198 0.6428
vn 0.3830 -0.6634 0.6428
vn 0.4924 -0.5868 0.6428
vn 0.5868 -0.4924 0.6428
vn 0.6634 -0.3830 0.6428
vn 0.7198 -0.2620 0.6428
vn 0.7544 -0.1330 0.6428
vn 0.8160 0.0714 0.5736
vn 0.7912 0.2120 0.5736
vn 0.7424 0.3462 0.5736
vn 0.6710 0.4698 0.5736
vn 0.5792 0.5792 0.5736
vn 0.4698 0.6710 0.5736
vn 0.3462 0.7424 0.5736
vn 0.2120 0.7912 0.5736
vn 0.0714 0.8160 0.5736
vn -0.0714 0.8160 0.5736
vn -0.2120 0.7912 0.5736
vn -0.3462 0.7424 0.5736
vn -0.4698 0.6710 0.5736
vn -0.5792 0.5792 0.5736
vn -0.6710 0.4698 0.5736
vn -0.7424 0.3462 0.5736
vn -0.7912 0.2120 0.5736
vn -0.8160 0.0714 0.5736
vn -0.8160 -0.0714 0.5736
vn -0.7912 -0.2120 0.5736
vn -0.7424 -0.3462 0.5736
vn -0.6710 -0.4698 0.5736
vn -0.5792 -0.5792 0.5736
vn -0.4698 -0.6710 0.5736
vn -0.3462 -0.7424 0.5736
vn -0.2120 -0.7912 0.5736
vn -0.0714 -0.8160 0.5736
vn 0.0714 -0.8160 0.5736
vn 0.2120 -0.7912 0.5736
vn 0.3462 -0.7424 0.5736
vn 0.4698 -0.6710 0.5736
vn 0.5792 -0.5792 0.5736
vn 0.6710 -0.4698 0.5736
vn 0.7424 -0.3462 0.5736
vn 0.7912 -0.2120 0.5736
vn 0.8160 -0.0714 0.5736
vn 0.8660 0.0000 0.5000
vn 0.8529 0.1504 0.5000
vn 0.8138 0.2962 0.5000
vn 0.7500 0.4330 0.5000
vn 0.6634 0.5567 0.5000
vn 0.5567 0.6634 0.5000
vn 0.4330 0.7500 0.5000
vn 0.2962 0.8138 0.5000
vn 0.1504 0.8529 0.5000
vn 0.0000 0.8660 0.5000
vn -0.1504 0.8529 0.5000
vn -0.2962 0.8138 0.5000
vn -0.4330 0.7500 0.5000
vn -0.5567 0.6634 0.5000
vn -0.6634 0.5567 0.5000
vn -0.7500 0.4330 0.5000
vn -0.8138 0.2962 0.5000
vn -0.8529 0.1504 0.5000
vn -0.8660 0.0000 0.5000
vn -0.8529 -0.1504 0.5000
vn -0.8138 -0.2962 0.5000
vn -0.7500 -0.4330 0.5000
vn -0.6634 -0.5567 0.5000
vn -0.5567 -0.6634 0.5000
vn -0.4330 -0.7500 0.5000
vn -0.2962 -0.8138 0.5000
vn -0.1504 -0.8529 0.5000
vn -0.0000 -0.8660 0.5000
vn 0.1504 -0.8529 0.5000
vn 0.2962 -0.8138 0.5000
vn 0.4330 -0.7500 0.5000
vn 0.5567 -0.6634 0.5000
vn 0.6634 -0.5567 0.5000
vn 0.7500 -0.4330 0.5000
vn 0.8138 -0.2962 0.5000
vn 0.8529 -0.1504 0.5000
vn 0.9029 0.0790 0.4226
vn 0.8754 0.2346 0.4226
vn 0.8214 0.3830 0.4226
vn 0.7424 0.5198 0.4226
vn 0.6409 0.6409 0.4226
vn 0.5198 0.7424 0.4226
vn 0.3830 0.8214 0.4226
vn 0.2346 0.8754 0.4226
vn 0.0790 0.9029 0.4226
vn -0.0790 0.9029 0.4226
vn -0.2346 0.8754 0.4226
vn -0.3830 0.8214 0.4226
vn -0.5198 0.7424 0.4226
vn -0.6409 0.6409 0.4226
vn -0.7424 0.5198 0.4226
vn -0.8214 0.3830 0.4226
vn -0.8754 0.2346 0.4226
vn -0.9029 0.0790 0.4226
vn -0.9029 -0.0790 0.4226
vn -0.8754 -0.2346 0.4226
vn -0.8214 -0.3830 0.4226
vn -0.7424 -0.5198 0.4226
vn -0.6409 -0.6409 0.4226
vn -0.5198 -0.7424 0.4226
vn -0.3830 -0.8214 0.4226
vn -0.2346 -0.8754 0.4226
vn -0.0790 -0.9029 0.4226
vn 0.0790 -0.9029 0.4226
vn 0.2346 -0.8754 0.4226
vn 0.3830 -0.8214 0.4226
vn 0.5198 -0.7424 0.4226
vn 0.6409 -0.6409 0.4226
vn 0.7424 -0.5198 0.4226
vn 0.8214 -0.3830 0.4226
vn 0.8754 -0.2346 0.4226
vn 0.9029 -0.0790 0.4226
vn 0.9397 0.0000 0.3420
vn 0.9254 0.1632 0.3420
vn 0.8830 0.3214 0.3420
vn 0.8138 0.4698 0.3420
vn 0.7198 0.6040 0.3420
vn 0.6040 0.7198 0.3420
vn 0.4698 0.8138 0.3420
vn 0.3214 0.8830 0.3420
vn 0.1632 0.9254 0.3420
vn 0.0000 0.9397 0.3420
vn -0.1632 0.9254 0.3420
vn -0.3214 0.8830 0.3420
vn -0.4698 0.8138 0.3420
vn -0.6040 0.7198 0.3420
vn -0.7198 0.6040 0.3420
vn -0.8138 0.4698 0.3420
vn -0.8830 0.3214 0.3420
vn -0.9254 0.1632 0.3420
vn -0.9397 0.0000 0.3420
vn -0.9254 -0.1632 0.3420
vn -0.8830 -0.3214 0.3420
vn -0.8138 -0.4698 0.3420
vn -0.7198 -0.6040 0.3420
vn -0.6040 -0.7198 0.3420
vn -0.4698 -0.8138 0.3420
vn -0.3214 -0.8830 0.3420
vn -0.1632 -0.9254 0.3420
vn -0.0000 -0.9397 0.3420
vn 0.1632 -0.9254 0.3420
vn 0.3214 -0.8830 0.3420
vn 0.4698 -0.8138 0.3420
vn 0.6040 -0.7198 0.3420
vn 0.7198 -0.6040 0.3420
vn 0.8138 -0.4698 0.3420
vn 0.8830 -0.3214 0.3420
vn 0.9254 -0.1632 0.3420
vn 0.9623 0.0842 0.2588
vn 0.9330 0.2500 0.2588
vn 0.8754 0.4082 0.2588
vn 0.7912 0.5540 0.2588
vn 0.6830 0.6830 0.2588
vn 0.5540 0.7912 0.2588
vn 0.4082 0.8754 0.2588
vn 0.2500 0.9330 0.2588
vn 0.0842 0.9623 0.2588
vn -0.0842 0.9623 0.2588
vn -0.2500 0.9330 0.2588
vn -0.4082 0.8754 0.2588
vn -0.5540 0.7912 0.2588
vn -0.6830 0.6830 0.2588
vn -0.7912 0.5540 0.2588
vn -0.8754 0.4082 0.2588
vn -0.9330 0.2500 0.2588
vn -0.9623 0.0842 0.2588
vn -0.9623 -0.0842 0.2588
vn -0.9330 -0.2500 0.2588
vn -0.8754 -0.4082 0.2588
vn -0.7912 -0.5540 0.2588
vn -0.6830 -0.6830 0.2588
vn -0.5540 -0.7912 0.2588
vn -0.4082 -0.8754 0.2588
vn -0.2500 -0.9330 0.2588
vn -0.0842 -0.9623 0.2588
vn 0.0842 -0.9623 0.2588
vn 0.2500 -0.9330 0.2588
vn 0.4082 -0.8754 0.2588
vn 0.5540 -0.7912 0.2588
vn 0.6830 -0.6830 0.2588
vn 0.7912 -0.5540 0.2588
vn 0.8754 -0.4082 0.2588
vn 0.9330 -0.2500 0.2588
vn 0.9623 -0.0842 0.2588
vn 0.9848 0.0000 0.1736
vn 0.9698 0.1710 0.1736
vn 0.9254 0.3368 0.1736
vn 0.8529 0.4924 0.1736
vn 0.7544 0.6330 0.1736
vn 0.6330 0.7544 0.1736
vn 0.4924 0.8529 0.1736
vn 0.3368 0.9254 0.1736
vn 0.1710 0.9698 0.1736
vn 0.0000 0.9848 0.1736
vn -0.1710 0.9698 0.1736
vn -0.3368 0.9254 0.1736
vn -0.4924 0.8529 0.1736
vn -0.6330 0.7544 0.1736
vn -0.7544 0.6330 0.1736
vn -0.8529 0.4924 0.1736
vn -0.9254 0.3368 0.1736
vn -0.9698 0.1710 0.1736
vn -0.9848 0.0000 0.1736
vn -0.9698 -0.1710 0.1736
vn -0.9254 -0.3368 0.1736
vn -0.8529 -0.4924 0.1736
vn -0.7544 -0.6330 0.1736
vn -0.6330 -0.7544 0.1736
vn -0.4924 -0.8529 0.1736
vn -0.3368 -0.9254 0.1736
vn -0.1710 -0.9698 0.1736
vn -0.0000 -0.9848 0.1736
vn 0.1710 -0.9698 0.1736
vn 0.3368 -0.9254 0.1736
vn 0.4924 -0.8529 0.1736
vn 0.6330 -0.7544 0.1736
vn 0.7544 -0.6330 0.1736
vn 0.8529 -0.4924 0.1736
vn 0.9254 -0.3368 0.1736
vn 0.9698 -0.1710 0.1736
vn 0.9924 0.0868 0.0872
vn 0.9623 0.2578 0.0872
vn 0.9029 0.4210 0.0872
vn 0.8160 0.5714 0.0872
vn 0.7044 0.7044 0.0872
vn 0.5714 0.8160 0.0872
vn 0.4210 0.9029 0.0872
vn 0.2578 0.9623 0.0872
vn 0.0868 0.9924 0.0872
vn -0.0868 0.9924 0.0872
vn -0.2578 0.9623 0.0872
vn -0.4210 0.9029 0.0872
vn -0.5714 0.8160 0.0872
vn -0.7044 0.7044 0.0872
vn -0.8160 0.5714 0.0872
vn -0.9029 0.4210 0.0872
vn -0.9623 0.2578 0.0872
vn -0.9924 0.0868 0.0872
vn -0.9924 -0.0868 0.0872
vn -0.9623 -0.2578 0.0872
vn -0.9029 -0.4210 0.0872
vn -0.8160 -0.5714 0.0872
vn -0.7044 -0.7044 0.0872
vn -0.5714 -0.8160 0.0872
vn -0.4210 -0.9029 0.0872
vn -0.2578 -0.9623 0.0872
vn -0.0868 -0.9924 0.0872
vn 0.0868 -0.9924 0.0872
vn 0.2578 -0.9623 0.0872
vn 0.4210 -0.9029 0.0872
vn 0.5714 -0.8160 0.0872
vn 0.7044 -0.7044 0.0872
vn 0.8160 -0.5714 0.0872
vn 0.9029 -0.4210 0.0872
vn 0.9623 -0.2578 0.0872
vn 0.9924 -0.0868 0.0872
vn 1.0000 0.0000 0.0000
vn 0.9848 0.1736 0.0000
vn 0.9397 0.3420 0.0000
vn 0.8660 0.5000 0.0000
vn 0.7660 0.6428 0.0000
vn 0.6428 0.7660 0.0000
vn 0.5000 0.8660 0.0000
vn 0.3420 0.9397 0.0000
vn 0.1736 0.9848 0.0000
vn 0.0000 1.0000 0.0000
vn -0.1736 0.9848 0.0000
vn -0.3420 0.9397 0.0000
vn -0.5000 0.8660 0.0000
vn -0.6428 0.7660 0.0000
vn -0.7660 0.6428 0.0000
vn -0.8660 0.5000 0.0000
vn -0.9397 0.3420 0.0000
vn -0.9848 0.1736 0.0000
vn -1.0000 0.0000 0.0000
vn -0.9848 -0.1736 0.0000
vn -0.9397 -0.3420 0.0000
vn -0.8660 -0.5000 0.0000
vn -0.7660 -0.6428 0.0000
vn -0.6428 -0.7660 0.0000
vn -0.5000 -0.8660 0.0000
vn -0.3420 -0.9397 0.0000
vn -0.1736 -0.9848 0.0000
vn -0.0000 -1.0000 0.0000
vn 0.1736 -0.9848 0.0000
vn 0.3420 -0.9397 0.0000
vn 0.5000 -0.8660 0.0000
vn 0.6428 -0.7660 0.0000
vn 0.7660 -0.6428 0.0000
vn 0.8660 -0.5000 0.0000
vn 0.9397 -0.3420 0.0000
vn 0.9848 -0.1736 0.0000
# 684 normals

vt 0.0000 0.0000
vt 0.0278 0.0000
vt 0.0556 0.0000
vt 0.0833 0.0000
vt 0.1111 0.0000
vt 0.1389 0.0000
vt 0.1667 0.0000
vt 0.1944 0.0000
vt 0.2222 0.0000
vt 0.2500 0.0000
vt 0.2778 0.0000
vt 0.3056 0.0000
vt 0.3333 0.0000
vt 0.3611 0.0000
vt 0.3889 0.0000
vt 0.4167 0.0000
vt 0.4444 0.0000
vt 0.4722 0.0000
vt 0.5000 0.0000
vt 0.5278 0.0000
vt 0.5556 0.0000
vt 0.5833 0.0000
vt 0.6111 0.0000
vt 0.6389 0.0000
vt 0.6667 0.0000
vt 0.6944 0.0000
vt 0.7222 0.0000
vt 0.7500 0.0000
vt 0.7778 0.0000
vt 0.8056 0.0000
vt 0.8333 0.0000
vt 0.8611 0.0000
vt 0.8889 0.0000
vt 0.9167 0.0000
vt 0.9444 0.0000
vt 0.9722 0.0000
vt 0.0000 0.0556
vt 0.0278 0.0556
vt 0.0556 0.0556
vt 0.0833 0.0556
vt 0.1111 0.0556
vt 0.1389 0.0556
vt 0.1667 0.0556
vt 0.1944 0.0556
vt 0.2222 0.0556
vt 0.2500 0.0556
vt 0.2778 0.0556
vt 0.3056 0.0556
vt 0.3333 0.0556
vt 0.3611 0.0556
vt 0.3889 0.0556
vt 0.4167 0.0556
vt 0.4444 0.0556
vt 0.4722 0.0556
vt 0.5000 0.0556
vt 0.5278 0.0556
vt 0.5556 0.0556
vt 0.5833 0.0556
vt 0.6111 0.0556
vt 0.6389 0.0556
vt 0.6667 0.0556
vt 0.6944 0.0556
vt 0.7222 0.0556
vt 0.7500 0.0556
vt 0.7778 0.0556
vt 0.8056 0.0556
vt 0.8333 0.0556
vt 0.8611 0.0556
vt 0.8889 0.0556
vt 0.9167 0.0556
vt 0.9444 0.0556
vt 0.9722 0.0556
vt 0.0000 0.1111
vt 0.0278 0.1111
vt 0.0556 0.1111
vt 0.0833 0.1111
vt 0.1111 0.1111
vt 0.1389 0.1111
vt 0.1667 0.1111
vt 0.1944 0.1111
vt 0.2222 0.1111
vt 0.2500 0.1111
vt 0.2778 0.1111
vt 0.3056 0.1111
vt 0.3333 0.1111
vt 0.3611 0.1111
vt 0.3889 0.1111
vt 0.4167 0.1111
vt 0.4444 0.1111
vt 0.4722 0.1111
vt 0.5000 0.1111
vt 0.5278 0.1111
vt 0.5556 0.1111
vt 0.5833 0.1111
vt 0.6111 0.1111
vt 0.6389 0.1111
vt 0.6667 0.1111
vt 0.6944 0.1111
vt 0.7222 0.1111
vt 0.7500 0.1111
vt 0.7778 0.1111
vt 0.8056 0.1111
vt 0.8333 0.1111
vt 0.8611 0.1111
vt 0.8889 0.1111
vt 0.9167 0.1111
vt 0.9444 0.1111
vt 0.9722 0.1111
vt 0.0000 0.1667
vt 0.0278 0.1667
vt 0.0556 0.1667
vt 0.0833 0.1667
vt 0.1111 0.1667
vt 0.1389 0.1667
vt 0.1667 0.1667
vt 0.1944 0.1667
vt 0.2222 0.1667
vt 0.2500 0.1667
vt 0.2778 0.1667
vt 0.3056 0.1667
vt 0.3333 0.1667
vt 0.3611 0.1667
vt 0.3889 0.1667
vt 0.4167 0.1667
vt 0.4444 0.1667
vt 0.4722 0.1667
vt 0.5000 0.1667
vt 0.5278 0.1667
vt 0.5556 0.1667
vt 0.5833 0.1667
vt 0.6111 0.1667
vt 0.6389 0.1667
vt 0.6667 0.1667
vt 0.6944 0.1667
vt 0.7222 0.1667
vt 0.7500 0.1667
vt 0.7778 0.1667
vt 0.8056 0.1667
vt 0.8333 0.1667
vt 0.8611 0.1667
vt 0.8889 0.1667
vt 0.9167 0.1667
vt 0.9444 0.1667
vt 0.9722 0.1667
vt 0.0000 0.2222
vt 0.0278 0.2222
vt 0.0556 0.2222
vt 0.0833 0.2222
vt 0.1111 0.2222
vt 0.1389 0.2222
vt 0.1667 0.2222
vt 0.1944 0.2222
vt 0.2222 0.2222
vt 0.2500 0.2222
vt 0.2778 0.2222
vt 0.3056 0.2222
vt 0.3333 0.2222
vt 0.3611 0.2222
vt 0.3889 0.2222
vt 0.4167 0.2222
vt 0.4444 0.2222
vt 0.4722 0.2222
vt 0.5000 0.2222
vt 0.5278 0.2222
vt 0.5556 0.2222
vt 0.5833 0.2222
vt 0.6111 0.2222
vt 0.6389 0.2222
vt 0.6667 0.2222
vt 0.6944 0.2222
vt 0.7222 0.2222
vt 0.7500 0.2222
vt 0.7778 0.2222
vt 0.8056 0.2222
vt 0.8333 0.2222
vt 0.8611 0.2222
vt 0.8889 0.2222
vt 0.9167 0.2222
vt 0.9444 0.2222
vt 0.9722 0.2222
vt 0.0000 0.2778
vt 0.0278 0.2778
vt 0.0556 0.2778
vt 0.0833 0.2778
vt 0.1111 0.2778
vt 0.1389 0.2778
vt 0.1667 0.2778
vt 0.1944 0.2778
vt 0.2222 0.2778
vt 0.2500 0.2778
vt 0.2778 0.2778
vt 0.3056 0.2778
vt 0.3333 0.2778
vt 0.3611 0.2778
vt 0.3889 0.2778
vt 0.4167 0.2778
vt 0.4444 0.2778
vt 0.4722 0.2778
vt 0.5000 0.2778
vt 0.5278 0.2778
vt 0.5556 0.2778
vt 0.5833 0.2778
vt 0.6111 0.2778
vt 0.6389 0.2778
vt 0.6667 0.2778
vt 0.6944 0.2778
vt 0.7222 0.2778
vt 0.7500 0.2778
vt 0.7778 0.2778
vt 0.8056 0.2778
vt 0.8333 0.2778
vt 0.8611 0.2778
vt 0.8889 0.2778
vt 0.9167 0.2778
vt 0.9444 0.2778
vt 0.9722 0.2778
vt 0.0000 0.3333
vt 0.0278 0.3333
vt 0.0556 0.3333
vt 0.0833 0.3333
vt 0.1111 0.3333
vt 0.1389 0.3333
vt 0.1667 0.3333
vt 0.1944 0.3333
vt 0.2222 0.3333
vt 0.2500 0.3333
vt 0.2778 0.3333
vt 0.3056 0.3333
vt 0.3333 0.3333
vt 0.3611 0.3333
vt 0.3889 0.3333
vt 0.4167 0.3333
vt 0.4444 0.3333
vt 0.4722 0.3333
vt 0.5000 0.3333
vt 0.5278 0.3333
vt 0.5556 0.3333
vt 0.5833 0.3333
vt 0.6111 0.3333
vt 0.6389 0.3333
vt 0.6667 0.3333
vt 0.6944 0.3333
vt 0.7222 0.3333
vt 0.7500 0.3333
vt 0.7778 0.3333
vt 0.8056 0.3333
vt 0.8333 0.3333
vt 0.8611 0.3333
vt 0.8889 0.3333
vt 0.9167 0.3333
vt 0.9444 0.3333
vt 0.9722 0.3333
vt 0.0000 0.3889
vt 0.0278 0.3889
vt 0.0556 0.3889
vt 0.0833 0.3889
vt 0.1111 0.3889
vt 0.1389 0.3889
vt 0.1667 0.3889
vt 0.1944 0.3889
vt 0.2222 0.3889
vt 0.2500 0.3889
vt 0.2778 0.3889
vt 0.3056 0.3889
vt 0.3333 0.3889
vt 0.3611 0.3889
vt 0.3889 0.3889
vt 0.4167 0.3889
vt 0.4444 0.3889
vt 0.4722 0.3889
vt 0.5000 0.3889
vt 0.5278 0.3889
vt 0.5556 0.3889
vt 0.5833 0.3889
vt 0.6111 0.3889
vt 0.6389 0.3889
vt 0.6667 0.3889
vt 0.6944 0.3889
vt 0.7222 0.3889
vt 0.7500 0.3889
vt 0.7778 0.3889
vt 0.8056 0.3889
vt 0.8333 0.3889
vt 0.8611 0.3889
vt 0.8889 0.3889
vt 0.9167 0.3889
vt 0.9444 0.3889
vt 0.9722 0.3889
vt 0.0000 0.4444
vt 0.0278 0.4444
vt 0.0556 0.4444
vt 0.0833 0.4444
vt 0.1111 0.4444
vt 0.1389 0.4444
vt 0.1667 0.4444
vt 0.1944 0.4444
vt 0.2222 0.4444
vt 0.2500 0.4444
vt 0.2778 0.4444
vt 0.3056 0.4444
vt 0.3333 0.4444
vt 0.3611 0.4444
vt 0.3889 0.4444
vt 0.4167 0.4444
vt 0.4444 0.4444
vt 0.4722 0.4444
vt 0.5000 0.4444
vt 0.5278 0.4444
vt 0.5556 0.4444
vt 0.5833 0.4444
vt 0.6111 0.4444
vt 0.6389 0.4444
vt 0.6667 0.4444
vt 0.6944 0.4444
vt 0.7222 0.4444
vt 0.7500 0.4444
vt 0.7778 0.4444
vt 0.8056 0.4444
vt 0.8333 0.4444
vt 0.8611 0.4444
vt 0.8889 0.4444
vt 0.9167 0.4444
vt 0.9444 0.4444
vt 0.9722 0.4444
vt 0.0000 0.5000
vt 0.0278 0.5000
vt 0.0556 0.5000
vt 0.0833 0.5000
vt 0.1111 0.5000
vt 0.1389 0.5000
vt 0.1667 0.5000
vt 0.1944 0.5000
vt 0.2222 0.5000
vt 0.2500 0.5000
vt 0.2778 0.5000
vt 0.3056 0.5000
vt 0.3333 0.5000
vt 0.3611 0.5000
vt 0.3889 0.5000
vt 0.4167 0.5000
vt 0.4444 0.5000
vt 0.4722 0.5000
vt 0.5000 0.5000
vt 0.5278 0.5000
vt 0.5556 0.5000
vt 0.5833 0.5000
vt 0.6111 0.5000
vt 0.6389 0.5000
vt 0.6667 0.5000
vt 0.6944 0.5000
vt 0.7222 0.5000
vt 0.7500 0.5000
vt 0.7778 0.5000
vt 0.8056 0.5000
vt 0.8333 0.5000
vt 0.8611 0.5000
vt 0.8889 0.5000
vt 0.9167 0.5000
vt 0.9444 0.5000
vt 0.9722 0.5000
vt 0.0000 0.5556
vt 0.0278 0.5556
vt 0.0556 0.5556
vt 0.0833 0.5556
vt 0.1111 0.5556
vt 0.1389 0.5556
vt 0.1667 0.5556
vt 0.1944 0.5556
vt 0.2222 0.5556
vt 0.2500 0.5556
vt 0.2778 0.5556
vt 0.3056 0.5556
vt 0.3333 0.5556
vt 0.3611 0.5556
vt 0.3889 0.5556
vt 0.4167 0.5556
vt 0.4444 0.5556
vt 0.4722 0.5556
vt 0.5000 0.5556
vt 0.5278 0.5556
vt 0.5556 0.5556
vt 0.5833 0.5556
vt 0.6111 0.5556
vt 0.6389 0.5556
vt 0.6667 0.5556
vt 0.6944 0.5556
vt 0.7222 0.5556
vt 0.7500 0.5556
vt 0.7778 0.5556
vt 0.8056 0.5556
vt 0.8333 0.5556
vt 0.8611 0.5556
vt 0.8889 0.5556
vt 0.9167 0.5556
vt 0.9444 0.5556
vt 0.9722 0.5556
vt 0.0000 0.6111
vt 0.0278 0.6111
vt 0.0556 0.6111
vt 0.0833 0.6111
vt 0.1111 0.6111
vt 0.1389 0.6111
vt 0.1667 0.6111
vt 0.1944 0.6111
vt 0.2222 0.6111
vt 0.2500 0.6111
vt 0.2778 0.6111
vt 0.3056 0.6111
vt 0.3333 0.6111
vt 0.3611 0.6111
vt 0.3889 0.6111
vt 0.4167 0.6111
vt 0.4444 0.6111
vt 0.4722 0.6111
vt 0.5000 0.6111
vt 0.5278 0.6111
vt 0.5556 0.6111
vt 0.5833 0.6111
vt 0.6111 0.6111
vt 0.6389 0.6111
vt 0.6667 0.6111
vt 0.6944 0.6111
vt 0.7222 0.6111
vt 0.7500 0.6111
vt 0.7778 0.6111
vt 0.8056 0.6111
vt 0.8333 0.6111
vt 0.8611 0.6111
vt 0.8889 0.6111
vt 0.9167 0.6111
vt 0.9444 0.6111
vt 0.9722 0.6111
vt 0.0000 0.6667
vt 0.0278 0.6667
vt 0.0556 0.6667
vt 0.0833 0.6667
vt 0.1111 0.6667
vt 0.1389 0.6667
vt 0.1667 0.6667
vt 0.1944 0.6667
vt 0.2222 0.6667
vt 0.2500 0.6667
vt 0.2778 0.6667
vt 0.3056 0.6667
vt 0.3333 0.6667
vt 0.3611 0.6667
vt 0.3889 0.6667
vt 0.4167 0.6667
vt 0.4444 0.6667
vt 0.4722 0.6667
vt 0.5000 0.6667
vt 0.5278 0.6667
vt 0.5556 0.6667
vt 0.5833 0.6667
vt 0.6111 0.6667
vt 0.6389 0.6667
vt 0.6667 0.6667
vt 0.6944 0.6667
vt 0.7222 0.6667
vt 0.7500 0.6667
vt 0.7778 0.6667
vt 0.8056 0.6667
vt 0.8333 0.6667
vt 0.8611 0.6667
vt 0.8889 0.6667
vt 0.9167 0.6667
vt 0.9444 0.6667
vt 0.9722 0.6667
vt 0.0000 0.7222
vt 0.0278 0.7222
vt 0.0556 0.7222
vt 0.0833 0.7222
vt 0.1111 0.7222
vt 0.1389 0.7222
vt 0.1667 0.7222
vt 0.1944 0.7222
vt 0.2222 0.7222
vt 0.2500 0.7222
vt 0.2778 0.7222
vt 0.3056 0.7222
vt 0.3333 0.7222
vt 0.3611 0.7222
vt 0.3889 0.7222
vt 0.4167 0.7222
vt 0.4444 0.7222
vt 0.4722 0.7222
vt 0.5000 0.7222
vt 0.5278 0.7222
vt 0.5556 0.7222
vt 0.5833 0.7222
vt 0.6111 0.7222
vt 0.6389 0.7222
vt 0.6667 0.7222
vt 0.6944 0.7222
vt 0.7222 0.7222
vt 0.7500 0.7222
vt 0.7778 0.7222
vt 0.8056 0.7222
vt 0.8333 0.7222
vt 0.8611 0.7222
vt 0.8889 0.7222
vt 0.9167 0.7222
vt 0.9444 0.7222
vt 0.9722 0.7222
vt 0.0000 0.7778
vt 0.0278 0.7778
vt 0.0556 0.7778
vt 0.0833 0.7778
vt 0.1111 0.7778
vt 0.1389 0.7778
vt 0.1667 0.7778
vt 0.1944 0.7778
vt 0.2222 0.7778
vt 0.2500 0.7778
vt 0.2778 0.7778
vt 0.3056 0.7778
vt 0.3333 0.7778
vt 0.3611 0.7778
vt 0.3889 0.7778
vt 0.4167 0.7778
vt 0.4444 0.7778
vt 0.4722 0.7778
vt 0.5000 0.7778
vt 0.5278 0.7778
vt 0.5556 0.7778
vt 0.5833 0.7778
vt 0.6111 0.7778
vt 0.6389 0.7778
vt 0.6667 0.7778
vt 0.6944 0.7778
vt 0.7222 0.7778
vt 0.7500 0.7778
vt 0.7778 0.7778
vt 0.8056 0.7778
vt 0.8333 0.7778
vt 0.8611 0.7778
vt 0.8889 0.7778
vt 0.9167 0.7778
vt 0.9444 0.7778
vt 0.9722 0.7778
vt 0.0000 0.8333
vt 0.0278 0.8333
vt 0.0556 0.8333
vt 0.0833 0.8333
vt 0.1111 0.8333
vt 0.1389 0.8333
vt 0.1667 0.8333
vt 0.1944 0.8333
vt 0.2222 0.8333
vt 0.2500 0.8333
vt 0.2778 0.8333
vt 0.3056 0.8333
vt 0.3333 0.8333
vt 0.3611 0.8333
vt 0.3889 0.8333
vt 0.4167 0.8333
vt 0.4444 0.8333
vt 0.4722 0.8333
vt 0.5000 0.8333
vt 0.5278 0.8333
vt 0.5556 0.8333
vt 0.5833 0.8333
vt 0.6111 0.8333
vt 0.6389 0.8333
vt 0.6667 0.8333
vt 0.6944 0.8333
vt 0.7222 0.8333
vt 0.7500 0.8333
vt 0.7778 0.8333
vt 0.8056 0.8333
vt 0.8333 0.8333
vt 0.8611 0.8333
vt 0.8889 0.8333
vt 0.9167 0.8333
vt 0.9444 0.8333
vt 0.9722 0.8333
vt 0.0000 0.8889
vt 0.0278 0.8889
vt 0.0556 0.8889
vt 0.0833 0.8889
vt 0.1111 0.8889
vt 0.1389 0.8889
vt 0.1667 0.8889
vt 0.1944 0.8889
vt 0.2222 0.8889
vt 0.2500 0.8889
vt 0.2778 0.8889
vt 0.3056 0.8889
vt 0.3333 0.8889
vt 0.3611 0.8889
vt 0.3889 0.8889
vt 0.4167 0.8889
vt 0.4444 0.8889
vt 0.4722 0.8889
vt 0.5000 0.8889
vt 0.5278 0.8889
vt 0.5556 0.8889
vt 0.5833 0.8889
vt 0.6111 0.8889
vt 0.6389 0.8889
vt 0.6667 0.8889
vt 0.6944 0.8889
vt 0.7222 0.8889
vt 0.7500 0.8889
vt 0.7778 0.8889
vt 0.8056 0.8889
vt 0.8333 0.8889
vt 0.8611 0.8889
vt 0.8889 0.8889
vt 0.9167 0.8889
vt 0.9444 0.8889
vt 0.9722 0.8889
vt 0.0000 0.9444
vt 0.0278 0.9444
vt 0.0556 0.9444
vt 0.0833 0.9444
vt 0.1111 0.9444
vt 0.1389 0.9444
vt 0.1667 0.9444
vt 0.1944 0.9444
vt 0.2222 0.9444
vt 0.2500 0.9444
vt 0.2778 0.9444
vt 0.3056 0.9444
vt 0.3333 0.9444
vt 0.3611 0.9444
vt 0.3889 0.9444
vt 0.4167 0.9444
vt 0.4444 0.9444
vt 0.4722 0.9444
vt 0.5000 0.9444
vt 0.5278 0.9444
vt 0.5556 0.9444
vt 0.5833 0.9444
vt 0.6111 0.9444
vt 0.6389 0.9444
vt 0.6667 0.9444
vt 0.6944 0.9444
vt 0.7222 0.9444
vt 0.7500 0.9444
vt 0.7778 0.9444
vt 0.8056 0.9444
vt 0.8333 0.9444
vt 0.8611 0.9444
vt 0.8889 0.9444
vt 0.9167 0.9444
vt 0.9444 0.9444
vt 0.9722 0.9444
vt 0.0000 1.0000
vt 0.0278 1.0000
vt 0.0556 1.0000
vt 0.0833 1.0000
vt 0.1111 1.0000
vt 0.1389 1.0000
vt 0.1667 1.0000
vt 0.1944 1.0000
vt 0.2222 1.0000
vt 0.2500 1.0000
vt 0.2778 1.0000
vt 0.3056 1.0000
vt 0.3333 1.0000
vt 0.3611 1.0000
vt 0.3889 1.0000
vt 0.4167 1.0000
vt 0.4444 1.0000
vt 0.4722 1.0000
vt 0.5000 1.0000
vt 0.5278 1.0000
vt 0.5556 1.0000
vt 0.5833 1.0000
vt 0.6111 1.0000
vt 0.6389 1.0000
vt 0.6667 1.0000
vt 0.6944 1.0000
vt 0.7222 1.0000
vt 0.7500 1.0000
vt 0.7778 1.0000
vt 0.8056 1.0000
vt 0.8333 1.0000
vt 0.8611 1.0000
vt 0.8889 1.0000
vt 0.9167 1.0000
vt 0.9444 1.0000
vt 0.9722 1.0000
# 684 texture coords

s 1
f 1/1/1 38/38/38 37/37/37
f 2/2/2 39/39/39 38/38/38
f 3/3/3 40/40/40 39/39/39
f 4/4/4 41/41/41 40/40/40
f 5/5/5 42/42/42 41/41/41
f 6/6/6 43/43/43 42/42/42
f 7/7/7 44/44/44 43/43/43
f 8/8/8 45/45/45 44/44/44
f 9/9/9 46/46/46 45/45/45
f 10/10/10 47/47/47 46/46/46
f 11/11/11 48/48/48 47/47/47
f 12/12/12 49/49/49 48/48/48
f 13/13/13 50/50/50 49/49/49
f 14/14/14 51/51/51 50/50/50
f 15/15/15 52/52/52 51/51/51
f 16/16/16 53/53/53 52/52/52
f 17/17/17 54/54/54 53/53/53
f 18/18/18 55/55/55 54/54/54
f 19/19/19 56/56/56 55/55/55
f 20/20/20 57/57/57 56/56/56
f 21/21/21 58/58/58 57/57/57
f 22/22/22 59/59/59 58/58/58
f 23/23/23 60/60/60 59/59/59
f 24/24/24 61/61/61 60/60/60
f 25/25/25 62/62/62 61/61/61
f 26/26/26 63/63/63 62/62/62
f 27/27/27 64/64/64 63/63/63
f 28/28/28 65/65/65 64/64/64
f 29/29/29 66/66/66 65/65/65
f 30/30/30 67/67/67 66/66/66
f 31/31/31 68/68/68 67/67/67
f 32/32/32 69/69/69 68/68/68
f 33/33/33 70/70/70 69/69/69
f 34/34/34 71/71/71 70/70/70
f 35/35/35 72/72/72 71/71/71
f 36/36/36 37/37/37 72/72/72
f 37/37/37 38/38/38 74/74/74 73/73/73
f 38/38/38 39/39/39 75/75/75 74/74/74
f 39/39/39 40/40/40 76/76/76 75/75/75
f 40/40/40 41/41/41 77/77/77 76/76/76
f 41/41/41 42/42/42 78/78/78 77/77/77
f 42/42/42 43/43/43 79/79/79 78/78/78
f 43/43/43 44/44/44 80/80/80 79/79/79
f 44/44/44 45/45/45 81/81/81 80/80/80
f 45/45/45 46/46/46 82/82/82 81/81/81
f 46/46/46 47/47/47 83/83/83 82/82/82
f 47/47/47 48/48/48 84/84/84 83/83/83
f 48/48/48 49/49/49 85/85/85 84/84/84
f 49/49/49 50/50/50 86/86/86 85/85/85
f 50/50/50 51/51/51 87/87/87 86/86/86
f 51/51/51 52/52/52 88/88/88 87/87/87
f 52/52/52 53/53/53 89/89/89 88/88/88
f 53/53/53 54/54/54 90/90/90 89/89/89
f 54/54/54 55/55/55 91/91/91 90/90/90
f 55/55/55 56/56/56 92/92/92 91/91/91
f 56/56/56 57/57/57 93/93/93 92/92/92
f 57/57/57 58/58/58 94/94/94 93/93/93
f 58/58/58 59/59/59 95/95/95 94/94/94
f 59/59/59 60/60/60 96/96/96 95/95/95
f 60/60/60 61/61/61 97/97/97 96/96/96
f 61/61/61 62/62/62 98/98/98 97/97/97
f 62/62/62 63/63/63 99/99/99 98/98/98
f 63/63/63 64/64/64 100/100/100 99/99/99
f 64/64/64 65/65/65 101/101/101 100/100/100
f 65/65/65 66/66/66 102/102/102 101/101/101
f 66/66/66 67/67/67 103/103/103 102/102/102
f 67/67/67 68/68/68 104/104/104 103/103/103
f 68/68/68 69/69/69 105/105/105 104/104/104
f 69/69/69 70/70/70 106/106/106 105/105/105
f 70/70/70 71/71/71 107/107/107 106/106/106
f 71/71/71 72/72/72 108/108/108 107/107/107
f 72/72/72 37/37/37 73/73/73 108/108/108
f 73/73/73 74/74/74 110/110/110 109/109/109
f 74/74/74 75/75/75 111/111/111 110/110/110
f 75/75/75 76/76/76 112/112/112 111/111/111
f 76/76/76 77/77/77 113/113/113 112/112/112
f 77/77/77 78/78/78 114/114/114 113/113/113
f 78/78/78 79/79/79 115/115/115 114/114/114
f 79/79/79 80/80/80 116/116/116 115/115/115
f 80/80/80 81/81/81 117/117/117 116/116/116
f 81/81/81 82/82/82 118/118/118 117/117/117
f 82/82/82 83/83/83 119/119/119 118/118/118
f 83/83/83 84/84/84 120/120/120 119/119/119
f 84/84/84 85/85/85 121/121/121 120/120/120
f 85/85/85 86/86/86 122/122/122 121/121/121
f 86/86/86 87/87/87 123/123/123 122/122/122
f 87/87/87 88/88/88 124/124/124 123/123/123
f 88/88/88 89/89/89 125/125/125 124/124/124
f 89/89/89 90/90/90 126/126/126 125/125/125
f 90/90/90 91/91/91 127/127/127 126/126/126
f 91/91/91 92/92/92 128/128/128 127/127/127
f 92/92/92 93/93/93 129/129/129 128/128/128
f 93/93/93 94/94/94 130/130/130 129/129/129
f 94/94/94 95/95/95 131/131/131 130/130/130
f 95/95/95 96/96/96 132/132/132 131/131/131
f 96/96/96 97/97/97 133/133/133 132/132/132
f 97/97/97 98/98/98 134/134/134 133/133/133
f 98/98/98 99/99/99 135/135/135 134/134/134
f 99/99/99 100/100/100 136/136/136 135/135/135
f 100/100/100 101/101/101 137/137/137 136/136/136
f 101/101/101 102/102/102 138/138/138 137/137/137
f 102/102/102 103/103/103 139/139/139 138/138/138
f 103/103/103 104/104/104 140/140/140 139/139/139
f 104/104/104 105/105/105 141/141/141 140/140/140
f 105/105/105 106/106/106 142/142/142 141/141/141
f 106/106/106 107/107/107 143/143/143 142/142/142
f 107/107/107 108/108/108 144/144/144 143/143/143
f 108/108/108 73/73/73 109/109/109 144/144/144
f 109/109/109 110/110/110 146/146/146 145/145/145
f 110/110/110 111/111/111 147/147/147 146/146/146
f 111/111/111 112/112/112 148/148/148 147/147/147
f 112/112/112 113/113/113 149/149/149 148/148/148
f 113/113/113 114/114/114 150/150/150 149/149/149
f 114/114/114 115/115/115 151/151/151 150/150/150
f 115/115/115 116/116/116 152/152/152 151/151/151
f 116/116/116 117/117/117 153/153/153 152/152/152
f 117/117/117 118/118/118 154/154/154 153/153/153
f 118/118/118 119/119/119 155/155/155 154/154/154
f 119/119/119 120/120/120 156/156/156 155/155/155
f 120/120/120 121/121/121 157/157/157 156/156/156
f 121/121/121 122/122/122 158/158/158 157/157/157
f 122/122/122 123/123/123 159/159/159 158/158/158
f 123/123/123 124/124/124 160/160/160 159/159/159
f 124/124/124 125/125/125 161/161/161 160/160/160
f 125/125/125 126/126/126 162/162/162 161/161/161
f 126/126/126 127/127/127 163/163/163 162/162/162
f 127/127/127 128/128/128 164/164/164 163/163/163
f 128/128/128 129/129/129 165/165/165 164/164/164
f 129/129/129 130/130/130 166/166/166 165/165/165
f 130/130/130 131/131/131 167/167/167 166/166/166
f 131/131/131 132/132/132 168/168/168 167/167/167
f 132/132/132 133/133/133 169/169/169 168/168/168
f 133/133/133 134/134/134 170/170/170 169/169/169
f 134/134/134 135/135/135 171/171/171 170/170/170
f 135/135/135 136/136/136 172/172/172 171/171/171
f 136/136/136 137/137/137 173/173/173 172/172/172
f 137/137/137 138/138/138 174/174/174 173/173/173
f 138/138/138 139/139/139 175/175/175 174/174/174
f 139/139/139 140/140/140 176/176/176 175/175/175
f 140/140/140 141/141/141 177/177/177 176/176/176
f 141/141/141 142/142/142 178/178/178 177/177/177
f 142/142/142 143/143/143 179/179/179 178/178/178
f 143/143/143 144/144/144 180/180/180 179/179/179
f 144/144/144 109/109/109 145/145/145 180/180/180
f 145/145/145 146/146/146 182/182/182 181/181/181
f 146/146/146 147/147/147 183/183/183 182/182/182
f 147/147/147 148/148/148 184/184/184 183/183/183
f 148/148/148 149/149/149 185/185/185 184/184/184
f 149/149/149 150/150/150 186/186/186 185/185/185
f 150/150/150 151/151/151 187/187/187 186/186/186
f 151/151/151 152/152/152 188/188/188 187/187/187
f 152/152/152 153/153/153 189/189/189 188/188/188
f 153/153/153 154/154/154 190/190/190 189/189/189
f 154/154/154 155/155/155 191/191/191 190/190/190
f 155/155/155 156/156/156 192/192/192 191/191/191
f 156/156/156 157/157/157 193/193/193 192/192/192
f 157/157/157 158/158/158 194/194/194 193/193/193
f 158/158/158 159/159/159 195/195/195 194/194/194
f 159/159/159 160/160/160 196/196/196 195/195/195
f 160/160/160 161/161/161 197/197/197 196/196/196
f 161/161/161 162/162/162 198/198/198 197/197/197
f 162/162/162 163/163/163 199/199/199 198/198/198
f 163/163/163 164/164/164 200/200/200 199/199/199
f 164/164/164 165/165/165 201/201/201 200/200/200
f 165/165/165 166/166/166 202/202/202 201/201/201
f 166/166/166 167/167/167 203/203/203 202/202/202
f 167/167/167 168/168/168 204/204/204 203/203/203
f 168/168/168 169/169/169 205/205/205 204/204/204
f 169/169/169 170/170/170 206/206/206 205/205/205
f 170/170/170 171/171/171 207/207/207 206/206/206
f 171/171/171 172/172/172 208/208/208 207/207/207
f 172/172/172 173/173/173 209/209/209 208/208/208
f 173/173/173 174/174/174 210/210/210 209/209/209
f 174/174/174 175/175/175 211/211/211 210/210/210
f 175/175/175 176/176/176 212/212/212 211/211/211
f 176/176/176 177/177/177 213/213/213 212/212/212
f 177/177/177 178/178/178 214/214/214 213/213/213
f 178/178/178 179/179/179 215/215/215 214/214/214
f 179/179/179 180/180/180 216/216/216 215/215/215
f 180/180/180 145/145/145 181/181/181 216/216/216
f 181/181/181 182/182/182 218/218/218 217/217/217
f 182/182/182 183/183/183 219/219/219 218/218/218
f 183/183/183 184/184/184 220/220/220 219/219/219
f 184/184/184 185/185/185 221/221/221 220/220/220
f 185/185/185 186/186/186 222/222/222 221/221/221
f 186/186/186 187/187/187 223/223/223 222/222/222
f 187/187/187 188/188/188 224/224/224 223/223/223
f 188/188/188 189/189/189 225/225/225 224/224/224
f 189/189/189 190/190/190 226/226/226 225/225/225
f 190/190/190 191/191/191 227/227/227 226/226/226
f 191/191/191 192/192/192 228/228/228 227/227/227
f 192/192/192 193/193/193 229/229/229 228/228/228
f 193/193/193 194/194/194 230/230/230 229/229/229
f 194/194/194 195/195/195 231/231/231 230/230/230
f 195/195/195 196/196/196 232/232/232 231/231/231
f 196/196/196 197/197/197 233/233/233 232/232/232
f 197/197/197 198/198/198 234/234/234 233/233/233
f 198/198/198 199/199/199 235/235/235 234/234/234
f 199/199/199 200/200/200 236/236/236 235/235/235
f 200/200/200 201/201/201 237/237/237 236/236/236
f 201/201/201 202/202/202 238/238/238 237/237/237
f 202/202/202 203/203/203 239/239/239 238/238/238
f 203/203/203 204/204/204 240/240/240 239/239/239
f 204/204/204 205/205/205 241/241/241 240/240/240
f 205/205/205 206/206/206 242/242/242 241/241/241
f 206/206/206 207/207/207 243/243/243 242/242/242
f 207/207/207 208/208/208 244/244/244 243/243/243
f 208/208/208 209/209/209 245/245/245 244/244/244
f 209/209/209 210/210/210 246/246/246 245/245/245
f 210/210/210 211/211/211 247/247/247 246/246/246
f 211/211/211 212/212/212 248/248/248 247/247/247
f 212/212/212 213/213/213 249/249/249 248/248/248
f 213/213/213 214/214/214 250/250/250 249/249/249
f 214/214/214 215/215/215 251/251/251 250/250/250
f 215/215/215 216/216/216 252/252/252 251/251/251
f 216/216/216 181/181/181 217/217/217 252/252/252
f 217/217/217 218/218/218 254/254/254 253/253/253
f 218/218/218 219/219/219 255/255/255 254/254/254
f 219/219/219 220/220/220 256/256/256 255/255/255
f 220/220/220 221/221/221 257/257/257 256/256/256
f 221/221/221 222/222/222 258/258/258 257/257/257
f 222/222/222 223/223/223 259/259/259 258/258/258
f 223/223/223 224/224/224 260/260/260 259/259/259
f 224/224/224 225/225/225 261/261/261 260/260/260
f 225/225/225 226/226/226 262/262/262 261/261/261
f 226/226/226 227/227/227 263/263/263 262/262/262
f 227/227/227 228/228/228 264/264/264 263/263/263
f 228/228/228 229/229/229 265/265/265 264/264/264
f 229/229/229 230/230/230 266/266/266 265/265/265
f 230/230/230 231/231/231 267/267/267 266/266/266
f 231/231/231 232/232/232 268/268/268 267/267/267
f 232/232/232 233/233/233 269/269/269 268/268/268
f 233/233/233 234/234/234 270/270/270 269/269/269
f 234/234/234 235/235/235 271/271/271 270/270/270
f 235/235/235 236/236/236 272/272/272 271/271/271
f 236/236/236 237/237/237 273/273/273 272/272/272
f 237/237/237 238/238/238 274/274/274 273/273/273
f 238/238/238 239/239/239 275/275/275 274/274/274
f 239/239/239 240/240/240 276/276/276 275/275/275
f 240/240/240 241/241/241 277/277/277 276/276/276
f 241/241/241 242/242/242 278/278/278 277/277/277
f 242/242/242 243/243/243 279/279/279 278/278/278
f 243/243/243 244/244/244 280/280/280 279/279/279
f 244/244/244 245/245/245 281/281/281 280/280/280
f 245/245/245 246/246/246 282/282/282 281/281/281
f 246/246/246 247/247/247 283/283/283 282/282/282
f 247/247/247 248/248/248 284/284/284 283/283/283
f 248/248/248 249/249/249 285/285/285 284/284/284
f 249/249/249 250/250/250 286/286/286 285/285/285
f 250/250/250 251/251/251 287/287/287 286/286/286
f 251/251/251 252/252/252 288/288/288 287/287/287
f 252/252/252 217/217/217 253/253/253 288/288/288
f 253/253/253 254/254/254 290/290/290 289/289/289
f 254/254/254 255/255/255 291/291/291 290/290/290
f 255/255/255 256/256/256 292/292/292 291/291/291
f 256/256/256 257/257/257 293/293/293 292/292/292
f 257/257/257 258/258/258 294/294/294 293/293/293
f 258/258/258 259/259/259 295/295/295 294/294/294
f 259/259/259 260/260/260 296/296/296 295/295/295
f 260/260/260 261/261/261 297/297/297 296/296/296
f 261/261/261 262/262/262 298/298/298 297/297/297
f 262/262/262 263/263/263 299/299/299 298/298/298
f 263/263/263 264/264/264 300/300/300 299/299/299
f 264/264/264 265/265/265 301/301/301 300/300/300
f 265/265/265 266/266/266 302/302/302 301/301/301
f 266/266/266 267/267/267 303/303/303 302/302/302
f 267/267/267 268/268/268 304/304/304 303/303/303
f 268/268/268 269/269/269 305/305/305 304/304/304
f 269/269/269 270/270/270 306/306/306 305/305/305
f 270/270/270 271/271/271 307/307/307 306/306/306
f 271/271/271 272/272/272 308/308/308 307/307/307
f 272/272/272 273/273/273 309/309/309 308/308/308
f 273/273/273 274/274/274 310/310/310 309/309/309
f 274/274/274 275/275/275 311/311/311 310/310/310
f 275/275/275 276/276/276 312/312/312 311/311/311
f 276/276/276 277/277/277 313/313/313 312/312/312
f 277/277/277 278/278/278 314/314/314 313/313/313
f 278/278/278 279/279/279 315/315/315 314/314/314
f 279/279/279 280/280/280 316/316/316 315/315/315
f 280/280/280 281/281/281 317/317/317 316/316/316
f 281/281/281 282/282/282 318/318/318 317/317/317
f 282/282/282 283/283/283 319/319/319 318/318/318
f 283/283/283 284/284/284 320/320/320 319/319/319
f 284/284/284 285/285/285 321/321/321 320/320/320
f 285/285/285 286/286/286 322/322/322 321/321/321
f 286/286/286 287/287/287 323/323/323 322/322/322
f 287/287/287 288/288/288 324/324/324 323/323/323
f 288/288/288 253/253/253 289/289/289 324/324/324
f 289/289/289 290/290/290 326/326/326 325/325/325
f 290/290/290 291/291/291 327/327/327 326/326/326
f 291/291/291 292/292/292 328/328/328 327/327/327
f 292/292/292 293/293/293 329/329/329 328/328/328
f 293/293/293 294/294/294 330/330/330 329/329/329
f 294/294/294 295/295/295 331/331/331 330/330/330
f 295/295/295 296/296/296 332/332/332 331/331/331
f 296/296/296 297/297/297 333/333/333 332/332/332
f 297/297/297 298/298/298 334/334/334 333/333/333
f 298/298/298 299/299/299 335/335/335 334/334/334
f 299/299/299 300/300/300 336/336/336 335/335/335
f 300/300/300 301/301/301 337/337/337 336/336/336
f 301/301/301 302/302/302 338/338/338 337/337/337
f 302/302/302 303/303/303 339/339/339 338/338/338
f 303/303/303 304/304/304 340/340/340 339/339/339
f 304/304/304 305/305/305 341/341/341 340/340/340
f 305/305/305 306/306/306 342/342/342 341/341/341
f 306/306/306 307/307/307 343/343/343 342/342/342
f 307/307/307 308/308/308 344/344/344 343/343/343
f 308/308/308 309/309/309 345/345/345 344/344/344
f 309/309/309 310/310/310 346/346/346 345/345/345
f 310/310/310 311/311/311 347/347/347 346/346/346
f 311/311/311 312/312/312 348/348/348 347/347/347
f 312/312/312 313/313/313 349/349/349 348/348/348
f 313/313/313 314/314/314 350/350/350 349/349/349
f 314/314/314 315/315/315 351/351/351 350/350/350
f 315/315/315 316/316/316 352/352/352 351/351/351
f 316/316/316 317/317/317 353/353/353 352/352/352
f 317/317/317 318/318/318 354/354/354 353/353/353
f 318/318/318 319/319/319 355/355/355 354/354/354
f 319/319/319 320/320/320 356/356/356 355/355/355
f 320/320/320 321/321/321 357/357/357 356/356/356
f 321/321/321 322/322/322 358/358/358 357/357/357
f 322/322/322 323/323/323 359/359/359 358/358/358
f 323/323/323 324/324/324 360/360/360 359/359/359
f 324/324/324 289/289/289 325/325/325 360/360/360
f 325/325/325 326/326/326 362/362/362 361/361/361
f 326/326/326 327/327/327 363/363/363 362/362/362
f 327/327/327 328/328/328 364/364/364 363/363/363
f 328/328/328 329/329/329 365/365/365 364/364/364
f 329/329/329 330/330/330 366/366/366 365/365/365
f 330/330/330 331/331/331 367/367/367 366/366/366
f 331/331/331 332/332/332 368/368/368 367/367/367
f 332/332/332 333/333/333 369/369/369 368/368/368
f 333/333/333 334/334/334 370/370/370 369/369/369
f 334/334/334 335/335/335 371/371/371 370/370/370
f 335/335/335 336/336/336 372/372/372 371/371/371
f 336/336/336 337/337/337 373/373/373 372/372/372
f 337/337/337 338/338/338 374/374/374 373/373/373
f 338/338/338 339/339/339 375/375/375 374/374/374
f 339/339/339 340/340/340 376/376/376 375/375/375
f 340/340/340 341/341/341 377/377/377 376/376/376
f 341/341/341 342/342/342 378/378/378 377/377/377
f 342/342/342 343/343/343 379/379/379 378/378/378
f 343/343/343 344/344/344 380/380/380 379/379/379
f 344/344/344 345/345/345 381/381/381 380/380/380
f 345/345/345 346/346/346 382/382/382 381/381/381
f 346/346/346 347/347/347 383/383/383 382/382/382
f 347/347/347 348/348/348 384/384/384 383/383/383
f 348/348/348 349/349/349 385/385/385 384/384/384
f 349/349/349 350/350/350 386/386/386 385/385/385
f 350/350/350 351/351/351 387/387/387 386/386/386
f 351/351/351 352/352/352 388/388/388 387/387/387
f 352/352/352 353/353/353 389/389/389 388/388/388
f 353/353/353 354/354/354 390/390/390 389/389/389
f 354/354/354 355/355/355 391/391/391 390/390/390
f 355/355/355 356/356/356 392/392/392 391/391/391
f 356/356/356 357/357/357 393/393/393 392/392/392
f 357/357/357 358/358/358 394/394/394 393/393/393
f 358/358/358 359/359/359 395/395/395 394/394/394
f 359/359/359 360/360/360 396/396/396 395/395/395
f 360/360/360 325/325/325 361/361/361 396/396/396
f 361/361/361 362/362/362 398/398/398 397/397/397
f 362/362/362 363/363/363 399/399/399 398/398/398
f 363/363/363 364/364/364 400/400/400 399/399/399
f 364/364/364 365/365/365 401/401/401 400/400/400
f 365/365/365 366/366/366 402/402/402 401/401/401
f 366/366/366 367/367/367 403/403/403 402/402/402
f 367/367/367 368/368/368 404/404/404 403/403/403
f 368/368/368 369/369/369 405/405/405 404/404/404
f 369/369/369 370/370/370 406/406/406 405/405/405
f 370/370/370 371/371/371 407/407/407 406/406/406
f 371/371/371 372/372/372 408/408/408 407/407/407
f 372/372/372 373/373/373 409/409/409 408/408/408
f 373/373/373 374/374/374 410/410/410 409/409/409
f 374/374/374 375/375/375 411/411/411 410/410/410
f 375/375/375 376/376/376 412/412/412 411/411/411
f 376/376/376 377/377/377 413/413/413 412/412/412
f 377/377/377 378/378/378 414/414/414 413/413/413
f 378/378/378 379/379/379 415/415/415 414/414/414
f 379/379/379 380/380/380 416/416/416 415/415/415
f 380/380/380 381/381/381 417/417/417 416/416/416
f 381/381/381 382/382/382 418/418/418 417/417/417
f 382/382/382 383/383/383 419/419/419 418/418/418
f 383/383/383 384/384/384 420/420/420 419/419/419
f 384/384/384 385/385/385 421/421/421 420/420/420
f 385/385/385 386/386/386 422/422/422 421/421/421
f 386/386/386 387/387/387 423/423/423 422/422/422
f 387/387/387 388/388/388 424/424/424 423/423/423
f 388/388/388 389/389/389 425/425/425 424/424/424
f 389/389/389 390/390/390 426/426/426 425/425/425
f 390/390/390 391/391/391 427/427/427 426/426/426
f 391/391/391 392/392/392 428/428/428 427/427/427
f 392/392/392 393/393/393 429/429/429 428/428/428
f 393/393/393 394/394/394 430/430/430 429/429/429
f 394/394/394 395/395/395 431/431/431 430/430/430
f 395/395/395 396/396/396 432/432/432 431/431/431
f 396/396/396 361/361/361 397/397/397 432/432/432
f 397/397/397 398/398/398 434/434/434 433/433/433
f 398/398/398 399/399/399 435/435/435 434/434/434
f 399/399/399 400/400/400 436/436/436 435/435/435
f 400/400/400 401/401/401 437/437/437 436/436/436
f 401/401/401 402/402/402 438/438/438 437/437/437
f 402/402/402 403/403/403 439/439/439 438/438/438
f 403/403/403 404/404/404 440/440/440 439/439/439
f 404/404/404 405/405/405 441/441/441 440/440/440
f 405/405/405 406/406/406 442/442/442 441/441/441
f 406/406/406 407/407/407 443/443/443 442/442/442
f 407/407/407 408/408/408 444/444/444 443/443/443
f 408/408/408 409/409/409 445/445/445 444/444/444
f 409/409/409 410/410/410 446/446/446 445/445/445
f 410/410/410 411/411/411 447/447/447 446/446/446
f 411/411/411 412/412/412 448/448/448 447/447/447
f 412/412/412 413/413/413 449/449/449 448/448/448
f 413/413/413 414/414/414 450/450/450 449/449/449
f 414/414/414 415/415/415 451/451/451 450/450/450
f 415/415/415 416/416/416 452/452/452 451/451/451
f 416/416/416 417/417/417 453/453/453 452/452/452
f 417/417/417 418/418/418 454/454/454 453/453/453
f 418/418/418 419/419/419 455/455/455 454/454/454
f 419/419/419 420/420/420 456/456/456 455/455/455
f 420/420/420 421/421/421 457/457/457 456/456/456
f 421/421/421 422/422/422 458/458/458 457/457/457
f 422/422/422 423/423/423 459/459/459 458/458/458
f 423/423/423 424/424/424 460/460/460 459/459/459
f 424/424/424 425/425/425 461/461/461 460/460/460
f 425/425/425 426/426/426 462/462/462 461/461/461
f 426/426/426 427/427/427 463/463/463 462/462/462
f 427/427/427 428/428/428 464/464/464 463/463/463
f 428/428/428 429/429/429 465/465/465 464/464/464
f 429/429/429 430/430/430 466/466/466 465/465/465
f 430/430/430 431/431/431 467/467/467 466/466/466
f 431/431/431 432/432/432 468/468/468 467/467/467
f 432/432/432 397/397/397 433/433/433 468/468/468
f 433/433/433 434/434/434 470/470/470 469/469/469
f 434/434/434 435/435/435 471/471/471 470/470/470
f 435/435/435 436/436/436 472/472/472 471/471/471
f 436/436/436 437/437/437 473/473/473 472/472/472
f 437/437/437 438/438/438 474/474/474 473/473/473
f 438/438/438 439/439/439 475/475/475 474/474/474
f 439/439/439 440/440/440 476/476/476 475/475/475
f 440/440/440 441/441/441 477/477/477 476/476/476
f 441/441/441 442/442/442 478/478/478 477/477/477
f 442/442/442 443/443/443 479/479/479 478/478/478
f 443/443/443 444/444/444 480/480/480 479/479/479
f 444/444/444 445/445/445 481/481/481 480/480/480
f 445/445/445 446/446/446 482/482/482 481/481/481
f 446/446/446 447/447/447 483/483/483 482/482/482
f 447/447/447 448/448/448 484/484/484 483/483/483
f 448/448/448 449/449/449 485/485/485 484/484/484
f 449/449/449 450/450/450 486/486/486 485/485/485
f 450/450/450 451/451/451 487/487/487 486/486/486
f 451/451/451 452/452/452 488/488/488 487/487/487
f 452/452/452 453/453/453 489/489/489 488/488/488
f 453/453/453 454/454/454 490/490/490 489/489/489
f 454/454/454 455/455/455 491/491/491 490/490/490
f 455/455/455 456/456/456 492/492/492 491/491/491
f 456/456/456 457/457/457 493/493/493 492/492/492
f 457/457/457 458/458/458 494/494/494 493/493/493
f 458/458/458 459/459/459 495/495/495 494/494/494
f 459/459/459 460/460/460 496/496/496 495/495/495
f 460/460/460 461/461/461 497/497/497 496/496/496
f 461/461/461 462/462/462 498/498/498 497/497/497
f 462/462/462 463/463/463 499/499/499 498/498/498
f 463/463/463 464/464/464 500/500/500 499/499/499
f 464/464/464 465/465/465 501/501/501 500/500/500
f 465/465/465 466/466/466 502/502/502 501/501/501
f 466/466/466 467/467/467 503/503/503 502/502/502
f 467/467/467 468/468/468 504/504/504 503/503/503
f 468/468/468 433/433/433 469/469/469 504/504/504
f 469/469/469 470/470/470 506/506/506 505/505/505
f 470/470/470 471/471/471 507/507/507 506/506/506
f 471/471/471 472/472/472 508/508/508 507/507/507
f 472/472/472 473/473/473 509/509/509 508/508/508
f 473/473/473 474/474/474 510/510/510 509/509/509
f 474/474/474 475/475/475 511/511/511 510/510/510
f 475/475/475 476/476/476 512/512/512 511/511/511
f 476/476/476 477/477/477 513/513/513 512/512/512
f 477/477/477 478/478/478 514/514/514 513/513/513
f 478/478/478 479/479/479 515/515/515 514/514/514
f 479/479/479 480/480/480 516/516/516 515/515/515
f 480/480/480 481/481/481 517/517/517 516/516/516
f 481/481/481 482/482/482 518/518/518 517/517/517
f 482/482/482 483/483/483 519/519/519 518/518/518
f 483/483/483 484/484/484 520/520/520 519/519/519
f 484/484/484 485/485/485 521/521/521 520/520/520
f 485/485/485 486/486/486 522/522/522 521/521/521
f 486/486/486 487/487/487 523/523/523 522/522/522
f 487/487/487 488/488/488 524/524/524 523/523/523
f 488/488/488 489/489/489 525/525/525 524/524/524
f 489/489/489 490/490/490 526/526/526 525/525/525
f 490/490/490 491/491/491 527/527/527 526/526/526
f 491/491/491 492/492/492 528/528/528 527/527/527
f 492/492/492 493/493/493 529/529/529 528/528/528
f 493/493/493 494/494/494 530/530/530 529/529/529
f 494/494/494 495/495/495 531/531/531 530/530/530
f 495/495/495 496/496/496 532/532/532 531/531/531
f 496/496/496 497/497/497 533/533/533 532/532/532
f 497/497/497 498/498/498 534/534/534 533/533/533
f 498/498/498 499/499/499 535/535/535 534/534/534
f 499/499/499 500/500/500 536/536/536 535/535/535
f 500/500/500 501/501/501 537/537/537 536/536/536
f 501/501/501 502/502/502 538/538/538 537/537/537
f 502/502/502 503/503/503 539/539/539 538/538/538
f 503/503/503 504/504/504 540/540/540 539/539/539
f 504/504/504 469/469/469 505/505/505 540/540/540
f 505/505/505 506/506/506 542/542/542 541/541/541
f 506/506/506 507/507/507 543/543/543 542/542/542
f 507/507/507 508/508/508 544/544/544 543/543/543
f 508/508/508 509/509/509 545/545/545 544/544/544
f 509/509/509 510/510/510 546/546/546 545/545/545
f 510/510/510 511/511/511 547/547/547 546/546/546
f 511/511/511 512/512/512 548/548/548 547/547/547
f 512/512/512 513/513/513 549/549/549 548/548/548
f 513/513/513 514/514/514 550/550/550 549/549/549
f 514/514/514 515/515/515 551/551/551 550/550/550
f 515/515/515 516/516/516 552/552/552 551/551/551
f 516/516/516 517/517/517 553/553/553 552/552/552
f 517/517/517 518/518/518 554/554/554 553/553/553
f 518/518/518 519/519/519 555/555/555 554/554/554
f 519/519/519 520/520/520 556/556/556 555/555/555
f 520/520/520 521/521/521 557/557/557 556/556/556
f 521/521/521 522/522/522 558/558/558 557/557/557
f 522/522/522 523/523/523 559/559/559 558/558/558
f 523/523/523 524/524/524 560/560/560 559/559/559
f 524/524/524 525/525/525 561/561/561 560/560/560
f 525/525/525 526/526/526 562/562/562 561/561/561
f 526/526/526 527/527/527 563/563/563 562/562/562
f 527/527/527 528/528/528 564/564/564 563/563/563
f 528/528/528 529/529/529 565/565/565 564/564/564
f 529/529/529 530/530/530 566/566/566 565/565/565
f 530/530/530 531/531/531 567/567/567 566/566/566
f 531/531/531 532/532/532 568/568/568 567/567/567
f 532/532/532 533/533/533 569/569/569 568/568/568
f 533/533/533 534/534/534 570/570/570 569/569/569
f 534/534/534 535/535/535 571/571/571 570/570/570
f 535/535/535 536/536/536 572/572/572 571/571/571
f 536/536/536 537/537/537 573/573/573 572/572/572
f 537/537/537 538/538/538 574/574/574 573/573/573
f 538/538/538 539/539/539 575/575/575 574/574/574
f 539/539/539 540/540/540 576/576/576 575/575/575
f 540/540/540 505/505/505 541/541/541 576/576/576
f 541/541/541 542/542/542 578/578/578 577/577/577
f 542/542/542 543/543/543 579/579/579 578/578/578
f 543/543/543 544/544/544 580/580/580 579/579/579
f 544/544/544 545/545/545 581/581/581 580/580/580
f 545/545/545 546/546/546 582/582/582 581/581/581
f 546/546/546 547/547/547 583/583/583 582/582/582
f 547/547/547 548/548/548 584/584/584 583/583/583
f 548/548/548 549/549/549 585/585/585 584/584/584
f 549/549/549 550/550/550 586/586/586 585/585/585
f 550/550/550 551/551/551 587/587/587 586/586/586
f 551/551/551 552/552/552 588/588/588 587/587/587
f 552/552/552 553/553/553 589/589/589 588/588/588
f 553/553/553 554/554/554 590/590/590 589/589/589
f 554/554/554 555/555/555 591/591/591 590/590/590
f 555/555/555 556/556/556 592/592/592 591/591/591
f 556/556/556 557/557/557 593/593/593 592/592/592
f 557/557/557 558/558/558 594/594/594 593/593/593
f 558/558/558 559/559/559 595/595/595 594/594/594
f 559/559/559 560/560/560 596/596/596 595/595/595
f 560/560/560 561/561/561 597/597/597 596/596/596
f 561/561/561 562/562/562 598/598/598 597/597/597
f 562/562/562 563/563/563 599/599/599 598/598/598
f 563/563/563 564/564/564 600/600/600 599/599/599
f 564/564/564 565/565/565 601/601/601 600/600/600
f 565/565/565 566/566/566 602/602/602 601/601/601
f 566/566/566 567/567/567 603/603/603 602/602/602
f 567/567/567 568/568/568 604/604/604 603/603/603
f 568/568/568 569/569/569 605/605/605 604/604/604
f 569/569/569 570/570/570 606/606/606 605/605/605
f 570/570/570 571/571/571 607/607/607 606/606/606
f 571/571/571 572/572/572 608/608/608 607/607/607
f 572/572/572 573/573/573 609/609/609 608/608/608
f 573/573/573 574/574/574 610/610/610 609/609/609
f 574/574/574 575/575/575 611/611/611 610/610/610
f 575/575/575 576/576/576 612/612/612 611/611/611
f 576/576/576 541/541/541 577/577/577 612/612/612
f 577/577/577 578/578/578 614/614/614 613/613/613
f 578/578/578 579/579/579 615/615/615 614/614/614
f 579/579/579 580/580/580 616/616/616 615/615/615
f 580/580/580 581/581/581 617/617/617 616/616/616
f 581/581/581 582/582/582 618/618/618 617/617/617
f 582/582/582 583/583/583 619/619/619 618/618/618
f 583/583/583 584/584/584 620/620/620 619/619/619
f 584/584/584 585/585/585 621/621/621 620/620/620
f 585/585/585 586/586/586 622/622/622 621/621/621
f 586/586/586 587/587/587 623/623/623 622/622/622
f 587/587/587 588/588/588 624/624/624 623/623/623
f 588/588/588 589/589/589 625/625/625 624/624/624
f 589/589/589 590/590/590 626/626/626 625/625/625
f 590/590/590 591/591/591 627/627/627 626/626/626
f 591/591/591 592/592/592 628/628/628 627/627/627
f 592/592/592 593/593/593 629/629/629 628/628/628
f 593/593/593 594/594/594 630/630/630 629/629/629
f 594/594/594 595/595/595 631/631/631 630/630/630
f 595/595/595 596/596/596 632/632/632 631/631/631
f 596/596/596 597/597/597 633/633/633 632/632/632
f 597/597/597 598/598/598 634/634/634 633/633/633
f 598/598/598 599/599/599 635/635/635 634/634/634
f 599/599/599 600/600/600 636/636/636 635/635/635
f 600/600/600 601/601/601 637/637/637 636/636/636
f 601/601/601 602/602/602 638/638/638 637/637/637
f 602/602/602 603/603/603 639/639/639 638/638/638
f 603/603/603 604/604/604 640/640/640 639/639/639
f 604/604/604 605/605/605 641/641/641 640/640/640
f 605/605/605 606/606/606 642/642/642 641/641/641
f 606/606/606 607/607/607 643/643/643 642/642/642
f 607/607/607 608/608/608 644/644/644 643/643/643
f 608/608/608 609/609/609 645/645/645 644/644/644
f 609/609/609 610/610/610 646/646/646 645/645/645
f 610/610/610 611/611/611 647/647/647 646/646/646
f 611/611/611 612/612/612 648/648/648 647/647/647
f 612/612/612 577/577/577 613/613/613 648/648/648
f 613/613/613 614/614/614 650/650/650 649/649/649
f 614/614/614 615/615/615 651/651/651 650/650/650
f 615/615/615 616/616/616 652/652/652 651/651/651
f 616/616/616 617/617/617 653/653/653 652/652/652
f 617/617/617 618/618/618 654/654/654 653/653/653
f 618/618/618 619/619/619 655/655/655 654/654/654
f 619/619/619 620/620/620 656/656/656 655/655/655
f 620/620/620 621/621/621 657/657/657 656/656/656
f 621/621/621 622/622/622 658/658/658 657/657/657
f 622/622/622 623/623/623 659/659/659 658/658/658
f 623/623/623 624/624/624 660/660/660 659/659/659
f 624/624/624 625/625/625 661/661/661 660/660/660
f 625/625/625 626/626/626 662/662/662 661/661/661
f 626/626/626 627/627/627 663/663/663 662/662/662
f 627/627/627 628/628/628 664/664/664 663/663/663
f 628/628/628 629/629/629 665/665/665 664/664/664
f 629/629/629 630/630/630 666/666/666 665/665/665
f 630/630/630 631/631/631 667/667/667 666/666/666
f 631/631/631 632/632/632 668/668/668 667/667/667
f 632/632/632 633/633/633 669/669/669 668/668/668
f 633/633/633 634/634/634 670/670/670 669/669/669
f 634/634/634 635/635/635 671/671/671 670/670/670
f 635/635/635 636/636/636 672/672/672 671/671/671
f 636/636/636 637/637/637 673/673/673 672/672/672
f 637/637/637 638/638/638 674/674/674 673/673/673
f 638/638/638 639/639/639 675/675/675 674/674/674
f 639/639/639 640/640/640 676/676/676 675/675/675
f 640/640/640 641/641/641 677/677/677 676/676/676
f 641/641/641 642/642/642 678/678/678 677/677/677
f 642/642/642 643/643/643 679/679/679 678/678/678
f 643/643/643 644/644/644 680/680/680 679/679/679
f 644/644/644 645/645/645 681/681/681 680/680/680
f 645/645/645 646/646/646 682/682/682 681/681/681
f 646/646/646 647/647/647 683/683/683 682/682/682
f 647/647/647 648/648/648 684/684/684 683/683/683
f 648/648/648 613/613/613 649/649/649 684/684/684
# 648 polygons
