# Istrorigan Megastructure Part: SYS_03_PETAL_SINGLE
# Exported for Houdini & DCC (Units: Meters)
o SYS_03_PETAL_SINGLE

v 150.0000 0.0000 0.0000
v 150.0000 0.0000 -12.0000
v 150.0000 0.0000 0.0000
v 150.0000 0.0000 -12.0000
v 150.0000 0.0000 0.0000
v 150.0000 0.0000 -12.0000
v 150.0000 0.0000 0.0000
v 150.0000 0.0000 -12.0000
v 150.0000 0.0000 0.0000
v 150.0000 0.0000 -12.0000
v 150.0000 0.0000 0.0000
v 150.0000 0.0000 -12.0000
v 150.0000 0.0000 0.0000
v 150.0000 0.0000 -12.0000
v 150.0000 0.0000 0.0000
v 150.0000 0.0000 -12.0000
v 150.0000 0.0000 0.0000
v 150.0000 0.0000 -12.0000
v 150.0000 0.0000 0.0000
v 150.0000 0.0000 -12.0000
v 150.0000 0.0000 0.0000
v 150.0000 0.0000 -12.0000
v 150.0000 0.0000 0.0000
v 150.0000 0.0000 -12.0000
v 150.0000 0.0000 0.0000
v 150.0000 0.0000 -12.0000
v 150.0000 0.0000 0.0000
v 150.0000 0.0000 -12.0000
v 150.0000 0.0000 0.0000
v 150.0000 0.0000 -12.0000
v 189.5833 -50.0504 -4.5684
v 189.5833 -50.0504 -16.5684
v 189.5833 -42.9003 -2.5198
v 189.5833 -42.9003 -14.8181
v 189.5833 -35.7503 -0.6576
v 189.5833 -35.7503 -13.2543
v 189.5833 -28.6002 1.0181
v 189.5833 -28.6002 -11.8769
v 189.5833 -21.4502 2.5074
v 189.5833 -21.4502 -10.6860
v 189.5833 -14.3001 3.8102
v 189.5833 -14.3001 -9.6816
v 189.5833 -7.1501 4.9265
v 189.5833 -7.1501 -8.8636
v 189.5833 0.0000 5.8563
v 189.5833 0.0000 -8.2321
v 189.5833 7.1501 4.9265
v 189.5833 7.1501 -8.8636
v 189.5833 14.3001 3.8102
v 189.5833 14.3001 -9.6816
v 189.5833 21.4502 2.5074
v 189.5833 21.4502 -10.6860
v 189.5833 28.6002 1.0181
v 189.5833 28.6002 -11.8769
v 189.5833 35.7503 -0.6576
v 189.5833 35.7503 -13.2543
v 189.5833 42.9003 -2.5198
v 189.5833 42.9003 -14.8181
v 189.5833 50.0504 -4.5684
v 189.5833 50.0504 -16.5684
v 229.1667 -65.1983 -9.0587
v 229.1667 -65.1983 -21.0587
v 229.1667 -55.8842 -5.3499
v 229.1667 -55.8842 -17.9414
v 229.1667 -46.5702 -2.0108
v 229.1667 -46.5702 -15.1940
v 229.1667 -37.2562 0.9585
v 229.1667 -37.2562 -12.8162
v 229.1667 -27.9421 3.5581
v 229.1667 -27.9421 -10.8082
v 229.1667 -18.6281 5.7879
v 229.1667 -18.6281 -9.1700
v 229.1667 -9.3140 7.6480
v 229.1667 -9.3140 -7.9015
v 229.1667 0.0000 9.1384
v 229.1667 0.0000 -7.0027
v 229.1667 9.3140 7.6480
v 229.1667 9.3140 -7.9015
v 229.1667 18.6281 5.7879
v 229.1667 18.6281 -9.1700
v 229.1667 27.9421 3.5581
v 229.1667 27.9421 -10.8082
v 229.1667 37.2562 0.9585
v 229.1667 37.2562 -12.8162
v 229.1667 46.5702 -2.0108
v 229.1667 46.5702 -15.1940
v 229.1667 55.8842 -5.3499
v 229.1667 55.8842 -17.9414
v 229.1667 65.1983 -9.0587
v 229.1667 65.1983 -21.0587
v 268.7500 -80.3462 -13.3939
v 268.7500 -80.3462 -25.3939
v 268.7500 -68.8681 -8.1571
v 268.7500 -68.8681 -21.0318
v 268.7500 -57.3901 -3.4670
v 268.7500 -57.3901 -17.2164
v 268.7500 -45.9121 0.6765
v 268.7500 -45.9121 -13.9476
v 268.7500 -34.4341 4.2732
v 268.7500 -34.4341 -11.2256
v 268.7500 -22.9560 7.3233
v 268.7500 -22.9560 -9.0502
v 268.7500 -11.4780 9.8267
v 268.7500 -11.4780 -7.4216
v 268.7500 0.0000 11.7833
v 268.7500 0.0000 -6.3396
v 268.7500 11.4780 9.8267
v 268.7500 11.4780 -7.4216
v 268.7500 22.9560 7.3233
v 268.7500 22.9560 -9.0502
v 268.7500 34.4341 4.2732
v 268.7500 34.4341 -11.2256
v 268.7500 45.9121 0.6765
v 268.7500 45.9121 -13.9476
v 268.7500 57.3901 -3.4670
v 268.7500 57.3901 -17.2164
v 268.7500 68.8681 -8.1571
v 268.7500 68.8681 -21.0318
v 268.7500 80.3462 -13.3939
v 268.7500 80.3462 -25.3939
v 308.3333 -95.4941 -17.5000
v 308.3333 -95.4941 -29.5000
v 308.3333 -81.8520 -10.8543
v 308.3333 -81.8520 -23.9971
v 308.3333 -68.2100 -4.9228
v 308.3333 -68.2100 -19.2085
v 308.3333 -54.5680 0.2944
v 308.3333 -54.5680 -15.1342
v 308.3333 -40.9260 4.7972
v 308.3333 -40.9260 -11.7742
v 308.3333 -27.2840 8.5858
v 308.3333 -27.2840 -9.1285
v 308.3333 -13.6420 11.6601
v 308.3333 -13.6420 -7.1970
v 308.3333 0.0000 14.0202
v 308.3333 0.0000 -5.9798
v 308.3333 13.6420 11.6601
v 308.3333 13.6420 -7.1970
v 308.3333 27.2840 8.5858
v 308.3333 27.2840 -9.1285
v 308.3333 40.9260 4.7972
v 308.3333 40.9260 -11.7742
v 308.3333 54.5680 0.2944
v 308.3333 54.5680 -15.1342
v 308.3333 68.2100 -4.9228
v 308.3333 68.2100 -19.2085
v 308.3333 81.8520 -10.8543
v 308.3333 81.8520 -23.9971
v 308.3333 95.4941 -17.5000
v 308.3333 95.4941 -29.5000
v 347.9167 -110.6419 -21.3067
v 347.9167 -110.6419 -33.3067
v 347.9167 -94.8360 -13.3776
v 347.9167 -94.8360 -26.7691
v 347.9167 -79.0300 -6.3183
v 347.9167 -79.0300 -21.1012
v 347.9167 -63.2240 -0.1286
v 347.9167 -63.2240 -16.3030
v 347.9167 -47.4180 5.1914
v 347.9167 -47.4180 -12.3744
v 347.9167 -31.6120 9.6418
v 347.9167 -31.6120 -9.3155
v 347.9167 -15.8060 13.2225
v 347.9167 -15.8060 -7.1262
v 347.9167 0.0000 15.9336
v 347.9167 0.0000 -5.8066
v 347.9167 15.8060 13.2225
v 347.9167 15.8060 -7.1262
v 347.9167 31.6120 9.6418
v 347.9167 31.6120 -9.3155
v 347.9167 47.4180 5.1914
v 347.9167 47.4180 -12.3744
v 347.9167 63.2240 -0.1286
v 347.9167 63.2240 -16.3030
v 347.9167 79.0300 -6.3183
v 347.9167 79.0300 -21.1012
v 347.9167 94.8360 -13.3776
v 347.9167 94.8360 -26.7691
v 347.9167 110.6419 -21.3067
v 347.9167 110.6419 -33.3067
v 387.5000 -125.7898 -24.7487
v 387.5000 -125.7898 -36.7487
v 387.5000 -107.8199 -15.6738
v 387.5000 -107.8199 -29.2901
v 387.5000 -89.8499 -7.6090
v 387.5000 -89.8499 -22.8415
v 387.5000 -71.8799 -0.5544
v 387.5000 -71.8799 -17.4031
v 387.5000 -53.9099 5.4901
v 387.5000 -53.9099 -12.9749
v 387.5000 -35.9400 10.5244
v 387.5000 -35.9400 -9.5568
v 387.5000 -17.9700 14.5486
v 387.5000 -17.9700 -7.1489
v 387.5000 0.0000 17.5626
v 387.5000 0.0000 -5.7511
v 387.5000 17.9700 14.5486
v 387.5000 17.9700 -7.1489
v 387.5000 35.9400 10.5244
v 387.5000 35.9400 -9.5568
v 387.5000 53.9099 5.4901
v 387.5000 53.9099 -12.9749
v 387.5000 71.8799 -0.5544
v 387.5000 71.8799 -17.4031
v 387.5000 89.8499 -7.6090
v 387.5000 89.8499 -22.8415
v 387.5000 107.8199 -15.6738
v 387.5000 107.8199 -29.2901
v 387.5000 125.7898 -24.7487
v 387.5000 125.7898 -36.7487
v 427.0833 -140.9377 -27.7674
v 427.0833 -140.9377 -39.7674
v 427.0833 -120.8038 -17.6967
v 427.0833 -120.8038 -31.5101
v 427.0833 -100.6698 -8.7594
v 427.0833 -100.6698 -24.3861
v 427.0833 -80.5358 -0.9554
v 427.0833 -80.5358 -18.3956
v 427.0833 -60.4019 5.7152
v 427.0833 -60.4019 -13.5384
v 427.0833 -40.2679 11.2524
v 427.0833 -40.2679 -9.8145
v 427.0833 -20.1340 15.6562
v 427.0833 -20.1340 -7.2240
v 427.0833 0.0000 18.9267
v 427.0833 0.0000 -5.7669
v 427.0833 20.1340 15.6562
v 427.0833 20.1340 -7.2240
v 427.0833 40.2679 11.2524
v 427.0833 40.2679 -9.8145
v 427.0833 60.4019 5.7152
v 427.0833 60.4019 -13.5384
v 427.0833 80.5358 -0.9554
v 427.0833 80.5358 -18.3956
v 427.0833 100.6698 -8.7594
v 427.0833 100.6698 -24.3861
v 427.0833 120.8038 -17.6967
v 427.0833 120.8038 -31.5101
v 427.0833 140.9377 -27.7674
v 427.0833 140.9377 -39.7674
v 466.6667 -156.0856 -30.3109
v 466.6667 -156.0856 -42.3109
v 466.6667 -133.7877 -19.4069
v 466.6667 -133.7877 -33.3864
v 466.6667 -111.4897 -9.7401
v 466.6667 -111.4897 -25.6991
v 466.6667 -89.1918 -1.3104
v 466.6667 -89.1918 -19.2489
v 466.6667 -66.8938 5.8820
v 466.6667 -66.8938 -14.0359
v 466.6667 -44.5959 11.8373
v 466.6667 -44.5959 -10.0601
v 466.6667 -22.2979 16.5554
v 466.6667 -22.2979 -7.3215
v 466.6667 0.0000 20.0363
v 466.6667 0.0000 -5.8201
v 466.6667 22.2979 16.5554
v 466.6667 22.2979 -7.3215
v 466.6667 44.5959 11.8373
v 466.6667 44.5959 -10.0601
v 466.6667 66.8938 5.8820
v 466.6667 66.8938 -14.0359
v 466.6667 89.1918 -1.3104
v 466.6667 89.1918 -19.2489
v 466.6667 111.4897 -9.7401
v 466.6667 111.4897 -25.6991
v 466.6667 133.7877 -19.4069
v 466.6667 133.7877 -33.3864
v 466.6667 156.0856 -30.3109
v 466.6667 156.0856 -42.3109
v 506.2500 -171.2335 -32.3358
v 506.2500 -171.2335 -44.3358
v 506.2500 -146.7716 -20.7717
v 506.2500 -146.7716 -34.8834
v 506.2500 -122.3096 -10.5274
v 506.2500 -122.3096 -26.7509
v 506.2500 -97.8477 -1.6030
v 506.2500 -97.8477 -19.9382
v 506.2500 -73.3858 6.0016
v 506.2500 -73.3858 -14.4453
v 506.2500 -48.9239 12.2864
v 506.2500 -48.9239 -10.2722
v 506.2500 -24.4619 17.2513
v 506.2500 -24.4619 -7.4190
v 506.2500 0.0000 20.8965
v 506.2500 0.0000 -5.8856
v 506.2500 24.4619 17.2513
v 506.2500 24.4619 -7.4190
v 506.2500 48.9239 12.2864
v 506.2500 48.9239 -10.2722
v 506.2500 73.3858 6.0016
v 506.2500 73.3858 -14.4453
v 506.2500 97.8477 -1.6030
v 506.2500 97.8477 -19.9382
v 506.2500 122.3096 -10.5274
v 506.2500 122.3096 -26.7509
v 506.2500 146.7716 -20.7717
v 506.2500 146.7716 -34.8834
v 506.2500 171.2335 -32.3358
v 506.2500 171.2335 -44.3358
v 545.8333 -186.3814 -33.8074
v 545.8333 -186.3814 -45.8074
v 545.8333 -159.7555 -21.7653
v 545.8333 -159.7555 -35.9731
v 545.8333 -133.1296 -11.1030
v 545.8333 -133.1296 -27.5187
v 545.8333 -106.5036 -1.8207
v 545.8333 -106.5036 -20.4442
v 545.8333 -79.8777 6.0818
v 545.8333 -79.8777 -14.7495
v 545.8333 -53.2518 12.6043
v 545.8333 -53.2518 -10.4348
v 545.8333 -26.6259 17.7470
v 545.8333 -26.6259 -7.5000
v 545.8333 0.0000 21.5098
v 545.8333 0.0000 -5.9450
v 545.8333 26.6259 17.7470
v 545.8333 26.6259 -7.5000
v 545.8333 53.2518 12.6043
v 545.8333 53.2518 -10.4348
v 545.8333 79.8777 6.0818
v 545.8333 79.8777 -14.7495
v 545.8333 106.5036 -1.8207
v 545.8333 106.5036 -20.4442
v 545.8333 133.1296 -11.1030
v 545.8333 133.1296 -27.5187
v 545.8333 159.7555 -21.7653
v 545.8333 159.7555 -35.9731
v 545.8333 186.3814 -33.8074
v 545.8333 186.3814 -45.8074
v 585.4167 -176.7636 -34.7006
v 585.4167 -176.7636 -46.7006
v 585.4167 -151.5117 -22.3689
v 585.4167 -151.5117 -36.6351
v 585.4167 -126.2597 -11.4537
v 585.4167 -126.2597 -27.9860
v 585.4167 -101.0078 -1.9547
v 585.4167 -101.0078 -20.7532
v 585.4167 -75.7558 6.1278
v 585.4167 -75.7558 -14.9368
v 585.4167 -50.5039 12.7941
v 585.4167 -50.5039 -10.5367
v 585.4167 -25.2519 18.0439
v 585.4167 -25.2519 -7.5530
v 585.4167 0.0000 21.8775
v 585.4167 0.0000 -5.9856
v 585.4167 25.2519 18.0439
v 585.4167 25.2519 -7.5530
v 585.4167 50.5039 12.7941
v 585.4167 50.5039 -10.5367
v 585.4167 75.7558 6.1278
v 585.4167 75.7558 -14.9368
v 585.4167 101.0078 -1.9547
v 585.4167 101.0078 -20.7532
v 585.4167 126.2597 -11.4537
v 585.4167 126.2597 -27.9860
v 585.4167 151.5117 -22.3689
v 585.4167 151.5117 -36.6351
v 585.4167 176.7636 -34.7006
v 585.4167 176.7636 -46.7006
v 625.0000 -164.0090 -35.0000
v 625.0000 -164.0090 -47.0000
v 625.0000 -140.5792 -22.5714
v 625.0000 -140.5792 -36.8571
v 625.0000 -117.1493 -11.5714
v 625.0000 -117.1493 -28.1429
v 625.0000 -93.7194 -2.0000
v 625.0000 -93.7194 -20.8571
v 625.0000 -70.2896 6.1429
v 625.0000 -70.2896 -15.0000
v 625.0000 -46.8597 12.8571
v 625.0000 -46.8597 -10.5714
v 625.0000 -23.4299 18.1429
v 625.0000 -23.4299 -7.5714
v 625.0000 0.0000 22.0000
v 625.0000 0.0000 -6.0000
v 625.0000 23.4299 18.1429
v 625.0000 23.4299 -7.5714
v 625.0000 46.8597 12.8571
v 625.0000 46.8597 -10.5714
v 625.0000 70.2896 6.1429
v 625.0000 70.2896 -15.0000
v 625.0000 93.7194 -2.0000
v 625.0000 93.7194 -20.8571
v 625.0000 117.1493 -11.5714
v 625.0000 117.1493 -28.1429
v 625.0000 140.5792 -22.5714
v 625.0000 140.5792 -36.8571
v 625.0000 164.0090 -35.0000
v 625.0000 164.0090 -47.0000
v 664.5833 -150.1912 -34.7006
v 664.5833 -150.1912 -46.7006
v 664.5833 -128.7353 -22.3689
v 664.5833 -128.7353 -36.6351
v 664.5833 -107.2794 -11.4537
v 664.5833 -107.2794 -27.9860
v 664.5833 -85.8235 -1.9547
v 664.5833 -85.8235 -20.7532
v 664.5833 -64.3677 6.1278
v 664.5833 -64.3677 -14.9368
v 664.5833 -42.9118 12.7941
v 664.5833 -42.9118 -10.5367
v 664.5833 -21.4559 18.0439
v 664.5833 -21.4559 -7.5530
v 664.5833 0.0000 21.8775
v 664.5833 0.0000 -5.9856
v 664.5833 21.4559 18.0439
v 664.5833 21.4559 -7.5530
v 664.5833 42.9118 12.7941
v 664.5833 42.9118 -10.5367
v 664.5833 64.3677 6.1278
v 664.5833 64.3677 -14.9368
v 664.5833 85.8235 -1.9547
v 664.5833 85.8235 -20.7532
v 664.5833 107.2794 -11.4537
v 664.5833 107.2794 -27.9860
v 664.5833 128.7353 -22.3689
v 664.5833 128.7353 -36.6351
v 664.5833 150.1912 -34.7006
v 664.5833 150.1912 -46.7006
v 704.1667 -135.6171 -33.8074
v 704.1667 -135.6171 -45.8074
v 704.1667 -116.2432 -21.7653
v 704.1667 -116.2432 -35.9731
v 704.1667 -96.8693 -11.1030
v 704.1667 -96.8693 -27.5187
v 704.1667 -77.4955 -1.8207
v 704.1667 -77.4955 -20.4442
v 704.1667 -58.1216 6.0818
v 704.1667 -58.1216 -14.7495
v 704.1667 -38.7477 12.6043
v 704.1667 -38.7477 -10.4348
v 704.1667 -19.3739 17.7470
v 704.1667 -19.3739 -7.5000
v 704.1667 0.0000 21.5098
v 704.1667 0.0000 -5.9450
v 704.1667 19.3739 17.7470
v 704.1667 19.3739 -7.5000
v 704.1667 38.7477 12.6043
v 704.1667 38.7477 -10.4348
v 704.1667 58.1216 6.0818
v 704.1667 58.1216 -14.7495
v 704.1667 77.4955 -1.8207
v 704.1667 77.4955 -20.4442
v 704.1667 96.8693 -11.1030
v 704.1667 96.8693 -27.5187
v 704.1667 116.2432 -21.7653
v 704.1667 116.2432 -35.9731
v 704.1667 135.6171 -33.8074
v 704.1667 135.6171 -45.8074
v 743.7500 -120.5563 -32.3358
v 743.7500 -120.5563 -44.3358
v 743.7500 -103.3339 -20.7717
v 743.7500 -103.3339 -34.8834
v 743.7500 -86.1116 -10.5274
v 743.7500 -86.1116 -26.7509
v 743.7500 -68.8893 -1.6030
v 743.7500 -68.8893 -19.9382
v 743.7500 -51.6670 6.0016
v 743.7500 -51.6670 -14.4453
v 743.7500 -34.4446 12.2864
v 743.7500 -34.4446 -10.2722
v 743.7500 -17.2223 17.2513
v 743.7500 -17.2223 -7.4190
v 743.7500 0.0000 20.8965
v 743.7500 0.0000 -5.8856
v 743.7500 17.2223 17.2513
v 743.7500 17.2223 -7.4190
v 743.7500 34.4446 12.2864
v 743.7500 34.4446 -10.2722
v 743.7500 51.6670 6.0016
v 743.7500 51.6670 -14.4453
v 743.7500 68.8893 -1.6030
v 743.7500 68.8893 -19.9382
v 743.7500 86.1116 -10.5274
v 743.7500 86.1116 -26.7509
v 743.7500 103.3339 -20.7717
v 743.7500 103.3339 -34.8834
v 743.7500 120.5563 -32.3358
v 743.7500 120.5563 -44.3358
v 783.3333 -105.2485 -30.3109
v 783.3333 -105.2485 -42.3109
v 783.3333 -90.2130 -19.4069
v 783.3333 -90.2130 -33.3864
v 783.3333 -75.1775 -9.7401
v 783.3333 -75.1775 -25.6991
v 783.3333 -60.1420 -1.3104
v 783.3333 -60.1420 -19.2489
v 783.3333 -45.1065 5.8820
v 783.3333 -45.1065 -14.0359
v 783.3333 -30.0710 11.8373
v 783.3333 -30.0710 -10.0601
v 783.3333 -15.0355 16.5554
v 783.3333 -15.0355 -7.3215
v 783.3333 0.0000 20.0363
v 783.3333 0.0000 -5.8201
v 783.3333 15.0355 16.5554
v 783.3333 15.0355 -7.3215
v 783.3333 30.0710 11.8373
v 783.3333 30.0710 -10.0601
v 783.3333 45.1065 5.8820
v 783.3333 45.1065 -14.0359
v 783.3333 60.1420 -1.3104
v 783.3333 60.1420 -19.2489
v 783.3333 75.1775 -9.7401
v 783.3333 75.1775 -25.6991
v 783.3333 90.2130 -19.4069
v 783.3333 90.2130 -33.3864
v 783.3333 105.2485 -30.3109
v 783.3333 105.2485 -42.3109
v 822.9167 -89.9098 -27.7043
v 822.9167 -89.9098 -39.7043
v 822.9167 -77.0656 -17.6565
v 822.9167 -77.0656 -31.4699
v 822.9167 -64.2213 -8.7395
v 822.9167 -64.2213 -24.3662
v 822.9167 -51.3770 -0.9533
v 822.9167 -51.3770 -18.3934
v 822.9167 -38.5328 5.7022
v 822.9167 -38.5328 -13.5513
v 822.9167 -25.6885 11.2268
v 822.9167 -25.6885 -9.8401
v 822.9167 -12.8443 15.6207
v 822.9167 -12.8443 -7.2596
v 822.9167 0.0000 18.8837
v 822.9167 0.0000 -5.8099
v 822.9167 12.8443 15.6207
v 822.9167 12.8443 -7.2596
v 822.9167 25.6885 11.2268
v 822.9167 25.6885 -9.8401
v 822.9167 38.5328 5.7022
v 822.9167 38.5328 -13.5513
v 822.9167 51.3770 -0.9533
v 822.9167 51.3770 -18.3934
v 822.9167 64.2213 -8.7395
v 822.9167 64.2213 -24.3662
v 822.9167 77.0656 -17.6565
v 822.9167 77.0656 -31.4699
v 822.9167 89.9098 -27.7043
v 822.9167 89.9098 -39.7043
v 862.5000 -74.7390 -22.9155
v 862.5000 -74.7390 -34.9155
v 862.5000 -64.0620 -14.5128
v 862.5000 -64.0620 -28.1290
v 862.5000 -53.3850 -7.0454
v 862.5000 -53.3850 -22.2779
v 862.5000 -42.7080 -0.5133
v 862.5000 -42.7080 -17.3621
v 862.5000 -32.0310 5.0834
v 862.5000 -32.0310 -13.3816
v 862.5000 -21.3540 9.7448
v 862.5000 -21.3540 -10.3364
v 862.5000 -10.6770 13.4709
v 862.5000 -10.6770 -8.2266
v 862.5000 0.0000 16.2616
v 862.5000 0.0000 -7.0521
v 862.5000 10.6770 13.4709
v 862.5000 10.6770 -8.2266
v 862.5000 21.3540 9.7448
v 862.5000 21.3540 -10.3364
v 862.5000 32.0310 5.0834
v 862.5000 32.0310 -13.3816
v 862.5000 42.7080 -0.5133
v 862.5000 42.7080 -17.3621
v 862.5000 53.3850 -7.0454
v 862.5000 53.3850 -22.2779
v 862.5000 64.0620 -14.5128
v 862.5000 64.0620 -28.1290
v 862.5000 74.7390 -22.9155
v 862.5000 74.7390 -34.9155
v 902.0833 -59.9243 -16.5545
v 902.0833 -59.9243 -28.5545
v 902.0833 -51.3637 -10.3939
v 902.0833 -51.3637 -23.7854
v 902.0833 -42.8031 -4.9091
v 902.0833 -42.8031 -19.6920
v 902.0833 -34.2425 -0.0999
v 902.0833 -34.2425 -16.2743
v 902.0833 -25.6818 4.0336
v 902.0833 -25.6818 -13.5323
v 902.0833 -17.1212 7.4913
v 902.0833 -17.1212 -11.4659
v 902.0833 -8.5606 10.2734
v 902.0833 -8.5606 -10.0753
v 902.0833 0.0000 12.3798
v 902.0833 0.0000 -9.3604
v 902.0833 8.5606 10.2734
v 902.0833 8.5606 -10.0753
v 902.0833 17.1212 7.4913
v 902.0833 17.1212 -11.4659
v 902.0833 25.6818 4.0336
v 902.0833 25.6818 -13.5323
v 902.0833 34.2425 -0.0999
v 902.0833 34.2425 -16.2743
v 902.0833 42.8031 -4.9091
v 902.0833 42.8031 -19.6920
v 902.0833 51.3637 -10.3939
v 902.0833 51.3637 -23.7854
v 902.0833 59.9243 -16.5545
v 902.0833 59.9243 -28.5545
v 941.6667 -45.6527 -10.2023
v 941.6667 -45.6527 -22.2023
v 941.6667 -39.1309 -6.3279
v 941.6667 -39.1309 -19.4708
v 941.6667 -32.6091 -2.8700
v 941.6667 -32.6091 -17.1557
v 941.6667 -26.0873 0.1716
v 941.6667 -26.0873 -15.2570
v 941.6667 -19.5655 2.7967
v 941.6667 -19.5655 -13.7747
v 941.6667 -13.0436 5.0055
v 941.6667 -13.0436 -12.7088
v 941.6667 -6.5218 6.7978
v 941.6667 -6.5218 -12.0594
v 941.6667 0.0000 8.1736
v 941.6667 0.0000 -11.8264
v 941.6667 6.5218 6.7978
v 941.6667 6.5218 -12.0594
v 941.6667 13.0436 5.0055
v 941.6667 13.0436 -12.7088
v 941.6667 19.5655 2.7967
v 941.6667 19.5655 -13.7747
v 941.6667 26.0873 0.1716
v 941.6667 26.0873 -15.2570
v 941.6667 32.6091 -2.8700
v 941.6667 32.6091 -17.1557
v 941.6667 39.1309 -6.3279
v 941.6667 39.1309 -19.4708
v 941.6667 45.6527 -10.2023
v 941.6667 45.6527 -22.2023
v 981.2500 -32.1256 -5.0382
v 981.2500 -32.1256 -17.0382
v 981.2500 -27.5362 -3.0684
v 981.2500 -27.5362 -15.9431
v 981.2500 -22.9469 -1.3041
v 981.2500 -22.9469 -15.0535
v 981.2500 -18.3575 0.2545
v 981.2500 -18.3575 -14.3697
v 981.2500 -13.7681 1.6074
v 981.2500 -13.7681 -13.8914
v 981.2500 -9.1787 2.7547
v 981.2500 -9.1787 -13.6188
v 981.2500 -4.5894 3.6964
v 981.2500 -4.5894 -13.5519
v 981.2500 0.0000 4.4324
v 981.2500 0.0000 -13.6905
v 981.2500 4.5894 3.6964
v 981.2500 4.5894 -13.5519
v 981.2500 9.1787 2.7547
v 981.2500 9.1787 -13.6188
v 981.2500 13.7681 1.6074
v 981.2500 13.7681 -13.8914
v 981.2500 18.3575 0.2545
v 981.2500 18.3575 -14.3697
v 981.2500 22.9469 -1.3041
v 981.2500 22.9469 -15.0535
v 981.2500 27.5362 -3.0684
v 981.2500 27.5362 -15.9431
v 981.2500 32.1256 -5.0382
v 981.2500 32.1256 -17.0382
v 1020.8333 -19.5916 -1.7086
v 1020.8333 -19.5916 -13.7086
v 1020.8333 -16.7928 -1.0091
v 1020.8333 -16.7928 -13.6006
v 1020.8333 -13.9940 -0.3793
v 1020.8333 -13.9940 -13.5624
v 1020.8333 -11.1952 0.1808
v 1020.8333 -11.1952 -13.5940
v 1020.8333 -8.3964 0.6711
v 1020.8333 -8.3964 -13.6952
v 1020.8333 -5.5976 1.0917
v 1020.8333 -5.5976 -13.8662
v 1020.8333 -2.7988 1.4425
v 1020.8333 -2.7988 -14.1070
v 1020.8333 0.0000 1.7236
v 1020.8333 0.0000 -14.4175
v 1020.8333 2.7988 1.4425
v 1020.8333 2.7988 -14.1070
v 1020.8333 5.5976 1.0917
v 1020.8333 5.5976 -13.8662
v 1020.8333 8.3964 0.6711
v 1020.8333 8.3964 -13.6952
v 1020.8333 11.1952 0.1808
v 1020.8333 11.1952 -13.5940
v 1020.8333 13.9940 -0.3793
v 1020.8333 13.9940 -13.5624
v 1020.8333 16.7928 -1.0091
v 1020.8333 16.7928 -13.6006
v 1020.8333 19.5916 -1.7086
v 1020.8333 19.5916 -13.7086
v 1060.4167 -8.4457 -0.2399
v 1060.4167 -8.4457 -12.2399
v 1060.4167 -7.2391 -0.1323
v 1060.4167 -7.2391 -12.4307
v 1060.4167 -6.0326 -0.0345
v 1060.4167 -6.0326 -12.6312
v 1060.4167 -4.8261 0.0535
v 1060.4167 -4.8261 -12.8416
v 1060.4167 -3.6196 0.1317
v 1060.4167 -3.6196 -13.0617
v 1060.4167 -2.4130 0.2001
v 1060.4167 -2.4130 -13.2916
v 1060.4167 -1.2065 0.2587
v 1060.4167 -1.2065 -13.5314
v 1060.4167 0.0000 0.3075
v 1060.4167 0.0000 -13.7809
v 1060.4167 1.2065 0.2587
v 1060.4167 1.2065 -13.5314
v 1060.4167 2.4130 0.2001
v 1060.4167 2.4130 -13.2916
v 1060.4167 3.6196 0.1317
v 1060.4167 3.6196 -13.0617
v 1060.4167 4.8261 0.0535
v 1060.4167 4.8261 -12.8416
v 1060.4167 6.0326 -0.0345
v 1060.4167 6.0326 -12.6312
v 1060.4167 7.2391 -0.1323
v 1060.4167 7.2391 -12.4307
v 1060.4167 8.4457 -0.2399
v 1060.4167 8.4457 -12.2399
v 1100.0000 -0.0000 -0.0000
v 1100.0000 -0.0000 -12.0000
v 1100.0000 -0.0000 0.0000
v 1100.0000 -0.0000 -12.0000
v 1100.0000 -0.0000 0.0000
v 1100.0000 -0.0000 -12.0000
v 1100.0000 -0.0000 0.0000
v 1100.0000 -0.0000 -12.0000
v 1100.0000 -0.0000 0.0000
v 1100.0000 -0.0000 -12.0000
v 1100.0000 -0.0000 0.0000
v 1100.0000 -0.0000 -12.0000
v 1100.0000 -0.0000 0.0000
v 1100.0000 -0.0000 -12.0000
v 1100.0000 0.0000 0.0000
v 1100.0000 0.0000 -12.0000
v 1100.0000 0.0000 0.0000
v 1100.0000 0.0000 -12.0000
v 1100.0000 0.0000 0.0000
v 1100.0000 0.0000 -12.0000
v 1100.0000 0.0000 0.0000
v 1100.0000 0.0000 -12.0000
v 1100.0000 0.0000 0.0000
v 1100.0000 0.0000 -12.0000
v 1100.0000 0.0000 0.0000
v 1100.0000 0.0000 -12.0000
v 1100.0000 0.0000 0.0000
v 1100.0000 0.0000 -12.0000
v 1100.0000 0.0000 -0.0000
v 1100.0000 0.0000 -12.0000
# 750 vertices

vn 0.0000 0.0000 1.0000
vn 0.0000 0.0000 -1.0000
vn 0.0000 0.0000 1.0000
vn 0.0000 0.0000 -1.0000
vn 0.0000 0.0000 1.0000
vn 0.0000 0.0000 -1.0000
vn 0.0000 0.0000 1.0000
vn 0.0000 0.0000 -1.0000
vn 0.0000 0.0000 1.0000
vn 0.0000 0.0000 -1.0000
vn 0.0000 0.0000 1.0000
vn 0.0000 0.0000 -1.0000
vn 0.0000 0.0000 1.0000
vn 0.0000 0.0000 -1.0000
vn 0.0000 0.0000 1.0000
vn 0.0000 0.0000 -1.0000
vn 0.0000 0.0000 1.0000
vn 0.0000 0.0000 -1.0000
vn 0.0000 0.0000 1.0000
vn 0.0000 0.0000 -1.0000
vn 0.0000 0.0000 1.0000
vn 0.0000 0.0000 -1.0000
vn 0.0000 0.0000 1.0000
vn 0.0000 0.0000 -1.0000
vn 0.0000 0.0000 1.0000
vn 0.0000 0.0000 -1.0000
vn 0.0000 0.0000 1.0000
vn 0.0000 0.0000 -1.0000
vn 0.0000 0.0000 1.0000
vn 0.0000 0.0000 -1.0000
vn 0.0000 0.0000 1.0000
vn 0.0000 0.0000 -1.0000
vn 0.0000 0.0000 1.0000
vn 0.0000 0.0000 -1.0000
vn 0.0000 0.0000 1.0000
vn 0.0000 0.0000 -1.0000
vn 0.0000 0.0000 1.0000
vn 0.0000 0.0000 -1.0000
vn 0.0000 0.0000 1.0000
vn 0.0000 0.0000 -1.0000
vn 0.0000 0.0000 1.0000
vn 0.0000 0.0000 -1.0000
vn 0.0000 0.0000 1.0000
vn 0.0000 0.0000 -1.0000
vn 0.0000 0.0000 1.0000
vn 0.0000 0.0000 -1.0000
vn 0.0000 0.0000 1.0000
vn 0.0000 0.0000 -1.0000
vn 0.0000 0.0000 1.0000
vn 0.0000 0.0000 -1.0000
vn 0.0000 0.0000 1.0000
vn 0.0000 0.0000 -1.0000
vn 0.0000 0.0000 1.0000
vn 0.0000 0.0000 -1.0000
vn 0.0000 0.0000 1.0000
vn 0.0000 0.0000 -1.0000
vn 0.0000 0.0000 1.0000
vn 0.0000 0.0000 -1.0000
vn 0.0000 0.0000 1.0000
vn 0.0000 0.0000 -1.0000
vn 0.0000 0.0000 1.0000
vn 0.0000 0.0000 -1.0000
vn 0.0000 0.0000 1.0000
vn 0.0000 0.0000 -1.0000
vn 0.0000 0.0000 1.0000
vn 0.0000 0.0000 -1.0000
vn 0.0000 0.0000 1.0000
vn 0.0000 0.0000 -1.0000
vn 0.0000 0.0000 1.0000
vn 0.0000 0.0000 -1.0000
vn 0.0000 0.0000 1.0000
vn 0.0000 0.0000 -1.0000
vn 0.0000 0.0000 1.0000
vn 0.0000 0.0000 -1.0000
vn 0.0000 0.0000 1.0000
vn 0.0000 0.0000 -1.0000
vn 0.0000 0.0000 1.0000
vn 0.0000 0.0000 -1.0000
vn 0.0000 0.0000 1.0000
vn 0.0000 0.0000 -1.0000
vn 0.0000 0.0000 1.0000
vn 0.0000 0.0000 -1.0000
vn 0.0000 0.0000 1.0000
vn 0.0000 0.0000 -1.0000
vn 0.0000 0.0000 1.0000
vn 0.0000 0.0000 -1.0000
vn 0.0000 0.0000 1.0000
vn 0.0000 0.0000 -1.0000
vn 0.0000 0.0000 1.0000
vn 0.0000 0.0000 -1.0000
vn 0.0000 0.0000 1.0000
vn 0.0000 0.0000 -1.0000
vn 0.0000 0.0000 1.0000
vn 0.0000 0.0000 -1.0000
vn 0.0000 0.0000 1.0000
vn 0.0000 0.0000 -1.0000
vn 0.0000 0.0000 1.0000
vn 0.0000 0.0000 -1.0000
vn 0.0000 0.0000 1.0000
vn 0.0000 0.0000 -1.0000
vn 0.0000 0.0000 1.0000
vn 0.0000 0.0000 -1.0000
vn 0.0000 0.0000 1.0000
vn 0.0000 0.0000 -1.0000
vn 0.0000 0.0000 1.0000
vn 0.0000 0.0000 -1.0000
vn 0.0000 0.0000 1.0000
vn 0.0000 0.0000 -1.0000
vn 0.0000 0.0000 1.0000
vn 0.0000 0.0000 -1.0000
vn 0.0000 0.0000 1.0000
vn 0.0000 0.0000 -1.0000
vn 0.0000 0.0000 1.0000
vn 0.0000 0.0000 -1.0000
vn 0.0000 0.0000 1.0000
vn 0.0000 0.0000 -1.0000
vn 0.0000 0.0000 1.0000
vn 0.0000 0.0000 -1.0000
vn 0.0000 0.0000 1.0000
vn 0.0000 0.0000 -1.0000
vn 0.0000 0.0000 1.0000
vn 0.0000 0.0000 -1.0000
vn 0.0000 0.0000 1.0000
vn 0.0000 0.0000 -1.0000
vn 0.0000 0.0000 1.0000
vn 0.0000 0.0000 -1.0000
vn 0.0000 0.0000 1.0000
vn 0.0000 0.0000 -1.0000
vn 0.0000 0.0000 1.0000
vn 0.0000 0.0000 -1.0000
vn 0.0000 0.0000 1.0000
vn 0.0000 0.0000 -1.0000
vn 0.0000 0.0000 1.0000
vn 0.0000 0.0000 -1.0000
vn 0.0000 0.0000 1.0000
vn 0.0000 0.0000 -1.0000
vn 0.0000 0.0000 1.0000
vn 0.0000 0.0000 -1.0000
vn 0.0000 0.0000 1.0000
vn 0.0000 0.0000 -1.0000
vn 0.0000 0.0000 1.0000
vn 0.0000 0.0000 -1.0000
vn 0.0000 0.0000 1.0000
vn 0.0000 0.0000 -1.0000
vn 0.0000 0.0000 1.0000
vn 0.0000 0.0000 -1.0000
vn 0.0000 0.0000 1.0000
vn 0.0000 0.0000 -1.0000
vn 0.0000 0.0000 1.0000
vn 0.0000 0.0000 -1.0000
vn 0.0000 0.0000 1.0000
vn 0.0000 0.0000 -1.0000
vn 0.0000 0.0000 1.0000
vn 0.0000 0.0000 -1.0000
vn 0.0000 0.0000 1.0000
vn 0.0000 0.0000 -1.0000
vn 0.0000 0.0000 1.0000
vn 0.0000 0.0000 -1.0000
vn 0.0000 0.0000 1.0000
vn 0.0000 0.0000 -1.0000
vn 0.0000 0.0000 1.0000
vn 0.0000 0.0000 -1.0000
vn 0.0000 0.0000 1.0000
vn 0.0000 0.0000 -1.0000
vn 0.0000 0.0000 1.0000
vn 0.0000 0.0000 -1.0000
vn 0.0000 0.0000 1.0000
vn 0.0000 0.0000 -1.0000
vn 0.0000 0.0000 1.0000
vn 0.0000 0.0000 -1.0000
vn 0.0000 0.0000 1.0000
vn 0.0000 0.0000 -1.0000
vn 0.0000 0.0000 1.0000
vn 0.0000 0.0000 -1.0000
vn 0.0000 0.0000 1.0000
vn 0.0000 0.0000 -1.0000
vn 0.0000 0.0000 1.0000
vn 0.0000 0.0000 -1.0000
vn 0.0000 0.0000 1.0000
vn 0.0000 0.0000 -1.0000
vn 0.0000 0.0000 1.0000
vn 0.0000 0.0000 -1.0000
vn 0.0000 0.0000 1.0000
vn 0.0000 0.0000 -1.0000
vn 0.0000 0.0000 1.0000
vn 0.0000 0.0000 -1.0000
vn 0.0000 0.0000 1.0000
vn 0.0000 0.0000 -1.0000
vn 0.0000 0.0000 1.0000
vn 0.0000 0.0000 -1.0000
vn 0.0000 0.0000 1.0000
vn 0.0000 0.0000 -1.0000
vn 0.0000 0.0000 1.0000
vn 0.0000 0.0000 -1.0000
vn 0.0000 0.0000 1.0000
vn 0.0000 0.0000 -1.0000
vn 0.0000 0.0000 1.0000
vn 0.0000 0.0000 -1.0000
vn 0.0000 0.0000 1.0000
vn 0.0000 0.0000 -1.0000
vn 0.0000 0.0000 1.0000
vn 0.0000 0.0000 -1.0000
vn 0.0000 0.0000 1.0000
vn 0.0000 0.0000 -1.0000
vn 0.0000 0.0000 1.0000
vn 0.0000 0.0000 -1.0000
vn 0.0000 0.0000 1.0000
vn 0.0000 0.0000 -1.0000
vn 0.0000 0.0000 1.0000
vn 0.0000 0.0000 -1.0000
vn 0.0000 0.0000 1.0000
vn 0.0000 0.0000 -1.0000
vn 0.0000 0.0000 1.0000
vn 0.0000 0.0000 -1.0000
vn 0.0000 0.0000 1.0000
vn 0.0000 0.0000 -1.0000
vn 0.0000 0.0000 1.0000
vn 0.0000 0.0000 -1.0000
vn 0.0000 0.0000 1.0000
vn 0.0000 0.0000 -1.0000
vn 0.0000 0.0000 1.0000
vn 0.0000 0.0000 -1.0000
vn 0.0000 0.0000 1.0000
vn 0.0000 0.0000 -1.0000
vn 0.0000 0.0000 1.0000
vn 0.0000 0.0000 -1.0000
vn 0.0000 0.0000 1.0000
vn 0.0000 0.0000 -1.0000
vn 0.0000 0.0000 1.0000
vn 0.0000 0.0000 -1.0000
vn 0.0000 0.0000 1.0000
vn 0.0000 0.0000 -1.0000
vn 0.0000 0.0000 1.0000
vn 0.0000 0.0000 -1.0000
vn 0.0000 0.0000 1.0000
vn 0.0000 0.0000 -1.0000
vn 0.0000 0.0000 1.0000
vn 0.0000 0.0000 -1.0000
vn 0.0000 0.0000 1.0000
vn 0.0000 0.0000 -1.0000
vn 0.0000 0.0000 1.0000
vn 0.0000 0.0000 -1.0000
vn 0.0000 0.0000 1.0000
vn 0.0000 0.0000 -1.0000
vn 0.0000 0.0000 1.0000
vn 0.0000 0.0000 -1.0000
vn 0.0000 0.0000 1.0000
vn 0.0000 0.0000 -1.0000
vn 0.0000 0.0000 1.0000
vn 0.0000 0.0000 -1.0000
vn 0.0000 0.0000 1.0000
vn 0.0000 0.0000 -1.0000
vn 0.0000 0.0000 1.0000
vn 0.0000 0.0000 -1.0000
vn 0.0000 0.0000 1.0000
vn 0.0000 0.0000 -1.0000
vn 0.0000 0.0000 1.0000
vn 0.0000 0.0000 -1.0000
vn 0.0000 0.0000 1.0000
vn 0.0000 0.0000 -1.0000
vn 0.0000 0.0000 1.0000
vn 0.0000 0.0000 -1.0000
vn 0.0000 0.0000 1.0000
vn 0.0000 0.0000 -1.0000
vn 0.0000 0.0000 1.0000
vn 0.0000 0.0000 -1.0000
vn 0.0000 0.0000 1.0000
vn 0.0000 0.0000 -1.0000
vn 0.0000 0.0000 1.0000
vn 0.0000 0.0000 -1.0000
vn 0.0000 0.0000 1.0000
vn 0.0000 0.0000 -1.0000
vn 0.0000 0.0000 1.0000
vn 0.0000 0.0000 -1.0000
vn 0.0000 0.0000 1.0000
vn 0.0000 0.0000 -1.0000
vn 0.0000 0.0000 1.0000
vn 0.0000 0.0000 -1.0000
vn 0.0000 0.0000 1.0000
vn 0.0000 0.0000 -1.0000
vn 0.0000 0.0000 1.0000
vn 0.0000 0.0000 -1.0000
vn 0.0000 0.0000 1.0000
vn 0.0000 0.0000 -1.0000
vn 0.0000 0.0000 1.0000
vn 0.0000 0.0000 -1.0000
vn 0.0000 0.0000 1.0000
vn 0.0000 0.0000 -1.0000
vn 0.0000 0.0000 1.0000
vn 0.0000 0.0000 -1.0000
vn 0.0000 0.0000 1.0000
vn 0.0000 0.0000 -1.0000
vn 0.0000 0.0000 1.0000
vn 0.0000 0.0000 -1.0000
vn 0.0000 0.0000 1.0000
vn 0.0000 0.0000 -1.0000
vn 0.0000 0.0000 1.0000
vn 0.0000 0.0000 -1.0000
vn 0.0000 0.0000 1.0000
vn 0.0000 0.0000 -1.0000
vn 0.0000 0.0000 1.0000
vn 0.0000 0.0000 -1.0000
vn 0.0000 0.0000 1.0000
vn 0.0000 0.0000 -1.0000
vn 0.0000 0.0000 1.0000
vn 0.0000 0.0000 -1.0000
vn 0.0000 0.0000 1.0000
vn 0.0000 0.0000 -1.0000
vn 0.0000 0.0000 1.0000
vn 0.0000 0.0000 -1.0000
vn 0.0000 0.0000 1.0000
vn 0.0000 0.0000 -1.0000
vn 0.0000 0.0000 1.0000
vn 0.0000 0.0000 -1.0000
vn 0.0000 0.0000 1.0000
vn 0.0000 0.0000 -1.0000
vn 0.0000 0.0000 1.0000
vn 0.0000 0.0000 -1.0000
vn 0.0000 0.0000 1.0000
vn 0.0000 0.0000 -1.0000
vn 0.0000 0.0000 1.0000
vn 0.0000 0.0000 -1.0000
vn 0.0000 0.0000 1.0000
vn 0.0000 0.0000 -1.0000
vn 0.0000 0.0000 1.0000
vn 0.0000 0.0000 -1.0000
vn 0.0000 0.0000 1.0000
vn 0.0000 0.0000 -1.0000
vn 0.0000 0.0000 1.0000
vn 0.0000 0.0000 -1.0000
vn 0.0000 0.0000 1.0000
vn 0.0000 0.0000 -1.0000
vn 0.0000 0.0000 1.0000
vn 0.0000 0.0000 -1.0000
vn 0.0000 0.0000 1.0000
vn 0.0000 0.0000 -1.0000
vn 0.0000 0.0000 1.0000
vn 0.0000 0.0000 -1.0000
vn 0.0000 0.0000 1.0000
vn 0.0000 0.0000 -1.0000
vn 0.0000 0.0000 1.0000
vn 0.0000 0.0000 -1.0000
vn 0.0000 0.0000 1.0000
vn 0.0000 0.0000 -1.0000
vn 0.0000 0.0000 1.0000
vn 0.0000 0.0000 -1.0000
vn 0.0000 0.0000 1.0000
vn 0.0000 0.0000 -1.0000
vn 0.0000 0.0000 1.0000
vn 0.0000 0.0000 -1.0000
vn 0.0000 0.0000 1.0000
vn 0.0000 0.0000 -1.0000
vn 0.0000 0.0000 1.0000
vn 0.0000 0.0000 -1.0000
vn 0.0000 0.0000 1.0000
vn 0.0000 0.0000 -1.0000
vn 0.0000 0.0000 1.0000
vn 0.0000 0.0000 -1.0000
vn 0.0000 0.0000 1.0000
vn 0.0000 0.0000 -1.0000
vn 0.0000 0.0000 1.0000
vn 0.0000 0.0000 -1.0000
vn 0.0000 0.0000 1.0000
vn 0.0000 0.0000 -1.0000
vn 0.0000 0.0000 1.0000
vn 0.0000 0.0000 -1.0000
vn 0.0000 0.0000 1.0000
vn 0.0000 0.0000 -1.0000
vn 0.0000 0.0000 1.0000
vn 0.0000 0.0000 -1.0000
vn 0.0000 0.0000 1.0000
vn 0.0000 0.0000 -1.0000
vn 0.0000 0.0000 1.0000
vn 0.0000 0.0000 -1.0000
vn 0.0000 0.0000 1.0000
vn 0.0000 0.0000 -1.0000
vn 0.0000 0.0000 1.0000
vn 0.0000 0.0000 -1.0000
vn 0.0000 0.0000 1.0000
vn 0.0000 0.0000 -1.0000
vn 0.0000 0.0000 1.0000
vn 0.0000 0.0000 -1.0000
vn 0.0000 0.0000 1.0000
vn 0.0000 0.0000 -1.0000
vn 0.0000 0.0000 1.0000
vn 0.0000 0.0000 -1.0000
vn 0.0000 0.0000 1.0000
vn 0.0000 0.0000 -1.0000
vn 0.0000 0.0000 1.0000
vn 0.0000 0.0000 -1.0000
vn 0.0000 0.0000 1.0000
vn 0.0000 0.0000 -1.0000
vn 0.0000 0.0000 1.0000
vn 0.0000 0.0000 -1.0000
vn 0.0000 0.0000 1.0000
vn 0.0000 0.0000 -1.0000
vn 0.0000 0.0000 1.0000
vn 0.0000 0.0000 -1.0000
vn 0.0000 0.0000 1.0000
vn 0.0000 0.0000 -1.0000
vn 0.0000 0.0000 1.0000
vn 0.0000 0.0000 -1.0000
vn 0.0000 0.0000 1.0000
vn 0.0000 0.0000 -1.0000
vn 0.0000 0.0000 1.0000
vn 0.0000 0.0000 -1.0000
vn 0.0000 0.0000 1.0000
vn 0.0000 0.0000 -1.0000
vn 0.0000 0.0000 1.0000
vn 0.0000 0.0000 -1.0000
vn 0.0000 0.0000 1.0000
vn 0.0000 0.0000 -1.0000
vn 0.0000 0.0000 1.0000
vn 0.0000 0.0000 -1.0000
vn 0.0000 0.0000 1.0000
vn 0.0000 0.0000 -1.0000
vn 0.0000 0.0000 1.0000
vn 0.0000 0.0000 -1.0000
vn 0.0000 0.0000 1.0000
vn 0.0000 0.0000 -1.0000
vn 0.0000 0.0000 1.0000
vn 0.0000 0.0000 -1.0000
vn 0.0000 0.0000 1.0000
vn 0.0000 0.0000 -1.0000
vn 0.0000 0.0000 1.0000
vn 0.0000 0.0000 -1.0000
vn 0.0000 0.0000 1.0000
vn 0.0000 0.0000 -1.0000
vn 0.0000 0.0000 1.0000
vn 0.0000 0.0000 -1.0000
vn 0.0000 0.0000 1.0000
vn 0.0000 0.0000 -1.0000
vn 0.0000 0.0000 1.0000
vn 0.0000 0.0000 -1.0000
vn 0.0000 0.0000 1.0000
vn 0.0000 0.0000 -1.0000
vn 0.0000 0.0000 1.0000
vn 0.0000 0.0000 -1.0000
vn 0.0000 0.0000 1.0000
vn 0.0000 0.0000 -1.0000
vn 0.0000 0.0000 1.0000
vn 0.0000 0.0000 -1.0000
vn 0.0000 0.0000 1.0000
vn 0.0000 0.0000 -1.0000
vn 0.0000 0.0000 1.0000
vn 0.0000 0.0000 -1.0000
vn 0.0000 0.0000 1.0000
vn 0.0000 0.0000 -1.0000
vn 0.0000 0.0000 1.0000
vn 0.0000 0.0000 -1.0000
vn 0.0000 0.0000 1.0000
vn 0.0000 0.0000 -1.0000
vn 0.0000 0.0000 1.0000
vn 0.0000 0.0000 -1.0000
vn 0.0000 0.0000 1.0000
vn 0.0000 0.0000 -1.0000
vn 0.0000 0.0000 1.0000
vn 0.0000 0.0000 -1.0000
vn 0.0000 0.0000 1.0000
vn 0.0000 0.0000 -1.0000
vn 0.0000 0.0000 1.0000
vn 0.0000 0.0000 -1.0000
vn 0.0000 0.0000 1.0000
vn 0.0000 0.0000 -1.0000
vn 0.0000 0.0000 1.0000
vn 0.0000 0.0000 -1.0000
vn 0.0000 0.0000 1.0000
vn 0.0000 0.0000 -1.0000
vn 0.0000 0.0000 1.0000
vn 0.0000 0.0000 -1.0000
vn 0.0000 0.0000 1.0000
vn 0.0000 0.0000 -1.0000
vn 0.0000 0.0000 1.0000
vn 0.0000 0.0000 -1.0000
vn 0.0000 0.0000 1.0000
vn 0.0000 0.0000 -1.0000
vn 0.0000 0.0000 1.0000
vn 0.0000 0.0000 -1.0000
vn 0.0000 0.0000 1.0000
vn 0.0000 0.0000 -1.0000
vn 0.0000 0.0000 1.0000
vn 0.0000 0.0000 -1.0000
vn 0.0000 0.0000 1.0000
vn 0.0000 0.0000 -1.0000
vn 0.0000 0.0000 1.0000
vn 0.0000 0.0000 -1.0000
vn 0.0000 0.0000 1.0000
vn 0.0000 0.0000 -1.0000
vn 0.0000 0.0000 1.0000
vn 0.0000 0.0000 -1.0000
vn 0.0000 0.0000 1.0000
vn 0.0000 0.0000 -1.0000
vn 0.0000 0.0000 1.0000
vn 0.0000 0.0000 -1.0000
vn 0.0000 0.0000 1.0000
vn 0.0000 0.0000 -1.0000
vn 0.0000 0.0000 1.0000
vn 0.0000 0.0000 -1.0000
vn 0.0000 0.0000 1.0000
vn 0.0000 0.0000 -1.0000
vn 0.0000 0.0000 1.0000
vn 0.0000 0.0000 -1.0000
vn 0.0000 0.0000 1.0000
vn 0.0000 0.0000 -1.0000
vn 0.0000 0.0000 1.0000
vn 0.0000 0.0000 -1.0000
vn 0.0000 0.0000 1.0000
vn 0.0000 0.0000 -1.0000
vn 0.0000 0.0000 1.0000
vn 0.0000 0.0000 -1.0000
vn 0.0000 0.0000 1.0000
vn 0.0000 0.0000 -1.0000
vn 0.0000 0.0000 1.0000
vn 0.0000 0.0000 -1.0000
vn 0.0000 0.0000 1.0000
vn 0.0000 0.0000 -1.0000
vn 0.0000 0.0000 1.0000
vn 0.0000 0.0000 -1.0000
vn 0.0000 0.0000 1.0000
vn 0.0000 0.0000 -1.0000
vn 0.0000 0.0000 1.0000
vn 0.0000 0.0000 -1.0000
vn 0.0000 0.0000 1.0000
vn 0.0000 0.0000 -1.0000
vn 0.0000 0.0000 1.0000
vn 0.0000 0.0000 -1.0000
vn 0.0000 0.0000 1.0000
vn 0.0000 0.0000 -1.0000
vn 0.0000 0.0000 1.0000
vn 0.0000 0.0000 -1.0000
vn 0.0000 0.0000 1.0000
vn 0.0000 0.0000 -1.0000
vn 0.0000 0.0000 1.0000
vn 0.0000 0.0000 -1.0000
vn 0.0000 0.0000 1.0000
vn 0.0000 0.0000 -1.0000
vn 0.0000 0.0000 1.0000
vn 0.0000 0.0000 -1.0000
vn 0.0000 0.0000 1.0000
vn 0.0000 0.0000 -1.0000
vn 0.0000 0.0000 1.0000
vn 0.0000 0.0000 -1.0000
vn 0.0000 0.0000 1.0000
vn 0.0000 0.0000 -1.0000
vn 0.0000 0.0000 1.0000
vn 0.0000 0.0000 -1.0000
vn 0.0000 0.0000 1.0000
vn 0.0000 0.0000 -1.0000
vn 0.0000 0.0000 1.0000
vn 0.0000 0.0000 -1.0000
vn 0.0000 0.0000 1.0000
vn 0.0000 0.0000 -1.0000
vn 0.0000 0.0000 1.0000
vn 0.0000 0.0000 -1.0000
vn 0.0000 0.0000 1.0000
vn 0.0000 0.0000 -1.0000
vn 0.0000 0.0000 1.0000
vn 0.0000 0.0000 -1.0000
vn 0.0000 0.0000 1.0000
vn 0.0000 0.0000 -1.0000
vn 0.0000 0.0000 1.0000
vn 0.0000 0.0000 -1.0000
vn 0.0000 0.0000 1.0000
vn 0.0000 0.0000 -1.0000
vn 0.0000 0.0000 1.0000
vn 0.0000 0.0000 -1.0000
vn 0.0000 0.0000 1.0000
vn 0.0000 0.0000 -1.0000
vn 0.0000 0.0000 1.0000
vn 0.0000 0.0000 -1.0000
vn 0.0000 0.0000 1.0000
vn 0.0000 0.0000 -1.0000
vn 0.0000 0.0000 1.0000
vn 0.0000 0.0000 -1.0000
vn 0.0000 0.0000 1.0000
vn 0.0000 0.0000 -1.0000
vn 0.0000 0.0000 1.0000
vn 0.0000 0.0000 -1.0000
vn 0.0000 0.0000 1.0000
vn 0.0000 0.0000 -1.0000
vn 0.0000 0.0000 1.0000
vn 0.0000 0.0000 -1.0000
vn 0.0000 0.0000 1.0000
vn 0.0000 0.0000 -1.0000
vn 0.0000 0.0000 1.0000
vn 0.0000 0.0000 -1.0000
vn 0.0000 0.0000 1.0000
vn 0.0000 0.0000 -1.0000
vn 0.0000 0.0000 1.0000
vn 0.0000 0.0000 -1.0000
vn 0.0000 0.0000 1.0000
vn 0.0000 0.0000 -1.0000
vn 0.0000 0.0000 1.0000
vn 0.0000 0.0000 -1.0000
vn 0.0000 0.0000 1.0000
vn 0.0000 0.0000 -1.0000
vn 0.0000 0.0000 1.0000
vn 0.0000 0.0000 -1.0000
vn 0.0000 0.0000 1.0000
vn 0.0000 0.0000 -1.0000
vn 0.0000 0.0000 1.0000
vn 0.0000 0.0000 -1.0000
vn 0.0000 0.0000 1.0000
vn 0.0000 0.0000 -1.0000
vn 0.0000 0.0000 1.0000
vn 0.0000 0.0000 -1.0000
vn 0.0000 0.0000 1.0000
vn 0.0000 0.0000 -1.0000
vn 0.0000 0.0000 1.0000
vn 0.0000 0.0000 -1.0000
vn 0.0000 0.0000 1.0000
vn 0.0000 0.0000 -1.0000
vn 0.0000 0.0000 1.0000
vn 0.0000 0.0000 -1.0000
vn 0.0000 0.0000 1.0000
vn 0.0000 0.0000 -1.0000
vn 0.0000 0.0000 1.0000
vn 0.0000 0.0000 -1.0000
vn 0.0000 0.0000 1.0000
vn 0.0000 0.0000 -1.0000
vn 0.0000 0.0000 1.0000
vn 0.0000 0.0000 -1.0000
vn 0.0000 0.0000 1.0000
vn 0.0000 0.0000 -1.0000
vn 0.0000 0.0000 1.0000
vn 0.0000 0.0000 -1.0000
vn 0.0000 0.0000 1.0000
vn 0.0000 0.0000 -1.0000
vn 0.0000 0.0000 1.0000
vn 0.0000 0.0000 -1.0000
vn 0.0000 0.0000 1.0000
vn 0.0000 0.0000 -1.0000
vn 0.0000 0.0000 1.0000
vn 0.0000 0.0000 -1.0000
vn 0.0000 0.0000 1.0000
vn 0.0000 0.0000 -1.0000
vn 0.0000 0.0000 1.0000
vn 0.0000 0.0000 -1.0000
vn 0.0000 0.0000 1.0000
vn 0.0000 0.0000 -1.0000
vn 0.0000 0.0000 1.0000
vn 0.0000 0.0000 -1.0000
vn 0.0000 0.0000 1.0000
vn 0.0000 0.0000 -1.0000
vn 0.0000 0.0000 1.0000
vn 0.0000 0.0000 -1.0000
vn 0.0000 0.0000 1.0000
vn 0.0000 0.0000 -1.0000
vn 0.0000 0.0000 1.0000
vn 0.0000 0.0000 -1.0000
vn 0.0000 0.0000 1.0000
vn 0.0000 0.0000 -1.0000
vn 0.0000 0.0000 1.0000
vn 0.0000 0.0000 -1.0000
vn 0.0000 0.0000 1.0000
vn 0.0000 0.0000 -1.0000
vn 0.0000 0.0000 1.0000
vn 0.0000 0.0000 -1.0000
vn 0.0000 0.0000 1.0000
vn 0.0000 0.0000 -1.0000
vn 0.0000 0.0000 1.0000
vn 0.0000 0.0000 -1.0000
vn 0.0000 0.0000 1.0000
vn 0.0000 0.0000 -1.0000
vn 0.0000 0.0000 1.0000
vn 0.0000 0.0000 -1.0000
vn 0.0000 0.0000 1.0000
vn 0.0000 0.0000 -1.0000
vn 0.0000 0.0000 1.0000
vn 0.0000 0.0000 -1.0000
vn 0.0000 0.0000 1.0000
vn 0.0000 0.0000 -1.0000
vn 0.0000 0.0000 1.0000
vn 0.0000 0.0000 -1.0000
vn 0.0000 0.0000 1.0000
vn 0.0000 0.0000 -1.0000
vn 0.0000 0.0000 1.0000
vn 0.0000 0.0000 -1.0000
vn 0.0000 0.0000 1.0000
vn 0.0000 0.0000 -1.0000
vn 0.0000 0.0000 1.0000
vn 0.0000 0.0000 -1.0000
vn 0.0000 0.0000 1.0000
vn 0.0000 0.0000 -1.0000
vn 0.0000 0.0000 1.0000
vn 0.0000 0.0000 -1.0000
vn 0.0000 0.0000 1.0000
vn 0.0000 0.0000 -1.0000
vn 0.0000 0.0000 1.0000
vn 0.0000 0.0000 -1.0000
vn 0.0000 0.0000 1.0000
vn 0.0000 0.0000 -1.0000
vn 0.0000 0.0000 1.0000
vn 0.0000 0.0000 -1.0000
vn 0.0000 0.0000 1.0000
vn 0.0000 0.0000 -1.0000
vn 0.0000 0.0000 1.0000
vn 0.0000 0.0000 -1.0000
vn 0.0000 0.0000 1.0000
vn 0.0000 0.0000 -1.0000
vn 0.0000 0.0000 1.0000
vn 0.0000 0.0000 -1.0000
vn 0.0000 0.0000 1.0000
vn 0.0000 0.0000 -1.0000
vn 0.0000 0.0000 1.0000
vn 0.0000 0.0000 -1.0000
vn 0.0000 0.0000 1.0000
vn 0.0000 0.0000 -1.0000
vn 0.0000 0.0000 1.0000
vn 0.0000 0.0000 -1.0000
vn 0.0000 0.0000 1.0000
vn 0.0000 0.0000 -1.0000
vn 0.0000 0.0000 1.0000
vn 0.0000 0.0000 -1.0000
vn 0.0000 0.0000 1.0000
vn 0.0000 0.0000 -1.0000
vn 0.0000 0.0000 1.0000
vn 0.0000 0.0000 -1.0000
vn 0.0000 0.0000 1.0000
vn 0.0000 0.0000 -1.0000
vn 0.0000 0.0000 1.0000
vn 0.0000 0.0000 -1.0000
vn 0.0000 0.0000 1.0000
vn 0.0000 0.0000 -1.0000
vn 0.0000 0.0000 1.0000
vn 0.0000 0.0000 -1.0000
vn 0.0000 0.0000 1.0000
vn 0.0000 0.0000 -1.0000
vn 0.0000 0.0000 1.0000
vn 0.0000 0.0000 -1.0000
vn 0.0000 0.0000 1.0000
vn 0.0000 0.0000 -1.0000
vn 0.0000 0.0000 1.0000
vn 0.0000 0.0000 -1.0000
vn 0.0000 0.0000 1.0000
vn 0.0000 0.0000 -1.0000
vn 0.0000 0.0000 1.0000
vn 0.0000 0.0000 -1.0000
vn 0.0000 0.0000 1.0000
vn 0.0000 0.0000 -1.0000
vn 0.0000 0.0000 1.0000
vn 0.0000 0.0000 -1.0000
vn 0.0000 0.0000 1.0000
vn 0.0000 0.0000 -1.0000
vn 0.0000 0.0000 1.0000
vn 0.0000 0.0000 -1.0000
vn 0.0000 0.0000 1.0000
vn 0.0000 0.0000 -1.0000
vn 0.0000 0.0000 1.0000
vn 0.0000 0.0000 -1.0000
# 750 normals

vt 0.0000 0.0000
vt 0.0000 0.0000
vt 0.0000 0.0714
vt 0.0000 0.0714
vt 0.0000 0.1429
vt 0.0000 0.1429
vt 0.0000 0.2143
vt 0.0000 0.2143
vt 0.0000 0.2857
vt 0.0000 0.2857
vt 0.0000 0.3571
vt 0.0000 0.3571
vt 0.0000 0.4286
vt 0.0000 0.4286
vt 0.0000 0.5000
vt 0.0000 0.5000
vt 0.0000 0.5714
vt 0.0000 0.5714
vt 0.0000 0.6429
vt 0.0000 0.6429
vt 0.0000 0.7143
vt 0.0000 0.7143
vt 0.0000 0.7857
vt 0.0000 0.7857
vt 0.0000 0.8571
vt 0.0000 0.8571
vt 0.0000 0.9286
vt 0.0000 0.9286
vt 0.0000 1.0000
vt 0.0000 1.0000
vt 0.0417 0.0000
vt 0.0417 0.0000
vt 0.0417 0.0714
vt 0.0417 0.0714
vt 0.0417 0.1429
vt 0.0417 0.1429
vt 0.0417 0.2143
vt 0.0417 0.2143
vt 0.0417 0.2857
vt 0.0417 0.2857
vt 0.0417 0.3571
vt 0.0417 0.3571
vt 0.0417 0.4286
vt 0.0417 0.4286
vt 0.0417 0.5000
vt 0.0417 0.5000
vt 0.0417 0.5714
vt 0.0417 0.5714
vt 0.0417 0.6429
vt 0.0417 0.6429
vt 0.0417 0.7143
vt 0.0417 0.7143
vt 0.0417 0.7857
vt 0.0417 0.7857
vt 0.0417 0.8571
vt 0.0417 0.8571
vt 0.0417 0.9286
vt 0.0417 0.9286
vt 0.0417 1.0000
vt 0.0417 1.0000
vt 0.0833 0.0000
vt 0.0833 0.0000
vt 0.0833 0.0714
vt 0.0833 0.0714
vt 0.0833 0.1429
vt 0.0833 0.1429
vt 0.0833 0.2143
vt 0.0833 0.2143
vt 0.0833 0.2857
vt 0.0833 0.2857
vt 0.0833 0.3571
vt 0.0833 0.3571
vt 0.0833 0.4286
vt 0.0833 0.4286
vt 0.0833 0.5000
vt 0.0833 0.5000
vt 0.0833 0.5714
vt 0.0833 0.5714
vt 0.0833 0.6429
vt 0.0833 0.6429
vt 0.0833 0.7143
vt 0.0833 0.7143
vt 0.0833 0.7857
vt 0.0833 0.7857
vt 0.0833 0.8571
vt 0.0833 0.8571
vt 0.0833 0.9286
vt 0.0833 0.9286
vt 0.0833 1.0000
vt 0.0833 1.0000
vt 0.1250 0.0000
vt 0.1250 0.0000
vt 0.1250 0.0714
vt 0.1250 0.0714
vt 0.1250 0.1429
vt 0.1250 0.1429
vt 0.1250 0.2143
vt 0.1250 0.2143
vt 0.1250 0.2857
vt 0.1250 0.2857
vt 0.1250 0.3571
vt 0.1250 0.3571
vt 0.1250 0.4286
vt 0.1250 0.4286
vt 0.1250 0.5000
vt 0.1250 0.5000
vt 0.1250 0.5714
vt 0.1250 0.5714
vt 0.1250 0.6429
vt 0.1250 0.6429
vt 0.1250 0.7143
vt 0.1250 0.7143
vt 0.1250 0.7857
vt 0.1250 0.7857
vt 0.1250 0.8571
vt 0.1250 0.8571
vt 0.1250 0.9286
vt 0.1250 0.9286
vt 0.1250 1.0000
vt 0.1250 1.0000
vt 0.1667 0.0000
vt 0.1667 0.0000
vt 0.1667 0.0714
vt 0.1667 0.0714
vt 0.1667 0.1429
vt 0.1667 0.1429
vt 0.1667 0.2143
vt 0.1667 0.2143
vt 0.1667 0.2857
vt 0.1667 0.2857
vt 0.1667 0.3571
vt 0.1667 0.3571
vt 0.1667 0.4286
vt 0.1667 0.4286
vt 0.1667 0.5000
vt 0.1667 0.5000
vt 0.1667 0.5714
vt 0.1667 0.5714
vt 0.1667 0.6429
vt 0.1667 0.6429
vt 0.1667 0.7143
vt 0.1667 0.7143
vt 0.1667 0.7857
vt 0.1667 0.7857
vt 0.1667 0.8571
vt 0.1667 0.8571
vt 0.1667 0.9286
vt 0.1667 0.9286
vt 0.1667 1.0000
vt 0.1667 1.0000
vt 0.2083 0.0000
vt 0.2083 0.0000
vt 0.2083 0.0714
vt 0.2083 0.0714
vt 0.2083 0.1429
vt 0.2083 0.1429
vt 0.2083 0.2143
vt 0.2083 0.2143
vt 0.2083 0.2857
vt 0.2083 0.2857
vt 0.2083 0.3571
vt 0.2083 0.3571
vt 0.2083 0.4286
vt 0.2083 0.4286
vt 0.2083 0.5000
vt 0.2083 0.5000
vt 0.2083 0.5714
vt 0.2083 0.5714
vt 0.2083 0.6429
vt 0.2083 0.6429
vt 0.2083 0.7143
vt 0.2083 0.7143
vt 0.2083 0.7857
vt 0.2083 0.7857
vt 0.2083 0.8571
vt 0.2083 0.8571
vt 0.2083 0.9286
vt 0.2083 0.9286
vt 0.2083 1.0000
vt 0.2083 1.0000
vt 0.2500 0.0000
vt 0.2500 0.0000
vt 0.2500 0.0714
vt 0.2500 0.0714
vt 0.2500 0.1429
vt 0.2500 0.1429
vt 0.2500 0.2143
vt 0.2500 0.2143
vt 0.2500 0.2857
vt 0.2500 0.2857
vt 0.2500 0.3571
vt 0.2500 0.3571
vt 0.2500 0.4286
vt 0.2500 0.4286
vt 0.2500 0.5000
vt 0.2500 0.5000
vt 0.2500 0.5714
vt 0.2500 0.5714
vt 0.2500 0.6429
vt 0.2500 0.6429
vt 0.2500 0.7143
vt 0.2500 0.7143
vt 0.2500 0.7857
vt 0.2500 0.7857
vt 0.2500 0.8571
vt 0.2500 0.8571
vt 0.2500 0.9286
vt 0.2500 0.9286
vt 0.2500 1.0000
vt 0.2500 1.0000
vt 0.2917 0.0000
vt 0.2917 0.0000
vt 0.2917 0.0714
vt 0.2917 0.0714
vt 0.2917 0.1429
vt 0.2917 0.1429
vt 0.2917 0.2143
vt 0.2917 0.2143
vt 0.2917 0.2857
vt 0.2917 0.2857
vt 0.2917 0.3571
vt 0.2917 0.3571
vt 0.2917 0.4286
vt 0.2917 0.4286
vt 0.2917 0.5000
vt 0.2917 0.5000
vt 0.2917 0.5714
vt 0.2917 0.5714
vt 0.2917 0.6429
vt 0.2917 0.6429
vt 0.2917 0.7143
vt 0.2917 0.7143
vt 0.2917 0.7857
vt 0.2917 0.7857
vt 0.2917 0.8571
vt 0.2917 0.8571
vt 0.2917 0.9286
vt 0.2917 0.9286
vt 0.2917 1.0000
vt 0.2917 1.0000
vt 0.3333 0.0000
vt 0.3333 0.0000
vt 0.3333 0.0714
vt 0.3333 0.0714
vt 0.3333 0.1429
vt 0.3333 0.1429
vt 0.3333 0.2143
vt 0.3333 0.2143
vt 0.3333 0.2857
vt 0.3333 0.2857
vt 0.3333 0.3571
vt 0.3333 0.3571
vt 0.3333 0.4286
vt 0.3333 0.4286
vt 0.3333 0.5000
vt 0.3333 0.5000
vt 0.3333 0.5714
vt 0.3333 0.5714
vt 0.3333 0.6429
vt 0.3333 0.6429
vt 0.3333 0.7143
vt 0.3333 0.7143
vt 0.3333 0.7857
vt 0.3333 0.7857
vt 0.3333 0.8571
vt 0.3333 0.8571
vt 0.3333 0.9286
vt 0.3333 0.9286
vt 0.3333 1.0000
vt 0.3333 1.0000
vt 0.3750 0.0000
vt 0.3750 0.0000
vt 0.3750 0.0714
vt 0.3750 0.0714
vt 0.3750 0.1429
vt 0.3750 0.1429
vt 0.3750 0.2143
vt 0.3750 0.2143
vt 0.3750 0.2857
vt 0.3750 0.2857
vt 0.3750 0.3571
vt 0.3750 0.3571
vt 0.3750 0.4286
vt 0.3750 0.4286
vt 0.3750 0.5000
vt 0.3750 0.5000
vt 0.3750 0.5714
vt 0.3750 0.5714
vt 0.3750 0.6429
vt 0.3750 0.6429
vt 0.3750 0.7143
vt 0.3750 0.7143
vt 0.3750 0.7857
vt 0.3750 0.7857
vt 0.3750 0.8571
vt 0.3750 0.8571
vt 0.3750 0.9286
vt 0.3750 0.9286
vt 0.3750 1.0000
vt 0.3750 1.0000
vt 0.4167 0.0000
vt 0.4167 0.0000
vt 0.4167 0.0714
vt 0.4167 0.0714
vt 0.4167 0.1429
vt 0.4167 0.1429
vt 0.4167 0.2143
vt 0.4167 0.2143
vt 0.4167 0.2857
vt 0.4167 0.2857
vt 0.4167 0.3571
vt 0.4167 0.3571
vt 0.4167 0.4286
vt 0.4167 0.4286
vt 0.4167 0.5000
vt 0.4167 0.5000
vt 0.4167 0.5714
vt 0.4167 0.5714
vt 0.4167 0.6429
vt 0.4167 0.6429
vt 0.4167 0.7143
vt 0.4167 0.7143
vt 0.4167 0.7857
vt 0.4167 0.7857
vt 0.4167 0.8571
vt 0.4167 0.8571
vt 0.4167 0.9286
vt 0.4167 0.9286
vt 0.4167 1.0000
vt 0.4167 1.0000
vt 0.4583 0.0000
vt 0.4583 0.0000
vt 0.4583 0.0714
vt 0.4583 0.0714
vt 0.4583 0.1429
vt 0.4583 0.1429
vt 0.4583 0.2143
vt 0.4583 0.2143
vt 0.4583 0.2857
vt 0.4583 0.2857
vt 0.4583 0.3571
vt 0.4583 0.3571
vt 0.4583 0.4286
vt 0.4583 0.4286
vt 0.4583 0.5000
vt 0.4583 0.5000
vt 0.4583 0.5714
vt 0.4583 0.5714
vt 0.4583 0.6429
vt 0.4583 0.6429
vt 0.4583 0.7143
vt 0.4583 0.7143
vt 0.4583 0.7857
vt 0.4583 0.7857
vt 0.4583 0.8571
vt 0.4583 0.8571
vt 0.4583 0.9286
vt 0.4583 0.9286
vt 0.4583 1.0000
vt 0.4583 1.0000
vt 0.5000 0.0000
vt 0.5000 0.0000
vt 0.5000 0.0714
vt 0.5000 0.0714
vt 0.5000 0.1429
vt 0.5000 0.1429
vt 0.5000 0.2143
vt 0.5000 0.2143
vt 0.5000 0.2857
vt 0.5000 0.2857
vt 0.5000 0.3571
vt 0.5000 0.3571
vt 0.5000 0.4286
vt 0.5000 0.4286
vt 0.5000 0.5000
vt 0.5000 0.5000
vt 0.5000 0.5714
vt 0.5000 0.5714
vt 0.5000 0.6429
vt 0.5000 0.6429
vt 0.5000 0.7143
vt 0.5000 0.7143
vt 0.5000 0.7857
vt 0.5000 0.7857
vt 0.5000 0.8571
vt 0.5000 0.8571
vt 0.5000 0.9286
vt 0.5000 0.9286
vt 0.5000 1.0000
vt 0.5000 1.0000
vt 0.5417 0.0000
vt 0.5417 0.0000
vt 0.5417 0.0714
vt 0.5417 0.0714
vt 0.5417 0.1429
vt 0.5417 0.1429
vt 0.5417 0.2143
vt 0.5417 0.2143
vt 0.5417 0.2857
vt 0.5417 0.2857
vt 0.5417 0.3571
vt 0.5417 0.3571
vt 0.5417 0.4286
vt 0.5417 0.4286
vt 0.5417 0.5000
vt 0.5417 0.5000
vt 0.5417 0.5714
vt 0.5417 0.5714
vt 0.5417 0.6429
vt 0.5417 0.6429
vt 0.5417 0.7143
vt 0.5417 0.7143
vt 0.5417 0.7857
vt 0.5417 0.7857
vt 0.5417 0.8571
vt 0.5417 0.8571
vt 0.5417 0.9286
vt 0.5417 0.9286
vt 0.5417 1.0000
vt 0.5417 1.0000
vt 0.5833 0.0000
vt 0.5833 0.0000
vt 0.5833 0.0714
vt 0.5833 0.0714
vt 0.5833 0.1429
vt 0.5833 0.1429
vt 0.5833 0.2143
vt 0.5833 0.2143
vt 0.5833 0.2857
vt 0.5833 0.2857
vt 0.5833 0.3571
vt 0.5833 0.3571
vt 0.5833 0.4286
vt 0.5833 0.4286
vt 0.5833 0.5000
vt 0.5833 0.5000
vt 0.5833 0.5714
vt 0.5833 0.5714
vt 0.5833 0.6429
vt 0.5833 0.6429
vt 0.5833 0.7143
vt 0.5833 0.7143
vt 0.5833 0.7857
vt 0.5833 0.7857
vt 0.5833 0.8571
vt 0.5833 0.8571
vt 0.5833 0.9286
vt 0.5833 0.9286
vt 0.5833 1.0000
vt 0.5833 1.0000
vt 0.6250 0.0000
vt 0.6250 0.0000
vt 0.6250 0.0714
vt 0.6250 0.0714
vt 0.6250 0.1429
vt 0.6250 0.1429
vt 0.6250 0.2143
vt 0.6250 0.2143
vt 0.6250 0.2857
vt 0.6250 0.2857
vt 0.6250 0.3571
vt 0.6250 0.3571
vt 0.6250 0.4286
vt 0.6250 0.4286
vt 0.6250 0.5000
vt 0.6250 0.5000
vt 0.6250 0.5714
vt 0.6250 0.5714
vt 0.6250 0.6429
vt 0.6250 0.6429
vt 0.6250 0.7143
vt 0.6250 0.7143
vt 0.6250 0.7857
vt 0.6250 0.7857
vt 0.6250 0.8571
vt 0.6250 0.8571
vt 0.6250 0.9286
vt 0.6250 0.9286
vt 0.6250 1.0000
vt 0.6250 1.0000
vt 0.6667 0.0000
vt 0.6667 0.0000
vt 0.6667 0.0714
vt 0.6667 0.0714
vt 0.6667 0.1429
vt 0.6667 0.1429
vt 0.6667 0.2143
vt 0.6667 0.2143
vt 0.6667 0.2857
vt 0.6667 0.2857
vt 0.6667 0.3571
vt 0.6667 0.3571
vt 0.6667 0.4286
vt 0.6667 0.4286
vt 0.6667 0.5000
vt 0.6667 0.5000
vt 0.6667 0.5714
vt 0.6667 0.5714
vt 0.6667 0.6429
vt 0.6667 0.6429
vt 0.6667 0.7143
vt 0.6667 0.7143
vt 0.6667 0.7857
vt 0.6667 0.7857
vt 0.6667 0.8571
vt 0.6667 0.8571
vt 0.6667 0.9286
vt 0.6667 0.9286
vt 0.6667 1.0000
vt 0.6667 1.0000
vt 0.7083 0.0000
vt 0.7083 0.0000
vt 0.7083 0.0714
vt 0.7083 0.0714
vt 0.7083 0.1429
vt 0.7083 0.1429
vt 0.7083 0.2143
vt 0.7083 0.2143
vt 0.7083 0.2857
vt 0.7083 0.2857
vt 0.7083 0.3571
vt 0.7083 0.3571
vt 0.7083 0.4286
vt 0.7083 0.4286
vt 0.7083 0.5000
vt 0.7083 0.5000
vt 0.7083 0.5714
vt 0.7083 0.5714
vt 0.7083 0.6429
vt 0.7083 0.6429
vt 0.7083 0.7143
vt 0.7083 0.7143
vt 0.7083 0.7857
vt 0.7083 0.7857
vt 0.7083 0.8571
vt 0.7083 0.8571
vt 0.7083 0.9286
vt 0.7083 0.9286
vt 0.7083 1.0000
vt 0.7083 1.0000
vt 0.7500 0.0000
vt 0.7500 0.0000
vt 0.7500 0.0714
vt 0.7500 0.0714
vt 0.7500 0.1429
vt 0.7500 0.1429
vt 0.7500 0.2143
vt 0.7500 0.2143
vt 0.7500 0.2857
vt 0.7500 0.2857
vt 0.7500 0.3571
vt 0.7500 0.3571
vt 0.7500 0.4286
vt 0.7500 0.4286
vt 0.7500 0.5000
vt 0.7500 0.5000
vt 0.7500 0.5714
vt 0.7500 0.5714
vt 0.7500 0.6429
vt 0.7500 0.6429
vt 0.7500 0.7143
vt 0.7500 0.7143
vt 0.7500 0.7857
vt 0.7500 0.7857
vt 0.7500 0.8571
vt 0.7500 0.8571
vt 0.7500 0.9286
vt 0.7500 0.9286
vt 0.7500 1.0000
vt 0.7500 1.0000
vt 0.7917 0.0000
vt 0.7917 0.0000
vt 0.7917 0.0714
vt 0.7917 0.0714
vt 0.7917 0.1429
vt 0.7917 0.1429
vt 0.7917 0.2143
vt 0.7917 0.2143
vt 0.7917 0.2857
vt 0.7917 0.2857
vt 0.7917 0.3571
vt 0.7917 0.3571
vt 0.7917 0.4286
vt 0.7917 0.4286
vt 0.7917 0.5000
vt 0.7917 0.5000
vt 0.7917 0.5714
vt 0.7917 0.5714
vt 0.7917 0.6429
vt 0.7917 0.6429
vt 0.7917 0.7143
vt 0.7917 0.7143
vt 0.7917 0.7857
vt 0.7917 0.7857
vt 0.7917 0.8571
vt 0.7917 0.8571
vt 0.7917 0.9286
vt 0.7917 0.9286
vt 0.7917 1.0000
vt 0.7917 1.0000
vt 0.8333 0.0000
vt 0.8333 0.0000
vt 0.8333 0.0714
vt 0.8333 0.0714
vt 0.8333 0.1429
vt 0.8333 0.1429
vt 0.8333 0.2143
vt 0.8333 0.2143
vt 0.8333 0.2857
vt 0.8333 0.2857
vt 0.8333 0.3571
vt 0.8333 0.3571
vt 0.8333 0.4286
vt 0.8333 0.4286
vt 0.8333 0.5000
vt 0.8333 0.5000
vt 0.8333 0.5714
vt 0.8333 0.5714
vt 0.8333 0.6429
vt 0.8333 0.6429
vt 0.8333 0.7143
vt 0.8333 0.7143
vt 0.8333 0.7857
vt 0.8333 0.7857
vt 0.8333 0.8571
vt 0.8333 0.8571
vt 0.8333 0.9286
vt 0.8333 0.9286
vt 0.8333 1.0000
vt 0.8333 1.0000
vt 0.8750 0.0000
vt 0.8750 0.0000
vt 0.8750 0.0714
vt 0.8750 0.0714
vt 0.8750 0.1429
vt 0.8750 0.1429
vt 0.8750 0.2143
vt 0.8750 0.2143
vt 0.8750 0.2857
vt 0.8750 0.2857
vt 0.8750 0.3571
vt 0.8750 0.3571
vt 0.8750 0.4286
vt 0.8750 0.4286
vt 0.8750 0.5000
vt 0.8750 0.5000
vt 0.8750 0.5714
vt 0.8750 0.5714
vt 0.8750 0.6429
vt 0.8750 0.6429
vt 0.8750 0.7143
vt 0.8750 0.7143
vt 0.8750 0.7857
vt 0.8750 0.7857
vt 0.8750 0.8571
vt 0.8750 0.8571
vt 0.8750 0.9286
vt 0.8750 0.9286
vt 0.8750 1.0000
vt 0.8750 1.0000
vt 0.9167 0.0000
vt 0.9167 0.0000
vt 0.9167 0.0714
vt 0.9167 0.0714
vt 0.9167 0.1429
vt 0.9167 0.1429
vt 0.9167 0.2143
vt 0.9167 0.2143
vt 0.9167 0.2857
vt 0.9167 0.2857
vt 0.9167 0.3571
vt 0.9167 0.3571
vt 0.9167 0.4286
vt 0.9167 0.4286
vt 0.9167 0.5000
vt 0.9167 0.5000
vt 0.9167 0.5714
vt 0.9167 0.5714
vt 0.9167 0.6429
vt 0.9167 0.6429
vt 0.9167 0.7143
vt 0.9167 0.7143
vt 0.9167 0.7857
vt 0.9167 0.7857
vt 0.9167 0.8571
vt 0.9167 0.8571
vt 0.9167 0.9286
vt 0.9167 0.9286
vt 0.9167 1.0000
vt 0.9167 1.0000
vt 0.9583 0.0000
vt 0.9583 0.0000
vt 0.9583 0.0714
vt 0.9583 0.0714
vt 0.9583 0.1429
vt 0.9583 0.1429
vt 0.9583 0.2143
vt 0.9583 0.2143
vt 0.9583 0.2857
vt 0.9583 0.2857
vt 0.9583 0.3571
vt 0.9583 0.3571
vt 0.9583 0.4286
vt 0.9583 0.4286
vt 0.9583 0.5000
vt 0.9583 0.5000
vt 0.9583 0.5714
vt 0.9583 0.5714
vt 0.9583 0.6429
vt 0.9583 0.6429
vt 0.9583 0.7143
vt 0.9583 0.7143
vt 0.9583 0.7857
vt 0.9583 0.7857
vt 0.9583 0.8571
vt 0.9583 0.8571
vt 0.9583 0.9286
vt 0.9583 0.9286
vt 0.9583 1.0000
vt 0.9583 1.0000
vt 1.0000 0.0000
vt 1.0000 0.0000
vt 1.0000 0.0714
vt 1.0000 0.0714
vt 1.0000 0.1429
vt 1.0000 0.1429
vt 1.0000 0.2143
vt 1.0000 0.2143
vt 1.0000 0.2857
vt 1.0000 0.2857
vt 1.0000 0.3571
vt 1.0000 0.3571
vt 1.0000 0.4286
vt 1.0000 0.4286
vt 1.0000 0.5000
vt 1.0000 0.5000
vt 1.0000 0.5714
vt 1.0000 0.5714
vt 1.0000 0.6429
vt 1.0000 0.6429
vt 1.0000 0.7143
vt 1.0000 0.7143
vt 1.0000 0.7857
vt 1.0000 0.7857
vt 1.0000 0.8571
vt 1.0000 0.8571
vt 1.0000 0.9286
vt 1.0000 0.9286
vt 1.0000 1.0000
vt 1.0000 1.0000
# 750 texture coords

s 1
f 1/1/1 31/31/31 33/33/33 3/3/3
f 3/3/3 33/33/33 35/35/35 5/5/5
f 5/5/5 35/35/35 37/37/37 7/7/7
f 7/7/7 37/37/37 39/39/39 9/9/9
f 9/9/9 39/39/39 41/41/41 11/11/11
f 11/11/11 41/41/41 43/43/43 13/13/13
f 13/13/13 43/43/43 45/45/45 15/15/15
f 15/15/15 45/45/45 47/47/47 17/17/17
f 17/17/17 47/47/47 49/49/49 19/19/19
f 19/19/19 49/49/49 51/51/51 21/21/21
f 21/21/21 51/51/51 53/53/53 23/23/23
f 23/23/23 53/53/53 55/55/55 25/25/25
f 25/25/25 55/55/55 57/57/57 27/27/27
f 27/27/27 57/57/57 59/59/59 29/29/29
f 31/31/31 61/61/61 63/63/63 33/33/33
f 33/33/33 63/63/63 65/65/65 35/35/35
f 35/35/35 65/65/65 67/67/67 37/37/37
f 37/37/37 67/67/67 69/69/69 39/39/39
f 39/39/39 69/69/69 71/71/71 41/41/41
f 41/41/41 71/71/71 73/73/73 43/43/43
f 43/43/43 73/73/73 75/75/75 45/45/45
f 45/45/45 75/75/75 77/77/77 47/47/47
f 47/47/47 77/77/77 79/79/79 49/49/49
f 49/49/49 79/79/79 81/81/81 51/51/51
f 51/51/51 81/81/81 83/83/83 53/53/53
f 53/53/53 83/83/83 85/85/85 55/55/55
f 55/55/55 85/85/85 87/87/87 57/57/57
f 57/57/57 87/87/87 89/89/89 59/59/59
f 61/61/61 91/91/91 93/93/93 63/63/63
f 63/63/63 93/93/93 95/95/95 65/65/65
f 65/65/65 95/95/95 97/97/97 67/67/67
f 67/67/67 97/97/97 99/99/99 69/69/69
f 69/69/69 99/99/99 101/101/101 71/71/71
f 71/71/71 101/101/101 103/103/103 73/73/73
f 73/73/73 103/103/103 105/105/105 75/75/75
f 75/75/75 105/105/105 107/107/107 77/77/77
f 77/77/77 107/107/107 109/109/109 79/79/79
f 79/79/79 109/109/109 111/111/111 81/81/81
f 81/81/81 111/111/111 113/113/113 83/83/83
f 83/83/83 113/113/113 115/115/115 85/85/85
f 85/85/85 115/115/115 117/117/117 87/87/87
f 87/87/87 117/117/117 119/119/119 89/89/89
f 91/91/91 121/121/121 123/123/123 93/93/93
f 93/93/93 123/123/123 125/125/125 95/95/95
f 95/95/95 125/125/125 127/127/127 97/97/97
f 97/97/97 127/127/127 129/129/129 99/99/99
f 99/99/99 129/129/129 131/131/131 101/101/101
f 101/101/101 131/131/131 133/133/133 103/103/103
f 103/103/103 133/133/133 135/135/135 105/105/105
f 105/105/105 135/135/135 137/137/137 107/107/107
f 107/107/107 137/137/137 139/139/139 109/109/109
f 109/109/109 139/139/139 141/141/141 111/111/111
f 111/111/111 141/141/141 143/143/143 113/113/113
f 113/113/113 143/143/143 145/145/145 115/115/115
f 115/115/115 145/145/145 147/147/147 117/117/117
f 117/117/117 147/147/147 149/149/149 119/119/119
f 121/121/121 151/151/151 153/153/153 123/123/123
f 123/123/123 153/153/153 155/155/155 125/125/125
f 125/125/125 155/155/155 157/157/157 127/127/127
f 127/127/127 157/157/157 159/159/159 129/129/129
f 129/129/129 159/159/159 161/161/161 131/131/131
f 131/131/131 161/161/161 163/163/163 133/133/133
f 133/133/133 163/163/163 165/165/165 135/135/135
f 135/135/135 165/165/165 167/167/167 137/137/137
f 137/137/137 167/167/167 169/169/169 139/139/139
f 139/139/139 169/169/169 171/171/171 141/141/141
f 141/141/141 171/171/171 173/173/173 143/143/143
f 143/143/143 173/173/173 175/175/175 145/145/145
f 145/145/145 175/175/175 177/177/177 147/147/147
f 147/147/147 177/177/177 179/179/179 149/149/149
f 151/151/151 181/181/181 183/183/183 153/153/153
f 153/153/153 183/183/183 185/185/185 155/155/155
f 155/155/155 185/185/185 187/187/187 157/157/157
f 157/157/157 187/187/187 189/189/189 159/159/159
f 159/159/159 189/189/189 191/191/191 161/161/161
f 161/161/161 191/191/191 193/193/193 163/163/163
f 163/163/163 193/193/193 195/195/195 165/165/165
f 165/165/165 195/195/195 197/197/197 167/167/167
f 167/167/167 197/197/197 199/199/199 169/169/169
f 169/169/169 199/199/199 201/201/201 171/171/171
f 171/171/171 201/201/201 203/203/203 173/173/173
f 173/173/173 203/203/203 205/205/205 175/175/175
f 175/175/175 205/205/205 207/207/207 177/177/177
f 177/177/177 207/207/207 209/209/209 179/179/179
f 181/181/181 211/211/211 213/213/213 183/183/183
f 183/183/183 213/213/213 215/215/215 185/185/185
f 185/185/185 215/215/215 217/217/217 187/187/187
f 187/187/187 217/217/217 219/219/219 189/189/189
f 189/189/189 219/219/219 221/221/221 191/191/191
f 191/191/191 221/221/221 223/223/223 193/193/193
f 193/193/193 223/223/223 225/225/225 195/195/195
f 195/195/195 225/225/225 227/227/227 197/197/197
f 197/197/197 227/227/227 229/229/229 199/199/199
f 199/199/199 229/229/229 231/231/231 201/201/201
f 201/201/201 231/231/231 233/233/233 203/203/203
f 203/203/203 233/233/233 235/235/235 205/205/205
f 205/205/205 235/235/235 237/237/237 207/207/207
f 207/207/207 237/237/237 239/239/239 209/209/209
f 211/211/211 241/241/241 243/243/243 213/213/213
f 213/213/213 243/243/243 245/245/245 215/215/215
f 215/215/215 245/245/245 247/247/247 217/217/217
f 217/217/217 247/247/247 249/249/249 219/219/219
f 219/219/219 249/249/249 251/251/251 221/221/221
f 221/221/221 251/251/251 253/253/253 223/223/223
f 223/223/223 253/253/253 255/255/255 225/225/225
f 225/225/225 255/255/255 257/257/257 227/227/227
f 227/227/227 257/257/257 259/259/259 229/229/229
f 229/229/229 259/259/259 261/261/261 231/231/231
f 231/231/231 261/261/261 263/263/263 233/233/233
f 233/233/233 263/263/263 265/265/265 235/235/235
f 235/235/235 265/265/265 267/267/267 237/237/237
f 237/237/237 267/267/267 269/269/269 239/239/239
f 241/241/241 271/271/271 273/273/273 243/243/243
f 243/243/243 273/273/273 275/275/275 245/245/245
f 245/245/245 275/275/275 277/277/277 247/247/247
f 247/247/247 277/277/277 279/279/279 249/249/249
f 249/249/249 279/279/279 281/281/281 251/251/251
f 251/251/251 281/281/281 283/283/283 253/253/253
f 253/253/253 283/283/283 285/285/285 255/255/255
f 255/255/255 285/285/285 287/287/287 257/257/257
f 257/257/257 287/287/287 289/289/289 259/259/259
f 259/259/259 289/289/289 291/291/291 261/261/261
f 261/261/261 291/291/291 293/293/293 263/263/263
f 263/263/263 293/293/293 295/295/295 265/265/265
f 265/265/265 295/295/295 297/297/297 267/267/267
f 267/267/267 297/297/297 299/299/299 269/269/269
f 271/271/271 301/301/301 303/303/303 273/273/273
f 273/273/273 303/303/303 305/305/305 275/275/275
f 275/275/275 305/305/305 307/307/307 277/277/277
f 277/277/277 307/307/307 309/309/309 279/279/279
f 279/279/279 309/309/309 311/311/311 281/281/281
f 281/281/281 311/311/311 313/313/313 283/283/283
f 283/283/283 313/313/313 315/315/315 285/285/285
f 285/285/285 315/315/315 317/317/317 287/287/287
f 287/287/287 317/317/317 319/319/319 289/289/289
f 289/289/289 319/319/319 321/321/321 291/291/291
f 291/291/291 321/321/321 323/323/323 293/293/293
f 293/293/293 323/323/323 325/325/325 295/295/295
f 295/295/295 325/325/325 327/327/327 297/297/297
f 297/297/297 327/327/327 329/329/329 299/299/299
f 301/301/301 331/331/331 333/333/333 303/303/303
f 303/303/303 333/333/333 335/335/335 305/305/305
f 305/305/305 335/335/335 337/337/337 307/307/307
f 307/307/307 337/337/337 339/339/339 309/309/309
f 309/309/309 339/339/339 341/341/341 311/311/311
f 311/311/311 341/341/341 343/343/343 313/313/313
f 313/313/313 343/343/343 345/345/345 315/315/315
f 315/315/315 345/345/345 347/347/347 317/317/317
f 317/317/317 347/347/347 349/349/349 319/319/319
f 319/319/319 349/349/349 351/351/351 321/321/321
f 321/321/321 351/351/351 353/353/353 323/323/323
f 323/323/323 353/353/353 355/355/355 325/325/325
f 325/325/325 355/355/355 357/357/357 327/327/327
f 327/327/327 357/357/357 359/359/359 329/329/329
f 331/331/331 361/361/361 363/363/363 333/333/333
f 333/333/333 363/363/363 365/365/365 335/335/335
f 335/335/335 365/365/365 367/367/367 337/337/337
f 337/337/337 367/367/367 369/369/369 339/339/339
f 339/339/339 369/369/369 371/371/371 341/341/341
f 341/341/341 371/371/371 373/373/373 343/343/343
f 343/343/343 373/373/373 375/375/375 345/345/345
f 345/345/345 375/375/375 377/377/377 347/347/347
f 347/347/347 377/377/377 379/379/379 349/349/349
f 349/349/349 379/379/379 381/381/381 351/351/351
f 351/351/351 381/381/381 383/383/383 353/353/353
f 353/353/353 383/383/383 385/385/385 355/355/355
f 355/355/355 385/385/385 387/387/387 357/357/357
f 357/357/357 387/387/387 389/389/389 359/359/359
f 361/361/361 391/391/391 393/393/393 363/363/363
f 363/363/363 393/393/393 395/395/395 365/365/365
f 365/365/365 395/395/395 397/397/397 367/367/367
f 367/367/367 397/397/397 399/399/399 369/369/369
f 369/369/369 399/399/399 401/401/401 371/371/371
f 371/371/371 401/401/401 403/403/403 373/373/373
f 373/373/373 403/403/403 405/405/405 375/375/375
f 375/375/375 405/405/405 407/407/407 377/377/377
f 377/377/377 407/407/407 409/409/409 379/379/379
f 379/379/379 409/409/409 411/411/411 381/381/381
f 381/381/381 411/411/411 413/413/413 383/383/383
f 383/383/383 413/413/413 415/415/415 385/385/385
f 385/385/385 415/415/415 417/417/417 387/387/387
f 387/387/387 417/417/417 419/419/419 389/389/389
f 391/391/391 421/421/421 423/423/423 393/393/393
f 393/393/393 423/423/423 425/425/425 395/395/395
f 395/395/395 425/425/425 427/427/427 397/397/397
f 397/397/397 427/427/427 429/429/429 399/399/399
f 399/399/399 429/429/429 431/431/431 401/401/401
f 401/401/401 431/431/431 433/433/433 403/403/403
f 403/403/403 433/433/433 435/435/435 405/405/405
f 405/405/405 435/435/435 437/437/437 407/407/407
f 407/407/407 437/437/437 439/439/439 409/409/409
f 409/409/409 439/439/439 441/441/441 411/411/411
f 411/411/411 441/441/441 443/443/443 413/413/413
f 413/413/413 443/443/443 445/445/445 415/415/415
f 415/415/415 445/445/445 447/447/447 417/417/417
f 417/417/417 447/447/447 449/449/449 419/419/419
f 421/421/421 451/451/451 453/453/453 423/423/423
f 423/423/423 453/453/453 455/455/455 425/425/425
f 425/425/425 455/455/455 457/457/457 427/427/427
f 427/427/427 457/457/457 459/459/459 429/429/429
f 429/429/429 459/459/459 461/461/461 431/431/431
f 431/431/431 461/461/461 463/463/463 433/433/433
f 433/433/433 463/463/463 465/465/465 435/435/435
f 435/435/435 465/465/465 467/467/467 437/437/437
f 437/437/437 467/467/467 469/469/469 439/439/439
f 439/439/439 469/469/469 471/471/471 441/441/441
f 441/441/441 471/471/471 473/473/473 443/443/443
f 443/443/443 473/473/473 475/475/475 445/445/445
f 445/445/445 475/475/475 477/477/477 447/447/447
f 447/447/447 477/477/477 479/479/479 449/449/449
f 451/451/451 481/481/481 483/483/483 453/453/453
f 453/453/453 483/483/483 485/485/485 455/455/455
f 455/455/455 485/485/485 487/487/487 457/457/457
f 457/457/457 487/487/487 489/489/489 459/459/459
f 459/459/459 489/489/489 491/491/491 461/461/461
f 461/461/461 491/491/491 493/493/493 463/463/463
f 463/463/463 493/493/493 495/495/495 465/465/465
f 465/465/465 495/495/495 497/497/497 467/467/467
f 467/467/467 497/497/497 499/499/499 469/469/469
f 469/469/469 499/499/499 501/501/501 471/471/471
f 471/471/471 501/501/501 503/503/503 473/473/473
f 473/473/473 503/503/503 505/505/505 475/475/475
f 475/475/475 505/505/505 507/507/507 477/477/477
f 477/477/477 507/507/507 509/509/509 479/479/479
f 481/481/481 511/511/511 513/513/513 483/483/483
f 483/483/483 513/513/513 515/515/515 485/485/485
f 485/485/485 515/515/515 517/517/517 487/487/487
f 487/487/487 517/517/517 519/519/519 489/489/489
f 489/489/489 519/519/519 521/521/521 491/491/491
f 491/491/491 521/521/521 523/523/523 493/493/493
f 493/493/493 523/523/523 525/525/525 495/495/495
f 495/495/495 525/525/525 527/527/527 497/497/497
f 497/497/497 527/527/527 529/529/529 499/499/499
f 499/499/499 529/529/529 531/531/531 501/501/501
f 501/501/501 531/531/531 533/533/533 503/503/503
f 503/503/503 533/533/533 535/535/535 505/505/505
f 505/505/505 535/535/535 537/537/537 507/507/507
f 507/507/507 537/537/537 539/539/539 509/509/509
f 511/511/511 541/541/541 543/543/543 513/513/513
f 513/513/513 543/543/543 545/545/545 515/515/515
f 515/515/515 545/545/545 547/547/547 517/517/517
f 517/517/517 547/547/547 549/549/549 519/519/519
f 519/519/519 549/549/549 551/551/551 521/521/521
f 521/521/521 551/551/551 553/553/553 523/523/523
f 523/523/523 553/553/553 555/555/555 525/525/525
f 525/525/525 555/555/555 557/557/557 527/527/527
f 527/527/527 557/557/557 559/559/559 529/529/529
f 529/529/529 559/559/559 561/561/561 531/531/531
f 531/531/531 561/561/561 563/563/563 533/533/533
f 533/533/533 563/563/563 565/565/565 535/535/535
f 535/535/535 565/565/565 567/567/567 537/537/537
f 537/537/537 567/567/567 569/569/569 539/539/539
f 541/541/541 571/571/571 573/573/573 543/543/543
f 543/543/543 573/573/573 575/575/575 545/545/545
f 545/545/545 575/575/575 577/577/577 547/547/547
f 547/547/547 577/577/577 579/579/579 549/549/549
f 549/549/549 579/579/579 581/581/581 551/551/551
f 551/551/551 581/581/581 583/583/583 553/553/553
f 553/553/553 583/583/583 585/585/585 555/555/555
f 555/555/555 585/585/585 587/587/587 557/557/557
f 557/557/557 587/587/587 589/589/589 559/559/559
f 559/559/559 589/589/589 591/591/591 561/561/561
f 561/561/561 591/591/591 593/593/593 563/563/563
f 563/563/563 593/593/593 595/595/595 565/565/565
f 565/565/565 595/595/595 597/597/597 567/567/567
f 567/567/567 597/597/597 599/599/599 569/569/569
f 571/571/571 601/601/601 603/603/603 573/573/573
f 573/573/573 603/603/603 605/605/605 575/575/575
f 575/575/575 605/605/605 607/607/607 577/577/577
f 577/577/577 607/607/607 609/609/609 579/579/579
f 579/579/579 609/609/609 611/611/611 581/581/581
f 581/581/581 611/611/611 613/613/613 583/583/583
f 583/583/583 613/613/613 615/615/615 585/585/585
f 585/585/585 615/615/615 617/617/617 587/587/587
f 587/587/587 617/617/617 619/619/619 589/589/589
f 589/589/589 619/619/619 621/621/621 591/591/591
f 591/591/591 621/621/621 623/623/623 593/593/593
f 593/593/593 623/623/623 625/625/625 595/595/595
f 595/595/595 625/625/625 627/627/627 597/597/597
f 597/597/597 627/627/627 629/629/629 599/599/599
f 601/601/601 631/631/631 633/633/633 603/603/603
f 603/603/603 633/633/633 635/635/635 605/605/605
f 605/605/605 635/635/635 637/637/637 607/607/607
f 607/607/607 637/637/637 639/639/639 609/609/609
f 609/609/609 639/639/639 641/641/641 611/611/611
f 611/611/611 641/641/641 643/643/643 613/613/613
f 613/613/613 643/643/643 645/645/645 615/615/615
f 615/615/615 645/645/645 647/647/647 617/617/617
f 617/617/617 647/647/647 649/649/649 619/619/619
f 619/619/619 649/649/649 651/651/651 621/621/621
f 621/621/621 651/651/651 653/653/653 623/623/623
f 623/623/623 653/653/653 655/655/655 625/625/625
f 625/625/625 655/655/655 657/657/657 627/627/627
f 627/627/627 657/657/657 659/659/659 629/629/629
f 631/631/631 661/661/661 663/663/663 633/633/633
f 633/633/633 663/663/663 665/665/665 635/635/635
f 635/635/635 665/665/665 667/667/667 637/637/637
f 637/637/637 667/667/667 669/669/669 639/639/639
f 639/639/639 669/669/669 671/671/671 641/641/641
f 641/641/641 671/671/671 673/673/673 643/643/643
f 643/643/643 673/673/673 675/675/675 645/645/645
f 645/645/645 675/675/675 677/677/677 647/647/647
f 647/647/647 677/677/677 679/679/679 649/649/649
f 649/649/649 679/679/679 681/681/681 651/651/651
f 651/651/651 681/681/681 683/683/683 653/653/653
f 653/653/653 683/683/683 685/685/685 655/655/655
f 655/655/655 685/685/685 687/687/687 657/657/657
f 657/657/657 687/687/687 689/689/689 659/659/659
f 661/661/661 691/691/691 693/693/693 663/663/663
f 663/663/663 693/693/693 695/695/695 665/665/665
f 665/665/665 695/695/695 697/697/697 667/667/667
f 667/667/667 697/697/697 699/699/699 669/669/669
f 669/669/669 699/699/699 701/701/701 671/671/671
f 671/671/671 701/701/701 703/703/703 673/673/673
f 673/673/673 703/703/703 705/705/705 675/675/675
f 675/675/675 705/705/705 707/707/707 677/677/677
f 677/677/677 707/707/707 709/709/709 679/679/679
f 679/679/679 709/709/709 711/711/711 681/681/681
f 681/681/681 711/711/711 713/713/713 683/683/683
f 683/683/683 713/713/713 715/715/715 685/685/685
f 685/685/685 715/715/715 717/717/717 687/687/687
f 687/687/687 717/717/717 719/719/719 689/689/689
f 691/691/691 721/721/721 723/723/723 693/693/693
f 693/693/693 723/723/723 725/725/725 695/695/695
f 695/695/695 725/725/725 727/727/727 697/697/697
f 697/697/697 727/727/727 729/729/729 699/699/699
f 699/699/699 729/729/729 731/731/731 701/701/701
f 701/701/701 731/731/731 733/733/733 703/703/703
f 703/703/703 733/733/733 735/735/735 705/705/705
f 705/705/705 735/735/735 737/737/737 707/707/707
f 707/707/707 737/737/737 739/739/739 709/709/709
f 709/709/709 739/739/739 741/741/741 711/711/711
f 711/711/711 741/741/741 743/743/743 713/713/713
f 713/713/713 743/743/743 745/745/745 715/715/715
f 715/715/715 745/745/745 747/747/747 717/717/717
f 717/717/717 747/747/747 749/749/749 719/719/719
f 2/2/2 4/4/4 34/34/34 32/32/32
f 4/4/4 6/6/6 36/36/36 34/34/34
f 6/6/6 8/8/8 38/38/38 36/36/36
f 8/8/8 10/10/10 40/40/40 38/38/38
f 10/10/10 12/12/12 42/42/42 40/40/40
f 12/12/12 14/14/14 44/44/44 42/42/42
f 14/14/14 16/16/16 46/46/46 44/44/44
f 16/16/16 18/18/18 48/48/48 46/46/46
f 18/18/18 20/20/20 50/50/50 48/48/48
f 20/20/20 22/22/22 52/52/52 50/50/50
f 22/22/22 24/24/24 54/54/54 52/52/52
f 24/24/24 26/26/26 56/56/56 54/54/54
f 26/26/26 28/28/28 58/58/58 56/56/56
f 28/28/28 30/30/30 60/60/60 58/58/58
f 32/32/32 34/34/34 64/64/64 62/62/62
f 34/34/34 36/36/36 66/66/66 64/64/64
f 36/36/36 38/38/38 68/68/68 66/66/66
f 38/38/38 40/40/40 70/70/70 68/68/68
f 40/40/40 42/42/42 72/72/72 70/70/70
f 42/42/42 44/44/44 74/74/74 72/72/72
f 44/44/44 46/46/46 76/76/76 74/74/74
f 46/46/46 48/48/48 78/78/78 76/76/76
f 48/48/48 50/50/50 80/80/80 78/78/78
f 50/50/50 52/52/52 82/82/82 80/80/80
f 52/52/52 54/54/54 84/84/84 82/82/82
f 54/54/54 56/56/56 86/86/86 84/84/84
f 56/56/56 58/58/58 88/88/88 86/86/86
f 58/58/58 60/60/60 90/90/90 88/88/88
f 62/62/62 64/64/64 94/94/94 92/92/92
f 64/64/64 66/66/66 96/96/96 94/94/94
f 66/66/66 68/68/68 98/98/98 96/96/96
f 68/68/68 70/70/70 100/100/100 98/98/98
f 70/70/70 72/72/72 102/102/102 100/100/100
f 72/72/72 74/74/74 104/104/104 102/102/102
f 74/74/74 76/76/76 106/106/106 104/104/104
f 76/76/76 78/78/78 108/108/108 106/106/106
f 78/78/78 80/80/80 110/110/110 108/108/108
f 80/80/80 82/82/82 112/112/112 110/110/110
f 82/82/82 84/84/84 114/114/114 112/112/112
f 84/84/84 86/86/86 116/116/116 114/114/114
f 86/86/86 88/88/88 118/118/118 116/116/116
f 88/88/88 90/90/90 120/120/120 118/118/118
f 92/92/92 94/94/94 124/124/124 122/122/122
f 94/94/94 96/96/96 126/126/126 124/124/124
f 96/96/96 98/98/98 128/128/128 126/126/126
f 98/98/98 100/100/100 130/130/130 128/128/128
f 100/100/100 102/102/102 132/132/132 130/130/130
f 102/102/102 104/104/104 134/134/134 132/132/132
f 104/104/104 106/106/106 136/136/136 134/134/134
f 106/106/106 108/108/108 138/138/138 136/136/136
f 108/108/108 110/110/110 140/140/140 138/138/138
f 110/110/110 112/112/112 142/142/142 140/140/140
f 112/112/112 114/114/114 144/144/144 142/142/142
f 114/114/114 116/116/116 146/146/146 144/144/144
f 116/116/116 118/118/118 148/148/148 146/146/146
f 118/118/118 120/120/120 150/150/150 148/148/148
f 122/122/122 124/124/124 154/154/154 152/152/152
f 124/124/124 126/126/126 156/156/156 154/154/154
f 126/126/126 128/128/128 158/158/158 156/156/156
f 128/128/128 130/130/130 160/160/160 158/158/158
f 130/130/130 132/132/132 162/162/162 160/160/160
f 132/132/132 134/134/134 164/164/164 162/162/162
f 134/134/134 136/136/136 166/166/166 164/164/164
f 136/136/136 138/138/138 168/168/168 166/166/166
f 138/138/138 140/140/140 170/170/170 168/168/168
f 140/140/140 142/142/142 172/172/172 170/170/170
f 142/142/142 144/144/144 174/174/174 172/172/172
f 144/144/144 146/146/146 176/176/176 174/174/174
f 146/146/146 148/148/148 178/178/178 176/176/176
f 148/148/148 150/150/150 180/180/180 178/178/178
f 152/152/152 154/154/154 184/184/184 182/182/182
f 154/154/154 156/156/156 186/186/186 184/184/184
f 156/156/156 158/158/158 188/188/188 186/186/186
f 158/158/158 160/160/160 190/190/190 188/188/188
f 160/160/160 162/162/162 192/192/192 190/190/190
f 162/162/162 164/164/164 194/194/194 192/192/192
f 164/164/164 166/166/166 196/196/196 194/194/194
f 166/166/166 168/168/168 198/198/198 196/196/196
f 168/168/168 170/170/170 200/200/200 198/198/198
f 170/170/170 172/172/172 202/202/202 200/200/200
f 172/172/172 174/174/174 204/204/204 202/202/202
f 174/174/174 176/176/176 206/206/206 204/204/204
f 176/176/176 178/178/178 208/208/208 206/206/206
f 178/178/178 180/180/180 210/210/210 208/208/208
f 182/182/182 184/184/184 214/214/214 212/212/212
f 184/184/184 186/186/186 216/216/216 214/214/214
f 186/186/186 188/188/188 218/218/218 216/216/216
f 188/188/188 190/190/190 220/220/220 218/218/218
f 190/190/190 192/192/192 222/222/222 220/220/220
f 192/192/192 194/194/194 224/224/224 222/222/222
f 194/194/194 196/196/196 226/226/226 224/224/224
f 196/196/196 198/198/198 228/228/228 226/226/226
f 198/198/198 200/200/200 230/230/230 228/228/228
f 200/200/200 202/202/202 232/232/232 230/230/230
f 202/202/202 204/204/204 234/234/234 232/232/232
f 204/204/204 206/206/206 236/236/236 234/234/234
f 206/206/206 208/208/208 238/238/238 236/236/236
f 208/208/208 210/210/210 240/240/240 238/238/238
f 212/212/212 214/214/214 244/244/244 242/242/242
f 214/214/214 216/216/216 246/246/246 244/244/244
f 216/216/216 218/218/218 248/248/248 246/246/246
f 218/218/218 220/220/220 250/250/250 248/248/248
f 220/220/220 222/222/222 252/252/252 250/250/250
f 222/222/222 224/224/224 254/254/254 252/252/252
f 224/224/224 226/226/226 256/256/256 254/254/254
f 226/226/226 228/228/228 258/258/258 256/256/256
f 228/228/228 230/230/230 260/260/260 258/258/258
f 230/230/230 232/232/232 262/262/262 260/260/260
f 232/232/232 234/234/234 264/264/264 262/262/262
f 234/234/234 236/236/236 266/266/266 264/264/264
f 236/236/236 238/238/238 268/268/268 266/266/266
f 238/238/238 240/240/240 270/270/270 268/268/268
f 242/242/242 244/244/244 274/274/274 272/272/272
f 244/244/244 246/246/246 276/276/276 274/274/274
f 246/246/246 248/248/248 278/278/278 276/276/276
f 248/248/248 250/250/250 280/280/280 278/278/278
f 250/250/250 252/252/252 282/282/282 280/280/280
f 252/252/252 254/254/254 284/284/284 282/282/282
f 254/254/254 256/256/256 286/286/286 284/284/284
f 256/256/256 258/258/258 288/288/288 286/286/286
f 258/258/258 260/260/260 290/290/290 288/288/288
f 260/260/260 262/262/262 292/292/292 290/290/290
f 262/262/262 264/264/264 294/294/294 292/292/292
f 264/264/264 266/266/266 296/296/296 294/294/294
f 266/266/266 268/268/268 298/298/298 296/296/296
f 268/268/268 270/270/270 300/300/300 298/298/298
f 272/272/272 274/274/274 304/304/304 302/302/302
f 274/274/274 276/276/276 306/306/306 304/304/304
f 276/276/276 278/278/278 308/308/308 306/306/306
f 278/278/278 280/280/280 310/310/310 308/308/308
f 280/280/280 282/282/282 312/312/312 310/310/310
f 282/282/282 284/284/284 314/314/314 312/312/312
f 284/284/284 286/286/286 316/316/316 314/314/314
f 286/286/286 288/288/288 318/318/318 316/316/316
f 288/288/288 290/290/290 320/320/320 318/318/318
f 290/290/290 292/292/292 322/322/322 320/320/320
f 292/292/292 294/294/294 324/324/324 322/322/322
f 294/294/294 296/296/296 326/326/326 324/324/324
f 296/296/296 298/298/298 328/328/328 326/326/326
f 298/298/298 300/300/300 330/330/330 328/328/328
f 302/302/302 304/304/304 334/334/334 332/332/332
f 304/304/304 306/306/306 336/336/336 334/334/334
f 306/306/306 308/308/308 338/338/338 336/336/336
f 308/308/308 310/310/310 340/340/340 338/338/338
f 310/310/310 312/312/312 342/342/342 340/340/340
f 312/312/312 314/314/314 344/344/344 342/342/342
f 314/314/314 316/316/316 346/346/346 344/344/344
f 316/316/316 318/318/318 348/348/348 346/346/346
f 318/318/318 320/320/320 350/350/350 348/348/348
f 320/320/320 322/322/322 352/352/352 350/350/350
f 322/322/322 324/324/324 354/354/354 352/352/352
f 324/324/324 326/326/326 356/356/356 354/354/354
f 326/326/326 328/328/328 358/358/358 356/356/356
f 328/328/328 330/330/330 360/360/360 358/358/358
f 332/332/332 334/334/334 364/364/364 362/362/362
f 334/334/334 336/336/336 366/366/366 364/364/364
f 336/336/336 338/338/338 368/368/368 366/366/366
f 338/338/338 340/340/340 370/370/370 368/368/368
f 340/340/340 342/342/342 372/372/372 370/370/370
f 342/342/342 344/344/344 374/374/374 372/372/372
f 344/344/344 346/346/346 376/376/376 374/374/374
f 346/346/346 348/348/348 378/378/378 376/376/376
f 348/348/348 350/350/350 380/380/380 378/378/378
f 350/350/350 352/352/352 382/382/382 380/380/380
f 352/352/352 354/354/354 384/384/384 382/382/382
f 354/354/354 356/356/356 386/386/386 384/384/384
f 356/356/356 358/358/358 388/388/388 386/386/386
f 358/358/358 360/360/360 390/390/390 388/388/388
f 362/362/362 364/364/364 394/394/394 392/392/392
f 364/364/364 366/366/366 396/396/396 394/394/394
f 366/366/366 368/368/368 398/398/398 396/396/396
f 368/368/368 370/370/370 400/400/400 398/398/398
f 370/370/370 372/372/372 402/402/402 400/400/400
f 372/372/372 374/374/374 404/404/404 402/402/402
f 374/374/374 376/376/376 406/406/406 404/404/404
f 376/376/376 378/378/378 408/408/408 406/406/406
f 378/378/378 380/380/380 410/410/410 408/408/408
f 380/380/380 382/382/382 412/412/412 410/410/410
f 382/382/382 384/384/384 414/414/414 412/412/412
f 384/384/384 386/386/386 416/416/416 414/414/414
f 386/386/386 388/388/388 418/418/418 416/416/416
f 388/388/388 390/390/390 420/420/420 418/418/418
f 392/392/392 394/394/394 424/424/424 422/422/422
f 394/394/394 396/396/396 426/426/426 424/424/424
f 396/396/396 398/398/398 428/428/428 426/426/426
f 398/398/398 400/400/400 430/430/430 428/428/428
f 400/400/400 402/402/402 432/432/432 430/430/430
f 402/402/402 404/404/404 434/434/434 432/432/432
f 404/404/404 406/406/406 436/436/436 434/434/434
f 406/406/406 408/408/408 438/438/438 436/436/436
f 408/408/408 410/410/410 440/440/440 438/438/438
f 410/410/410 412/412/412 442/442/442 440/440/440
f 412/412/412 414/414/414 444/444/444 442/442/442
f 414/414/414 416/416/416 446/446/446 444/444/444
f 416/416/416 418/418/418 448/448/448 446/446/446
f 418/418/418 420/420/420 450/450/450 448/448/448
f 422/422/422 424/424/424 454/454/454 452/452/452
f 424/424/424 426/426/426 456/456/456 454/454/454
f 426/426/426 428/428/428 458/458/458 456/456/456
f 428/428/428 430/430/430 460/460/460 458/458/458
f 430/430/430 432/432/432 462/462/462 460/460/460
f 432/432/432 434/434/434 464/464/464 462/462/462
f 434/434/434 436/436/436 466/466/466 464/464/464
f 436/436/436 438/438/438 468/468/468 466/466/466
f 438/438/438 440/440/440 470/470/470 468/468/468
f 440/440/440 442/442/442 472/472/472 470/470/470
f 442/442/442 444/444/444 474/474/474 472/472/472
f 444/444/444 446/446/446 476/476/476 474/474/474
f 446/446/446 448/448/448 478/478/478 476/476/476
f 448/448/448 450/450/450 480/480/480 478/478/478
f 452/452/452 454/454/454 484/484/484 482/482/482
f 454/454/454 456/456/456 486/486/486 484/484/484
f 456/456/456 458/458/458 488/488/488 486/486/486
f 458/458/458 460/460/460 490/490/490 488/488/488
f 460/460/460 462/462/462 492/492/492 490/490/490
f 462/462/462 464/464/464 494/494/494 492/492/492
f 464/464/464 466/466/466 496/496/496 494/494/494
f 466/466/466 468/468/468 498/498/498 496/496/496
f 468/468/468 470/470/470 500/500/500 498/498/498
f 470/470/470 472/472/472 502/502/502 500/500/500
f 472/472/472 474/474/474 504/504/504 502/502/502
f 474/474/474 476/476/476 506/506/506 504/504/504
f 476/476/476 478/478/478 508/508/508 506/506/506
f 478/478/478 480/480/480 510/510/510 508/508/508
f 482/482/482 484/484/484 514/514/514 512/512/512
f 484/484/484 486/486/486 516/516/516 514/514/514
f 486/486/486 488/488/488 518/518/518 516/516/516
f 488/488/488 490/490/490 520/520/520 518/518/518
f 490/490/490 492/492/492 522/522/522 520/520/520
f 492/492/492 494/494/494 524/524/524 522/522/522
f 494/494/494 496/496/496 526/526/526 524/524/524
f 496/496/496 498/498/498 528/528/528 526/526/526
f 498/498/498 500/500/500 530/530/530 528/528/528
f 500/500/500 502/502/502 532/532/532 530/530/530
f 502/502/502 504/504/504 534/534/534 532/532/532
f 504/504/504 506/506/506 536/536/536 534/534/534
f 506/506/506 508/508/508 538/538/538 536/536/536
f 508/508/508 510/510/510 540/540/540 538/538/538
f 512/512/512 514/514/514 544/544/544 542/542/542
f 514/514/514 516/516/516 546/546/546 544/544/544
f 516/516/516 518/518/518 548/548/548 546/546/546
f 518/518/518 520/520/520 550/550/550 548/548/548
f 520/520/520 522/522/522 552/552/552 550/550/550
f 522/522/522 524/524/524 554/554/554 552/552/552
f 524/524/524 526/526/526 556/556/556 554/554/554
f 526/526/526 528/528/528 558/558/558 556/556/556
f 528/528/528 530/530/530 560/560/560 558/558/558
f 530/530/530 532/532/532 562/562/562 560/560/560
f 532/532/532 534/534/534 564/564/564 562/562/562
f 534/534/534 536/536/536 566/566/566 564/564/564
f 536/536/536 538/538/538 568/568/568 566/566/566
f 538/538/538 540/540/540 570/570/570 568/568/568
f 542/542/542 544/544/544 574/574/574 572/572/572
f 544/544/544 546/546/546 576/576/576 574/574/574
f 546/546/546 548/548/548 578/578/578 576/576/576
f 548/548/548 550/550/550 580/580/580 578/578/578
f 550/550/550 552/552/552 582/582/582 580/580/580
f 552/552/552 554/554/554 584/584/584 582/582/582
f 554/554/554 556/556/556 586/586/586 584/584/584
f 556/556/556 558/558/558 588/588/588 586/586/586
f 558/558/558 560/560/560 590/590/590 588/588/588
f 560/560/560 562/562/562 592/592/592 590/590/590
f 562/562/562 564/564/564 594/594/594 592/592/592
f 564/564/564 566/566/566 596/596/596 594/594/594
f 566/566/566 568/568/568 598/598/598 596/596/596
f 568/568/568 570/570/570 600/600/600 598/598/598
f 572/572/572 574/574/574 604/604/604 602/602/602
f 574/574/574 576/576/576 606/606/606 604/604/604
f 576/576/576 578/578/578 608/608/608 606/606/606
f 578/578/578 580/580/580 610/610/610 608/608/608
f 580/580/580 582/582/582 612/612/612 610/610/610
f 582/582/582 584/584/584 614/614/614 612/612/612
f 584/584/584 586/586/586 616/616/616 614/614/614
f 586/586/586 588/588/588 618/618/618 616/616/616
f 588/588/588 590/590/590 620/620/620 618/618/618
f 590/590/590 592/592/592 622/622/622 620/620/620
f 592/592/592 594/594/594 624/624/624 622/622/622
f 594/594/594 596/596/596 626/626/626 624/624/624
f 596/596/596 598/598/598 628/628/628 626/626/626
f 598/598/598 600/600/600 630/630/630 628/628/628
f 602/602/602 604/604/604 634/634/634 632/632/632
f 604/604/604 606/606/606 636/636/636 634/634/634
f 606/606/606 608/608/608 638/638/638 636/636/636
f 608/608/608 610/610/610 640/640/640 638/638/638
f 610/610/610 612/612/612 642/642/642 640/640/640
f 612/612/612 614/614/614 644/644/644 642/642/642
f 614/614/614 616/616/616 646/646/646 644/644/644
f 616/616/616 618/618/618 648/648/648 646/646/646
f 618/618/618 620/620/620 650/650/650 648/648/648
f 620/620/620 622/622/622 652/652/652 650/650/650
f 622/622/622 624/624/624 654/654/654 652/652/652
f 624/624/624 626/626/626 656/656/656 654/654/654
f 626/626/626 628/628/628 658/658/658 656/656/656
f 628/628/628 630/630/630 660/660/660 658/658/658
f 632/632/632 634/634/634 664/664/664 662/662/662
f 634/634/634 636/636/636 666/666/666 664/664/664
f 636/636/636 638/638/638 668/668/668 666/666/666
f 638/638/638 640/640/640 670/670/670 668/668/668
f 640/640/640 642/642/642 672/672/672 670/670/670
f 642/642/642 644/644/644 674/674/674 672/672/672
f 644/644/644 646/646/646 676/676/676 674/674/674
f 646/646/646 648/648/648 678/678/678 676/676/676
f 648/648/648 650/650/650 680/680/680 678/678/678
f 650/650/650 652/652/652 682/682/682 680/680/680
f 652/652/652 654/654/654 684/684/684 682/682/682
f 654/654/654 656/656/656 686/686/686 684/684/684
f 656/656/656 658/658/658 688/688/688 686/686/686
f 658/658/658 660/660/660 690/690/690 688/688/688
f 662/662/662 664/664/664 694/694/694 692/692/692
f 664/664/664 666/666/666 696/696/696 694/694/694
f 666/666/666 668/668/668 698/698/698 696/696/696
f 668/668/668 670/670/670 700/700/700 698/698/698
f 670/670/670 672/672/672 702/702/702 700/700/700
f 672/672/672 674/674/674 704/704/704 702/702/702
f 674/674/674 676/676/676 706/706/706 704/704/704
f 676/676/676 678/678/678 708/708/708 706/706/706
f 678/678/678 680/680/680 710/710/710 708/708/708
f 680/680/680 682/682/682 712/712/712 710/710/710
f 682/682/682 684/684/684 714/714/714 712/712/712
f 684/684/684 686/686/686 716/716/716 714/714/714
f 686/686/686 688/688/688 718/718/718 716/716/716
f 688/688/688 690/690/690 720/720/720 718/718/718
f 692/692/692 694/694/694 724/724/724 722/722/722
f 694/694/694 696/696/696 726/726/726 724/724/724
f 696/696/696 698/698/698 728/728/728 726/726/726
f 698/698/698 700/700/700 730/730/730 728/728/728
f 700/700/700 702/702/702 732/732/732 730/730/730
f 702/702/702 704/704/704 734/734/734 732/732/732
f 704/704/704 706/706/706 736/736/736 734/734/734
f 706/706/706 708/708/708 738/738/738 736/736/736
f 708/708/708 710/710/710 740/740/740 738/738/738
f 710/710/710 712/712/712 742/742/742 740/740/740
f 712/712/712 714/714/714 744/744/744 742/742/742
f 714/714/714 716/716/716 746/746/746 744/744/744
f 716/716/716 718/718/718 748/748/748 746/746/746
f 718/718/718 720/720/720 750/750/750 748/748/748
f 1/1/1 2/2/2 32/32/32 31/31/31
f 29/29/29 59/59/59 60/60/60 30/30/30
f 31/31/31 32/32/32 62/62/62 61/61/61
f 59/59/59 89/89/89 90/90/90 60/60/60
f 61/61/61 62/62/62 92/92/92 91/91/91
f 89/89/89 119/119/119 120/120/120 90/90/90
f 91/91/91 92/92/92 122/122/122 121/121/121
f 119/119/119 149/149/149 150/150/150 120/120/120
f 121/121/121 122/122/122 152/152/152 151/151/151
f 149/149/149 179/179/179 180/180/180 150/150/150
f 151/151/151 152/152/152 182/182/182 181/181/181
f 179/179/179 209/209/209 210/210/210 180/180/180
f 181/181/181 182/182/182 212/212/212 211/211/211
f 209/209/209 239/239/239 240/240/240 210/210/210
f 211/211/211 212/212/212 242/242/242 241/241/241
f 239/239/239 269/269/269 270/270/270 240/240/240
f 241/241/241 242/242/242 272/272/272 271/271/271
f 269/269/269 299/299/299 300/300/300 270/270/270
f 271/271/271 272/272/272 302/302/302 301/301/301
f 299/299/299 329/329/329 330/330/330 300/300/300
f 301/301/301 302/302/302 332/332/332 331/331/331
f 329/329/329 359/359/359 360/360/360 330/330/330
f 331/331/331 332/332/332 362/362/362 361/361/361
f 359/359/359 389/389/389 390/390/390 360/360/360
f 361/361/361 362/362/362 392/392/392 391/391/391
f 389/389/389 419/419/419 420/420/420 390/390/390
f 391/391/391 392/392/392 422/422/422 421/421/421
f 419/419/419 449/449/449 450/450/450 420/420/420
f 421/421/421 422/422/422 452/452/452 451/451/451
f 449/449/449 479/479/479 480/480/480 450/450/450
f 451/451/451 452/452/452 482/482/482 481/481/481
f 479/479/479 509/509/509 510/510/510 480/480/480
f 481/481/481 482/482/482 512/512/512 511/511/511
f 509/509/509 539/539/539 540/540/540 510/510/510
f 511/511/511 512/512/512 542/542/542 541/541/541
f 539/539/539 569/569/569 570/570/570 540/540/540
f 541/541/541 542/542/542 572/572/572 571/571/571
f 569/569/569 599/599/599 600/600/600 570/570/570
f 571/571/571 572/572/572 602/602/602 601/601/601
f 599/599/599 629/629/629 630/630/630 600/600/600
f 601/601/601 602/602/602 632/632/632 631/631/631
f 629/629/629 659/659/659 660/660/660 630/630/630
f 631/631/631 632/632/632 662/662/662 661/661/661
f 659/659/659 689/689/689 690/690/690 660/660/660
f 661/661/661 662/662/662 692/692/692 691/691/691
f 689/689/689 719/719/719 720/720/720 690/690/690
f 691/691/691 692/692/692 722/722/722 721/721/721
f 719/719/719 749/749/749 750/750/750 720/720/720
# 720 polygons
