# Istrorigan Megastructure Part: SYS_08_STEM_RINGS
# Exported for Houdini & DCC (Units: Meters)
o SYS_08_STEM_RINGS

v 80.0000 0.0000 -50.0000
v 80.0000 0.0000 -85.0000
v 78.4628 15.6072 -50.0000
v 78.4628 15.6072 -85.0000
v 73.9104 30.6147 -50.0000
v 73.9104 30.6147 -85.0000
v 66.5176 44.4456 -50.0000
v 66.5176 44.4456 -85.0000
v 56.5685 56.5685 -50.0000
v 56.5685 56.5685 -85.0000
v 44.4456 66.5176 -50.0000
v 44.4456 66.5176 -85.0000
v 30.6147 73.9104 -50.0000
v 30.6147 73.9104 -85.0000
v 15.6072 78.4628 -50.0000
v 15.6072 78.4628 -85.0000
v 0.0000 80.0000 -50.0000
v 0.0000 80.0000 -85.0000
v -15.6072 78.4628 -50.0000
v -15.6072 78.4628 -85.0000
v -30.6147 73.9104 -50.0000
v -30.6147 73.9104 -85.0000
v -44.4456 66.5176 -50.0000
v -44.4456 66.5176 -85.0000
v -56.5685 56.5685 -50.0000
v -56.5685 56.5685 -85.0000
v -66.5176 44.4456 -50.0000
v -66.5176 44.4456 -85.0000
v -73.9104 30.6147 -50.0000
v -73.9104 30.6147 -85.0000
v -78.4628 15.6072 -50.0000
v -78.4628 15.6072 -85.0000
v -80.0000 0.0000 -50.0000
v -80.0000 0.0000 -85.0000
v -78.4628 -15.6072 -50.0000
v -78.4628 -15.6072 -85.0000
v -73.9104 -30.6147 -50.0000
v -73.9104 -30.6147 -85.0000
v -66.5176 -44.4456 -50.0000
v -66.5176 -44.4456 -85.0000
v -56.5685 -56.5685 -50.0000
v -56.5685 -56.5685 -85.0000
v -44.4456 -66.5176 -50.0000
v -44.4456 -66.5176 -85.0000
v -30.6147 -73.9104 -50.0000
v -30.6147 -73.9104 -85.0000
v -15.6072 -78.4628 -50.0000
v -15.6072 -78.4628 -85.0000
v -0.0000 -80.0000 -50.0000
v -0.0000 -80.0000 -85.0000
v 15.6072 -78.4628 -50.0000
v 15.6072 -78.4628 -85.0000
v 30.6147 -73.9104 -50.0000
v 30.6147 -73.9104 -85.0000
v 44.4456 -66.5176 -50.0000
v 44.4456 -66.5176 -85.0000
v 56.5685 -56.5685 -50.0000
v 56.5685 -56.5685 -85.0000
v 66.5176 -44.4456 -50.0000
v 66.5176 -44.4456 -85.0000
v 73.9104 -30.6147 -50.0000
v 73.9104 -30.6147 -85.0000
v 78.4628 -15.6072 -50.0000
v 78.4628 -15.6072 -85.0000
v 104.5455 0.0000 -127.2727
v 104.5455 0.0000 -162.2727
v 102.5366 20.3958 -127.2727
v 102.5366 20.3958 -162.2727
v 96.5874 40.0078 -127.2727
v 96.5874 40.0078 -162.2727
v 86.9264 58.0823 -127.2727
v 86.9264 58.0823 -162.2727
v 73.9248 73.9248 -127.2727
v 73.9248 73.9248 -162.2727
v 58.0823 86.9264 -127.2727
v 58.0823 86.9264 -162.2727
v 40.0078 96.5874 -127.2727
v 40.0078 96.5874 -162.2727
v 20.3958 102.5366 -127.2727
v 20.3958 102.5366 -162.2727
v 0.0000 104.5455 -127.2727
v 0.0000 104.5455 -162.2727
v -20.3958 102.5366 -127.2727
v -20.3958 102.5366 -162.2727
v -40.0078 96.5874 -127.2727
v -40.0078 96.5874 -162.2727
v -58.0823 86.9264 -127.2727
v -58.0823 86.9264 -162.2727
v -73.9248 73.9248 -127.2727
v -73.9248 73.9248 -162.2727
v -86.9264 58.0823 -127.2727
v -86.9264 58.0823 -162.2727
v -96.5874 40.0078 -127.2727
v -96.5874 40.0078 -162.2727
v -102.5366 20.3958 -127.2727
v -102.5366 20.3958 -162.2727
v -104.5455 0.0000 -127.2727
v -104.5455 0.0000 -162.2727
v -102.5366 -20.3958 -127.2727
v -102.5366 -20.3958 -162.2727
v -96.5874 -40.0078 -127.2727
v -96.5874 -40.0078 -162.2727
v -86.9264 -58.0823 -127.2727
v -86.9264 -58.0823 -162.2727
v -73.9248 -73.9248 -127.2727
v -73.9248 -73.9248 -162.2727
v -58.0823 -86.9264 -127.2727
v -58.0823 -86.9264 -162.2727
v -40.0078 -96.5874 -127.2727
v -40.0078 -96.5874 -162.2727
v -20.3958 -102.5366 -127.2727
v -20.3958 -102.5366 -162.2727
v -0.0000 -104.5455 -127.2727
v -0.0000 -104.5455 -162.2727
v 20.3958 -102.5366 -127.2727
v 20.3958 -102.5366 -162.2727
v 40.0078 -96.5874 -127.2727
v 40.0078 -96.5874 -162.2727
v 58.0823 -86.9264 -127.2727
v 58.0823 -86.9264 -162.2727
v 73.9248 -73.9248 -127.2727
v 73.9248 -73.9248 -162.2727
v 86.9264 -58.0823 -127.2727
v 86.9264 -58.0823 -162.2727
v 96.5874 -40.0078 -127.2727
v 96.5874 -40.0078 -162.2727
v 102.5366 -20.3958 -127.2727
v 102.5366 -20.3958 -162.2727
v 129.0909 0.0000 -204.5455
v 129.0909 0.0000 -239.5455
v 126.6105 25.1844 -204.5455
v 126.6105 25.1844 -239.5455
v 119.2644 49.4010 -204.5455
v 119.2644 49.4010 -239.5455
v 107.3352 71.7191 -204.5455
v 107.3352 71.7191 -239.5455
v 91.2811 91.2811 -204.5455
v 91.2811 91.2811 -239.5455
v 71.7191 107.3352 -204.5455
v 71.7191 107.3352 -239.5455
v 49.4010 119.2644 -204.5455
v 49.4010 119.2644 -239.5455
v 25.1844 126.6105 -204.5455
v 25.1844 126.6105 -239.5455
v 0.0000 129.0909 -204.5455
v 0.0000 129.0909 -239.5455
v -25.1844 126.6105 -204.5455
v -25.1844 126.6105 -239.5455
v -49.4010 119.2644 -204.5455
v -49.4010 119.2644 -239.5455
v -71.7191 107.3352 -204.5455
v -71.7191 107.3352 -239.5455
v -91.2811 91.2811 -204.5455
v -91.2811 91.2811 -239.5455
v -107.3352 71.7191 -204.5455
v -107.3352 71.7191 -239.5455
v -119.2644 49.4010 -204.5455
v -119.2644 49.4010 -239.5455
v -126.6105 25.1844 -204.5455
v -126.6105 25.1844 -239.5455
v -129.0909 0.0000 -204.5455
v -129.0909 0.0000 -239.5455
v -126.6105 -25.1844 -204.5455
v -126.6105 -25.1844 -239.5455
v -119.2644 -49.4010 -204.5455
v -119.2644 -49.4010 -239.5455
v -107.3352 -71.7191 -204.5455
v -107.3352 -71.7191 -239.5455
v -91.2811 -91.2811 -204.5455
v -91.2811 -91.2811 -239.5455
v -71.7191 -107.3352 -204.5455
v -71.7191 -107.3352 -239.5455
v -49.4010 -119.2644 -204.5455
v -49.4010 -119.2644 -239.5455
v -25.1844 -126.6105 -204.5455
v -25.1844 -126.6105 -239.5455
v -0.0000 -129.0909 -204.5455
v -0.0000 -129.0909 -239.5455
v 25.1844 -126.6105 -204.5455
v 25.1844 -126.6105 -239.5455
v 49.4010 -119.2644 -204.5455
v 49.4010 -119.2644 -239.5455
v 71.7191 -107.3352 -204.5455
v 71.7191 -107.3352 -239.5455
v 91.2811 -91.2811 -204.5455
v 91.2811 -91.2811 -239.5455
v 107.3352 -71.7191 -204.5455
v 107.3352 -71.7191 -239.5455
v 119.2644 -49.4010 -204.5455
v 119.2644 -49.4010 -239.5455
v 126.6105 -25.1844 -204.5455
v 126.6105 -25.1844 -239.5455
v 153.6364 0.0000 -281.8182
v 153.6364 0.0000 -316.8182
v 150.6843 29.9730 -281.8182
v 150.6843 29.9730 -316.8182
v 141.9415 58.7941 -281.8182
v 141.9415 58.7941 -316.8182
v 127.7440 85.3558 -281.8182
v 127.7440 85.3558 -316.8182
v 108.6373 108.6373 -281.8182
v 108.6373 108.6373 -316.8182
v 85.3558 127.7440 -281.8182
v 85.3558 127.7440 -316.8182
v 58.7941 141.9415 -281.8182
v 58.7941 141.9415 -316.8182
v 29.9730 150.6843 -281.8182
v 29.9730 150.6843 -316.8182
v 0.0000 153.6364 -281.8182
v 0.0000 153.6364 -316.8182
v -29.9730 150.6843 -281.8182
v -29.9730 150.6843 -316.8182
v -58.7941 141.9415 -281.8182
v -58.7941 141.9415 -316.8182
v -85.3558 127.7440 -281.8182
v -85.3558 127.7440 -316.8182
v -108.6373 108.6373 -281.8182
v -108.6373 108.6373 -316.8182
v -127.7440 85.3558 -281.8182
v -127.7440 85.3558 -316.8182
v -141.9415 58.7941 -281.8182
v -141.9415 58.7941 -316.8182
v -150.6843 29.9730 -281.8182
v -150.6843 29.9730 -316.8182
v -153.6364 0.0000 -281.8182
v -153.6364 0.0000 -316.8182
v -150.6843 -29.9730 -281.8182
v -150.6843 -29.9730 -316.8182
v -141.9415 -58.7941 -281.8182
v -141.9415 -58.7941 -316.8182
v -127.7440 -85.3558 -281.8182
v -127.7440 -85.3558 -316.8182
v -108.6373 -108.6373 -281.8182
v -108.6373 -108.6373 -316.8182
v -85.3558 -127.7440 -281.8182
v -85.3558 -127.7440 -316.8182
v -58.7941 -141.9415 -281.8182
v -58.7941 -141.9415 -316.8182
v -29.9730 -150.6843 -281.8182
v -29.9730 -150.6843 -316.8182
v -0.0000 -153.6364 -281.8182
v -0.0000 -153.6364 -316.8182
v 29.9730 -150.6843 -281.8182
v 29.9730 -150.6843 -316.8182
v 58.7941 -141.9415 -281.8182
v 58.7941 -141.9415 -316.8182
v 85.3558 -127.7440 -281.8182
v 85.3558 -127.7440 -316.8182
v 108.6373 -108.6373 -281.8182
v 108.6373 -108.6373 -316.8182
v 127.7440 -85.3558 -281.8182
v 127.7440 -85.3558 -316.8182
v 141.9415 -58.7941 -281.8182
v 141.9415 -58.7941 -316.8182
v 150.6843 -29.9730 -281.8182
v 150.6843 -29.9730 -316.8182
v 178.1818 0.0000 -359.0909
v 178.1818 0.0000 -394.0909
v 174.7581 34.7615 -359.0909
v 174.7581 34.7615 -394.0909
v 164.6185 68.1872 -359.0909
v 164.6185 68.1872 -394.0909
v 148.1528 98.9925 -359.0909
v 148.1528 98.9925 -394.0909
v 125.9936 125.9936 -359.0909
v 125.9936 125.9936 -394.0909
v 98.9925 148.1528 -359.0909
v 98.9925 148.1528 -394.0909
v 68.1872 164.6185 -359.0909
v 68.1872 164.6185 -394.0909
v 34.7615 174.7581 -359.0909
v 34.7615 174.7581 -394.0909
v 0.0000 178.1818 -359.0909
v 0.0000 178.1818 -394.0909
v -34.7615 174.7581 -359.0909
v -34.7615 174.7581 -394.0909
v -68.1872 164.6185 -359.0909
v -68.1872 164.6185 -394.0909
v -98.9925 148.1528 -359.0909
v -98.9925 148.1528 -394.0909
v -125.9936 125.9936 -359.0909
v -125.9936 125.9936 -394.0909
v -148.1528 98.9925 -359.0909
v -148.1528 98.9925 -394.0909
v -164.6185 68.1872 -359.0909
v -164.6185 68.1872 -394.0909
v -174.7581 34.7615 -359.0909
v -174.7581 34.7615 -394.0909
v -178.1818 0.0000 -359.0909
v -178.1818 0.0000 -394.0909
v -174.7581 -34.7615 -359.0909
v -174.7581 -34.7615 -394.0909
v -164.6185 -68.1872 -359.0909
v -164.6185 -68.1872 -394.0909
v -148.1528 -98.9925 -359.0909
v -148.1528 -98.9925 -394.0909
v -125.9936 -125.9936 -359.0909
v -125.9936 -125.9936 -394.0909
v -98.9925 -148.1528 -359.0909
v -98.9925 -148.1528 -394.0909
v -68.1872 -164.6185 -359.0909
v -68.1872 -164.6185 -394.0909
v -34.7615 -174.7581 -359.0909
v -34.7615 -174.7581 -394.0909
v -0.0000 -178.1818 -359.0909
v -0.0000 -178.1818 -394.0909
v 34.7615 -174.7581 -359.0909
v 34.7615 -174.7581 -394.0909
v 68.1872 -164.6185 -359.0909
v 68.1872 -164.6185 -394.0909
v 98.9925 -148.1528 -359.0909
v 98.9925 -148.1528 -394.0909
v 125.9936 -125.9936 -359.0909
v 125.9936 -125.9936 -394.0909
v 148.1528 -98.9925 -359.0909
v 148.1528 -98.9925 -394.0909
v 164.6185 -68.1872 -359.0909
v 164.6185 -68.1872 -394.0909
v 174.7581 -34.7615 -359.0909
v 174.7581 -34.7615 -394.0909
v 202.7273 0.0000 -436.3636
v 202.7273 0.0000 -471.3636
v 198.8319 39.5501 -436.3636
v 198.8319 39.5501 -471.3636
v 187.2956 77.5804 -436.3636
v 187.2956 77.5804 -471.3636
v 168.5616 112.6292 -436.3636
v 168.5616 112.6292 -471.3636
v 143.3498 143.3498 -436.3636
v 143.3498 143.3498 -471.3636
v 112.6292 168.5616 -436.3636
v 112.6292 168.5616 -471.3636
v 77.5804 187.2956 -436.3636
v 77.5804 187.2956 -471.3636
v 39.5501 198.8319 -436.3636
v 39.5501 198.8319 -471.3636
v 0.0000 202.7273 -436.3636
v 0.0000 202.7273 -471.3636
v -39.5501 198.8319 -436.3636
v -39.5501 198.8319 -471.3636
v -77.5804 187.2956 -436.3636
v -77.5804 187.2956 -471.3636
v -112.6292 168.5616 -436.3636
v -112.6292 168.5616 -471.3636
v -143.3498 143.3498 -436.3636
v -143.3498 143.3498 -471.3636
v -168.5616 112.6292 -436.3636
v -168.5616 112.6292 -471.3636
v -187.2956 77.5804 -436.3636
v -187.2956 77.5804 -471.3636
v -198.8319 39.5501 -436.3636
v -198.8319 39.5501 -471.3636
v -202.7273 0.0000 -436.3636
v -202.7273 0.0000 -471.3636
v -198.8319 -39.5501 -436.3636
v -198.8319 -39.5501 -471.3636
v -187.2956 -77.5804 -436.3636
v -187.2956 -77.5804 -471.3636
v -168.5616 -112.6292 -436.3636
v -168.5616 -112.6292 -471.3636
v -143.3498 -143.3498 -436.3636
v -143.3498 -143.3498 -471.3636
v -112.6292 -168.5616 -436.3636
v -112.6292 -168.5616 -471.3636
v -77.5804 -187.2956 -436.3636
v -77.5804 -187.2956 -471.3636
v -39.5501 -198.8319 -436.3636
v -39.5501 -198.8319 -471.3636
v -0.0000 -202.7273 -436.3636
v -0.0000 -202.7273 -471.3636
v 39.5501 -198.8319 -436.3636
v 39.5501 -198.8319 -471.3636
v 77.5804 -187.2956 -436.3636
v 77.5804 -187.2956 -471.3636
v 112.6292 -168.5616 -436.3636
v 112.6292 -168.5616 -471.3636
v 143.3498 -143.3498 -436.3636
v 143.3498 -143.3498 -471.3636
v 168.5616 -112.6292 -436.3636
v 168.5616 -112.6292 -471.3636
v 187.2956 -77.5804 -436.3636
v 187.2956 -77.5804 -471.3636
v 198.8319 -39.5501 -436.3636
v 198.8319 -39.5501 -471.3636
v 227.2727 0.0000 -513.6364
v 227.2727 0.0000 -548.6364
v 222.9057 44.3387 -513.6364
v 222.9057 44.3387 -548.6364
v 209.9726 86.9735 -513.6364
v 209.9726 86.9735 -548.6364
v 188.9704 126.2660 -513.6364
v 188.9704 126.2660 -548.6364
v 160.7061 160.7061 -513.6364
v 160.7061 160.7061 -548.6364
v 126.2660 188.9704 -513.6364
v 126.2660 188.9704 -548.6364
v 86.9735 209.9726 -513.6364
v 86.9735 209.9726 -548.6364
v 44.3387 222.9057 -513.6364
v 44.3387 222.9057 -548.6364
v 0.0000 227.2727 -513.6364
v 0.0000 227.2727 -548.6364
v -44.3387 222.9057 -513.6364
v -44.3387 222.9057 -548.6364
v -86.9735 209.9726 -513.6364
v -86.9735 209.9726 -548.6364
v -126.2660 188.9704 -513.6364
v -126.2660 188.9704 -548.6364
v -160.7061 160.7061 -513.6364
v -160.7061 160.7061 -548.6364
v -188.9704 126.2660 -513.6364
v -188.9704 126.2660 -548.6364
v -209.9726 86.9735 -513.6364
v -209.9726 86.9735 -548.6364
v -222.9057 44.3387 -513.6364
v -222.9057 44.3387 -548.6364
v -227.2727 0.0000 -513.6364
v -227.2727 0.0000 -548.6364
v -222.9057 -44.3387 -513.6364
v -222.9057 -44.3387 -548.6364
v -209.9726 -86.9735 -513.6364
v -209.9726 -86.9735 -548.6364
v -188.9704 -126.2660 -513.6364
v -188.9704 -126.2660 -548.6364
v -160.7061 -160.7061 -513.6364
v -160.7061 -160.7061 -548.6364
v -126.2660 -188.9704 -513.6364
v -126.2660 -188.9704 -548.6364
v -86.9735 -209.9726 -513.6364
v -86.9735 -209.9726 -548.6364
v -44.3387 -222.9057 -513.6364
v -44.3387 -222.9057 -548.6364
v -0.0000 -227.2727 -513.6364
v -0.0000 -227.2727 -548.6364
v 44.3387 -222.9057 -513.6364
v 44.3387 -222.9057 -548.6364
v 86.9735 -209.9726 -513.6364
v 86.9735 -209.9726 -548.6364
v 126.2660 -188.9704 -513.6364
v 126.2660 -188.9704 -548.6364
v 160.7061 -160.7061 -513.6364
v 160.7061 -160.7061 -548.6364
v 188.9704 -126.2660 -513.6364
v 188.9704 -126.2660 -548.6364
v 209.9726 -86.9735 -513.6364
v 209.9726 -86.9735 -548.6364
v 222.9057 -44.3387 -513.6364
v 222.9057 -44.3387 -548.6364
v 251.8182 0.0000 -590.9091
v 251.8182 0.0000 -625.9091
v 246.9796 49.1273 -590.9091
v 246.9796 49.1273 -625.9091
v 232.6497 96.3666 -590.9091
v 232.6497 96.3666 -625.9091
v 209.3792 139.9027 -590.9091
v 209.3792 139.9027 -625.9091
v 178.0623 178.0623 -590.9091
v 178.0623 178.0623 -625.9091
v 139.9027 209.3792 -590.9091
v 139.9027 209.3792 -625.9091
v 96.3666 232.6497 -590.9091
v 96.3666 232.6497 -625.9091
v 49.1273 246.9796 -590.9091
v 49.1273 246.9796 -625.9091
v 0.0000 251.8182 -590.9091
v 0.0000 251.8182 -625.9091
v -49.1273 246.9796 -590.9091
v -49.1273 246.9796 -625.9091
v -96.3666 232.6497 -590.9091
v -96.3666 232.6497 -625.9091
v -139.9027 209.3792 -590.9091
v -139.9027 209.3792 -625.9091
v -178.0623 178.0623 -590.9091
v -178.0623 178.0623 -625.9091
v -209.3792 139.9027 -590.9091
v -209.3792 139.9027 -625.9091
v -232.6497 96.3666 -590.9091
v -232.6497 96.3666 -625.9091
v -246.9796 49.1273 -590.9091
v -246.9796 49.1273 -625.9091
v -251.8182 0.0000 -590.9091
v -251.8182 0.0000 -625.9091
v -246.9796 -49.1273 -590.9091
v -246.9796 -49.1273 -625.9091
v -232.6497 -96.3666 -590.9091
v -232.6497 -96.3666 -625.9091
v -209.3792 -139.9027 -590.9091
v -209.3792 -139.9027 -625.9091
v -178.0623 -178.0623 -590.9091
v -178.0623 -178.0623 -625.9091
v -139.9027 -209.3792 -590.9091
v -139.9027 -209.3792 -625.9091
v -96.3666 -232.6497 -590.9091
v -96.3666 -232.6497 -625.9091
v -49.1273 -246.9796 -590.9091
v -49.1273 -246.9796 -625.9091
v -0.0000 -251.8182 -590.9091
v -0.0000 -251.8182 -625.9091
v 49.1273 -246.9796 -590.9091
v 49.1273 -246.9796 -625.9091
v 96.3666 -232.6497 -590.9091
v 96.3666 -232.6497 -625.9091
v 139.9027 -209.3792 -590.9091
v 139.9027 -209.3792 -625.9091
v 178.0623 -178.0623 -590.9091
v 178.0623 -178.0623 -625.9091
v 209.3792 -139.9027 -590.9091
v 209.3792 -139.9027 -625.9091
v 232.6497 -96.3666 -590.9091
v 232.6497 -96.3666 -625.9091
v 246.9796 -49.1273 -590.9091
v 246.9796 -49.1273 -625.9091
v 276.3636 0.0000 -668.1818
v 276.3636 0.0000 -703.1818
v 271.0534 53.9159 -668.1818
v 271.0534 53.9159 -703.1818
v 255.3267 105.7598 -668.1818
v 255.3267 105.7598 -703.1818
v 229.7880 153.5394 -668.1818
v 229.7880 153.5394 -703.1818
v 195.4186 195.4186 -668.1818
v 195.4186 195.4186 -703.1818
v 153.5394 229.7880 -668.1818
v 153.5394 229.7880 -703.1818
v 105.7598 255.3267 -668.1818
v 105.7598 255.3267 -703.1818
v 53.9159 271.0534 -668.1818
v 53.9159 271.0534 -703.1818
v 0.0000 276.3636 -668.1818
v 0.0000 276.3636 -703.1818
v -53.9159 271.0534 -668.1818
v -53.9159 271.0534 -703.1818
v -105.7598 255.3267 -668.1818
v -105.7598 255.3267 -703.1818
v -153.5394 229.7880 -668.1818
v -153.5394 229.7880 -703.1818
v -195.4186 195.4186 -668.1818
v -195.4186 195.4186 -703.1818
v -229.7880 153.5394 -668.1818
v -229.7880 153.5394 -703.1818
v -255.3267 105.7598 -668.1818
v -255.3267 105.7598 -703.1818
v -271.0534 53.9159 -668.1818
v -271.0534 53.9159 -703.1818
v -276.3636 0.0000 -668.1818
v -276.3636 0.0000 -703.1818
v -271.0534 -53.9159 -668.1818
v -271.0534 -53.9159 -703.1818
v -255.3267 -105.7598 -668.1818
v -255.3267 -105.7598 -703.1818
v -229.7880 -153.5394 -668.1818
v -229.7880 -153.5394 -703.1818
v -195.4186 -195.4186 -668.1818
v -195.4186 -195.4186 -703.1818
v -153.5394 -229.7880 -668.1818
v -153.5394 -229.7880 -703.1818
v -105.7598 -255.3267 -668.1818
v -105.7598 -255.3267 -703.1818
v -53.9159 -271.0534 -668.1818
v -53.9159 -271.0534 -703.1818
v -0.0000 -276.3636 -668.1818
v -0.0000 -276.3636 -703.1818
v 53.9159 -271.0534 -668.1818
v 53.9159 -271.0534 -703.1818
v 105.7598 -255.3267 -668.1818
v 105.7598 -255.3267 -703.1818
v 153.5394 -229.7880 -668.1818
v 153.5394 -229.7880 -703.1818
v 195.4186 -195.4186 -668.1818
v 195.4186 -195.4186 -703.1818
v 229.7880 -153.5394 -668.1818
v 229.7880 -153.5394 -703.1818
v 255.3267 -105.7598 -668.1818
v 255.3267 -105.7598 -703.1818
v 271.0534 -53.9159 -668.1818
v 271.0534 -53.9159 -703.1818
v 300.9091 0.0000 -745.4545
v 300.9091 0.0000 -780.4545
v 295.1272 58.7045 -745.4545
v 295.1272 58.7045 -780.4545
v 278.0038 115.1529 -745.4545
v 278.0038 115.1529 -780.4545
v 250.1968 167.1761 -745.4545
v 250.1968 167.1761 -780.4545
v 212.7749 212.7749 -745.4545
v 212.7749 212.7749 -780.4545
v 167.1761 250.1968 -745.4545
v 167.1761 250.1968 -780.4545
v 115.1529 278.0038 -745.4545
v 115.1529 278.0038 -780.4545
v 58.7045 295.1272 -745.4545
v 58.7045 295.1272 -780.4545
v 0.0000 300.9091 -745.4545
v 0.0000 300.9091 -780.4545
v -58.7045 295.1272 -745.4545
v -58.7045 295.1272 -780.4545
v -115.1529 278.0038 -745.4545
v -115.1529 278.0038 -780.4545
v -167.1761 250.1968 -745.4545
v -167.1761 250.1968 -780.4545
v -212.7749 212.7749 -745.4545
v -212.7749 212.7749 -780.4545
v -250.1968 167.1761 -745.4545
v -250.1968 167.1761 -780.4545
v -278.0038 115.1529 -745.4545
v -278.0038 115.1529 -780.4545
v -295.1272 58.7045 -745.4545
v -295.1272 58.7045 -780.4545
v -300.9091 0.0000 -745.4545
v -300.9091 0.0000 -780.4545
v -295.1272 -58.7045 -745.4545
v -295.1272 -58.7045 -780.4545
v -278.0038 -115.1529 -745.4545
v -278.0038 -115.1529 -780.4545
v -250.1968 -167.1761 -745.4545
v -250.1968 -167.1761 -780.4545
v -212.7749 -212.7749 -745.4545
v -212.7749 -212.7749 -780.4545
v -167.1761 -250.1968 -745.4545
v -167.1761 -250.1968 -780.4545
v -115.1529 -278.0038 -745.4545
v -115.1529 -278.0038 -780.4545
v -58.7045 -295.1272 -745.4545
v -58.7045 -295.1272 -780.4545
v -0.0000 -300.9091 -745.4545
v -0.0000 -300.9091 -780.4545
v 58.7045 -295.1272 -745.4545
v 58.7045 -295.1272 -780.4545
v 115.1529 -278.0038 -745.4545
v 115.1529 -278.0038 -780.4545
v 167.1761 -250.1968 -745.4545
v 167.1761 -250.1968 -780.4545
v 212.7749 -212.7749 -745.4545
v 212.7749 -212.7749 -780.4545
v 250.1968 -167.1761 -745.4545
v 250.1968 -167.1761 -780.4545
v 278.0038 -115.1529 -745.4545
v 278.0038 -115.1529 -780.4545
v 295.1272 -58.7045 -745.4545
v 295.1272 -58.7045 -780.4545
v 325.4545 0.0000 -822.7273
v 325.4545 0.0000 -857.7273
v 319.2010 63.4930 -822.7273
v 319.2010 63.4930 -857.7273
v 300.6808 124.5461 -822.7273
v 300.6808 124.5461 -857.7273
v 270.6056 180.8129 -822.7273
v 270.6056 180.8129 -857.7273
v 230.1311 230.1311 -822.7273
v 230.1311 230.1311 -857.7273
v 180.8129 270.6056 -822.7273
v 180.8129 270.6056 -857.7273
v 124.5461 300.6808 -822.7273
v 124.5461 300.6808 -857.7273
v 63.4930 319.2010 -822.7273
v 63.4930 319.2010 -857.7273
v 0.0000 325.4545 -822.7273
v 0.0000 325.4545 -857.7273
v -63.4930 319.2010 -822.7273
v -63.4930 319.2010 -857.7273
v -124.5461 300.6808 -822.7273
v -124.5461 300.6808 -857.7273
v -180.8129 270.6056 -822.7273
v -180.8129 270.6056 -857.7273
v -230.1311 230.1311 -822.7273
v -230.1311 230.1311 -857.7273
v -270.6056 180.8129 -822.7273
v -270.6056 180.8129 -857.7273
v -300.6808 124.5461 -822.7273
v -300.6808 124.5461 -857.7273
v -319.2010 63.4930 -822.7273
v -319.2010 63.4930 -857.7273
v -325.4545 0.0000 -822.7273
v -325.4545 0.0000 -857.7273
v -319.2010 -63.4930 -822.7273
v -319.2010 -63.4930 -857.7273
v -300.6808 -124.5461 -822.7273
v -300.6808 -124.5461 -857.7273
v -270.6056 -180.8129 -822.7273
v -270.6056 -180.8129 -857.7273
v -230.1311 -230.1311 -822.7273
v -230.1311 -230.1311 -857.7273
v -180.8129 -270.6056 -822.7273
v -180.8129 -270.6056 -857.7273
v -124.5461 -300.6808 -822.7273
v -124.5461 -300.6808 -857.7273
v -63.4930 -319.2010 -822.7273
v -63.4930 -319.2010 -857.7273
v -0.0000 -325.4545 -822.7273
v -0.0000 -325.4545 -857.7273
v 63.4930 -319.2010 -822.7273
v 63.4930 -319.2010 -857.7273
v 124.5461 -300.6808 -822.7273
v 124.5461 -300.6808 -857.7273
v 180.8129 -270.6056 -822.7273
v 180.8129 -270.6056 -857.7273
v 230.1311 -230.1311 -822.7273
v 230.1311 -230.1311 -857.7273
v 270.6056 -180.8129 -822.7273
v 270.6056 -180.8129 -857.7273
v 300.6808 -124.5461 -822.7273
v 300.6808 -124.5461 -857.7273
v 319.2010 -63.4930 -822.7273
v 319.2010 -63.4930 -857.7273
v 350.0000 0.0000 -900.0000
v 350.0000 0.0000 -935.0000
v 343.2748 68.2816 -900.0000
v 343.2748 68.2816 -935.0000
v 323.3578 133.9392 -900.0000
v 323.3578 133.9392 -935.0000
v 291.0144 194.4496 -900.0000
v 291.0144 194.4496 -935.0000
v 247.4874 247.4874 -900.0000
v 247.4874 247.4874 -935.0000
v 194.4496 291.0144 -900.0000
v 194.4496 291.0144 -935.0000
v 133.9392 323.3578 -900.0000
v 133.9392 323.3578 -935.0000
v 68.2816 343.2748 -900.0000
v 68.2816 343.2748 -935.0000
v 0.0000 350.0000 -900.0000
v 0.0000 350.0000 -935.0000
v -68.2816 343.2748 -900.0000
v -68.2816 343.2748 -935.0000
v -133.9392 323.3578 -900.0000
v -133.9392 323.3578 -935.0000
v -194.4496 291.0144 -900.0000
v -194.4496 291.0144 -935.0000
v -247.4874 247.4874 -900.0000
v -247.4874 247.4874 -935.0000
v -291.0144 194.4496 -900.0000
v -291.0144 194.4496 -935.0000
v -323.3578 133.9392 -900.0000
v -323.3578 133.9392 -935.0000
v -343.2748 68.2816 -900.0000
v -343.2748 68.2816 -935.0000
v -350.0000 0.0000 -900.0000
v -350.0000 0.0000 -935.0000
v -343.2748 -68.2816 -900.0000
v -343.2748 -68.2816 -935.0000
v -323.3578 -133.9392 -900.0000
v -323.3578 -133.9392 -935.0000
v -291.0144 -194.4496 -900.0000
v -291.0144 -194.4496 -935.0000
v -247.4874 -247.4874 -900.0000
v -247.4874 -247.4874 -935.0000
v -194.4496 -291.0144 -900.0000
v -194.4496 -291.0144 -935.0000
v -133.9392 -323.3578 -900.0000
v -133.9392 -323.3578 -935.0000
v -68.2816 -343.2748 -900.0000
v -68.2816 -343.2748 -935.0000
v -0.0000 -350.0000 -900.0000
v -0.0000 -350.0000 -935.0000
v 68.2816 -343.2748 -900.0000
v 68.2816 -343.2748 -935.0000
v 133.9392 -323.3578 -900.0000
v 133.9392 -323.3578 -935.0000
v 194.4496 -291.0144 -900.0000
v 194.4496 -291.0144 -935.0000
v 247.4874 -247.4874 -900.0000
v 247.4874 -247.4874 -935.0000
v 291.0144 -194.4496 -900.0000
v 291.0144 -194.4496 -935.0000
v 323.3578 -133.9392 -900.0000
v 323.3578 -133.9392 -935.0000
v 343.2748 -68.2816 -900.0000
v 343.2748 -68.2816 -935.0000
# 768 vertices

vn 1.0000 0.0000 0.0000
vn 1.0000 0.0000 0.0000
vn 0.9808 0.1951 0.0000
vn 0.9808 0.1951 0.0000
vn 0.9239 0.3827 0.0000
vn 0.9239 0.3827 0.0000
vn 0.8315 0.5556 0.0000
vn 0.8315 0.5556 0.0000
vn 0.7071 0.7071 0.0000
vn 0.7071 0.7071 0.0000
vn 0.5556 0.8315 0.0000
vn 0.5556 0.8315 0.0000
vn 0.3827 0.9239 0.0000
vn 0.3827 0.9239 0.0000
vn 0.1951 0.9808 0.0000
vn 0.1951 0.9808 0.0000
vn 0.0000 1.0000 0.0000
vn 0.0000 1.0000 0.0000
vn -0.1951 0.9808 0.0000
vn -0.1951 0.9808 0.0000
vn -0.3827 0.9239 0.0000
vn -0.3827 0.9239 0.0000
vn -0.5556 0.8315 0.0000
vn -0.5556 0.8315 0.0000
vn -0.7071 0.7071 0.0000
vn -0.7071 0.7071 0.0000
vn -0.8315 0.5556 0.0000
vn -0.8315 0.5556 0.0000
vn -0.9239 0.3827 0.0000
vn -0.9239 0.3827 0.0000
vn -0.9808 0.1951 0.0000
vn -0.9808 0.1951 0.0000
vn -1.0000 0.0000 0.0000
vn -1.0000 0.0000 0.0000
vn -0.9808 -0.1951 0.0000
vn -0.9808 -0.1951 0.0000
vn -0.9239 -0.3827 0.0000
vn -0.9239 -0.3827 0.0000
vn -0.8315 -0.5556 0.0000
vn -0.8315 -0.5556 0.0000
vn -0.7071 -0.7071 0.0000
vn -0.7071 -0.7071 0.0000
vn -0.5556 -0.8315 0.0000
vn -0.5556 -0.8315 0.0000
vn -0.3827 -0.9239 0.0000
vn -0.3827 -0.9239 0.0000
vn -0.1951 -0.9808 0.0000
vn -0.1951 -0.9808 0.0000
vn -0.0000 -1.0000 0.0000
vn -0.0000 -1.0000 0.0000
vn 0.1951 -0.9808 0.0000
vn 0.1951 -0.9808 0.0000
vn 0.3827 -0.9239 0.0000
vn 0.3827 -0.9239 0.0000
vn 0.5556 -0.8315 0.0000
vn 0.5556 -0.8315 0.0000
vn 0.7071 -0.7071 0.0000
vn 0.7071 -0.7071 0.0000
vn 0.8315 -0.5556 0.0000
vn 0.8315 -0.5556 0.0000
vn 0.9239 -0.3827 0.0000
vn 0.9239 -0.3827 0.0000
vn 0.9808 -0.1951 0.0000
vn 0.9808 -0.1951 0.0000
vn 1.0000 0.0000 0.0000
vn 1.0000 0.0000 0.0000
vn 0.9808 0.1951 0.0000
vn 0.9808 0.1951 0.0000
vn 0.9239 0.3827 0.0000
vn 0.9239 0.3827 0.0000
vn 0.8315 0.5556 0.0000
vn 0.8315 0.5556 0.0000
vn 0.7071 0.7071 0.0000
vn 0.7071 0.7071 0.0000
vn 0.5556 0.8315 0.0000
vn 0.5556 0.8315 0.0000
vn 0.3827 0.9239 0.0000
vn 0.3827 0.9239 0.0000
vn 0.1951 0.9808 0.0000
vn 0.1951 0.9808 0.0000
vn 0.0000 1.0000 0.0000
vn 0.0000 1.0000 0.0000
vn -0.1951 0.9808 0.0000
vn -0.1951 0.9808 0.0000
vn -0.3827 0.9239 0.0000
vn -0.3827 0.9239 0.0000
vn -0.5556 0.8315 0.0000
vn -0.5556 0.8315 0.0000
vn -0.7071 0.7071 0.0000
vn -0.7071 0.7071 0.0000
vn -0.8315 0.5556 0.0000
vn -0.8315 0.5556 0.0000
vn -0.9239 0.3827 0.0000
vn -0.9239 0.3827 0.0000
vn -0.9808 0.1951 0.0000
vn -0.9808 0.1951 0.0000
vn -1.0000 0.0000 0.0000
vn -1.0000 0.0000 0.0000
vn -0.9808 -0.1951 0.0000
vn -0.9808 -0.1951 0.0000
vn -0.9239 -0.3827 0.0000
vn -0.9239 -0.3827 0.0000
vn -0.8315 -0.5556 0.0000
vn -0.8315 -0.5556 0.0000
vn -0.7071 -0.7071 0.0000
vn -0.7071 -0.7071 0.0000
vn -0.5556 -0.8315 0.0000
vn -0.5556 -0.8315 0.0000
vn -0.3827 -0.9239 0.0000
vn -0.3827 -0.9239 0.0000
vn -0.1951 -0.9808 0.0000
vn -0.1951 -0.9808 0.0000
vn -0.0000 -1.0000 0.0000
vn -0.0000 -1.0000 0.0000
vn 0.1951 -0.9808 0.0000
vn 0.1951 -0.9808 0.0000
vn 0.3827 -0.9239 0.0000
vn 0.3827 -0.9239 0.0000
vn 0.5556 -0.8315 0.0000
vn 0.5556 -0.8315 0.0000
vn 0.7071 -0.7071 0.0000
vn 0.7071 -0.7071 0.0000
vn 0.8315 -0.5556 0.0000
vn 0.8315 -0.5556 0.0000
vn 0.9239 -0.3827 0.0000
vn 0.9239 -0.3827 0.0000
vn 0.9808 -0.1951 0.0000
vn 0.9808 -0.1951 0.0000
vn 1.0000 0.0000 0.0000
vn 1.0000 0.0000 0.0000
vn 0.9808 0.1951 0.0000
vn 0.9808 0.1951 0.0000
vn 0.9239 0.3827 0.0000
vn 0.9239 0.3827 0.0000
vn 0.8315 0.5556 0.0000
vn 0.8315 0.5556 0.0000
vn 0.7071 0.7071 0.0000
vn 0.7071 0.7071 0.0000
vn 0.5556 0.8315 0.0000
vn 0.5556 0.8315 0.0000
vn 0.3827 0.9239 0.0000
vn 0.3827 0.9239 0.0000
vn 0.1951 0.9808 0.0000
vn 0.1951 0.9808 0.0000
vn 0.0000 1.0000 0.0000
vn 0.0000 1.0000 0.0000
vn -0.1951 0.9808 0.0000
vn -0.1951 0.9808 0.0000
vn -0.3827 0.9239 0.0000
vn -0.3827 0.9239 0.0000
vn -0.5556 0.8315 0.0000
vn -0.5556 0.8315 0.0000
vn -0.7071 0.7071 0.0000
vn -0.7071 0.7071 0.0000
vn -0.8315 0.5556 0.0000
vn -0.8315 0.5556 0.0000
vn -0.9239 0.3827 0.0000
vn -0.9239 0.3827 0.0000
vn -0.9808 0.1951 0.0000
vn -0.9808 0.1951 0.0000
vn -1.0000 0.0000 0.0000
vn -1.0000 0.0000 0.0000
vn -0.9808 -0.1951 0.0000
vn -0.9808 -0.1951 0.0000
vn -0.9239 -0.3827 0.0000
vn -0.9239 -0.3827 0.0000
vn -0.8315 -0.5556 0.0000
vn -0.8315 -0.5556 0.0000
vn -0.7071 -0.7071 0.0000
vn -0.7071 -0.7071 0.0000
vn -0.5556 -0.8315 0.0000
vn -0.5556 -0.8315 0.0000
vn -0.3827 -0.9239 0.0000
vn -0.3827 -0.9239 0.0000
vn -0.1951 -0.9808 0.0000
vn -0.1951 -0.9808 0.0000
vn -0.0000 -1.0000 0.0000
vn -0.0000 -1.0000 0.0000
vn 0.1951 -0.9808 0.0000
vn 0.1951 -0.9808 0.0000
vn 0.3827 -0.9239 0.0000
vn 0.3827 -0.9239 0.0000
vn 0.5556 -0.8315 0.0000
vn 0.5556 -0.8315 0.0000
vn 0.7071 -0.7071 0.0000
vn 0.7071 -0.7071 0.0000
vn 0.8315 -0.5556 0.0000
vn 0.8315 -0.5556 0.0000
vn 0.9239 -0.3827 0.0000
vn 0.9239 -0.3827 0.0000
vn 0.9808 -0.1951 0.0000
vn 0.9808 -0.1951 0.0000
vn 1.0000 0.0000 0.0000
vn 1.0000 0.0000 0.0000
vn 0.9808 0.1951 0.0000
vn 0.9808 0.1951 0.0000
vn 0.9239 0.3827 0.0000
vn 0.9239 0.3827 0.0000
vn 0.8315 0.5556 0.0000
vn 0.8315 0.5556 0.0000
vn 0.7071 0.7071 0.0000
vn 0.7071 0.7071 0.0000
vn 0.5556 0.8315 0.0000
vn 0.5556 0.8315 0.0000
vn 0.3827 0.9239 0.0000
vn 0.3827 0.9239 0.0000
vn 0.1951 0.9808 0.0000
vn 0.1951 0.9808 0.0000
vn 0.0000 1.0000 0.0000
vn 0.0000 1.0000 0.0000
vn -0.1951 0.9808 0.0000
vn -0.1951 0.9808 0.0000
vn -0.3827 0.9239 0.0000
vn -0.3827 0.9239 0.0000
vn -0.5556 0.8315 0.0000
vn -0.5556 0.8315 0.0000
vn -0.7071 0.7071 0.0000
vn -0.7071 0.7071 0.0000
vn -0.8315 0.5556 0.0000
vn -0.8315 0.5556 0.0000
vn -0.9239 0.3827 0.0000
vn -0.9239 0.3827 0.0000
vn -0.9808 0.1951 0.0000
vn -0.9808 0.1951 0.0000
vn -1.0000 0.0000 0.0000
vn -1.0000 0.0000 0.0000
vn -0.9808 -0.1951 0.0000
vn -0.9808 -0.1951 0.0000
vn -0.9239 -0.3827 0.0000
vn -0.9239 -0.3827 0.0000
vn -0.8315 -0.5556 0.0000
vn -0.8315 -0.5556 0.0000
vn -0.7071 -0.7071 0.0000
vn -0.7071 -0.7071 0.0000
vn -0.5556 -0.8315 0.0000
vn -0.5556 -0.8315 0.0000
vn -0.3827 -0.9239 0.0000
vn -0.3827 -0.9239 0.0000
vn -0.1951 -0.9808 0.0000
vn -0.1951 -0.9808 0.0000
vn -0.0000 -1.0000 0.0000
vn -0.0000 -1.0000 0.0000
vn 0.1951 -0.9808 0.0000
vn 0.1951 -0.9808 0.0000
vn 0.3827 -0.9239 0.0000
vn 0.3827 -0.9239 0.0000
vn 0.5556 -0.8315 0.0000
vn 0.5556 -0.8315 0.0000
vn 0.7071 -0.7071 0.0000
vn 0.7071 -0.7071 0.0000
vn 0.8315 -0.5556 0.0000
vn 0.8315 -0.5556 0.0000
vn 0.9239 -0.3827 0.0000
vn 0.9239 -0.3827 0.0000
vn 0.9808 -0.1951 0.0000
vn 0.9808 -0.1951 0.0000
vn 1.0000 0.0000 0.0000
vn 1.0000 0.0000 0.0000
vn 0.9808 0.1951 0.0000
vn 0.9808 0.1951 0.0000
vn 0.9239 0.3827 0.0000
vn 0.9239 0.3827 0.0000
vn 0.8315 0.5556 0.0000
vn 0.8315 0.5556 0.0000
vn 0.7071 0.7071 0.0000
vn 0.7071 0.7071 0.0000
vn 0.5556 0.8315 0.0000
vn 0.5556 0.8315 0.0000
vn 0.3827 0.9239 0.0000
vn 0.3827 0.9239 0.0000
vn 0.1951 0.9808 0.0000
vn 0.1951 0.9808 0.0000
vn 0.0000 1.0000 0.0000
vn 0.0000 1.0000 0.0000
vn -0.1951 0.9808 0.0000
vn -0.1951 0.9808 0.0000
vn -0.3827 0.9239 0.0000
vn -0.3827 0.9239 0.0000
vn -0.5556 0.8315 0.0000
vn -0.5556 0.8315 0.0000
vn -0.7071 0.7071 0.0000
vn -0.7071 0.7071 0.0000
vn -0.8315 0.5556 0.0000
vn -0.8315 0.5556 0.0000
vn -0.9239 0.3827 0.0000
vn -0.9239 0.3827 0.0000
vn -0.9808 0.1951 0.0000
vn -0.9808 0.1951 0.0000
vn -1.0000 0.0000 0.0000
vn -1.0000 0.0000 0.0000
vn -0.9808 -0.1951 0.0000
vn -0.9808 -0.1951 0.0000
vn -0.9239 -0.3827 0.0000
vn -0.9239 -0.3827 0.0000
vn -0.8315 -0.5556 0.0000
vn -0.8315 -0.5556 0.0000
vn -0.7071 -0.7071 0.0000
vn -0.7071 -0.7071 0.0000
vn -0.5556 -0.8315 0.0000
vn -0.5556 -0.8315 0.0000
vn -0.3827 -0.9239 0.0000
vn -0.3827 -0.9239 0.0000
vn -0.1951 -0.9808 0.0000
vn -0.1951 -0.9808 0.0000
vn -0.0000 -1.0000 0.0000
vn -0.0000 -1.0000 0.0000
vn 0.1951 -0.9808 0.0000
vn 0.1951 -0.9808 0.0000
vn 0.3827 -0.9239 0.0000
vn 0.3827 -0.9239 0.0000
vn 0.5556 -0.8315 0.0000
vn 0.5556 -0.8315 0.0000
vn 0.7071 -0.7071 0.0000
vn 0.7071 -0.7071 0.0000
vn 0.8315 -0.5556 0.0000
vn 0.8315 -0.5556 0.0000
vn 0.9239 -0.3827 0.0000
vn 0.9239 -0.3827 0.0000
vn 0.9808 -0.1951 0.0000
vn 0.9808 -0.1951 0.0000
vn 1.0000 0.0000 0.0000
vn 1.0000 0.0000 0.0000
vn 0.9808 0.1951 0.0000
vn 0.9808 0.1951 0.0000
vn 0.9239 0.3827 0.0000
vn 0.9239 0.3827 0.0000
vn 0.8315 0.5556 0.0000
vn 0.8315 0.5556 0.0000
vn 0.7071 0.7071 0.0000
vn 0.7071 0.7071 0.0000
vn 0.5556 0.8315 0.0000
vn 0.5556 0.8315 0.0000
vn 0.3827 0.9239 0.0000
vn 0.3827 0.9239 0.0000
vn 0.1951 0.9808 0.0000
vn 0.1951 0.9808 0.0000
vn 0.0000 1.0000 0.0000
vn 0.0000 1.0000 0.0000
vn -0.1951 0.9808 0.0000
vn -0.1951 0.9808 0.0000
vn -0.3827 0.9239 0.0000
vn -0.3827 0.9239 0.0000
vn -0.5556 0.8315 0.0000
vn -0.5556 0.8315 0.0000
vn -0.7071 0.7071 0.0000
vn -0.7071 0.7071 0.0000
vn -0.8315 0.5556 0.0000
vn -0.8315 0.5556 0.0000
vn -0.9239 0.3827 0.0000
vn -0.9239 0.3827 0.0000
vn -0.9808 0.1951 0.0000
vn -0.9808 0.1951 0.0000
vn -1.0000 0.0000 0.0000
vn -1.0000 0.0000 0.0000
vn -0.9808 -0.1951 0.0000
vn -0.9808 -0.1951 0.0000
vn -0.9239 -0.3827 0.0000
vn -0.9239 -0.3827 0.0000
vn -0.8315 -0.5556 0.0000
vn -0.8315 -0.5556 0.0000
vn -0.7071 -0.7071 0.0000
vn -0.7071 -0.7071 0.0000
vn -0.5556 -0.8315 0.0000
vn -0.5556 -0.8315 0.0000
vn -0.3827 -0.9239 0.0000
vn -0.3827 -0.9239 0.0000
vn -0.1951 -0.9808 0.0000
vn -0.1951 -0.9808 0.0000
vn -0.0000 -1.0000 0.0000
vn -0.0000 -1.0000 0.0000
vn 0.1951 -0.9808 0.0000
vn 0.1951 -0.9808 0.0000
vn 0.3827 -0.9239 0.0000
vn 0.3827 -0.9239 0.0000
vn 0.5556 -0.8315 0.0000
vn 0.5556 -0.8315 0.0000
vn 0.7071 -0.7071 0.0000
vn 0.7071 -0.7071 0.0000
vn 0.8315 -0.5556 0.0000
vn 0.8315 -0.5556 0.0000
vn 0.9239 -0.3827 0.0000
vn 0.9239 -0.3827 0.0000
vn 0.9808 -0.1951 0.0000
vn 0.9808 -0.1951 0.0000
vn 1.0000 0.0000 0.0000
vn 1.0000 0.0000 0.0000
vn 0.9808 0.1951 0.0000
vn 0.9808 0.1951 0.0000
vn 0.9239 0.3827 0.0000
vn 0.9239 0.3827 0.0000
vn 0.8315 0.5556 0.0000
vn 0.8315 0.5556 0.0000
vn 0.7071 0.7071 0.0000
vn 0.7071 0.7071 0.0000
vn 0.5556 0.8315 0.0000
vn 0.5556 0.8315 0.0000
vn 0.3827 0.9239 0.0000
vn 0.3827 0.9239 0.0000
vn 0.1951 0.9808 0.0000
vn 0.1951 0.9808 0.0000
vn 0.0000 1.0000 0.0000
vn 0.0000 1.0000 0.0000
vn -0.1951 0.9808 0.0000
vn -0.1951 0.9808 0.0000
vn -0.3827 0.9239 0.0000
vn -0.3827 0.9239 0.0000
vn -0.5556 0.8315 0.0000
vn -0.5556 0.8315 0.0000
vn -0.7071 0.7071 0.0000
vn -0.7071 0.7071 0.0000
vn -0.8315 0.5556 0.0000
vn -0.8315 0.5556 0.0000
vn -0.9239 0.3827 0.0000
vn -0.9239 0.3827 0.0000
vn -0.9808 0.1951 0.0000
vn -0.9808 0.1951 0.0000
vn -1.0000 0.0000 0.0000
vn -1.0000 0.0000 0.0000
vn -0.9808 -0.1951 0.0000
vn -0.9808 -0.1951 0.0000
vn -0.9239 -0.3827 0.0000
vn -0.9239 -0.3827 0.0000
vn -0.8315 -0.5556 0.0000
vn -0.8315 -0.5556 0.0000
vn -0.7071 -0.7071 0.0000
vn -0.7071 -0.7071 0.0000
vn -0.5556 -0.8315 0.0000
vn -0.5556 -0.8315 0.0000
vn -0.3827 -0.9239 0.0000
vn -0.3827 -0.9239 0.0000
vn -0.1951 -0.9808 0.0000
vn -0.1951 -0.9808 0.0000
vn -0.0000 -1.0000 0.0000
vn -0.0000 -1.0000 0.0000
vn 0.1951 -0.9808 0.0000
vn 0.1951 -0.9808 0.0000
vn 0.3827 -0.9239 0.0000
vn 0.3827 -0.9239 0.0000
vn 0.5556 -0.8315 0.0000
vn 0.5556 -0.8315 0.0000
vn 0.7071 -0.7071 0.0000
vn 0.7071 -0.7071 0.0000
vn 0.8315 -0.5556 0.0000
vn 0.8315 -0.5556 0.0000
vn 0.9239 -0.3827 0.0000
vn 0.9239 -0.3827 0.0000
vn 0.9808 -0.1951 0.0000
vn 0.9808 -0.1951 0.0000
vn 1.0000 0.0000 0.0000
vn 1.0000 0.0000 0.0000
vn 0.9808 0.1951 0.0000
vn 0.9808 0.1951 0.0000
vn 0.9239 0.3827 0.0000
vn 0.9239 0.3827 0.0000
vn 0.8315 0.5556 0.0000
vn 0.8315 0.5556 0.0000
vn 0.7071 0.7071 0.0000
vn 0.7071 0.7071 0.0000
vn 0.5556 0.8315 0.0000
vn 0.5556 0.8315 0.0000
vn 0.3827 0.9239 0.0000
vn 0.3827 0.9239 0.0000
vn 0.1951 0.9808 0.0000
vn 0.1951 0.9808 0.0000
vn 0.0000 1.0000 0.0000
vn 0.0000 1.0000 0.0000
vn -0.1951 0.9808 0.0000
vn -0.1951 0.9808 0.0000
vn -0.3827 0.9239 0.0000
vn -0.3827 0.9239 0.0000
vn -0.5556 0.8315 0.0000
vn -0.5556 0.8315 0.0000
vn -0.7071 0.7071 0.0000
vn -0.7071 0.7071 0.0000
vn -0.8315 0.5556 0.0000
vn -0.8315 0.5556 0.0000
vn -0.9239 0.3827 0.0000
vn -0.9239 0.3827 0.0000
vn -0.9808 0.1951 0.0000
vn -0.9808 0.1951 0.0000
vn -1.0000 0.0000 0.0000
vn -1.0000 0.0000 0.0000
vn -0.9808 -0.1951 0.0000
vn -0.9808 -0.1951 0.0000
vn -0.9239 -0.3827 0.0000
vn -0.9239 -0.3827 0.0000
vn -0.8315 -0.5556 0.0000
vn -0.8315 -0.5556 0.0000
vn -0.7071 -0.7071 0.0000
vn -0.7071 -0.7071 0.0000
vn -0.5556 -0.8315 0.0000
vn -0.5556 -0.8315 0.0000
vn -0.3827 -0.9239 0.0000
vn -0.3827 -0.9239 0.0000
vn -0.1951 -0.9808 0.0000
vn -0.1951 -0.9808 0.0000
vn -0.0000 -1.0000 0.0000
vn -0.0000 -1.0000 0.0000
vn 0.1951 -0.9808 0.0000
vn 0.1951 -0.9808 0.0000
vn 0.3827 -0.9239 0.0000
vn 0.3827 -0.9239 0.0000
vn 0.5556 -0.8315 0.0000
vn 0.5556 -0.8315 0.0000
vn 0.7071 -0.7071 0.0000
vn 0.7071 -0.7071 0.0000
vn 0.8315 -0.5556 0.0000
vn 0.8315 -0.5556 0.0000
vn 0.9239 -0.3827 0.0000
vn 0.9239 -0.3827 0.0000
vn 0.9808 -0.1951 0.0000
vn 0.9808 -0.1951 0.0000
vn 1.0000 0.0000 0.0000
vn 1.0000 0.0000 0.0000
vn 0.9808 0.1951 0.0000
vn 0.9808 0.1951 0.0000
vn 0.9239 0.3827 0.0000
vn 0.9239 0.3827 0.0000
vn 0.8315 0.5556 0.0000
vn 0.8315 0.5556 0.0000
vn 0.7071 0.7071 0.0000
vn 0.7071 0.7071 0.0000
vn 0.5556 0.8315 0.0000
vn 0.5556 0.8315 0.0000
vn 0.3827 0.9239 0.0000
vn 0.3827 0.9239 0.0000
vn 0.1951 0.9808 0.0000
vn 0.1951 0.9808 0.0000
vn 0.0000 1.0000 0.0000
vn 0.0000 1.0000 0.0000
vn -0.1951 0.9808 0.0000
vn -0.1951 0.9808 0.0000
vn -0.3827 0.9239 0.0000
vn -0.3827 0.9239 0.0000
vn -0.5556 0.8315 0.0000
vn -0.5556 0.8315 0.0000
vn -0.7071 0.7071 0.0000
vn -0.7071 0.7071 0.0000
vn -0.8315 0.5556 0.0000
vn -0.8315 0.5556 0.0000
vn -0.9239 0.3827 0.0000
vn -0.9239 0.3827 0.0000
vn -0.9808 0.1951 0.0000
vn -0.9808 0.1951 0.0000
vn -1.0000 0.0000 0.0000
vn -1.0000 0.0000 0.0000
vn -0.9808 -0.1951 0.0000
vn -0.9808 -0.1951 0.0000
vn -0.9239 -0.3827 0.0000
vn -0.9239 -0.3827 0.0000
vn -0.8315 -0.5556 0.0000
vn -0.8315 -0.5556 0.0000
vn -0.7071 -0.7071 0.0000
vn -0.7071 -0.7071 0.0000
vn -0.5556 -0.8315 0.0000
vn -0.5556 -0.8315 0.0000
vn -0.3827 -0.9239 0.0000
vn -0.3827 -0.9239 0.0000
vn -0.1951 -0.9808 0.0000
vn -0.1951 -0.9808 0.0000
vn -0.0000 -1.0000 0.0000
vn -0.0000 -1.0000 0.0000
vn 0.1951 -0.9808 0.0000
vn 0.1951 -0.9808 0.0000
vn 0.3827 -0.9239 0.0000
vn 0.3827 -0.9239 0.0000
vn 0.5556 -0.8315 0.0000
vn 0.5556 -0.8315 0.0000
vn 0.7071 -0.7071 0.0000
vn 0.7071 -0.7071 0.0000
vn 0.8315 -0.5556 0.0000
vn 0.8315 -0.5556 0.0000
vn 0.9239 -0.3827 0.0000
vn 0.9239 -0.3827 0.0000
vn 0.9808 -0.1951 0.0000
vn 0.9808 -0.1951 0.0000
vn 1.0000 0.0000 0.0000
vn 1.0000 0.0000 0.0000
vn 0.9808 0.1951 0.0000
vn 0.9808 0.1951 0.0000
vn 0.9239 0.3827 0.0000
vn 0.9239 0.3827 0.0000
vn 0.8315 0.5556 0.0000
vn 0.8315 0.5556 0.0000
vn 0.7071 0.7071 0.0000
vn 0.7071 0.7071 0.0000
vn 0.5556 0.8315 0.0000
vn 0.5556 0.8315 0.0000
vn 0.3827 0.9239 0.0000
vn 0.3827 0.9239 0.0000
vn 0.1951 0.9808 0.0000
vn 0.1951 0.9808 0.0000
vn 0.0000 1.0000 0.0000
vn 0.0000 1.0000 0.0000
vn -0.1951 0.9808 0.0000
vn -0.1951 0.9808 0.0000
vn -0.3827 0.9239 0.0000
vn -0.3827 0.9239 0.0000
vn -0.5556 0.8315 0.0000
vn -0.5556 0.8315 0.0000
vn -0.7071 0.7071 0.0000
vn -0.7071 0.7071 0.0000
vn -0.8315 0.5556 0.0000
vn -0.8315 0.5556 0.0000
vn -0.9239 0.3827 0.0000
vn -0.9239 0.3827 0.0000
vn -0.9808 0.1951 0.0000
vn -0.9808 0.1951 0.0000
vn -1.0000 0.0000 0.0000
vn -1.0000 0.0000 0.0000
vn -0.9808 -0.1951 0.0000
vn -0.9808 -0.1951 0.0000
vn -0.9239 -0.3827 0.0000
vn -0.9239 -0.3827 0.0000
vn -0.8315 -0.5556 0.0000
vn -0.8315 -0.5556 0.0000
vn -0.7071 -0.7071 0.0000
vn -0.7071 -0.7071 0.0000
vn -0.5556 -0.8315 0.0000
vn -0.5556 -0.8315 0.0000
vn -0.3827 -0.9239 0.0000
vn -0.3827 -0.9239 0.0000
vn -0.1951 -0.9808 0.0000
vn -0.1951 -0.9808 0.0000
vn -0.0000 -1.0000 0.0000
vn -0.0000 -1.0000 0.0000
vn 0.1951 -0.9808 0.0000
vn 0.1951 -0.9808 0.0000
vn 0.3827 -0.9239 0.0000
vn 0.3827 -0.9239 0.0000
vn 0.5556 -0.8315 0.0000
vn 0.5556 -0.8315 0.0000
vn 0.7071 -0.7071 0.0000
vn 0.7071 -0.7071 0.0000
vn 0.8315 -0.5556 0.0000
vn 0.8315 -0.5556 0.0000
vn 0.9239 -0.3827 0.0000
vn 0.9239 -0.3827 0.0000
vn 0.9808 -0.1951 0.0000
vn 0.9808 -0.1951 0.0000
vn 1.0000 0.0000 0.0000
vn 1.0000 0.0000 0.0000
vn 0.9808 0.1951 0.0000
vn 0.9808 0.1951 0.0000
vn 0.9239 0.3827 0.0000
vn 0.9239 0.3827 0.0000
vn 0.8315 0.5556 0.0000
vn 0.8315 0.5556 0.0000
vn 0.7071 0.7071 0.0000
vn 0.7071 0.7071 0.0000
vn 0.5556 0.8315 0.0000
vn 0.5556 0.8315 0.0000
vn 0.3827 0.9239 0.0000
vn 0.3827 0.9239 0.0000
vn 0.1951 0.9808 0.0000
vn 0.1951 0.9808 0.0000
vn 0.0000 1.0000 0.0000
vn 0.0000 1.0000 0.0000
vn -0.1951 0.9808 0.0000
vn -0.1951 0.9808 0.0000
vn -0.3827 0.9239 0.0000
vn -0.3827 0.9239 0.0000
vn -0.5556 0.8315 0.0000
vn -0.5556 0.8315 0.0000
vn -0.7071 0.7071 0.0000
vn -0.7071 0.7071 0.0000
vn -0.8315 0.5556 0.0000
vn -0.8315 0.5556 0.0000
vn -0.9239 0.3827 0.0000
vn -0.9239 0.3827 0.0000
vn -0.9808 0.1951 0.0000
vn -0.9808 0.1951 0.0000
vn -1.0000 0.0000 0.0000
vn -1.0000 0.0000 0.0000
vn -0.9808 -0.1951 0.0000
vn -0.9808 -0.1951 0.0000
vn -0.9239 -0.3827 0.0000
vn -0.9239 -0.3827 0.0000
vn -0.8315 -0.5556 0.0000
vn -0.8315 -0.5556 0.0000
vn -0.7071 -0.7071 0.0000
vn -0.7071 -0.7071 0.0000
vn -0.5556 -0.8315 0.0000
vn -0.5556 -0.8315 0.0000
vn -0.3827 -0.9239 0.0000
vn -0.3827 -0.9239 0.0000
vn -0.1951 -0.9808 0.0000
vn -0.1951 -0.9808 0.0000
vn -0.0000 -1.0000 0.0000
vn -0.0000 -1.0000 0.0000
vn 0.1951 -0.9808 0.0000
vn 0.1951 -0.9808 0.0000
vn 0.3827 -0.9239 0.0000
vn 0.3827 -0.9239 0.0000
vn 0.5556 -0.8315 0.0000
vn 0.5556 -0.8315 0.0000
vn 0.7071 -0.7071 0.0000
vn 0.7071 -0.7071 0.0000
vn 0.8315 -0.5556 0.0000
vn 0.8315 -0.5556 0.0000
vn 0.9239 -0.3827 0.0000
vn 0.9239 -0.3827 0.0000
vn 0.9808 -0.1951 0.0000
vn 0.9808 -0.1951 0.0000
vn 1.0000 0.0000 0.0000
vn 1.0000 0.0000 0.0000
vn 0.9808 0.1951 0.0000
vn 0.9808 0.1951 0.0000
vn 0.9239 0.3827 0.0000
vn 0.9239 0.3827 0.0000
vn 0.8315 0.5556 0.0000
vn 0.8315 0.5556 0.0000
vn 0.7071 0.7071 0.0000
vn 0.7071 0.7071 0.0000
vn 0.5556 0.8315 0.0000
vn 0.5556 0.8315 0.0000
vn 0.3827 0.9239 0.0000
vn 0.3827 0.9239 0.0000
vn 0.1951 0.9808 0.0000
vn 0.1951 0.9808 0.0000
vn 0.0000 1.0000 0.0000
vn 0.0000 1.0000 0.0000
vn -0.1951 0.9808 0.0000
vn -0.1951 0.9808 0.0000
vn -0.3827 0.9239 0.0000
vn -0.3827 0.9239 0.0000
vn -0.5556 0.8315 0.0000
vn -0.5556 0.8315 0.0000
vn -0.7071 0.7071 0.0000
vn -0.7071 0.7071 0.0000
vn -0.8315 0.5556 0.0000
vn -0.8315 0.5556 0.0000
vn -0.9239 0.3827 0.0000
vn -0.9239 0.3827 0.0000
vn -0.9808 0.1951 0.0000
vn -0.9808 0.1951 0.0000
vn -1.0000 0.0000 0.0000
vn -1.0000 0.0000 0.0000
vn -0.9808 -0.1951 0.0000
vn -0.9808 -0.1951 0.0000
vn -0.9239 -0.3827 0.0000
vn -0.9239 -0.3827 0.0000
vn -0.8315 -0.5556 0.0000
vn -0.8315 -0.5556 0.0000
vn -0.7071 -0.7071 0.0000
vn -0.7071 -0.7071 0.0000
vn -0.5556 -0.8315 0.0000
vn -0.5556 -0.8315 0.0000
vn -0.3827 -0.9239 0.0000
vn -0.3827 -0.9239 0.0000
vn -0.1951 -0.9808 0.0000
vn -0.1951 -0.9808 0.0000
vn -0.0000 -1.0000 0.0000
vn -0.0000 -1.0000 0.0000
vn 0.1951 -0.9808 0.0000
vn 0.1951 -0.9808 0.0000
vn 0.3827 -0.9239 0.0000
vn 0.3827 -0.9239 0.0000
vn 0.5556 -0.8315 0.0000
vn 0.5556 -0.8315 0.0000
vn 0.7071 -0.7071 0.0000
vn 0.7071 -0.7071 0.0000
vn 0.8315 -0.5556 0.0000
vn 0.8315 -0.5556 0.0000
vn 0.9239 -0.3827 0.0000
vn 0.9239 -0.3827 0.0000
vn 0.9808 -0.1951 0.0000
vn 0.9808 -0.1951 0.0000
# 768 normals

vt 0.0000 1.0000
vt 0.0000 0.0000
vt 0.0312 1.0000
vt 0.0312 0.0000
vt 0.0625 1.0000
vt 0.0625 0.0000
vt 0.0938 1.0000
vt 0.0938 0.0000
vt 0.1250 1.0000
vt 0.1250 0.0000
vt 0.1562 1.0000
vt 0.1562 0.0000
vt 0.1875 1.0000
vt 0.1875 0.0000
vt 0.2188 1.0000
vt 0.2188 0.0000
vt 0.2500 1.0000
vt 0.2500 0.0000
vt 0.2812 1.0000
vt 0.2812 0.0000
vt 0.3125 1.0000
vt 0.3125 0.0000
vt 0.3438 1.0000
vt 0.3438 0.0000
vt 0.3750 1.0000
vt 0.3750 0.0000
vt 0.4062 1.0000
vt 0.4062 0.0000
vt 0.4375 1.0000
vt 0.4375 0.0000
vt 0.4688 1.0000
vt 0.4688 0.0000
vt 0.5000 1.0000
vt 0.5000 0.0000
vt 0.5312 1.0000
vt 0.5312 0.0000
vt 0.5625 1.0000
vt 0.5625 0.0000
vt 0.5938 1.0000
vt 0.5938 0.0000
vt 0.6250 1.0000
vt 0.6250 0.0000
vt 0.6562 1.0000
vt 0.6562 0.0000
vt 0.6875 1.0000
vt 0.6875 0.0000
vt 0.7188 1.0000
vt 0.7188 0.0000
vt 0.7500 1.0000
vt 0.7500 0.0000
vt 0.7812 1.0000
vt 0.7812 0.0000
vt 0.8125 1.0000
vt 0.8125 0.0000
vt 0.8438 1.0000
vt 0.8438 0.0000
vt 0.8750 1.0000
vt 0.8750 0.0000
vt 0.9062 1.0000
vt 0.9062 0.0000
vt 0.9375 1.0000
vt 0.9375 0.0000
vt 0.9688 1.0000
vt 0.9688 0.0000
vt 0.0000 1.0000
vt 0.0000 0.0000
vt 0.0312 1.0000
vt 0.0312 0.0000
vt 0.0625 1.0000
vt 0.0625 0.0000
vt 0.0938 1.0000
vt 0.0938 0.0000
vt 0.1250 1.0000
vt 0.1250 0.0000
vt 0.1562 1.0000
vt 0.1562 0.0000
vt 0.1875 1.0000
vt 0.1875 0.0000
vt 0.2188 1.0000
vt 0.2188 0.0000
vt 0.2500 1.0000
vt 0.2500 0.0000
vt 0.2812 1.0000
vt 0.2812 0.0000
vt 0.3125 1.0000
vt 0.3125 0.0000
vt 0.3438 1.0000
vt 0.3438 0.0000
vt 0.3750 1.0000
vt 0.3750 0.0000
vt 0.4062 1.0000
vt 0.4062 0.0000
vt 0.4375 1.0000
vt 0.4375 0.0000
vt 0.4688 1.0000
vt 0.4688 0.0000
vt 0.5000 1.0000
vt 0.5000 0.0000
vt 0.5312 1.0000
vt 0.5312 0.0000
vt 0.5625 1.0000
vt 0.5625 0.0000
vt 0.5938 1.0000
vt 0.5938 0.0000
vt 0.6250 1.0000
vt 0.6250 0.0000
vt 0.6562 1.0000
vt 0.6562 0.0000
vt 0.6875 1.0000
vt 0.6875 0.0000
vt 0.7188 1.0000
vt 0.7188 0.0000
vt 0.7500 1.0000
vt 0.7500 0.0000
vt 0.7812 1.0000
vt 0.7812 0.0000
vt 0.8125 1.0000
vt 0.8125 0.0000
vt 0.8438 1.0000
vt 0.8438 0.0000
vt 0.8750 1.0000
vt 0.8750 0.0000
vt 0.9062 1.0000
vt 0.9062 0.0000
vt 0.9375 1.0000
vt 0.9375 0.0000
vt 0.9688 1.0000
vt 0.9688 0.0000
vt 0.0000 1.0000
vt 0.0000 0.0000
vt 0.0312 1.0000
vt 0.0312 0.0000
vt 0.0625 1.0000
vt 0.0625 0.0000
vt 0.0938 1.0000
vt 0.0938 0.0000
vt 0.1250 1.0000
vt 0.1250 0.0000
vt 0.1562 1.0000
vt 0.1562 0.0000
vt 0.1875 1.0000
vt 0.1875 0.0000
vt 0.2188 1.0000
vt 0.2188 0.0000
vt 0.2500 1.0000
vt 0.2500 0.0000
vt 0.2812 1.0000
vt 0.2812 0.0000
vt 0.3125 1.0000
vt 0.3125 0.0000
vt 0.3438 1.0000
vt 0.3438 0.0000
vt 0.3750 1.0000
vt 0.3750 0.0000
vt 0.4062 1.0000
vt 0.4062 0.0000
vt 0.4375 1.0000
vt 0.4375 0.0000
vt 0.4688 1.0000
vt 0.4688 0.0000
vt 0.5000 1.0000
vt 0.5000 0.0000
vt 0.5312 1.0000
vt 0.5312 0.0000
vt 0.5625 1.0000
vt 0.5625 0.0000
vt 0.5938 1.0000
vt 0.5938 0.0000
vt 0.6250 1.0000
vt 0.6250 0.0000
vt 0.6562 1.0000
vt 0.6562 0.0000
vt 0.6875 1.0000
vt 0.6875 0.0000
vt 0.7188 1.0000
vt 0.7188 0.0000
vt 0.7500 1.0000
vt 0.7500 0.0000
vt 0.7812 1.0000
vt 0.7812 0.0000
vt 0.8125 1.0000
vt 0.8125 0.0000
vt 0.8438 1.0000
vt 0.8438 0.0000
vt 0.8750 1.0000
vt 0.8750 0.0000
vt 0.9062 1.0000
vt 0.9062 0.0000
vt 0.9375 1.0000
vt 0.9375 0.0000
vt 0.9688 1.0000
vt 0.9688 0.0000
vt 0.0000 1.0000
vt 0.0000 0.0000
vt 0.0312 1.0000
vt 0.0312 0.0000
vt 0.0625 1.0000
vt 0.0625 0.0000
vt 0.0938 1.0000
vt 0.0938 0.0000
vt 0.1250 1.0000
vt 0.1250 0.0000
vt 0.1562 1.0000
vt 0.1562 0.0000
vt 0.1875 1.0000
vt 0.1875 0.0000
vt 0.2188 1.0000
vt 0.2188 0.0000
vt 0.2500 1.0000
vt 0.2500 0.0000
vt 0.2812 1.0000
vt 0.2812 0.0000
vt 0.3125 1.0000
vt 0.3125 0.0000
vt 0.3438 1.0000
vt 0.3438 0.0000
vt 0.3750 1.0000
vt 0.3750 0.0000
vt 0.4062 1.0000
vt 0.4062 0.0000
vt 0.4375 1.0000
vt 0.4375 0.0000
vt 0.4688 1.0000
vt 0.4688 0.0000
vt 0.5000 1.0000
vt 0.5000 0.0000
vt 0.5312 1.0000
vt 0.5312 0.0000
vt 0.5625 1.0000
vt 0.5625 0.0000
vt 0.5938 1.0000
vt 0.5938 0.0000
vt 0.6250 1.0000
vt 0.6250 0.0000
vt 0.6562 1.0000
vt 0.6562 0.0000
vt 0.6875 1.0000
vt 0.6875 0.0000
vt 0.7188 1.0000
vt 0.7188 0.0000
vt 0.7500 1.0000
vt 0.7500 0.0000
vt 0.7812 1.0000
vt 0.7812 0.0000
vt 0.8125 1.0000
vt 0.8125 0.0000
vt 0.8438 1.0000
vt 0.8438 0.0000
vt 0.8750 1.0000
vt 0.8750 0.0000
vt 0.9062 1.0000
vt 0.9062 0.0000
vt 0.9375 1.0000
vt 0.9375 0.0000
vt 0.9688 1.0000
vt 0.9688 0.0000
vt 0.0000 1.0000
vt 0.0000 0.0000
vt 0.0312 1.0000
vt 0.0312 0.0000
vt 0.0625 1.0000
vt 0.0625 0.0000
vt 0.0938 1.0000
vt 0.0938 0.0000
vt 0.1250 1.0000
vt 0.1250 0.0000
vt 0.1562 1.0000
vt 0.1562 0.0000
vt 0.1875 1.0000
vt 0.1875 0.0000
vt 0.2188 1.0000
vt 0.2188 0.0000
vt 0.2500 1.0000
vt 0.2500 0.0000
vt 0.2812 1.0000
vt 0.2812 0.0000
vt 0.3125 1.0000
vt 0.3125 0.0000
vt 0.3438 1.0000
vt 0.3438 0.0000
vt 0.3750 1.0000
vt 0.3750 0.0000
vt 0.4062 1.0000
vt 0.4062 0.0000
vt 0.4375 1.0000
vt 0.4375 0.0000
vt 0.4688 1.0000
vt 0.4688 0.0000
vt 0.5000 1.0000
vt 0.5000 0.0000
vt 0.5312 1.0000
vt 0.5312 0.0000
vt 0.5625 1.0000
vt 0.5625 0.0000
vt 0.5938 1.0000
vt 0.5938 0.0000
vt 0.6250 1.0000
vt 0.6250 0.0000
vt 0.6562 1.0000
vt 0.6562 0.0000
vt 0.6875 1.0000
vt 0.6875 0.0000
vt 0.7188 1.0000
vt 0.7188 0.0000
vt 0.7500 1.0000
vt 0.7500 0.0000
vt 0.7812 1.0000
vt 0.7812 0.0000
vt 0.8125 1.0000
vt 0.8125 0.0000
vt 0.8438 1.0000
vt 0.8438 0.0000
vt 0.8750 1.0000
vt 0.8750 0.0000
vt 0.9062 1.0000
vt 0.9062 0.0000
vt 0.9375 1.0000
vt 0.9375 0.0000
vt 0.9688 1.0000
vt 0.9688 0.0000
vt 0.0000 1.0000
vt 0.0000 0.0000
vt 0.0312 1.0000
vt 0.0312 0.0000
vt 0.0625 1.0000
vt 0.0625 0.0000
vt 0.0938 1.0000
vt 0.0938 0.0000
vt 0.1250 1.0000
vt 0.1250 0.0000
vt 0.1562 1.0000
vt 0.1562 0.0000
vt 0.1875 1.0000
vt 0.1875 0.0000
vt 0.2188 1.0000
vt 0.2188 0.0000
vt 0.2500 1.0000
vt 0.2500 0.0000
vt 0.2812 1.0000
vt 0.2812 0.0000
vt 0.3125 1.0000
vt 0.3125 0.0000
vt 0.3438 1.0000
vt 0.3438 0.0000
vt 0.3750 1.0000
vt 0.3750 0.0000
vt 0.4062 1.0000
vt 0.4062 0.0000
vt 0.4375 1.0000
vt 0.4375 0.0000
vt 0.4688 1.0000
vt 0.4688 0.0000
vt 0.5000 1.0000
vt 0.5000 0.0000
vt 0.5312 1.0000
vt 0.5312 0.0000
vt 0.5625 1.0000
vt 0.5625 0.0000
vt 0.5938 1.0000
vt 0.5938 0.0000
vt 0.6250 1.0000
vt 0.6250 0.0000
vt 0.6562 1.0000
vt 0.6562 0.0000
vt 0.6875 1.0000
vt 0.6875 0.0000
vt 0.7188 1.0000
vt 0.7188 0.0000
vt 0.7500 1.0000
vt 0.7500 0.0000
vt 0.7812 1.0000
vt 0.7812 0.0000
vt 0.8125 1.0000
vt 0.8125 0.0000
vt 0.8438 1.0000
vt 0.8438 0.0000
vt 0.8750 1.0000
vt 0.8750 0.0000
vt 0.9062 1.0000
vt 0.9062 0.0000
vt 0.9375 1.0000
vt 0.9375 0.0000
vt 0.9688 1.0000
vt 0.9688 0.0000
vt 0.0000 1.0000
vt 0.0000 0.0000
vt 0.0312 1.0000
vt 0.0312 0.0000
vt 0.0625 1.0000
vt 0.0625 0.0000
vt 0.0938 1.0000
vt 0.0938 0.0000
vt 0.1250 1.0000
vt 0.1250 0.0000
vt 0.1562 1.0000
vt 0.1562 0.0000
vt 0.1875 1.0000
vt 0.1875 0.0000
vt 0.2188 1.0000
vt 0.2188 0.0000
vt 0.2500 1.0000
vt 0.2500 0.0000
vt 0.2812 1.0000
vt 0.2812 0.0000
vt 0.3125 1.0000
vt 0.3125 0.0000
vt 0.3438 1.0000
vt 0.3438 0.0000
vt 0.3750 1.0000
vt 0.3750 0.0000
vt 0.4062 1.0000
vt 0.4062 0.0000
vt 0.4375 1.0000
vt 0.4375 0.0000
vt 0.4688 1.0000
vt 0.4688 0.0000
vt 0.5000 1.0000
vt 0.5000 0.0000
vt 0.5312 1.0000
vt 0.5312 0.0000
vt 0.5625 1.0000
vt 0.5625 0.0000
vt 0.5938 1.0000
vt 0.5938 0.0000
vt 0.6250 1.0000
vt 0.6250 0.0000
vt 0.6562 1.0000
vt 0.6562 0.0000
vt 0.6875 1.0000
vt 0.6875 0.0000
vt 0.7188 1.0000
vt 0.7188 0.0000
vt 0.7500 1.0000
vt 0.7500 0.0000
vt 0.7812 1.0000
vt 0.7812 0.0000
vt 0.8125 1.0000
vt 0.8125 0.0000
vt 0.8438 1.0000
vt 0.8438 0.0000
vt 0.8750 1.0000
vt 0.8750 0.0000
vt 0.9062 1.0000
vt 0.9062 0.0000
vt 0.9375 1.0000
vt 0.9375 0.0000
vt 0.9688 1.0000
vt 0.9688 0.0000
vt 0.0000 1.0000
vt 0.0000 0.0000
vt 0.0312 1.0000
vt 0.0312 0.0000
vt 0.0625 1.0000
vt 0.0625 0.0000
vt 0.0938 1.0000
vt 0.0938 0.0000
vt 0.1250 1.0000
vt 0.1250 0.0000
vt 0.1562 1.0000
vt 0.1562 0.0000
vt 0.1875 1.0000
vt 0.1875 0.0000
vt 0.2188 1.0000
vt 0.2188 0.0000
vt 0.2500 1.0000
vt 0.2500 0.0000
vt 0.2812 1.0000
vt 0.2812 0.0000
vt 0.3125 1.0000
vt 0.3125 0.0000
vt 0.3438 1.0000
vt 0.3438 0.0000
vt 0.3750 1.0000
vt 0.3750 0.0000
vt 0.4062 1.0000
vt 0.4062 0.0000
vt 0.4375 1.0000
vt 0.4375 0.0000
vt 0.4688 1.0000
vt 0.4688 0.0000
vt 0.5000 1.0000
vt 0.5000 0.0000
vt 0.5312 1.0000
vt 0.5312 0.0000
vt 0.5625 1.0000
vt 0.5625 0.0000
vt 0.5938 1.0000
vt 0.5938 0.0000
vt 0.6250 1.0000
vt 0.6250 0.0000
vt 0.6562 1.0000
vt 0.6562 0.0000
vt 0.6875 1.0000
vt 0.6875 0.0000
vt 0.7188 1.0000
vt 0.7188 0.0000
vt 0.7500 1.0000
vt 0.7500 0.0000
vt 0.7812 1.0000
vt 0.7812 0.0000
vt 0.8125 1.0000
vt 0.8125 0.0000
vt 0.8438 1.0000
vt 0.8438 0.0000
vt 0.8750 1.0000
vt 0.8750 0.0000
vt 0.9062 1.0000
vt 0.9062 0.0000
vt 0.9375 1.0000
vt 0.9375 0.0000
vt 0.9688 1.0000
vt 0.9688 0.0000
vt 0.0000 1.0000
vt 0.0000 0.0000
vt 0.0312 1.0000
vt 0.0312 0.0000
vt 0.0625 1.0000
vt 0.0625 0.0000
vt 0.0938 1.0000
vt 0.0938 0.0000
vt 0.1250 1.0000
vt 0.1250 0.0000
vt 0.1562 1.0000
vt 0.1562 0.0000
vt 0.1875 1.0000
vt 0.1875 0.0000
vt 0.2188 1.0000
vt 0.2188 0.0000
vt 0.2500 1.0000
vt 0.2500 0.0000
vt 0.2812 1.0000
vt 0.2812 0.0000
vt 0.3125 1.0000
vt 0.3125 0.0000
vt 0.3438 1.0000
vt 0.3438 0.0000
vt 0.3750 1.0000
vt 0.3750 0.0000
vt 0.4062 1.0000
vt 0.4062 0.0000
vt 0.4375 1.0000
vt 0.4375 0.0000
vt 0.4688 1.0000
vt 0.4688 0.0000
vt 0.5000 1.0000
vt 0.5000 0.0000
vt 0.5312 1.0000
vt 0.5312 0.0000
vt 0.5625 1.0000
vt 0.5625 0.0000
vt 0.5938 1.0000
vt 0.5938 0.0000
vt 0.6250 1.0000
vt 0.6250 0.0000
vt 0.6562 1.0000
vt 0.6562 0.0000
vt 0.6875 1.0000
vt 0.6875 0.0000
vt 0.7188 1.0000
vt 0.7188 0.0000
vt 0.7500 1.0000
vt 0.7500 0.0000
vt 0.7812 1.0000
vt 0.7812 0.0000
vt 0.8125 1.0000
vt 0.8125 0.0000
vt 0.8438 1.0000
vt 0.8438 0.0000
vt 0.8750 1.0000
vt 0.8750 0.0000
vt 0.9062 1.0000
vt 0.9062 0.0000
vt 0.9375 1.0000
vt 0.9375 0.0000
vt 0.9688 1.0000
vt 0.9688 0.0000
vt 0.0000 1.0000
vt 0.0000 0.0000
vt 0.0312 1.0000
vt 0.0312 0.0000
vt 0.0625 1.0000
vt 0.0625 0.0000
vt 0.0938 1.0000
vt 0.0938 0.0000
vt 0.1250 1.0000
vt 0.1250 0.0000
vt 0.1562 1.0000
vt 0.1562 0.0000
vt 0.1875 1.0000
vt 0.1875 0.0000
vt 0.2188 1.0000
vt 0.2188 0.0000
vt 0.2500 1.0000
vt 0.2500 0.0000
vt 0.2812 1.0000
vt 0.2812 0.0000
vt 0.3125 1.0000
vt 0.3125 0.0000
vt 0.3438 1.0000
vt 0.3438 0.0000
vt 0.3750 1.0000
vt 0.3750 0.0000
vt 0.4062 1.0000
vt 0.4062 0.0000
vt 0.4375 1.0000
vt 0.4375 0.0000
vt 0.4688 1.0000
vt 0.4688 0.0000
vt 0.5000 1.0000
vt 0.5000 0.0000
vt 0.5312 1.0000
vt 0.5312 0.0000
vt 0.5625 1.0000
vt 0.5625 0.0000
vt 0.5938 1.0000
vt 0.5938 0.0000
vt 0.6250 1.0000
vt 0.6250 0.0000
vt 0.6562 1.0000
vt 0.6562 0.0000
vt 0.6875 1.0000
vt 0.6875 0.0000
vt 0.7188 1.0000
vt 0.7188 0.0000
vt 0.7500 1.0000
vt 0.7500 0.0000
vt 0.7812 1.0000
vt 0.7812 0.0000
vt 0.8125 1.0000
vt 0.8125 0.0000
vt 0.8438 1.0000
vt 0.8438 0.0000
vt 0.8750 1.0000
vt 0.8750 0.0000
vt 0.9062 1.0000
vt 0.9062 0.0000
vt 0.9375 1.0000
vt 0.9375 0.0000
vt 0.9688 1.0000
vt 0.9688 0.0000
vt 0.0000 1.0000
vt 0.0000 0.0000
vt 0.0312 1.0000
vt 0.0312 0.0000
vt 0.0625 1.0000
vt 0.0625 0.0000
vt 0.0938 1.0000
vt 0.0938 0.0000
vt 0.1250 1.0000
vt 0.1250 0.0000
vt 0.1562 1.0000
vt 0.1562 0.0000
vt 0.1875 1.0000
vt 0.1875 0.0000
vt 0.2188 1.0000
vt 0.2188 0.0000
vt 0.2500 1.0000
vt 0.2500 0.0000
vt 0.2812 1.0000
vt 0.2812 0.0000
vt 0.3125 1.0000
vt 0.3125 0.0000
vt 0.3438 1.0000
vt 0.3438 0.0000
vt 0.3750 1.0000
vt 0.3750 0.0000
vt 0.4062 1.0000
vt 0.4062 0.0000
vt 0.4375 1.0000
vt 0.4375 0.0000
vt 0.4688 1.0000
vt 0.4688 0.0000
vt 0.5000 1.0000
vt 0.5000 0.0000
vt 0.5312 1.0000
vt 0.5312 0.0000
vt 0.5625 1.0000
vt 0.5625 0.0000
vt 0.5938 1.0000
vt 0.5938 0.0000
vt 0.6250 1.0000
vt 0.6250 0.0000
vt 0.6562 1.0000
vt 0.6562 0.0000
vt 0.6875 1.0000
vt 0.6875 0.0000
vt 0.7188 1.0000
vt 0.7188 0.0000
vt 0.7500 1.0000
vt 0.7500 0.0000
vt 0.7812 1.0000
vt 0.7812 0.0000
vt 0.8125 1.0000
vt 0.8125 0.0000
vt 0.8438 1.0000
vt 0.8438 0.0000
vt 0.8750 1.0000
vt 0.8750 0.0000
vt 0.9062 1.0000
vt 0.9062 0.0000
vt 0.9375 1.0000
vt 0.9375 0.0000
vt 0.9688 1.0000
vt 0.9688 0.0000
vt 0.0000 1.0000
vt 0.0000 0.0000
vt 0.0312 1.0000
vt 0.0312 0.0000
vt 0.0625 1.0000
vt 0.0625 0.0000
vt 0.0938 1.0000
vt 0.0938 0.0000
vt 0.1250 1.0000
vt 0.1250 0.0000
vt 0.1562 1.0000
vt 0.1562 0.0000
vt 0.1875 1.0000
vt 0.1875 0.0000
vt 0.2188 1.0000
vt 0.2188 0.0000
vt 0.2500 1.0000
vt 0.2500 0.0000
vt 0.2812 1.0000
vt 0.2812 0.0000
vt 0.3125 1.0000
vt 0.3125 0.0000
vt 0.3438 1.0000
vt 0.3438 0.0000
vt 0.3750 1.0000
vt 0.3750 0.0000
vt 0.4062 1.0000
vt 0.4062 0.0000
vt 0.4375 1.0000
vt 0.4375 0.0000
vt 0.4688 1.0000
vt 0.4688 0.0000
vt 0.5000 1.0000
vt 0.5000 0.0000
vt 0.5312 1.0000
vt 0.5312 0.0000
vt 0.5625 1.0000
vt 0.5625 0.0000
vt 0.5938 1.0000
vt 0.5938 0.0000
vt 0.6250 1.0000
vt 0.6250 0.0000
vt 0.6562 1.0000
vt 0.6562 0.0000
vt 0.6875 1.0000
vt 0.6875 0.0000
vt 0.7188 1.0000
vt 0.7188 0.0000
vt 0.7500 1.0000
vt 0.7500 0.0000
vt 0.7812 1.0000
vt 0.7812 0.0000
vt 0.8125 1.0000
vt 0.8125 0.0000
vt 0.8438 1.0000
vt 0.8438 0.0000
vt 0.8750 1.0000
vt 0.8750 0.0000
vt 0.9062 1.0000
vt 0.9062 0.0000
vt 0.9375 1.0000
vt 0.9375 0.0000
vt 0.9688 1.0000
vt 0.9688 0.0000
# 768 texture coords

s 1
f 1/1/1 3/3/3 4/4/4 2/2/2
f 3/3/3 5/5/5 6/6/6 4/4/4
f 5/5/5 7/7/7 8/8/8 6/6/6
f 7/7/7 9/9/9 10/10/10 8/8/8
f 9/9/9 11/11/11 12/12/12 10/10/10
f 11/11/11 13/13/13 14/14/14 12/12/12
f 13/13/13 15/15/15 16/16/16 14/14/14
f 15/15/15 17/17/17 18/18/18 16/16/16
f 17/17/17 19/19/19 20/20/20 18/18/18
f 19/19/19 21/21/21 22/22/22 20/20/20
f 21/21/21 23/23/23 24/24/24 22/22/22
f 23/23/23 25/25/25 26/26/26 24/24/24
f 25/25/25 27/27/27 28/28/28 26/26/26
f 27/27/27 29/29/29 30/30/30 28/28/28
f 29/29/29 31/31/31 32/32/32 30/30/30
f 31/31/31 33/33/33 34/34/34 32/32/32
f 33/33/33 35/35/35 36/36/36 34/34/34
f 35/35/35 37/37/37 38/38/38 36/36/36
f 37/37/37 39/39/39 40/40/40 38/38/38
f 39/39/39 41/41/41 42/42/42 40/40/40
f 41/41/41 43/43/43 44/44/44 42/42/42
f 43/43/43 45/45/45 46/46/46 44/44/44
f 45/45/45 47/47/47 48/48/48 46/46/46
f 47/47/47 49/49/49 50/50/50 48/48/48
f 49/49/49 51/51/51 52/52/52 50/50/50
f 51/51/51 53/53/53 54/54/54 52/52/52
f 53/53/53 55/55/55 56/56/56 54/54/54
f 55/55/55 57/57/57 58/58/58 56/56/56
f 57/57/57 59/59/59 60/60/60 58/58/58
f 59/59/59 61/61/61 62/62/62 60/60/60
f 61/61/61 63/63/63 64/64/64 62/62/62
f 63/63/63 1/1/1 2/2/2 64/64/64
f 65/65/65 67/67/67 68/68/68 66/66/66
f 67/67/67 69/69/69 70/70/70 68/68/68
f 69/69/69 71/71/71 72/72/72 70/70/70
f 71/71/71 73/73/73 74/74/74 72/72/72
f 73/73/73 75/75/75 76/76/76 74/74/74
f 75/75/75 77/77/77 78/78/78 76/76/76
f 77/77/77 79/79/79 80/80/80 78/78/78
f 79/79/79 81/81/81 82/82/82 80/80/80
f 81/81/81 83/83/83 84/84/84 82/82/82
f 83/83/83 85/85/85 86/86/86 84/84/84
f 85/85/85 87/87/87 88/88/88 86/86/86
f 87/87/87 89/89/89 90/90/90 88/88/88
f 89/89/89 91/91/91 92/92/92 90/90/90
f 91/91/91 93/93/93 94/94/94 92/92/92
f 93/93/93 95/95/95 96/96/96 94/94/94
f 95/95/95 97/97/97 98/98/98 96/96/96
f 97/97/97 99/99/99 100/100/100 98/98/98
f 99/99/99 101/101/101 102/102/102 100/100/100
f 101/101/101 103/103/103 104/104/104 102/102/102
f 103/103/103 105/105/105 106/106/106 104/104/104
f 105/105/105 107/107/107 108/108/108 106/106/106
f 107/107/107 109/109/109 110/110/110 108/108/108
f 109/109/109 111/111/111 112/112/112 110/110/110
f 111/111/111 113/113/113 114/114/114 112/112/112
f 113/113/113 115/115/115 116/116/116 114/114/114
f 115/115/115 117/117/117 118/118/118 116/116/116
f 117/117/117 119/119/119 120/120/120 118/118/118
f 119/119/119 121/121/121 122/122/122 120/120/120
f 121/121/121 123/123/123 124/124/124 122/122/122
f 123/123/123 125/125/125 126/126/126 124/124/124
f 125/125/125 127/127/127 128/128/128 126/126/126
f 127/127/127 65/65/65 66/66/66 128/128/128
f 129/129/129 131/131/131 132/132/132 130/130/130
f 131/131/131 133/133/133 134/134/134 132/132/132
f 133/133/133 135/135/135 136/136/136 134/134/134
f 135/135/135 137/137/137 138/138/138 136/136/136
f 137/137/137 139/139/139 140/140/140 138/138/138
f 139/139/139 141/141/141 142/142/142 140/140/140
f 141/141/141 143/143/143 144/144/144 142/142/142
f 143/143/143 145/145/145 146/146/146 144/144/144
f 145/145/145 147/147/147 148/148/148 146/146/146
f 147/147/147 149/149/149 150/150/150 148/148/148
f 149/149/149 151/151/151 152/152/152 150/150/150
f 151/151/151 153/153/153 154/154/154 152/152/152
f 153/153/153 155/155/155 156/156/156 154/154/154
f 155/155/155 157/157/157 158/158/158 156/156/156
f 157/157/157 159/159/159 160/160/160 158/158/158
f 159/159/159 161/161/161 162/162/162 160/160/160
f 161/161/161 163/163/163 164/164/164 162/162/162
f 163/163/163 165/165/165 166/166/166 164/164/164
f 165/165/165 167/167/167 168/168/168 166/166/166
f 167/167/167 169/169/169 170/170/170 168/168/168
f 169/169/169 171/171/171 172/172/172 170/170/170
f 171/171/171 173/173/173 174/174/174 172/172/172
f 173/173/173 175/175/175 176/176/176 174/174/174
f 175/175/175 177/177/177 178/178/178 176/176/176
f 177/177/177 179/179/179 180/180/180 178/178/178
f 179/179/179 181/181/181 182/182/182 180/180/180
f 181/181/181 183/183/183 184/184/184 182/182/182
f 183/183/183 185/185/185 186/186/186 184/184/184
f 185/185/185 187/187/187 188/188/188 186/186/186
f 187/187/187 189/189/189 190/190/190 188/188/188
f 189/189/189 191/191/191 192/192/192 190/190/190
f 191/191/191 129/129/129 130/130/130 192/192/192
f 193/193/193 195/195/195 196/196/196 194/194/194
f 195/195/195 197/197/197 198/198/198 196/196/196
f 197/197/197 199/199/199 200/200/200 198/198/198
f 199/199/199 201/201/201 202/202/202 200/200/200
f 201/201/201 203/203/203 204/204/204 202/202/202
f 203/203/203 205/205/205 206/206/206 204/204/204
f 205/205/205 207/207/207 208/208/208 206/206/206
f 207/207/207 209/209/209 210/210/210 208/208/208
f 209/209/209 211/211/211 212/212/212 210/210/210
f 211/211/211 213/213/213 214/214/214 212/212/212
f 213/213/213 215/215/215 216/216/216 214/214/214
f 215/215/215 217/217/217 218/218/218 216/216/216
f 217/217/217 219/219/219 220/220/220 218/218/218
f 219/219/219 221/221/221 222/222/222 220/220/220
f 221/221/221 223/223/223 224/224/224 222/222/222
f 223/223/223 225/225/225 226/226/226 224/224/224
f 225/225/225 227/227/227 228/228/228 226/226/226
f 227/227/227 229/229/229 230/230/230 228/228/228
f 229/229/229 231/231/231 232/232/232 230/230/230
f 231/231/231 233/233/233 234/234/234 232/232/232
f 233/233/233 235/235/235 236/236/236 234/234/234
f 235/235/235 237/237/237 238/238/238 236/236/236
f 237/237/237 239/239/239 240/240/240 238/238/238
f 239/239/239 241/241/241 242/242/242 240/240/240
f 241/241/241 243/243/243 244/244/244 242/242/242
f 243/243/243 245/245/245 246/246/246 244/244/244
f 245/245/245 247/247/247 248/248/248 246/246/246
f 247/247/247 249/249/249 250/250/250 248/248/248
f 249/249/249 251/251/251 252/252/252 250/250/250
f 251/251/251 253/253/253 254/254/254 252/252/252
f 253/253/253 255/255/255 256/256/256 254/254/254
f 255/255/255 193/193/193 194/194/194 256/256/256
f 257/257/257 259/259/259 260/260/260 258/258/258
f 259/259/259 261/261/261 262/262/262 260/260/260
f 261/261/261 263/263/263 264/264/264 262/262/262
f 263/263/263 265/265/265 266/266/266 264/264/264
f 265/265/265 267/267/267 268/268/268 266/266/266
f 267/267/267 269/269/269 270/270/270 268/268/268
f 269/269/269 271/271/271 272/272/272 270/270/270
f 271/271/271 273/273/273 274/274/274 272/272/272
f 273/273/273 275/275/275 276/276/276 274/274/274
f 275/275/275 277/277/277 278/278/278 276/276/276
f 277/277/277 279/279/279 280/280/280 278/278/278
f 279/279/279 281/281/281 282/282/282 280/280/280
f 281/281/281 283/283/283 284/284/284 282/282/282
f 283/283/283 285/285/285 286/286/286 284/284/284
f 285/285/285 287/287/287 288/288/288 286/286/286
f 287/287/287 289/289/289 290/290/290 288/288/288
f 289/289/289 291/291/291 292/292/292 290/290/290
f 291/291/291 293/293/293 294/294/294 292/292/292
f 293/293/293 295/295/295 296/296/296 294/294/294
f 295/295/295 297/297/297 298/298/298 296/296/296
f 297/297/297 299/299/299 300/300/300 298/298/298
f 299/299/299 301/301/301 302/302/302 300/300/300
f 301/301/301 303/303/303 304/304/304 302/302/302
f 303/303/303 305/305/305 306/306/306 304/304/304
f 305/305/305 307/307/307 308/308/308 306/306/306
f 307/307/307 309/309/309 310/310/310 308/308/308
f 309/309/309 311/311/311 312/312/312 310/310/310
f 311/311/311 313/313/313 314/314/314 312/312/312
f 313/313/313 315/315/315 316/316/316 314/314/314
f 315/315/315 317/317/317 318/318/318 316/316/316
f 317/317/317 319/319/319 320/320/320 318/318/318
f 319/319/319 257/257/257 258/258/258 320/320/320
f 321/321/321 323/323/323 324/324/324 322/322/322
f 323/323/323 325/325/325 326/326/326 324/324/324
f 325/325/325 327/327/327 328/328/328 326/326/326
f 327/327/327 329/329/329 330/330/330 328/328/328
f 329/329/329 331/331/331 332/332/332 330/330/330
f 331/331/331 333/333/333 334/334/334 332/332/332
f 333/333/333 335/335/335 336/336/336 334/334/334
f 335/335/335 337/337/337 338/338/338 336/336/336
f 337/337/337 339/339/339 340/340/340 338/338/338
f 339/339/339 341/341/341 342/342/342 340/340/340
f 341/341/341 343/343/343 344/344/344 342/342/342
f 343/343/343 345/345/345 346/346/346 344/344/344
f 345/345/345 347/347/347 348/348/348 346/346/346
f 347/347/347 349/349/349 350/350/350 348/348/348
f 349/349/349 351/351/351 352/352/352 350/350/350
f 351/351/351 353/353/353 354/354/354 352/352/352
f 353/353/353 355/355/355 356/356/356 354/354/354
f 355/355/355 357/357/357 358/358/358 356/356/356
f 357/357/357 359/359/359 360/360/360 358/358/358
f 359/359/359 361/361/361 362/362/362 360/360/360
f 361/361/361 363/363/363 364/364/364 362/362/362
f 363/363/363 365/365/365 366/366/366 364/364/364
f 365/365/365 367/367/367 368/368/368 366/366/366
f 367/367/367 369/369/369 370/370/370 368/368/368
f 369/369/369 371/371/371 372/372/372 370/370/370
f 371/371/371 373/373/373 374/374/374 372/372/372
f 373/373/373 375/375/375 376/376/376 374/374/374
f 375/375/375 377/377/377 378/378/378 376/376/376
f 377/377/377 379/379/379 380/380/380 378/378/378
f 379/379/379 381/381/381 382/382/382 380/380/380
f 381/381/381 383/383/383 384/384/384 382/382/382
f 383/383/383 321/321/321 322/322/322 384/384/384
f 385/385/385 387/387/387 388/388/388 386/386/386
f 387/387/387 389/389/389 390/390/390 388/388/388
f 389/389/389 391/391/391 392/392/392 390/390/390
f 391/391/391 393/393/393 394/394/394 392/392/392
f 393/393/393 395/395/395 396/396/396 394/394/394
f 395/395/395 397/397/397 398/398/398 396/396/396
f 397/397/397 399/399/399 400/400/400 398/398/398
f 399/399/399 401/401/401 402/402/402 400/400/400
f 401/401/401 403/403/403 404/404/404 402/402/402
f 403/403/403 405/405/405 406/406/406 404/404/404
f 405/405/405 407/407/407 408/408/408 406/406/406
f 407/407/407 409/409/409 410/410/410 408/408/408
f 409/409/409 411/411/411 412/412/412 410/410/410
f 411/411/411 413/413/413 414/414/414 412/412/412
f 413/413/413 415/415/415 416/416/416 414/414/414
f 415/415/415 417/417/417 418/418/418 416/416/416
f 417/417/417 419/419/419 420/420/420 418/418/418
f 419/419/419 421/421/421 422/422/422 420/420/420
f 421/421/421 423/423/423 424/424/424 422/422/422
f 423/423/423 425/425/425 426/426/426 424/424/424
f 425/425/425 427/427/427 428/428/428 426/426/426
f 427/427/427 429/429/429 430/430/430 428/428/428
f 429/429/429 431/431/431 432/432/432 430/430/430
f 431/431/431 433/433/433 434/434/434 432/432/432
f 433/433/433 435/435/435 436/436/436 434/434/434
f 435/435/435 437/437/437 438/438/438 436/436/436
f 437/437/437 439/439/439 440/440/440 438/438/438
f 439/439/439 441/441/441 442/442/442 440/440/440
f 441/441/441 443/443/443 444/444/444 442/442/442
f 443/443/443 445/445/445 446/446/446 444/444/444
f 445/445/445 447/447/447 448/448/448 446/446/446
f 447/447/447 385/385/385 386/386/386 448/448/448
f 449/449/449 451/451/451 452/452/452 450/450/450
f 451/451/451 453/453/453 454/454/454 452/452/452
f 453/453/453 455/455/455 456/456/456 454/454/454
f 455/455/455 457/457/457 458/458/458 456/456/456
f 457/457/457 459/459/459 460/460/460 458/458/458
f 459/459/459 461/461/461 462/462/462 460/460/460
f 461/461/461 463/463/463 464/464/464 462/462/462
f 463/463/463 465/465/465 466/466/466 464/464/464
f 465/465/465 467/467/467 468/468/468 466/466/466
f 467/467/467 469/469/469 470/470/470 468/468/468
f 469/469/469 471/471/471 472/472/472 470/470/470
f 471/471/471 473/473/473 474/474/474 472/472/472
f 473/473/473 475/475/475 476/476/476 474/474/474
f 475/475/475 477/477/477 478/478/478 476/476/476
f 477/477/477 479/479/479 480/480/480 478/478/478
f 479/479/479 481/481/481 482/482/482 480/480/480
f 481/481/481 483/483/483 484/484/484 482/482/482
f 483/483/483 485/485/485 486/486/486 484/484/484
f 485/485/485 487/487/487 488/488/488 486/486/486
f 487/487/487 489/489/489 490/490/490 488/488/488
f 489/489/489 491/491/491 492/492/492 490/490/490
f 491/491/491 493/493/493 494/494/494 492/492/492
f 493/493/493 495/495/495 496/496/496 494/494/494
f 495/495/495 497/497/497 498/498/498 496/496/496
f 497/497/497 499/499/499 500/500/500 498/498/498
f 499/499/499 501/501/501 502/502/502 500/500/500
f 501/501/501 503/503/503 504/504/504 502/502/502
f 503/503/503 505/505/505 506/506/506 504/504/504
f 505/505/505 507/507/507 508/508/508 506/506/506
f 507/507/507 509/509/509 510/510/510 508/508/508
f 509/509/509 511/511/511 512/512/512 510/510/510
f 511/511/511 449/449/449 450/450/450 512/512/512
f 513/513/513 515/515/515 516/516/516 514/514/514
f 515/515/515 517/517/517 518/518/518 516/516/516
f 517/517/517 519/519/519 520/520/520 518/518/518
f 519/519/519 521/521/521 522/522/522 520/520/520
f 521/521/521 523/523/523 524/524/524 522/522/522
f 523/523/523 525/525/525 526/526/526 524/524/524
f 525/525/525 527/527/527 528/528/528 526/526/526
f 527/527/527 529/529/529 530/530/530 528/528/528
f 529/529/529 531/531/531 532/532/532 530/530/530
f 531/531/531 533/533/533 534/534/534 532/532/532
f 533/533/533 535/535/535 536/536/536 534/534/534
f 535/535/535 537/537/537 538/538/538 536/536/536
f 537/537/537 539/539/539 540/540/540 538/538/538
f 539/539/539 541/541/541 542/542/542 540/540/540
f 541/541/541 543/543/543 544/544/544 542/542/542
f 543/543/543 545/545/545 546/546/546 544/544/544
f 545/545/545 547/547/547 548/548/548 546/546/546
f 547/547/547 549/549/549 550/550/550 548/548/548
f 549/549/549 551/551/551 552/552/552 550/550/550
f 551/551/551 553/553/553 554/554/554 552/552/552
f 553/553/553 555/555/555 556/556/556 554/554/554
f 555/555/555 557/557/557 558/558/558 556/556/556
f 557/557/557 559/559/559 560/560/560 558/558/558
f 559/559/559 561/561/561 562/562/562 560/560/560
f 561/561/561 563/563/563 564/564/564 562/562/562
f 563/563/563 565/565/565 566/566/566 564/564/564
f 565/565/565 567/567/567 568/568/568 566/566/566
f 567/567/567 569/569/569 570/570/570 568/568/568
f 569/569/569 571/571/571 572/572/572 570/570/570
f 571/571/571 573/573/573 574/574/574 572/572/572
f 573/573/573 575/575/575 576/576/576 574/574/574
f 575/575/575 513/513/513 514/514/514 576/576/576
f 577/577/577 579/579/579 580/580/580 578/578/578
f 579/579/579 581/581/581 582/582/582 580/580/580
f 581/581/581 583/583/583 584/584/584 582/582/582
f 583/583/583 585/585/585 586/586/586 584/584/584
f 585/585/585 587/587/587 588/588/588 586/586/586
f 587/587/587 589/589/589 590/590/590 588/588/588
f 589/589/589 591/591/591 592/592/592 590/590/590
f 591/591/591 593/593/593 594/594/594 592/592/592
f 593/593/593 595/595/595 596/596/596 594/594/594
f 595/595/595 597/597/597 598/598/598 596/596/596
f 597/597/597 599/599/599 600/600/600 598/598/598
f 599/599/599 601/601/601 602/602/602 600/600/600
f 601/601/601 603/603/603 604/604/604 602/602/602
f 603/603/603 605/605/605 606/606/606 604/604/604
f 605/605/605 607/607/607 608/608/608 606/606/606
f 607/607/607 609/609/609 610/610/610 608/608/608
f 609/609/609 611/611/611 612/612/612 610/610/610
f 611/611/611 613/613/613 614/614/614 612/612/612
f 613/613/613 615/615/615 616/616/616 614/614/614
f 615/615/615 617/617/617 618/618/618 616/616/616
f 617/617/617 619/619/619 620/620/620 618/618/618
f 619/619/619 621/621/621 622/622/622 620/620/620
f 621/621/621 623/623/623 624/624/624 622/622/622
f 623/623/623 625/625/625 626/626/626 624/624/624
f 625/625/625 627/627/627 628/628/628 626/626/626
f 627/627/627 629/629/629 630/630/630 628/628/628
f 629/629/629 631/631/631 632/632/632 630/630/630
f 631/631/631 633/633/633 634/634/634 632/632/632
f 633/633/633 635/635/635 636/636/636 634/634/634
f 635/635/635 637/637/637 638/638/638 636/636/636
f 637/637/637 639/639/639 640/640/640 638/638/638
f 639/639/639 577/577/577 578/578/578 640/640/640
f 641/641/641 643/643/643 644/644/644 642/642/642
f 643/643/643 645/645/645 646/646/646 644/644/644
f 645/645/645 647/647/647 648/648/648 646/646/646
f 647/647/647 649/649/649 650/650/650 648/648/648
f 649/649/649 651/651/651 652/652/652 650/650/650
f 651/651/651 653/653/653 654/654/654 652/652/652
f 653/653/653 655/655/655 656/656/656 654/654/654
f 655/655/655 657/657/657 658/658/658 656/656/656
f 657/657/657 659/659/659 660/660/660 658/658/658
f 659/659/659 661/661/661 662/662/662 660/660/660
f 661/661/661 663/663/663 664/664/664 662/662/662
f 663/663/663 665/665/665 666/666/666 664/664/664
f 665/665/665 667/667/667 668/668/668 666/666/666
f 667/667/667 669/669/669 670/670/670 668/668/668
f 669/669/669 671/671/671 672/672/672 670/670/670
f 671/671/671 673/673/673 674/674/674 672/672/672
f 673/673/673 675/675/675 676/676/676 674/674/674
f 675/675/675 677/677/677 678/678/678 676/676/676
f 677/677/677 679/679/679 680/680/680 678/678/678
f 679/679/679 681/681/681 682/682/682 680/680/680
f 681/681/681 683/683/683 684/684/684 682/682/682
f 683/683/683 685/685/685 686/686/686 684/684/684
f 685/685/685 687/687/687 688/688/688 686/686/686
f 687/687/687 689/689/689 690/690/690 688/688/688
f 689/689/689 691/691/691 692/692/692 690/690/690
f 691/691/691 693/693/693 694/694/694 692/692/692
f 693/693/693 695/695/695 696/696/696 694/694/694
f 695/695/695 697/697/697 698/698/698 696/696/696
f 697/697/697 699/699/699 700/700/700 698/698/698
f 699/699/699 701/701/701 702/702/702 700/700/700
f 701/701/701 703/703/703 704/704/704 702/702/702
f 703/703/703 641/641/641 642/642/642 704/704/704
f 705/705/705 707/707/707 708/708/708 706/706/706
f 707/707/707 709/709/709 710/710/710 708/708/708
f 709/709/709 711/711/711 712/712/712 710/710/710
f 711/711/711 713/713/713 714/714/714 712/712/712
f 713/713/713 715/715/715 716/716/716 714/714/714
f 715/715/715 717/717/717 718/718/718 716/716/716
f 717/717/717 719/719/719 720/720/720 718/718/718
f 719/719/719 721/721/721 722/722/722 720/720/720
f 721/721/721 723/723/723 724/724/724 722/722/722
f 723/723/723 725/725/725 726/726/726 724/724/724
f 725/725/725 727/727/727 728/728/728 726/726/726
f 727/727/727 729/729/729 730/730/730 728/728/728
f 729/729/729 731/731/731 732/732/732 730/730/730
f 731/731/731 733/733/733 734/734/734 732/732/732
f 733/733/733 735/735/735 736/736/736 734/734/734
f 735/735/735 737/737/737 738/738/738 736/736/736
f 737/737/737 739/739/739 740/740/740 738/738/738
f 739/739/739 741/741/741 742/742/742 740/740/740
f 741/741/741 743/743/743 744/744/744 742/742/742
f 743/743/743 745/745/745 746/746/746 744/744/744
f 745/745/745 747/747/747 748/748/748 746/746/746
f 747/747/747 749/749/749 750/750/750 748/748/748
f 749/749/749 751/751/751 752/752/752 750/750/750
f 751/751/751 753/753/753 754/754/754 752/752/752
f 753/753/753 755/755/755 756/756/756 754/754/754
f 755/755/755 757/757/757 758/758/758 756/756/756
f 757/757/757 759/759/759 760/760/760 758/758/758
f 759/759/759 761/761/761 762/762/762 760/760/760
f 761/761/761 763/763/763 764/764/764 762/762/762
f 763/763/763 765/765/765 766/766/766 764/764/764
f 765/765/765 767/767/767 768/768/768 766/766/766
f 767/767/767 705/705/705 706/706/706 768/768/768
# 384 polygons
